<?xml version="1.0" encoding="UTF-8" standalone="no"?>
<!-- Generator: Adobe Illustrator 22.1.0, SVG Export Plug-In . SVG Version: 6.00 Build 0)  -->

<svg
   xmlns:dc="http://purl.org/dc/elements/1.1/"
   xmlns:cc="http://creativecommons.org/ns#"
   xmlns:rdf="http://www.w3.org/1999/02/22-rdf-syntax-ns#"
   xmlns:svg="http://www.w3.org/2000/svg"
   xmlns="http://www.w3.org/2000/svg"
   xmlns:sodipodi="http://sodipodi.sourceforge.net/DTD/sodipodi-0.dtd"
   xmlns:inkscape="http://www.inkscape.org/namespaces/inkscape"
   version="1.1"
   id="Ebene_1"
   x="0px"
   y="0px"
   viewBox="0 0 429.82001 168.09003"
   style="enable-background:new 0 0 429.82001 168.09003;"
   xml:space="preserve"
   sodipodi:docname="dorf.svg"
   inkscape:version="0.92.2 5c3e80d, 2017-08-06"><metadata
     id="metadata427"><rdf:RDF><cc:Work
         rdf:about=""><dc:format>image/svg+xml</dc:format><dc:type
           rdf:resource="http://purl.org/dc/dcmitype/StillImage" /></cc:Work></rdf:RDF></metadata><defs
     id="defs425" /><sodipodi:namedview
     pagecolor="#ffffff"
     bordercolor="#666666"
     borderopacity="1"
     objecttolerance="10"
     gridtolerance="10"
     guidetolerance="10"
     inkscape:pageopacity="0"
     inkscape:pageshadow="2"
     inkscape:window-width="1750"
     inkscape:window-height="825"
     id="namedview423"
     showgrid="false"
     inkscape:zoom="0.67004792"
     inkscape:cx="214.91"
     inkscape:cy="84.045013"
     inkscape:window-x="0"
     inkscape:window-y="0"
     inkscape:window-maximized="0"
     inkscape:current-layer="Ebene_1" /><style
     type="text/css"
     id="style2">
	.st0{fill:#FFDA9C;}
	.st1{fill:#FFF9BB;}
	.st2{fill:#FFEB97;}
	.st3{fill:#FAD2A3;}
	.st4{opacity:0.25;}
	.st5{fill:#FF8562;}
	.st6{fill:#FFF4DB;}
	.st7{fill:#F26E64;}
	.st8{fill:#FFFCEC;}
	.st9{fill:#FFF1A9;}
	.st10{fill:#63A0B5;}
	.st11{fill:#4185A6;}
	.st12{fill:#EBD7BD;}
	.st13{fill:#E8A271;}
	.st14{fill:#B66E64;}
	.st15{fill:#69BE5D;}
	.st16{fill:#9DC85C;}
	.st17{fill:#996459;}
</style><rect
     class="st0"
     width="429.82001"
     height="168.09003"
     id="rect4" /><rect
     class="st1"
     width="429.82001"
     height="168.09003"
     id="rect6" /><g
     id="g10"><polygon
       class="st2"
       points="429.82001,66.89001 429.82001,107.95001 386.76001,109.78003 378.63,110.13 267.54999,114.87    262.53003,115.08002 257.19,114.40002 216.53998,109.23999 196.71997,106.71997 160.45001,102.10999 120.91998,97.09003    113.83002,96.19 109.58002,95.65002 103.73999,94.90997 101.79999,94.65997 99.89001,94.41998 91.21002,93.32001    90.27002,93.20001 76.73999,91.47998 76.29999,91.41998 68.16998,90.39001 50.96002,85.81 0,72.22998 0,42.45001 2.25,40.22998    16.01001,53.78003 31.47998,53.78003 31.47998,40.79999 84.42999,40.79999 84.42999,63.40002 214,63.40002 216.53998,60.90002    225.22998,52.34003 246.39001,31.5 262.32001,47.19 267.54999,52.34003 405.25,52.34003 405.25,78.46997 423.09998,78.46997    423.09998,66.89001  "
       id="polygon8" /></g><g
     id="g14"><rect
       y="93.53003"
       class="st3"
       width="76.29999"
       height="74.56"
       id="rect12" /></g><g
     class="st4"
     id="g18"><rect
       y="93.65002"
       class="st5"
       width="61"
       height="9.17999"
       id="rect16" /></g><g
     id="g22"><rect
       x="76.29999"
       y="18.20001"
       class="st6"
       width="140.23999"
       height="149.89001"
       id="rect20" /></g><g
     id="g26"><rect
       x="76.3022"
       y="18.19964"
       class="st7"
       width="140.23373"
       height="30.13349"
       id="rect24" /></g><g
     id="g30"><rect
       x="378.63"
       y="116.71997"
       class="st6"
       width="51.19"
       height="51.37006"
       id="rect28" /></g><g
     id="g34"><rect
       x="257.19"
       y="55.87"
       class="st3"
       width="121.44"
       height="112.22003"
       id="rect32" /></g><g
     class="st4"
     id="g38"><rect
       x="257.18979"
       y="55.86651"
       class="st5"
       width="121.44173"
       height="9.1813"
       id="rect36" /></g><g
     id="g42"><rect
       x="160.45001"
       y="93.53003"
       class="st8"
       width="107.09998"
       height="74.56"
       id="rect40" /></g><g
     id="g46"><path
       class="st9"
       d="M409.34998,12.40002h-45.17999c0-6.62,5.44-11.98004,12.16003-11.98004   c1.01996,0,1.98999,0.16003,2.92999,0.39001c0.26001-0.27997,0.53998-0.56,0.82001-0.81H403.94   C407.27002,3.10999,409.34998,7.52002,409.34998,12.40002z"
       id="path44" /></g><g
     id="g50"><polygon
       class="st7"
       points="353.32693,25.73302 282.49438,25.73302 254.16136,55.86651 381.65903,55.86651  "
       id="polygon48" /></g><g
     id="g64"><g
       id="g54"><rect
         x="183.40041"
         y="116.72393"
         class="st10"
         width="22.94948"
         height="30.13349"
         id="rect52" /></g><g
       id="g58"><path
         class="st11"
         d="M181.48999,114.84003v33.89996h26.77002v-33.89996H181.48999z M204.44,144.97998h-19.13v-26.37h19.13    V144.97998z"
         id="path56" /></g><g
       id="g62"><rect
         x="183.40041"
         y="122.37583"
         class="st11"
         width="22.94948"
         height="3.76669"
         id="rect60" /></g></g><g
     id="g78"><g
       id="g68"><rect
         x="221.65016"
         y="116.72393"
         class="st10"
         width="22.94948"
         height="30.13349"
         id="rect66" /></g><g
       id="g72"><path
         class="st11"
         d="M219.73999,114.84003v33.89996h26.77002v-33.89996H219.73999z M242.69,144.97998h-19.13v-26.37h19.13    V144.97998z"
         id="path70" /></g><g
       id="g76"><rect
         x="221.65016"
         y="122.37583"
         class="st11"
         width="22.94948"
         height="3.76669"
         id="rect74" /></g></g><g
     id="g82"><polygon
       class="st7"
       points="236.94951,52.33524 214.00003,52.33524 191.05054,52.33524 152.80078,97.53548 275.19925,97.53548     "
       id="polygon80" /></g><g
     id="g86"><rect
       x="160.45001"
       y="166.97998"
       class="st12"
       width="107.09998"
       height="1.11005"
       id="rect84" /></g><g
     id="g90"><rect
       x="76.29999"
       y="156.03998"
       class="st13"
       width="84.15002"
       height="12.05005"
       id="rect88" /></g><g
     class="st4"
     id="g94"><rect
       x="160.45093"
       y="97.53548"
       class="st5"
       width="107.0982"
       height="9.1813"
       id="rect92" /></g><g
     class="st4"
     id="g98"><rect
       x="76.3022"
       y="47.74459"
       class="st5"
       width="140.23373"
       height="9.1813"
       id="rect96" /></g><g
     id="g112"><g
       id="g102"><rect
         x="283.16769"
         y="116.72393"
         class="st10"
         width="17.21186"
         height="30.13349"
         id="rect100" /></g><g
       id="g106"><path
         class="st11"
         d="M281.26001,114.84003v33.89996h21.02997v-33.89996H281.26001z M298.46997,144.97998h-13.38995v-26.37    h13.38995V144.97998z"
         id="path104" /></g><g
       id="g110"><rect
         x="283.16959"
         y="122.37583"
         class="st11"
         width="17.21186"
         height="3.76669"
         id="rect108" /></g></g><g
     id="g126"><g
       id="g116"><rect
         x="309.30475"
         y="116.72393"
         class="st10"
         width="17.21189"
         height="30.13349"
         id="rect114" /></g><g
       id="g120"><path
         class="st11"
         d="M307.39001,114.84003v33.89996h21.03998v-33.89996H307.39001z M311.21002,118.60999h13.38995v26.37    h-13.38995V118.60999z"
         id="path118" /></g><g
       id="g124"><rect
         x="309.30188"
         y="122.37583"
         class="st11"
         width="17.21186"
         height="3.76669"
         id="rect122" /></g></g><g
     id="g140"><g
       id="g130"><rect
         x="335.44174"
         y="116.72393"
         class="st10"
         width="17.21189"
         height="30.13349"
         id="rect128" /></g><g
       id="g134"><path
         class="st11"
         d="M333.53003,114.84003v33.89996h21.03998v-33.89996H333.53003z M350.73999,144.97998h-13.39001v-26.37    h13.39001V144.97998z"
         id="path132" /></g><g
       id="g138"><rect
         x="335.44174"
         y="122.37583"
         class="st11"
         width="17.21189"
         height="3.76669"
         id="rect136" /></g></g><g
     id="g154"><g
       id="g144"><rect
         y="116.71997"
         class="st10"
         width="7.09003"
         height="30.14001"
         id="rect142" /></g><g
       id="g148"><path
         class="st11"
         d="M0,114.84003v3.76996h5.16998v26.37H0v3.76001h9v-33.89996H0z"
         id="path146" /></g><g
       id="g152"><rect
         y="122.38"
         class="st11"
         width="7.09003"
         height="3.76001"
         id="rect150" /></g></g><g
     id="g168"><g
       id="g158"><rect
         x="16.01356"
         y="116.72393"
         class="st10"
         width="17.21187"
         height="30.13349"
         id="rect156" /></g><g
       id="g162"><path
         class="st11"
         d="M14.09998,114.84003v33.89996h21.04004v-33.89996H14.09998z M31.31,144.97998h-13.38v-26.37h13.38V144.97998    z"
         id="path160" /></g><g
       id="g166"><rect
         x="16.01544"
         y="122.37583"
         class="st11"
         width="17.21187"
         height="3.76669"
         id="rect164" /></g></g><g
     id="g182"><g
       id="g172"><rect
         x="42.15059"
         y="116.72393"
         class="st10"
         width="17.21187"
         height="30.13349"
         id="rect170" /></g><g
       id="g176"><path
         class="st11"
         d="M40.23999,114.84003v33.89996h21.03003v-33.89996H40.23999z M57.45001,144.97998H44.06v-26.37h13.39001    V144.97998z"
         id="path174" /></g><g
       id="g180"><rect
         x="42.14683"
         y="122.37583"
         class="st11"
         width="17.21187"
         height="3.76669"
         id="rect178" /></g></g><g
     id="g226"><g
       id="g196"><g
         id="g186"><rect
           x="283.16769"
           y="74.69994"
           class="st10"
           width="17.21186"
           height="22.60012"
           id="rect184" /></g><g
         id="g190"><path
           class="st11"
           d="M281.26001,72.82001v26.35999h21.02997V72.82001H281.26001z M298.46997,95.41998h-13.38995V76.58002     h13.38995V95.41998z"
           id="path188" /></g><g
         id="g194"><rect
           x="283.16959"
           y="80.34997"
           class="st11"
           width="17.21186"
           height="3.76669"
           id="rect192" /></g></g><g
       id="g210"><g
         id="g200"><rect
           x="309.30475"
           y="74.69994"
           class="st10"
           width="17.21189"
           height="22.60012"
           id="rect198" /></g><g
         id="g204"><path
           class="st11"
           d="M307.39001,72.82001v26.35999h21.03998V72.82001H307.39001z M311.21002,76.58002h13.38995v18.83997     h-13.38995V76.58002z"
           id="path202" /></g><g
         id="g208"><rect
           x="309.30188"
           y="80.34997"
           class="st11"
           width="17.21186"
           height="3.76669"
           id="rect206" /></g></g><g
       id="g224"><g
         id="g214"><rect
           x="335.44174"
           y="74.69994"
           class="st10"
           width="17.21189"
           height="22.60012"
           id="rect212" /></g><g
         id="g218"><path
           class="st11"
           d="M333.53003,72.82001v26.35999h21.03998V72.82001H333.53003z M350.73999,95.41998h-13.39001V76.58002     h13.39001V95.41998z"
           id="path216" /></g><g
         id="g222"><rect
           x="335.44174"
           y="80.34997"
           class="st11"
           width="17.21189"
           height="3.76669"
           id="rect220" /></g></g></g><g
     id="g230"><rect
       x="267.54999"
       y="161.96002"
       class="st14"
       width="111.08002"
       height="6.13"
       id="rect228" /></g><g
     id="g240"><g
       id="g234"><path
         class="st15"
         d="M316.08002,168.09003H291.62c2.79999-2.14001,6.17999-3.56,9.88-3.98004    c0.77002-0.08997,1.54999-0.14001,2.34998-0.14001c1.47003,0,2.90002,0.16003,4.28003,0.47003    C311.07001,165.06,313.77002,166.33002,316.08002,168.09003z"
         id="path232" /></g><g
       id="g238"><path
         class="st16"
         d="M324.32001,168.09003h-8.28998c-2.34003-1.76001-5.08002-3-8.07001-3.62006    c0.06-0.00995,0.10999-0.01996,0.16998-0.02997c1.28998-0.27002,2.58997-0.47003,3.95001-0.47003    C316.69,163.96997,320.92999,165.51001,324.32001,168.09003z"
         id="path236" /></g></g><g
     id="g244"><rect
       x="378.63"
       y="97.53998"
       class="st7"
       width="51.19"
       height="19.17999"
       id="rect242" /></g><g
     id="g258"><g
       id="g248"><rect
         x="388.75"
         y="133.32001"
         class="st10"
         width="41.07001"
         height="21.67999"
         id="rect246" /></g><g
       id="g252"><path
         class="st11"
         d="M386.84003,131.44v25.45001h42.97998V153.12h-39.16003v-17.91998h39.16003V131.44H386.84003z"
         id="path250" /></g><g
       id="g256"><rect
         x="409.66904"
         y="133.319"
         class="st11"
         width="3.82508"
         height="21.68388"
         id="rect254" /></g></g><g
     id="g262"><rect
       x="378.63156"
       y="86"
       class="st7"
       width="8.1285"
       height="30.72393"
       id="rect260" /></g><g
     id="g266"><rect
       x="76.3022"
       y="9.52591"
       class="st7"
       width="8.12851"
       height="26.21425"
       id="rect264" /></g><g
     id="g270"><rect
       x="68.17463"
       y="53.78447"
       class="st7"
       width="8.12851"
       height="26.21425"
       id="rect268" /></g><g
     id="g274"><rect
       x="107.57229"
       y="3.83915"
       class="st14"
       width="10.75765"
       height="25.71423"
       id="rect272" /></g><g
     id="g278"><rect
       x="174.50914"
       y="3.83915"
       class="st14"
       width="10.75765"
       height="25.71423"
       id="rect276" /></g><g
     id="g282"><rect
       x="208.40837"
       y="9.52591"
       class="st7"
       width="8.12851"
       height="26.21425"
       id="rect280" /></g><g
     class="st4"
     id="g286"><rect
       x="378.63"
       y="116.71997"
       class="st5"
       width="51.19"
       height="9.19"
       id="rect284" /></g><g
     id="g300"><g
       id="g290"><rect
         x="101.80173"
         y="115.076"
         class="st10"
         width="17.21187"
         height="30.13349"
         id="rect288" /></g><g
       id="g294"><path
         class="st11"
         d="M99.89001,113.19v33.90002h21.02997V113.19H99.89001z M117.09998,143.33002h-13.38995v-26.37h13.38995    V143.33002z"
         id="path292" /></g><g
       id="g298"><rect
         x="101.79985"
         y="120.72791"
         class="st11"
         width="17.21187"
         height="3.76669"
         id="rect296" /></g></g><g
     id="g314"><g
       id="g304"><rect
         x="132.72058"
         y="115.076"
         class="st10"
         width="17.21187"
         height="30.13349"
         id="rect302" /></g><g
       id="g308"><path
         class="st11"
         d="M130.81,113.19v33.90002h21.03003V113.19H130.81z M148.02002,143.33002H134.63v-26.37h13.39001V143.33002z"
         id="path306" /></g><g
       id="g312"><rect
         x="132.72058"
         y="120.72791"
         class="st11"
         width="17.21187"
         height="3.76669"
         id="rect310" /></g></g><g
     id="g328"><g
       id="g318"><rect
         x="101.80173"
         y="73.05202"
         class="st10"
         width="17.21187"
         height="22.60012"
         id="rect316" /></g><g
       id="g322"><path
         class="st11"
         d="M99.89001,71.16998v26.37h21.02997v-26.37H99.89001z M103.71002,93.77002V74.94h13.38995v18.83002H103.71002    z"
         id="path320" /></g><g
       id="g326"><rect
         x="101.79985"
         y="78.70204"
         class="st11"
         width="17.21187"
         height="3.76669"
         id="rect324" /></g></g><g
     id="g342"><g
       id="g332"><rect
         x="132.72058"
         y="73.05202"
         class="st10"
         width="17.21187"
         height="22.60012"
         id="rect330" /></g><g
       id="g336"><path
         class="st11"
         d="M130.81,71.16998v26.37h21.03003v-26.37H130.81z M148.02002,93.77002H134.63V74.94h13.39001V93.77002z"
         id="path334" /></g><g
       id="g340"><rect
         x="132.72058"
         y="78.70204"
         class="st11"
         width="17.21187"
         height="3.76669"
         id="rect338" /></g></g><g
     id="g346"><rect
       y="63.40002"
       class="st7"
       width="76.29999"
       height="30.13"
       id="rect344" /></g><g
     id="g350"><rect
       y="161.96002"
       class="st14"
       width="76.29999"
       height="6.13"
       id="rect348" /></g><g
     id="g364"><g
       id="g354"><path
         class="st17"
         d="M73.47998,143.22998v24.86005h-7.27997v-24.86005c0-1.97998,1.63-3.57996,3.64001-3.57996    C71.84998,139.65002,73.47998,141.25,73.47998,143.22998z"
         id="path352" /></g><g
       id="g358"><path
         class="st15"
         d="M95.67332,131.40927c0,19.52554-11.56655,29.32553-25.83571,29.32553s-25.83571-9.8009-25.83571-29.32553    s15.82573-95.66818,25.83571-95.66818S95.67332,111.88373,95.67332,131.40927z"
         id="path356" /></g><g
       id="g362"><path
         class="st16"
         d="M69.83762,35.74016c-1.98222,0-4.19421,3.01899-6.46457,7.96088    c8.16523,12.17864,18.72985,72.34865,18.72985,89.06142c0,16.32858-7.37329,25.52118-17.1629,27.54013    c1.58859,0.27119,3.21957,0.43224,4.89764,0.43224c14.26821,0,25.83571-9.8009,25.83571-29.32553    C95.67332,111.88373,79.8476,35.74016,69.83762,35.74016z"
         id="path360" /></g></g><g
     id="g378"><g
       id="g368"><path
         class="st17"
         d="M104.94,152.15997v15.93005h-5.59998v-15.93005c0-1.51996,1.25-2.75995,2.79999-2.75995    S104.94,150.64001,104.94,152.15997z"
         id="path366" /></g><g
       id="g372"><path
         class="st15"
         d="M121.9987,143.06625c0,15.01025-8.8922,22.54457-19.8608,22.54457s-19.86079-7.53432-19.86079-22.54457    s12.1664-73.54642,19.86079-73.54642S121.9987,128.056,121.9987,143.06625z"
         id="path370" /></g><g
       id="g376"><path
         class="st16"
         d="M102.1379,69.5198c-1.52362,0-3.22427,2.32122-4.97014,6.11992    c6.27718,9.3621,14.39816,55.61794,14.39816,68.46706c0,12.55247-5.66792,19.61972-13.19376,21.1716    c1.22134,0.20813,2.47565,0.33241,3.7648,0.33241c10.96859,0,19.8608-7.53432,19.8608-22.54457    C121.99776,128.05598,109.83231,69.5198,102.1379,69.5198z"
         id="path374" /></g></g><g
     id="g382"><path
       class="st15"
       d="M305.89001,168.09003h-37.16003c1.73004-2.01001,3.81-3.74005,6.13-5.09003   c0.02002-0.02002,0.03003-0.03003,0.04999-0.03003h0.01001c0.62-0.37,1.25-0.70996,1.90002-1.00995   c1-0.47003,2.04999-0.88,3.12-1.21002c2.33002-0.72998,4.79999-1.12,7.37-1.12c3.76001,0,7.32001,0.83997,10.48999,2.33002   c1.29999,0.60999,2.54004,1.32996,3.70001,2.14996C303.13,165.25,304.60999,166.59003,305.89001,168.09003z"
       id="path380" /></g><g
     id="g392"><g
       id="g386"><path
         class="st15"
         d="M281.10999,168.09003h-37.15997c0.31-0.38,0.64996-0.75,1.01996-1.11005    c3.25-3.32001,7.47003-5.72998,12.22003-6.76996c1.71997-0.38,3.5-0.58002,5.34003-0.58002    c1.71997,0,3.39996,0.17999,5.01996,0.51001c0.08002,0.01996,0.16998,0.02997,0.25,0.04999    c1.83002,0.40002,3.58002,1,5.22003,1.77002c0.64996,0.29999,1.26996,0.63995,1.88995,1.00995h0.01001    c1.73004,0.99005,3.33002,2.20001,4.75,3.60004c0.26001,0.25,0.52002,0.51001,0.77002,0.77997    c0.02002,0.02002,0.03998,0.04004,0.04999,0.06C280.71002,167.63,280.90997,167.85999,281.10999,168.09003z"
         id="path384" /></g><g
       id="g390"><path
         class="st16"
         d="M291.15002,168.09003h-10.04004c-0.20001-0.23004-0.39996-0.46002-0.62-0.68005    c-0.01001-0.01996-0.02997-0.03998-0.04999-0.06c-0.25-0.26996-0.51001-0.52997-0.77002-0.77997    c-1.44-1.38-3.06-2.58002-4.81-3.57001c-0.65997-0.38-1.33997-0.72998-2.02997-1.03998    c-1.67004-0.76001-3.44-1.34003-5.28003-1.72003c0.08002-0.02002,0.16998-0.02997,0.25-0.04999    c1.54999-0.32001,3.12-0.56,4.77002-0.56c2.57001,0,5.03998,0.39001,7.37,1.12c1.07001,0.33002,2.12,0.73999,3.12,1.21002    C286.19,163.42999,288.94,165.53003,291.15002,168.09003z"
         id="path388" /></g></g></svg>