<?xml version="1.0" encoding="UTF-8" standalone="no"?>
<!-- Generator: Adobe Illustrator 22.1.0, SVG Export Plug-In . SVG Version: 6.00 Build 0)  -->

<svg
   xmlns:dc="http://purl.org/dc/elements/1.1/"
   xmlns:cc="http://creativecommons.org/ns#"
   xmlns:rdf="http://www.w3.org/1999/02/22-rdf-syntax-ns#"
   xmlns:svg="http://www.w3.org/2000/svg"
   xmlns="http://www.w3.org/2000/svg"
   xmlns:sodipodi="http://sodipodi.sourceforge.net/DTD/sodipodi-0.dtd"
   xmlns:inkscape="http://www.inkscape.org/namespaces/inkscape"
   version="1.1"
   id="Ebene_1"
   x="0px"
   y="0px"
   viewBox="0 0 429.82001 168.09003"
   style="enable-background:new 0 0 429.82001 168.09003;"
   xml:space="preserve"
   sodipodi:docname="see.svg"
   inkscape:version="0.92.2 5c3e80d, 2017-08-06"><metadata
     id="metadata113"><rdf:RDF><cc:Work
         rdf:about=""><dc:format>image/svg+xml</dc:format><dc:type
           rdf:resource="http://purl.org/dc/dcmitype/StillImage" /></cc:Work></rdf:RDF></metadata><defs
     id="defs111" /><sodipodi:namedview
     pagecolor="#ffffff"
     bordercolor="#666666"
     borderopacity="1"
     objecttolerance="10"
     gridtolerance="10"
     guidetolerance="10"
     inkscape:pageopacity="0"
     inkscape:pageshadow="2"
     inkscape:window-width="1767"
     inkscape:window-height="856"
     id="namedview109"
     showgrid="false"
     inkscape:zoom="0.67004792"
     inkscape:cx="214.91"
     inkscape:cy="84.045013"
     inkscape:window-x="0"
     inkscape:window-y="0"
     inkscape:window-maximized="0"
     inkscape:current-layer="Ebene_1" /><style
     type="text/css"
     id="style2">
	.st0{fill:#FFDA9C;}
	.st1{fill:#B26483;}
	.st2{fill:#CE6B8A;}
	.st3{fill:#FF7998;}
	.st4{opacity:0.55;}
	.st5{fill:#9B5A6F;}
	.st6{fill:#FF4F70;}
	.st7{fill:#FFFFFF;}
	.st8{opacity:0.38;}
	.st9{fill:#FFBC94;}
	.st10{fill:#FFE6B4;}
	.st11{fill:#674447;}
</style><rect
     class="st0"
     width="429.82001"
     height="168.09003"
     id="rect4" /><rect
     class="st1"
     width="429.82001"
     height="168.09003"
     id="rect6" /><g
     id="g10"><path
       class="st2"
       d="M386.85999,83.17999c0,30.83002-8.02997,59.79999-22.10999,84.91003H61.23999   c-2.77002-4.94-5.31-10.03003-7.59998-15.26001C44.31,131.51001,39.13,107.95001,39.13,83.17999   c0-8.14001,0.56-16.14996,1.65002-24C43.70001,37.98999,50.44,18.03003,60.28998,0h305.42004   c10.63,19.46997,17.63995,41.20001,20.13,64.28003C386.52002,70.48999,386.85999,76.78998,386.85999,83.17999z"
       id="path8" /></g><g
     id="g14"><path
       class="st3"
       d="M317,83.17999c0,35.06-17.34998,66.07001-43.92999,84.91003H152.92999   c-1.67999-1.19-3.32001-2.43005-4.92999-3.73004c-4.38-3.5-8.46997-7.35999-12.22998-11.52997   c-2.96002-3.28003-5.71002-6.73999-8.23004-10.38C115.84998,125.64001,109,105.21002,109,83.17999   c0-1.97998,0.06-3.94,0.16998-5.89001c0.34003-6.19995,1.23004-12.25,2.61005-18.10999   c4.64996-19.69,14.89996-37.21997,28.97998-50.81C143.84998,5.38,147.12,2.59003,150.56,0h124.88   c7.62,5.72998,14.42999,12.47998,20.21002,20.06c9.75995,12.73999,16.62,27.81,19.63995,44.22003   C316.40997,70.40997,317,76.72998,317,83.17999z"
       id="path12" /></g><g
     class="st4"
     id="g18"><polygon
       class="st5"
       points="99.44,0 107.73999,0 106.33002,2.44  "
       id="polygon16" /></g><g
     id="g22"><rect
       y="83.17999"
       class="st6"
       width="429.82001"
       height="84.91003"
       id="rect20" /></g><g
     id="g26"><path
       class="st7"
       d="M165,83.1811c0-26.50999,21.49001-48,48-48s48,21.49001,48,48H165z"
       id="path24" /></g><g
     id="g30"><path
       class="st5"
       d="M149,29.06c0,16.63-13.48999,30.12-30.12,30.12H0V0h126.84003c5.39996,1.46997,10.19,4.40997,13.91998,8.37   C145.87,13.77002,149,21.04999,149,29.06z"
       id="path28" /></g><g
     id="g34"><path
       class="st5"
       d="M429.82001,0v64.28003H294.28003C284.72998,64.28003,277,56.54999,277,47.01001   c0-9.54004,7.72998-17.28003,17.28003-17.28003c0-3.35999,0.47998-6.59998,1.37-9.66998c2.46997-8.5,8.12-15.64001,15.56995-20.06   H429.82001z"
       id="path32" /></g><g
     class="st8"
     id="g38"><path
       class="st9"
       d="M347.66998,83.17999c0,32.19-11.28998,61.73999-30.13,84.91003H108.46002   c-3.92004-4.82001-7.51001-9.92004-10.75-15.26001c-2.04004-3.37-3.92999-6.83002-5.67004-10.38   C86.35999,130.88,82.28998,118.38,80.13,105.23999c-1.19-7.17999-1.79999-14.54999-1.79999-22.06H347.66998z"
       id="path36" /></g><g
     class="st8"
     id="g42"><path
       class="st10"
       d="M213,149.3951c36.569,0,66.21399-29.645,66.21399-66.214H146.786   C146.786,119.7501,176.431,149.3951,213,149.3951z"
       id="path40" /></g><g
     id="g60"><g
       id="g46"><polygon
         class="st11"
         points="156.96002,152.83002 148,164.35999 145.09003,168.09003 57.09998,168.09003 45.22998,152.83002       "
         id="polygon44" /></g><g
       id="g50"><path
         class="st11"
         d="M108.826,77.27509c-2.328,0-9.311,0-9.311,0v65.17701h50.65199    C150.166,142.4521,137.131,77.27509,108.826,77.27509z"
         id="path48" /></g><g
       id="g54"><path
         class="st11"
         d="M101.03,88.53709c1.92599,0,7.702,0,7.702,0v53.91502h-41.9    C66.833,142.4521,77.616,88.53709,101.03,88.53709z"
         id="path52" /></g><g
       id="g58"><rect
         x="98.86301"
         y="56.2321"
         class="st11"
         width="4.46899"
         height="96.59601"
         id="rect56" /></g></g><g
     id="g78"><g
       id="g64"><path
         class="st5"
         d="M298.24799,111.04011h-84.474l-12.314-17.384H306.94v8.69199    C306.94,107.14811,303.04901,111.04011,298.24799,111.04011z"
         id="path62" /></g><g
       id="g68"><polygon
         class="st5"
         points="210.51401,96.19111 228.26001,78.44511 295.62299,78.44511 302.14099,93.65611 278.60101,109.2291       "
         id="polygon66" /></g><g
       id="g72"><rect
         x="249.62799"
         y="73.9181"
         class="st5"
         width="14.48599"
         height="6.70001"
         id="rect70" /></g><g
       id="g76"><rect
         x="237.677"
         y="69.5431"
         class="st5"
         width="2.40601"
         height="11.07501"
         id="rect74" /></g></g></svg>