<?xml version="1.0" encoding="UTF-8" standalone="no"?>
<!-- Generator: Adobe Illustrator 22.1.0, SVG Export Plug-In . SVG Version: 6.00 Build 0)  -->

<svg
   xmlns:dc="http://purl.org/dc/elements/1.1/"
   xmlns:cc="http://creativecommons.org/ns#"
   xmlns:rdf="http://www.w3.org/1999/02/22-rdf-syntax-ns#"
   xmlns:svg="http://www.w3.org/2000/svg"
   xmlns="http://www.w3.org/2000/svg"
   xmlns:sodipodi="http://sodipodi.sourceforge.net/DTD/sodipodi-0.dtd"
   xmlns:inkscape="http://www.inkscape.org/namespaces/inkscape"
   version="1.1"
   id="Ebene_1"
   x="0px"
   y="0px"
   viewBox="0 0 429.82001 168.09003"
   style="enable-background:new 0 0 429.82001 168.09003;"
   xml:space="preserve"
   sodipodi:docname="wueste.svg"
   inkscape:version="0.92.2 5c3e80d, 2017-08-06"><metadata
     id="metadata4476"><rdf:RDF><cc:Work
         rdf:about=""><dc:format>image/svg+xml</dc:format><dc:type
           rdf:resource="http://purl.org/dc/dcmitype/StillImage" /></cc:Work></rdf:RDF></metadata><defs
     id="defs4474" /><sodipodi:namedview
     pagecolor="#ffffff"
     bordercolor="#666666"
     borderopacity="1"
     objecttolerance="10"
     gridtolerance="10"
     guidetolerance="10"
     inkscape:pageopacity="0"
     inkscape:pageshadow="2"
     inkscape:window-width="1839"
     inkscape:window-height="880"
     id="namedview4472"
     showgrid="false"
     inkscape:zoom="2.862514"
     inkscape:cx="173.04821"
     inkscape:cy="100.62144"
     inkscape:window-x="0"
     inkscape:window-y="0"
     inkscape:window-maximized="0"
     inkscape:current-layer="Ebene_1" /><style
     type="text/css"
     id="style4321">
	.st0{fill:#FFDA9C;}
	.st1{fill:#E0B587;}
	.st2{fill:#CA9F7C;}
	.st3{fill:#A07766;}
	.st4{fill:#795552;}
	.st5{fill:#E9B668;}
	.st6{opacity:0.5;}
	.st7{fill:#674447;}
	.st8{fill:#8C665B;}
</style><g
     id="g4441"><g
       id="g4325"><path
         class="st0"
         d="M247.78003,168.09003H0V0h429.82001v168.09003H247.78998"
         id="path4323" /></g><g
       id="g4329"><path
         class="st1"
         d="M285.40302,103c-13.33301,0-25.66699-12.64101-43.66699-12.64101S208.40501,103,195.90501,103    s-19.83501,8-19.83501,8H275.737L285.40302,103z"
         id="path4327" /></g><g
       id="g4333"><path
         class="st2"
         d="M248.07001,103c-12.5,0-46-16-64-16s-43.5,16-56,16s-16,8-16,8h136V103z"
         id="path4331" /></g><g
       id="g4337"><path
         class="st3"
         d="M376.07001,23c-18-4.5-47.995-6.646-72,16c-26.5,25-46.33301,72-88,72h144l24-72L376.07001,23L376.07001,23z"
         id="path4335" /></g><g
       id="g4341"><path
         class="st4"
         d="M376.07001,23c-3.18799-0.797-6.76599-1.511-10.60599-2.035    c-12.49701,1.84201-25.65903,6.964-37.39401,18.035c-26.5,25-46.33301,72-88,72h120l24-72L376.07001,23z"
         id="path4339" /></g><g
       id="g4345"><path
         class="st3"
         d="M0.00001,27v15.61l56.07,20.39l5.95,1.92l40.97,13.26h0.01l37.66,12.18c-0.01999-0.01-0.03-0.02-0.05-0.03    C97.72001,64.57,88.34,27.26,65.00001,0h-20.66h-44.34v15.38C0.00001,15.38,0.00001,27,0.00001,27z"
         id="path4343" /></g><g
       id="g4349"><path
         class="st4"
         d="M120.07001,90.35999L80.54999,77.58002h-0.01001L35.47998,63L0,50.09998V0h44.34003    C56.39001,14.06,64.72998,30.78998,75.87,47.23999c7.25,10.70001,15.69,21.29004,27.12,30.94H103    C108.04999,82.45001,113.69,86.53003,120.07001,90.35999z"
         id="path4347" /></g><g
       id="g4353"><path
         class="st5"
         d="M247.78003,168.09003H0V111h429.82001v57.09003H247.78998"
         id="path4351" /></g><g
       class="st6"
       id="g4357"><path
         class="st0"
         d="M247.78003,168.09003h-113.87C92.89001,161.69,54.52002,152.02002,20.79999,144.38    c-3.19995-0.72998-6.34998-1.42999-9.45996-2.10999c-3.85004-0.85004-7.63-1.66003-11.34003-2.42999V111h429.82001v29.32001    c-5.53003,1.16998-11.20001,2.41998-17.02002,3.72998c-3.10999,0.70001-6.26996,1.41998-9.45996,2.16003    c-31.75,7.29999-67.30005,15.97998-105.11005,21.88h-50.44"
         id="path4355" /></g><g
       id="g4361"><path
         class="st7"
         d="M247.78003,168.09003h-63.42999L216.07001,111c0,0,0.02002,0.03998,0.06,0.10999l0.01001,0.01001l0.06,0.12    l0.22998,0.41998l0.04999,0.08002l0.33002,0.60004l0.10004,0.17999l1.54999,2.77997c0.12,0.21002,0.23999,0.42999,0.37,0.66003    l0.16998,0.32l0.22003,0.38995l0.47998,0.87l0.13,0.22003l0.12,0.21997c0.04999,0.08002,0.08997,0.16003,0.14001,0.25    l0.19995,0.37l0.02002,0.04004l0.58002,1.03998l0.33002,0.59003l1.60999,2.89996l0.40997,0.73999l0.36005,0.65002l0.37994,0.67999    l3.20001,5.76l0.73004,1.32001l0.62994,1.13l0.45001,0.81l1.08002,1.95001l3.06,5.5l1.28003,2.31L235.37,145.75l0.84003,1.51001    l0.13,0.22998l0.12,0.21002c0.21997,0.39996,0.45001,0.81,0.66998,1.21997l0.52002,0.92999l0.41998,0.76001l0.95001,1.70001    l1.95996,3.53998l1,1.80005l4.83002,8.67999l0.02002,0.03998c0.12,0.21002,0.23999,0.41998,0.34998,0.64001    c0.13,0.22998,0.26001,0.45996,0.39001,0.69L247.78003,168.09003z"
         id="path4359" /></g><g
       id="g4367"><path
         class="st8"
         d="M247.78003,168.09003h-63.42999L216.07001,111c0,0,0.02002,0.03998,0.06,0.10999l0.01001,0.01001l0.06,0.12    l0.22998,0.41998l0.04999,0.08002l0.33002,0.60004l0.10004,0.17999l1.54999,2.77997l0.20996,0.39001    c0.11005,0.19,0.22003,0.39001,0.33002,0.59003l0.22003,0.38995l0.47998,0.87l0.13,0.22003l0.12,0.21997l0.13,0.25    c0.07001,0.12,0.14001,0.23999,0.20996,0.37l0.02002,0.04004l0.58002,1.03998l0.33002,0.59003l1.60999,2.89996l0.40997,0.73999    l0.36005,0.65002l0.37994,0.67999L227.17999,131l0.73004,1.32001l0.62994,1.13l0.45001,0.81l1.08002,1.95001l3.06,5.5    l1.28003,2.31L235.37,145.75l0.84003,1.51001l0.13,0.22998l0.12,0.21002l0.46997,0.83997c0.23999,0.44,0.48004,0.87,0.72003,1.31    l0.41998,0.76001l0.95001,1.70001l1.95996,3.53998l1,1.80005l4.83002,8.67999l0.02002,0.03998l0.32001,0.57001    c0.06,0.09998,0.10999,0.20001,0.16998,0.29999l0.06,0.10999l0.19,0.35004L247.78003,168.09003z"
         id="path4363" /><path
         class="st8"
         d="M247.78003,168.09003h0.00995"
         id="path4365" /></g><g
       id="g4375"><g
         id="g4373"><g
           id="g4371"><path
             class="st8"
             d="M91.57001,167v1.09003h-16V167c0-4.41998,3.58002-8,8-8S91.57001,162.58002,91.57001,167z"
             id="path4369" /></g></g></g><g
       id="g4389"><g
         id="g4381"><g
           id="g4379"><path
             class="st3"
             d="M285.40302,159c-1.63501,0-2.95801-1.32501-2.95801-2.95801v-29.58301      c0-1.634,1.323-2.95801,2.95801-2.95801s2.95801,1.32501,2.95801,2.95801v29.58301C288.362,157.67499,287.039,159,285.40302,159      z"
             id="path4377" /></g></g><g
         id="g4387"><g
           id="g4385"><path
             class="st3"
             d="M288.362,150.125h-5.91699c-4.89401,0-8.875-3.98099-8.875-8.875v-5.91699      c0-1.634,1.323-2.95801,2.95801-2.95801s2.95801,1.32501,2.95801,2.95801V141.25c0,1.63101,1.32599,2.95801,2.95801,2.95801      h5.91699c1.63199,0,2.95801-1.328,2.95801-2.95801v-8.875c0-1.634,1.323-2.95801,2.95801-2.95801      s2.95801,1.32501,2.95801,2.95801v8.875C297.237,146.14401,293.25601,150.125,288.362,150.125z"
             id="path4383" /></g></g></g><g
       id="g4393"><path
         class="st8"
         d="M200.07001,111H0V15.38c25.66998,2.34998,51.01001,15.77997,75.87,31.85999    c21.98999,14.22998,43.60004,30.53003,64.73998,43.09003c0.02002,0.01001,0.03003,0.01996,0.05005,0.02997    C144.12,92.40997,147.56,94.37,150.98999,96.19c9.65002,5.15002,19.20001,9.28998,28.64001,11.87    C186.5,109.95001,193.32001,111,200.07001,111z"
         id="path4391" /></g><g
       id="g4397"><path
         class="st8"
         d="M429.82001,0v111h-165.75c4.35999,0,8.47998-0.20001,12.38-0.59003    c56.32001-5.54999,67.77997-49.59998,96.46002-88.13995C378.69,14.5,385.16998,6.96002,392.85999,0H429.82001z"
         id="path4395" /></g><g
       id="g4407"><g
         id="g4401"><polygon
           class="st5"
           points="216.07001,111 221.26001,168.09003 217.79999,168.09003    "
           id="polygon4399" /></g><g
         id="g4405"><polygon
           class="st5"
           points="216.07001,111 214.34003,168.09003 210.88,168.09003    "
           id="polygon4403" /></g></g><g
       id="g4411"><polygon
         class="st0"
         points="216.07001,111 188.51001,168.09003 184.35004,168.09003   "
         id="polygon4409" /></g><g
       id="g4415"><polygon
         class="st0"
         points="247.78003,168.09003 243.63,168.09003 216.20001,111.23999 216.42999,111.65997 216.47998,111.73999     216.81,112.34003 216.91003,112.52002 218.46002,115.29999 218.66998,115.69 218.83002,115.96002 219,116.28003     219.22003,116.66998 219.70001,117.53998 219.83002,117.76001 219.95001,117.97998 220.08002,118.22998 220.09003,118.22998     220.28998,118.59998 220.31,118.64001 220.89001,119.67999 221.22003,120.27002 222.83002,123.16998 223.23999,123.90997     223.60004,124.56 223.97998,125.23999 227.17999,131 227.91003,132.32001 228.53998,133.45001 228.98999,134.26001     230.07001,136.21002 233.13,141.71002 234.41003,144.02002 235.37,145.75 236.21002,147.26001 236.34003,147.48999     236.46002,147.70001 236.92999,148.53998 237.13,148.91998 237.65002,149.84998 238.07001,150.60999 239.02002,152.31     240.97998,155.84998 241.97998,157.65002 246.81,166.33002 246.83002,166.37 247.15002,166.94 247.17999,167.01001     247.32001,167.23999 247.38,167.34998 247.57001,167.70001   "
         id="polygon4413" /></g><g
       id="g4419"><path
         class="st7"
         d="M160.07001,111H0V27c20.97998,9.65997,41.67999,23.90002,62.02002,37.91998    c6.20996,4.29004,12.38,8.56,18.51996,12.66003h0.01001C95.77002,87.76001,110.75,96.96997,125.47003,103.13h0.00995    C137.17999,108.03003,148.72003,111,160.07001,111z"
         id="path4417" /></g><g
       id="g4423"><path
         class="st3"
         d="M145.77501,138.14801c-1.78799,0-3.235,1.448-3.235,3.23499v6.47c0,1.78299-1.45,3.23499-3.235,3.23499    v-22.64401c0-1.78601-1.44701-3.23499-3.235-3.23499s-3.235,1.448-3.235,3.23499v16.17401c-1.785,0-3.235-1.452-3.235-3.23499    v-3.23499c0-1.78601-1.44701-3.23499-3.235-3.23499s-3.235,1.448-3.235,3.23499v3.23499c0,5.35101,4.353,9.70499,9.705,9.70499    v6.47c0,1.78601,1.44701,3.23499,3.235,3.23499s3.235-1.448,3.235-3.23499c5.351,0,9.705-4.353,9.705-9.70499v-6.47    C149.009,139.59601,147.563,138.14801,145.77501,138.14801z"
         id="path4421" /></g><g
       id="g4429"><path
         class="st8"
         d="M412.79999,139.72998v28.36005h-20.01996c-2.25-2.5-3.62-5.82001-3.62-9.45001v-4.73004    c0-2.60999,2.12-4.72998,4.72998-4.72998s4.72998,2.12,4.72998,4.72998v4.73004c0,2.59998,2.12,4.71997,4.72003,4.71997v-23.63    c0-2.60999,2.12-4.72998,4.72998-4.72998S412.79999,137.12,412.79999,139.72998z"
         id="path4425" /><path
         class="st8"
         d="M426.97998,158.64001v9.45001h-9.44995v-9.45001c0-2.60999,2.10999-4.73004,4.71997-4.73004    C424.87,153.90997,426.97998,156.03003,426.97998,158.64001z"
         id="path4427" /></g><g
       id="g4435"><path
         class="st8"
         d="M20.79999,139.72998v28.36005H0.78003C0.51001,167.78998,0.25,167.47998,0,167.15002v-17.58002    c0.58002-0.25,1.22003-0.39001,1.89001-0.39001c2.60999,0,4.72998,2.12,4.72998,4.72998v4.73004    c0,2.59998,2.12,4.71997,4.72003,4.71997v-23.63c0-2.60999,2.12-4.72998,4.72998-4.72998S20.79999,137.12,20.79999,139.72998z"
         id="path4431" /><path
         class="st8"
         d="M34.97998,158.64001v9.45001h-9.44995v-9.45001c0-2.60999,2.10999-4.73004,4.71997-4.73004    S34.97998,156.03003,34.97998,158.64001z"
         id="path4433" /></g><g
       id="g4439"><path
         class="st7"
         d="M429.82001,0v111h-141.75c55.57001,0,72.71997-32.48999,94.34003-67.03003c0,0,0-0.00995,0.00995-0.00995    C391.88,28.84998,402.19,13.34998,416.96002,0H429.82001z"
         id="path4437" /></g></g></svg>