<?xml version="1.0" encoding="utf-8"?>
<!-- Generator: Adobe Illustrator 22.1.0, SVG Export Plug-In . SVG Version: 6.00 Build 0)  -->
<svg version="1.1" id="Ebene_1" xmlns="http://www.w3.org/2000/svg" xmlns:xlink="http://www.w3.org/1999/xlink" x="0px" y="0px"
	 viewBox="0 0 429.82001 168.09003" style="enable-background:new 0 0 429.82001 168.09003;" xml:space="preserve">
<style type="text/css">
	.st0{fill:#FFDA9C;}
	.st1{fill:#FFF9BB;}
	.st2{fill:#FFEB97;}
	.st3{fill:#FAD2A3;}
	.st4{opacity:0.25;}
	.st5{fill:#FF8562;}
	.st6{fill:#FFF4DB;}
	.st7{fill:#F26E64;}
	.st8{fill:#FFFCEC;}
	.st9{fill:#FFF1A9;}
	.st10{fill:#63A0B5;}
	.st11{fill:#4185A6;}
	.st12{fill:#EBD7BD;}
	.st13{fill:#E8A271;}
	.st14{fill:#B66E64;}
	.st15{fill:#69BE5D;}
	.st16{fill:#9DC85C;}
	.st17{fill:#996459;}
</style>
<rect class="st0" width="429.82001" height="168.09003"/>
<rect class="st1" width="429.82001" height="168.09003"/>
<g>
	<polygon class="st2" points="429.82001,66.89001 429.82001,107.95001 386.76001,109.78003 378.63,110.13 267.54999,114.87 
		262.53003,115.08002 257.19,114.40002 216.53998,109.23999 196.71997,106.71997 160.45001,102.10999 120.91998,97.09003 
		113.83002,96.19 109.58002,95.65002 103.73999,94.90997 101.79999,94.65997 99.89001,94.41998 91.21002,93.32001 
		90.27002,93.20001 76.73999,91.47998 76.29999,91.41998 68.16998,90.39001 50.96002,85.81 0,72.22998 0,42.45001 2.25,40.22998 
		16.01001,53.78003 31.47998,53.78003 31.47998,40.79999 84.42999,40.79999 84.42999,63.40002 214,63.40002 216.53998,60.90002 
		225.22998,52.34003 246.39001,31.5 262.32001,47.19 267.54999,52.34003 405.25,52.34003 405.25,78.46997 423.09998,78.46997 
		423.09998,66.89001 	"/>
</g>
<g>
	<rect y="93.53003" class="st3" width="76.29999" height="74.56"/>
</g>
<g class="st4">
	<rect y="93.65002" class="st5" width="61" height="9.17999"/>
</g>
<g>
	<rect x="76.29999" y="18.20001" class="st6" width="140.23999" height="149.89001"/>
</g>
<g>
	<rect x="76.3022" y="18.19964" class="st7" width="140.23373" height="30.13349"/>
</g>
<g>
	<rect x="378.63" y="116.71997" class="st6" width="51.19" height="51.37006"/>
</g>
<g>
	<rect x="257.19" y="55.87" class="st3" width="121.44" height="112.22003"/>
</g>
<g class="st4">
	<rect x="257.18979" y="55.86651" class="st5" width="121.44173" height="9.1813"/>
</g>
<g>
	<rect x="160.45001" y="93.53003" class="st8" width="107.09998" height="74.56"/>
</g>
<g>
	<path class="st9" d="M409.34998,12.40002h-45.17999c0-6.62,5.44-11.98004,12.16003-11.98004
		c1.01996,0,1.98999,0.16003,2.92999,0.39001c0.26001-0.27997,0.53998-0.56,0.82001-0.81H403.94
		C407.27002,3.10999,409.34998,7.52002,409.34998,12.40002z"/>
</g>
<g>
	<polygon class="st7" points="353.32693,25.73302 282.49438,25.73302 254.16136,55.86651 381.65903,55.86651 	"/>
</g>
<g>
	<g>
		<rect x="183.40041" y="116.72393" class="st10" width="22.94948" height="30.13349"/>
	</g>
	<g>
		<path class="st11" d="M181.48999,114.84003v33.89996h26.77002v-33.89996H181.48999z M204.44,144.97998h-19.13v-26.37h19.13
			V144.97998z"/>
	</g>
	<g>
		<rect x="183.40041" y="122.37583" class="st11" width="22.94948" height="3.76669"/>
	</g>
</g>
<g>
	<g>
		<rect x="221.65016" y="116.72393" class="st10" width="22.94948" height="30.13349"/>
	</g>
	<g>
		<path class="st11" d="M219.73999,114.84003v33.89996h26.77002v-33.89996H219.73999z M242.69,144.97998h-19.13v-26.37h19.13
			V144.97998z"/>
	</g>
	<g>
		<rect x="221.65016" y="122.37583" class="st11" width="22.94948" height="3.76669"/>
	</g>
</g>
<g>
	<polygon class="st7" points="236.94951,52.33524 214.00003,52.33524 191.05054,52.33524 152.80078,97.53548 275.19925,97.53548 	
		"/>
</g>
<g>
	<rect x="160.45001" y="166.97998" class="st12" width="107.09998" height="1.11005"/>
</g>
<g>
	<rect x="76.29999" y="156.03998" class="st13" width="84.15002" height="12.05005"/>
</g>
<g class="st4">
	<rect x="160.45093" y="97.53548" class="st5" width="107.0982" height="9.1813"/>
</g>
<g class="st4">
	<rect x="76.3022" y="47.74459" class="st5" width="140.23373" height="9.1813"/>
</g>
<g>
	<g>
		<rect x="283.16769" y="116.72393" class="st10" width="17.21186" height="30.13349"/>
	</g>
	<g>
		<path class="st11" d="M281.26001,114.84003v33.89996h21.02997v-33.89996H281.26001z M298.46997,144.97998h-13.38995v-26.37
			h13.38995V144.97998z"/>
	</g>
	<g>
		<rect x="283.16959" y="122.37583" class="st11" width="17.21186" height="3.76669"/>
	</g>
</g>
<g>
	<g>
		<rect x="309.30475" y="116.72393" class="st10" width="17.21189" height="30.13349"/>
	</g>
	<g>
		<path class="st11" d="M307.39001,114.84003v33.89996h21.03998v-33.89996H307.39001z M311.21002,118.60999h13.38995v26.37
			h-13.38995V118.60999z"/>
	</g>
	<g>
		<rect x="309.30188" y="122.37583" class="st11" width="17.21186" height="3.76669"/>
	</g>
</g>
<g>
	<g>
		<rect x="335.44174" y="116.72393" class="st10" width="17.21189" height="30.13349"/>
	</g>
	<g>
		<path class="st11" d="M333.53003,114.84003v33.89996h21.03998v-33.89996H333.53003z M350.73999,144.97998h-13.39001v-26.37
			h13.39001V144.97998z"/>
	</g>
	<g>
		<rect x="335.44174" y="122.37583" class="st11" width="17.21189" height="3.76669"/>
	</g>
</g>
<g>
	<g>
		<rect y="116.71997" class="st10" width="7.09003" height="30.14001"/>
	</g>
	<g>
		<path class="st11" d="M0,114.84003v3.76996h5.16998v26.37H0v3.76001h9v-33.89996H0z"/>
	</g>
	<g>
		<rect y="122.38" class="st11" width="7.09003" height="3.76001"/>
	</g>
</g>
<g>
	<g>
		<rect x="16.01356" y="116.72393" class="st10" width="17.21187" height="30.13349"/>
	</g>
	<g>
		<path class="st11" d="M14.09998,114.84003v33.89996h21.04004v-33.89996H14.09998z M31.31,144.97998h-13.38v-26.37h13.38V144.97998
			z"/>
	</g>
	<g>
		<rect x="16.01544" y="122.37583" class="st11" width="17.21187" height="3.76669"/>
	</g>
</g>
<g>
	<g>
		<rect x="42.15059" y="116.72393" class="st10" width="17.21187" height="30.13349"/>
	</g>
	<g>
		<path class="st11" d="M40.23999,114.84003v33.89996h21.03003v-33.89996H40.23999z M57.45001,144.97998H44.06v-26.37h13.39001
			V144.97998z"/>
	</g>
	<g>
		<rect x="42.14683" y="122.37583" class="st11" width="17.21187" height="3.76669"/>
	</g>
</g>
<g>
	<g>
		<g>
			<rect x="283.16769" y="74.69994" class="st10" width="17.21186" height="22.60012"/>
		</g>
		<g>
			<path class="st11" d="M281.26001,72.82001v26.35999h21.02997V72.82001H281.26001z M298.46997,95.41998h-13.38995V76.58002
				h13.38995V95.41998z"/>
		</g>
		<g>
			<rect x="283.16959" y="80.34997" class="st11" width="17.21186" height="3.76669"/>
		</g>
	</g>
	<g>
		<g>
			<rect x="309.30475" y="74.69994" class="st10" width="17.21189" height="22.60012"/>
		</g>
		<g>
			<path class="st11" d="M307.39001,72.82001v26.35999h21.03998V72.82001H307.39001z M311.21002,76.58002h13.38995v18.83997
				h-13.38995V76.58002z"/>
		</g>
		<g>
			<rect x="309.30188" y="80.34997" class="st11" width="17.21186" height="3.76669"/>
		</g>
	</g>
	<g>
		<g>
			<rect x="335.44174" y="74.69994" class="st10" width="17.21189" height="22.60012"/>
		</g>
		<g>
			<path class="st11" d="M333.53003,72.82001v26.35999h21.03998V72.82001H333.53003z M350.73999,95.41998h-13.39001V76.58002
				h13.39001V95.41998z"/>
		</g>
		<g>
			<rect x="335.44174" y="80.34997" class="st11" width="17.21189" height="3.76669"/>
		</g>
	</g>
</g>
<g>
	<rect x="267.54999" y="161.96002" class="st14" width="111.08002" height="6.13"/>
</g>
<g>
	<g>
		<path class="st15" d="M316.08002,168.09003H291.62c2.79999-2.14001,6.17999-3.56,9.88-3.98004
			c0.77002-0.08997,1.54999-0.14001,2.34998-0.14001c1.47003,0,2.90002,0.16003,4.28003,0.47003
			C311.07001,165.06,313.77002,166.33002,316.08002,168.09003z"/>
	</g>
	<g>
		<path class="st16" d="M324.32001,168.09003h-8.28998c-2.34003-1.76001-5.08002-3-8.07001-3.62006
			c0.06-0.00995,0.10999-0.01996,0.16998-0.02997c1.28998-0.27002,2.58997-0.47003,3.95001-0.47003
			C316.69,163.96997,320.92999,165.51001,324.32001,168.09003z"/>
	</g>
</g>
<g>
	<rect x="378.63" y="97.53998" class="st7" width="51.19" height="19.17999"/>
</g>
<g>
	<g>
		<rect x="388.75" y="133.32001" class="st10" width="41.07001" height="21.67999"/>
	</g>
	<g>
		<path class="st11" d="M386.84003,131.44v25.45001h42.97998V153.12h-39.16003v-17.91998h39.16003V131.44H386.84003z"/>
	</g>
	<g>
		<rect x="409.66904" y="133.319" class="st11" width="3.82508" height="21.68388"/>
	</g>
</g>
<g>
	<rect x="378.63156" y="86" class="st7" width="8.1285" height="30.72393"/>
</g>
<g>
	<rect x="76.3022" y="9.52591" class="st7" width="8.12851" height="26.21425"/>
</g>
<g>
	<rect x="68.17463" y="53.78447" class="st7" width="8.12851" height="26.21425"/>
</g>
<g>
	<rect x="107.57229" y="3.83915" class="st14" width="10.75765" height="25.71423"/>
</g>
<g>
	<rect x="174.50914" y="3.83915" class="st14" width="10.75765" height="25.71423"/>
</g>
<g>
	<rect x="208.40837" y="9.52591" class="st7" width="8.12851" height="26.21425"/>
</g>
<g class="st4">
	<rect x="378.63" y="116.71997" class="st5" width="51.19" height="9.19"/>
</g>
<g>
	<g>
		<rect x="101.80173" y="115.076" class="st10" width="17.21187" height="30.13349"/>
	</g>
	<g>
		<path class="st11" d="M99.89001,113.19v33.90002h21.02997V113.19H99.89001z M117.09998,143.33002h-13.38995v-26.37h13.38995
			V143.33002z"/>
	</g>
	<g>
		<rect x="101.79985" y="120.72791" class="st11" width="17.21187" height="3.76669"/>
	</g>
</g>
<g>
	<g>
		<rect x="132.72058" y="115.076" class="st10" width="17.21187" height="30.13349"/>
	</g>
	<g>
		<path class="st11" d="M130.81,113.19v33.90002h21.03003V113.19H130.81z M148.02002,143.33002H134.63v-26.37h13.39001V143.33002z"
			/>
	</g>
	<g>
		<rect x="132.72058" y="120.72791" class="st11" width="17.21187" height="3.76669"/>
	</g>
</g>
<g>
	<g>
		<rect x="101.80173" y="73.05202" class="st10" width="17.21187" height="22.60012"/>
	</g>
	<g>
		<path class="st11" d="M99.89001,71.16998v26.37h21.02997v-26.37H99.89001z M103.71002,93.77002V74.94h13.38995v18.83002H103.71002
			z"/>
	</g>
	<g>
		<rect x="101.79985" y="78.70204" class="st11" width="17.21187" height="3.76669"/>
	</g>
</g>
<g>
	<g>
		<rect x="132.72058" y="73.05202" class="st10" width="17.21187" height="22.60012"/>
	</g>
	<g>
		<path class="st11" d="M130.81,71.16998v26.37h21.03003v-26.37H130.81z M148.02002,93.77002H134.63V74.94h13.39001V93.77002z"/>
	</g>
	<g>
		<rect x="132.72058" y="78.70204" class="st11" width="17.21187" height="3.76669"/>
	</g>
</g>
<g>
	<rect y="63.40002" class="st7" width="76.29999" height="30.13"/>
</g>
<g>
	<rect y="161.96002" class="st14" width="76.29999" height="6.13"/>
</g>
<g>
	<g>
		<path class="st17" d="M73.47998,143.22998v24.86005h-7.27997v-24.86005c0-1.97998,1.63-3.57996,3.64001-3.57996
			C71.84998,139.65002,73.47998,141.25,73.47998,143.22998z"/>
	</g>
	<g>
		<path class="st15" d="M95.67332,131.40927c0,19.52554-11.56655,29.32553-25.83571,29.32553s-25.83571-9.8009-25.83571-29.32553
			s15.82573-95.66818,25.83571-95.66818S95.67332,111.88373,95.67332,131.40927z"/>
	</g>
	<g>
		<path class="st16" d="M69.83762,35.74016c-1.98222,0-4.19421,3.01899-6.46457,7.96088
			c8.16523,12.17864,18.72985,72.34865,18.72985,89.06142c0,16.32858-7.37329,25.52118-17.1629,27.54013
			c1.58859,0.27119,3.21957,0.43224,4.89764,0.43224c14.26821,0,25.83571-9.8009,25.83571-29.32553
			C95.67332,111.88373,79.8476,35.74016,69.83762,35.74016z"/>
	</g>
</g>
<g>
	<g>
		<path class="st17" d="M104.94,152.15997v15.93005h-5.59998v-15.93005c0-1.51996,1.25-2.75995,2.79999-2.75995
			S104.94,150.64001,104.94,152.15997z"/>
	</g>
	<g>
		<path class="st15" d="M121.9987,143.06625c0,15.01025-8.8922,22.54457-19.8608,22.54457s-19.86079-7.53432-19.86079-22.54457
			s12.1664-73.54642,19.86079-73.54642S121.9987,128.056,121.9987,143.06625z"/>
	</g>
	<g>
		<path class="st16" d="M102.1379,69.5198c-1.52362,0-3.22427,2.32122-4.97014,6.11992
			c6.27718,9.3621,14.39816,55.61794,14.39816,68.46706c0,12.55247-5.66792,19.61972-13.19376,21.1716
			c1.22134,0.20813,2.47565,0.33241,3.7648,0.33241c10.96859,0,19.8608-7.53432,19.8608-22.54457
			C121.99776,128.05598,109.83231,69.5198,102.1379,69.5198z"/>
	</g>
</g>
<g>
	<path class="st15" d="M305.89001,168.09003h-37.16003c1.73004-2.01001,3.81-3.74005,6.13-5.09003
		c0.02002-0.02002,0.03003-0.03003,0.04999-0.03003h0.01001c0.62-0.37,1.25-0.70996,1.90002-1.00995
		c1-0.47003,2.04999-0.88,3.12-1.21002c2.33002-0.72998,4.79999-1.12,7.37-1.12c3.76001,0,7.32001,0.83997,10.48999,2.33002
		c1.29999,0.60999,2.54004,1.32996,3.70001,2.14996C303.13,165.25,304.60999,166.59003,305.89001,168.09003z"/>
</g>
<g>
	<g>
		<path class="st15" d="M281.10999,168.09003h-37.15997c0.31-0.38,0.64996-0.75,1.01996-1.11005
			c3.25-3.32001,7.47003-5.72998,12.22003-6.76996c1.71997-0.38,3.5-0.58002,5.34003-0.58002
			c1.71997,0,3.39996,0.17999,5.01996,0.51001c0.08002,0.01996,0.16998,0.02997,0.25,0.04999
			c1.83002,0.40002,3.58002,1,5.22003,1.77002c0.64996,0.29999,1.26996,0.63995,1.88995,1.00995h0.01001
			c1.73004,0.99005,3.33002,2.20001,4.75,3.60004c0.26001,0.25,0.52002,0.51001,0.77002,0.77997
			c0.02002,0.02002,0.03998,0.04004,0.04999,0.06C280.71002,167.63,280.90997,167.85999,281.10999,168.09003z"/>
	</g>
	<g>
		<path class="st16" d="M291.15002,168.09003h-10.04004c-0.20001-0.23004-0.39996-0.46002-0.62-0.68005
			c-0.01001-0.01996-0.02997-0.03998-0.04999-0.06c-0.25-0.26996-0.51001-0.52997-0.77002-0.77997
			c-1.44-1.38-3.06-2.58002-4.81-3.57001c-0.65997-0.38-1.33997-0.72998-2.02997-1.03998
			c-1.67004-0.76001-3.44-1.34003-5.28003-1.72003c0.08002-0.02002,0.16998-0.02997,0.25-0.04999
			c1.54999-0.32001,3.12-0.56,4.77002-0.56c2.57001,0,5.03998,0.39001,7.37,1.12c1.07001,0.33002,2.12,0.73999,3.12,1.21002
			C286.19,163.42999,288.94,165.53003,291.15002,168.09003z"/>
	</g>
</g>
<g>
	<path class="st3" d="M204.33008,61.7168h-2.81885c-1.16309,0-1.271,0.26416-1.41504,0.94775l-0.75537,3.47803
		c-0.15625,0.73145-0.12012,0.91162,0.87549,0.91162h0.89941l0.75537-3.49023h2.55469l-0.9834,4.59326
		c-0.71973,0.04834-3.37012,0.21582-3.37012,0.21582c-1.69092,0.09619-3.76611-0.04785-3.28613-2.25439l0.7793-3.56201
		c0.44385-2.05078,2.56689-2.33887,4.18604-2.24316l2.85449,0.18018L204.33008,61.7168z"/>
	<path class="st3" d="M207.3208,68.27734h-2.56689l1.70312-7.85547h2.56689L207.3208,68.27734z"/>
	<path class="st3" d="M216.8584,63.01221c-0.2998,1.36719-1.23584,1.91895-2.26807,1.9668l1.71631,3.29834h-3.0835l-0.89941-3.47803
		l0.2041-0.92334c1.1875,0,1.45117-0.18018,1.58301-0.76758l0.1084-0.50391c0.11914-0.57568,0.08398-0.8877-0.89941-0.8877h-0.70801
		c-0.46777,2.19482-0.93555,4.37793-1.40332,6.56055h-2.56641l1.71484-7.85547h3.74219c2.01514,0,3.19092,0.61133,2.85498,2.17041
		L216.8584,63.01221z"/>
	<path class="st3" d="M221.59961,68.27734h-4.82129l1.71484-7.85547h2.55469l-1.42676,6.57227h2.29004L221.59961,68.27734z"/>
	<path class="st3" d="M229.19434,61.7168h-1.73926c-0.99512,0-1.43945,0.01221-1.64258,0.94775l3.00977,1.93066
		c-0.04785,0.50391-0.0957,0.99561-0.2041,1.4873c-0.32324,1.46338-1.59473,2.41064-3.74121,2.2666l-2.86719-0.17969l0.25195-1.1875
		h2.30273c1.23535,0,1.24805-0.2876,1.46387-1.24707l-2.93848-1.99121c-0.06055-0.25146-0.1084-0.57568-0.02441-0.99512
		c0.3125-1.45117,1.41504-2.61475,3.80176-2.43506l2.59082,0.19238L229.19434,61.7168z"/>
	<path class="st3" d="M231.2002,64.31934h-1.91797l2.02637-3.89746h1.45117L231.2002,64.31934z"/>
	<path class="st3" d="M210.10156,77.08252c-0.32373,1.4873-1.5708,2.19482-3.75391,2.19482h-3.80176l1.71484-7.85547h3.75391
		c2.15869,0,3.15479,0.73145,2.83057,2.24268L210.10156,77.08252z M208.30273,73.62842
		c0.11963-0.56348,0.11963-0.91162-0.73193-0.91162h-1.05518l-1.13916,5.26514h1.00732c0.91162,0,1.05518-0.35986,1.17529-0.93555
		L208.30273,73.62842z"/>
	<path class="st3" d="M215.32275,79.27734l0.02441-1.66699h-2.49512l-0.65918,1.66699h-2.19482l3.90967-7.85547h3.79053
		l0.49121,7.85547H215.32275z M214.92725,72.62109l-1.53516,3.69385h1.97852l0.09668-3.69385H214.92725z"/>
	<path class="st3" d="M223.29199,76.8667l-0.52734,2.41064h-2.56738l0.52832-2.44678l-1.35547-5.40869h2.80664l0.46777,3.89746
		l2.32617-3.89746h2.20703L223.29199,76.8667z"/>
	<path class="st3" d="M206.9043,83.7168h-2.12305c-1.01953,0-1.16357,0.2041-1.31934,0.93555l-0.75537,3.4541
		c-0.15625,0.73145-0.09619,0.875,0.88721,0.875h2.15918l-0.25195,1.21191l-2.18311,0.16797
		c-1.5708,0.12012-3.646,0-3.16602-2.24316l0.7793-3.56152c0.44385-2.03906,2.43506-2.375,4.10205-2.24316l2.14697,0.16797
		L206.9043,83.7168z"/>
	<path class="st3" d="M213.27588,90.27734h-2.55469l0.74414-3.40625h-1.91943l-0.74365,3.40625h-2.56641l1.71484-7.85547h2.56641
		l-0.68311,3.1543h1.90674l0.68359-3.1543h2.55469L213.27588,90.27734z"/>
	<path class="st3" d="M219.13379,90.27734l0.02441-1.66699h-2.49512l-0.65918,1.66699h-2.1958l3.91064-7.85547h3.79004L222,90.27734
		H219.13379z M218.73828,83.62109l-1.53516,3.69336h1.97852l0.09668-3.69336H218.73828z"/>
	<path class="st3" d="M229.30957,83.7168h-1.88281l-1.42773,6.56055h-2.55469l1.41602-6.56055h-1.87109l0.28711-1.29492h6.30859
		L229.30957,83.7168z"/>
</g>
</svg>
