<?xml version="1.0" encoding="UTF-8" standalone="no"?>
<!-- Generator: Adobe Illustrator 22.1.0, SVG Export Plug-In . SVG Version: 6.00 Build 0)  -->

<svg
   xmlns:dc="http://purl.org/dc/elements/1.1/"
   xmlns:cc="http://creativecommons.org/ns#"
   xmlns:rdf="http://www.w3.org/1999/02/22-rdf-syntax-ns#"
   xmlns:svg="http://www.w3.org/2000/svg"
   xmlns="http://www.w3.org/2000/svg"
   xmlns:sodipodi="http://sodipodi.sourceforge.net/DTD/sodipodi-0.dtd"
   xmlns:inkscape="http://www.inkscape.org/namespaces/inkscape"
   version="1.1"
   id="Capa_1"
   x="0px"
   y="0px"
   viewBox="0 0 429.81998 168.09"
   style="enable-background:new 0 0 429.81998 168.09;"
   xml:space="preserve"
   sodipodi:docname="elemente-2.svg"
   inkscape:version="0.92.2 5c3e80d, 2017-08-06"><metadata
     id="metadata223"><rdf:RDF><cc:Work
         rdf:about=""><dc:format>image/svg+xml</dc:format><dc:type
           rdf:resource="http://purl.org/dc/dcmitype/StillImage" /></cc:Work></rdf:RDF></metadata><defs
     id="defs221" /><sodipodi:namedview
     pagecolor="#ffffff"
     bordercolor="#666666"
     borderopacity="1"
     objecttolerance="10"
     gridtolerance="10"
     guidetolerance="10"
     inkscape:pageopacity="0"
     inkscape:pageshadow="2"
     inkscape:window-width="1767"
     inkscape:window-height="911"
     id="namedview219"
     showgrid="false"
     inkscape:zoom="1.8951818"
     inkscape:cx="101.33528"
     inkscape:cy="139.59085"
     inkscape:window-x="0"
     inkscape:window-y="0"
     inkscape:window-maximized="0"
     inkscape:current-layer="Capa_1" /><style
     type="text/css"
     id="style2">
	.st0{fill:#AFCA0B;}
	.st1{fill:#2E3D00;}
</style><rect
     y="-0.00003"
     class="st0"
     width="429.82001"
     height="168.09003"
     id="rect4" /><g
     id="g160"><path
       class="st1"
       d="M354.96997,151.79001l-6.10999,7.83002c-2.08997-0.86005-4.28998-1.46002-6.54999-1.80005l-1.21997-9.88   l-15.02002,1.85004l1.21002,9.87c-2.12006,0.88-4.10004,2-5.92004,3.33002l-7.82996-6.11005L304.77002,168.09h4.21997   l5.10999-6.54999L321.38,167.22l1.02002-0.83002c2.14996-1.75,4.58997-3.12,7.25-4.07996l1.25-0.45001l-1.13-9.17999   l8.42999-1.04004l1.13,9.17999l1.32001,0.14001c2.81995,0.28998,5.50995,1.03003,8.00995,2.20001l1.20001,0.56l5.69-7.27002   l6.67999,5.23004l-5.01001,6.40997H361.44l5.46002-6.98999L354.96997,151.79001z"
       id="path6" /><path
       class="st1"
       d="M320.53998,125.74002c-2.19-5.80005-8.69995-8.74005-14.50995-6.54004   c-5.81006,2.19-8.74005,8.70001-6.55005,14.51001c2.20001,5.79999,8.71002,8.73999,14.51001,6.54999   c2-0.76001,3.65002-2.01996,4.88-3.58997C321.21002,133.67001,321.97998,129.56003,320.53998,125.74002z M312.95001,137.49997   c-4.29004,1.61005-9.09003-0.54999-10.71002-4.83997c-1.06-2.81-0.48999-5.84998,1.23999-8.06   c0.90002-1.15002,2.12-2.09003,3.59003-2.64001c4.28998-1.62,9.08997,0.53998,10.71002,4.83002   C319.40002,131.06998,317.22998,135.87997,312.95001,137.49997z M320.53998,125.74002   c-2.19-5.80005-8.69995-8.74005-14.50995-6.54004c-5.81006,2.19-8.74005,8.70001-6.55005,14.51001   c2.20001,5.79999,8.71002,8.73999,14.51001,6.54999c2-0.76001,3.65002-2.01996,4.88-3.58997   C321.21002,133.67001,321.97998,129.56003,320.53998,125.74002z M312.95001,137.49997   c-4.29004,1.61005-9.09003-0.54999-10.71002-4.83997c-1.06-2.81-0.48999-5.84998,1.23999-8.06   c0.90002-1.15002,2.12-2.09003,3.59003-2.64001c4.28998-1.62,9.08997,0.53998,10.71002,4.83002   C319.40002,131.06998,317.22998,135.87997,312.95001,137.49997z M320.53998,125.74002   c-2.19-5.80005-8.69995-8.74005-14.50995-6.54004c-5.81006,2.19-8.74005,8.70001-6.55005,14.51001   c2.20001,5.79999,8.71002,8.73999,14.51001,6.54999c2-0.76001,3.65002-2.01996,4.88-3.58997   C321.21002,133.67001,321.97998,129.56003,320.53998,125.74002z M312.95001,137.49997   c-4.29004,1.61005-9.09003-0.54999-10.71002-4.83997c-1.06-2.81-0.48999-5.84998,1.23999-8.06   c0.90002-1.15002,2.12-2.09003,3.59003-2.64001c4.28998-1.62,9.08997,0.53998,10.71002,4.83002   C319.40002,131.06998,317.22998,135.87997,312.95001,137.49997z M320.53998,125.74002   c-2.19-5.80005-8.69995-8.74005-14.50995-6.54004c-5.81006,2.19-8.74005,8.70001-6.55005,14.51001   c2.20001,5.79999,8.71002,8.73999,14.51001,6.54999c2-0.76001,3.65002-2.01996,4.88-3.58997   C321.21002,133.67001,321.97998,129.56003,320.53998,125.74002z M312.95001,137.49997   c-4.29004,1.61005-9.09003-0.54999-10.71002-4.83997c-1.06-2.81-0.48999-5.84998,1.23999-8.06   c0.90002-1.15002,2.12-2.09003,3.59003-2.64001c4.28998-1.62,9.08997,0.53998,10.71002,4.83002   C319.40002,131.06998,317.22998,135.87997,312.95001,137.49997z M320.53998,125.74002   c-2.19-5.80005-8.69995-8.74005-14.50995-6.54004c-5.81006,2.19-8.74005,8.70001-6.55005,14.51001   c2.20001,5.79999,8.71002,8.73999,14.51001,6.54999c2-0.76001,3.65002-2.01996,4.88-3.58997   C321.21002,133.67001,321.97998,129.56003,320.53998,125.74002z M312.95001,137.49997   c-4.29004,1.61005-9.09003-0.54999-10.71002-4.83997c-1.06-2.81-0.48999-5.84998,1.23999-8.06   c0.90002-1.15002,2.12-2.09003,3.59003-2.64001c4.28998-1.62,9.08997,0.53998,10.71002,4.83002   C319.40002,131.06998,317.22998,135.87997,312.95001,137.49997z M320.53998,125.74002   c-2.19-5.80005-8.69995-8.74005-14.50995-6.54004c-5.81006,2.19-8.74005,8.70001-6.55005,14.51001   c2.20001,5.79999,8.71002,8.73999,14.51001,6.54999c2-0.76001,3.65002-2.01996,4.88-3.58997   C321.21002,133.67001,321.97998,129.56003,320.53998,125.74002z M312.95001,137.49997   c-4.29004,1.61005-9.09003-0.54999-10.71002-4.83997c-1.06-2.81-0.48999-5.84998,1.23999-8.06   c0.90002-1.15002,2.12-2.09003,3.59003-2.64001c4.28998-1.62,9.08997,0.53998,10.71002,4.83002   C319.40002,131.06998,317.22998,135.87997,312.95001,137.49997z M320.53998,125.74002   c-2.19-5.80005-8.69995-8.74005-14.50995-6.54004c-5.81006,2.19-8.74005,8.70001-6.55005,14.51001   c2.20001,5.79999,8.71002,8.73999,14.51001,6.54999c2-0.76001,3.65002-2.01996,4.88-3.58997   C321.21002,133.67001,321.97998,129.56003,320.53998,125.74002z M312.95001,137.49997   c-4.29004,1.61005-9.09003-0.54999-10.71002-4.83997c-1.06-2.81-0.48999-5.84998,1.23999-8.06   c0.90002-1.15002,2.12-2.09003,3.59003-2.64001c4.28998-1.62,9.08997,0.53998,10.71002,4.83002   C319.40002,131.06998,317.22998,135.87997,312.95001,137.49997z M320.53998,125.74002   c-2.19-5.80005-8.69995-8.74005-14.50995-6.54004c-5.81006,2.19-8.74005,8.70001-6.55005,14.51001   c2.20001,5.79999,8.71002,8.73999,14.51001,6.54999c2-0.76001,3.65002-2.01996,4.88-3.58997   C321.21002,133.67001,321.97998,129.56003,320.53998,125.74002z M312.95001,137.49997   c-4.29004,1.61005-9.09003-0.54999-10.71002-4.83997c-1.06-2.81-0.48999-5.84998,1.23999-8.06   c0.90002-1.15002,2.12-2.09003,3.59003-2.64001c4.28998-1.62,9.08997,0.53998,10.71002,4.83002   C319.40002,131.06998,317.22998,135.87997,312.95001,137.49997z M320.53998,125.74002   c-2.19-5.80005-8.69995-8.74005-14.50995-6.54004c-5.81006,2.19-8.74005,8.70001-6.55005,14.51001   c2.20001,5.79999,8.71002,8.73999,14.51001,6.54999c2-0.76001,3.65002-2.01996,4.88-3.58997   C321.21002,133.67001,321.97998,129.56003,320.53998,125.74002z M312.95001,137.49997   c-4.29004,1.61005-9.09003-0.54999-10.71002-4.83997c-1.06-2.81-0.48999-5.84998,1.23999-8.06   c0.90002-1.15002,2.12-2.09003,3.59003-2.64001c4.28998-1.62,9.08997,0.53998,10.71002,4.83002   C319.40002,131.06998,317.22998,135.87997,312.95001,137.49997z M320.53998,125.74002   c-2.19-5.80005-8.69995-8.74005-14.50995-6.54004c-5.81006,2.19-8.74005,8.70001-6.55005,14.51001   c2.20001,5.79999,8.71002,8.73999,14.51001,6.54999c2-0.76001,3.65002-2.01996,4.88-3.58997   C321.21002,133.67001,321.97998,129.56003,320.53998,125.74002z M312.95001,137.49997   c-4.29004,1.61005-9.09003-0.54999-10.71002-4.83997c-1.06-2.81-0.48999-5.84998,1.23999-8.06   c0.90002-1.15002,2.12-2.09003,3.59003-2.64001c4.28998-1.62,9.08997,0.53998,10.71002,4.83002   C319.40002,131.06998,317.22998,135.87997,312.95001,137.49997z M320.53998,125.74002   c-2.19-5.80005-8.69995-8.74005-14.50995-6.54004c-5.81006,2.19-8.74005,8.70001-6.55005,14.51001   c2.20001,5.79999,8.71002,8.73999,14.51001,6.54999c2-0.76001,3.65002-2.01996,4.88-3.58997   C321.21002,133.67001,321.97998,129.56003,320.53998,125.74002z M312.95001,137.49997   c-4.29004,1.61005-9.09003-0.54999-10.71002-4.83997c-1.06-2.81-0.48999-5.84998,1.23999-8.06   c0.90002-1.15002,2.12-2.09003,3.59003-2.64001c4.28998-1.62,9.08997,0.53998,10.71002,4.83002   C319.40002,131.06998,317.22998,135.87997,312.95001,137.49997z M320.53998,125.74002   c-2.19-5.80005-8.69995-8.74005-14.50995-6.54004c-5.81006,2.19-8.74005,8.70001-6.55005,14.51001   c2.20001,5.79999,8.71002,8.73999,14.51001,6.54999c2-0.76001,3.65002-2.01996,4.88-3.58997   C321.21002,133.67001,321.97998,129.56003,320.53998,125.74002z M312.95001,137.49997   c-4.29004,1.61005-9.09003-0.54999-10.71002-4.83997c-1.06-2.81-0.48999-5.84998,1.23999-8.06   c0.90002-1.15002,2.12-2.09003,3.59003-2.64001c4.28998-1.62,9.08997,0.53998,10.71002,4.83002   C319.40002,131.06998,317.22998,135.87997,312.95001,137.49997z M320.53998,125.74002   c-2.19-5.80005-8.69995-8.74005-14.50995-6.54004c-5.81006,2.19-8.74005,8.70001-6.55005,14.51001   c2.20001,5.79999,8.71002,8.73999,14.51001,6.54999c2-0.76001,3.65002-2.01996,4.88-3.58997   C321.21002,133.67001,321.97998,129.56003,320.53998,125.74002z M312.95001,137.49997   c-4.29004,1.61005-9.09003-0.54999-10.71002-4.83997c-1.06-2.81-0.48999-5.84998,1.23999-8.06   c0.90002-1.15002,2.12-2.09003,3.59003-2.64001c4.28998-1.62,9.08997,0.53998,10.71002,4.83002   C319.40002,131.06998,317.22998,135.87997,312.95001,137.49997z M320.53998,125.74002   c-2.19-5.80005-8.69995-8.74005-14.50995-6.54004c-5.81006,2.19-8.74005,8.70001-6.55005,14.51001   c2.20001,5.79999,8.71002,8.73999,14.51001,6.54999c2-0.76001,3.65002-2.01996,4.88-3.58997   C321.21002,133.67001,321.97998,129.56003,320.53998,125.74002z M312.95001,137.49997   c-4.29004,1.61005-9.09003-0.54999-10.71002-4.83997c-1.06-2.81-0.48999-5.84998,1.23999-8.06   c0.90002-1.15002,2.12-2.09003,3.59003-2.64001c4.28998-1.62,9.08997,0.53998,10.71002,4.83002   C319.40002,131.06998,317.22998,135.87997,312.95001,137.49997z M320.53998,125.74002   c-2.19-5.80005-8.69995-8.74005-14.50995-6.54004c-5.81006,2.19-8.74005,8.70001-6.55005,14.51001   c2.20001,5.79999,8.71002,8.73999,14.51001,6.54999c2-0.76001,3.65002-2.01996,4.88-3.58997   C321.21002,133.67001,321.97998,129.56003,320.53998,125.74002z M312.95001,137.49997   c-4.29004,1.61005-9.09003-0.54999-10.71002-4.83997c-1.06-2.81-0.48999-5.84998,1.23999-8.06   c0.90002-1.15002,2.12-2.09003,3.59003-2.64001c4.28998-1.62,9.08997,0.53998,10.71002,4.83002   C319.40002,131.06998,317.22998,135.87997,312.95001,137.49997z M320.53998,125.74002   c-2.19-5.80005-8.69995-8.74005-14.50995-6.54004c-5.81006,2.19-8.74005,8.70001-6.55005,14.51001   c2.20001,5.79999,8.71002,8.73999,14.51001,6.54999c2-0.76001,3.65002-2.01996,4.88-3.58997   C321.21002,133.67001,321.97998,129.56003,320.53998,125.74002z M312.95001,137.49997   c-4.29004,1.61005-9.09003-0.54999-10.71002-4.83997c-1.06-2.81-0.48999-5.84998,1.23999-8.06   c0.90002-1.15002,2.12-2.09003,3.59003-2.64001c4.28998-1.62,9.08997,0.53998,10.71002,4.83002   C319.40002,131.06998,317.22998,135.87997,312.95001,137.49997z M320.53998,125.74002   c-2.19-5.80005-8.69995-8.74005-14.50995-6.54004c-5.81006,2.19-8.74005,8.70001-6.55005,14.51001   c2.20001,5.79999,8.71002,8.73999,14.51001,6.54999c2-0.76001,3.65002-2.01996,4.88-3.58997   C321.21002,133.67001,321.97998,129.56003,320.53998,125.74002z M312.95001,137.49997   c-4.29004,1.61005-9.09003-0.54999-10.71002-4.83997c-1.06-2.81-0.48999-5.84998,1.23999-8.06   c0.90002-1.15002,2.12-2.09003,3.59003-2.64001c4.28998-1.62,9.08997,0.53998,10.71002,4.83002   C319.40002,131.06998,317.22998,135.87997,312.95001,137.49997z M320.53998,125.74002   c-2.19-5.80005-8.69995-8.74005-14.50995-6.54004c-5.81006,2.19-8.74005,8.70001-6.55005,14.51001   c2.20001,5.79999,8.71002,8.73999,14.51001,6.54999c2-0.76001,3.65002-2.01996,4.88-3.58997   C321.21002,133.67001,321.97998,129.56003,320.53998,125.74002z M312.95001,137.49997   c-4.29004,1.61005-9.09003-0.54999-10.71002-4.83997c-1.06-2.81-0.48999-5.84998,1.23999-8.06   c0.90002-1.15002,2.12-2.09003,3.59003-2.64001c4.28998-1.62,9.08997,0.53998,10.71002,4.83002   C319.40002,131.06998,317.22998,135.87997,312.95001,137.49997z M320.53998,125.74002   c-2.19-5.80005-8.69995-8.74005-14.50995-6.54004c-5.81006,2.19-8.74005,8.70001-6.55005,14.51001   c2.20001,5.79999,8.71002,8.73999,14.51001,6.54999c2-0.76001,3.65002-2.01996,4.88-3.58997   C321.21002,133.67001,321.97998,129.56003,320.53998,125.74002z M312.95001,137.49997   c-4.29004,1.61005-9.09003-0.54999-10.71002-4.83997c-1.06-2.81-0.48999-5.84998,1.23999-8.06   c0.90002-1.15002,2.12-2.09003,3.59003-2.64001c4.28998-1.62,9.08997,0.53998,10.71002,4.83002   C319.40002,131.06998,317.22998,135.87997,312.95001,137.49997z M320.53998,125.74002   c-2.19-5.80005-8.69995-8.74005-14.50995-6.54004c-5.81006,2.19-8.74005,8.70001-6.55005,14.51001   c2.20001,5.79999,8.71002,8.73999,14.51001,6.54999c2-0.76001,3.65002-2.01996,4.88-3.58997   C321.21002,133.67001,321.97998,129.56003,320.53998,125.74002z M312.95001,137.49997   c-4.29004,1.61005-9.09003-0.54999-10.71002-4.83997c-1.06-2.81-0.48999-5.84998,1.23999-8.06   c0.90002-1.15002,2.12-2.09003,3.59003-2.64001c4.28998-1.62,9.08997,0.53998,10.71002,4.83002   C319.40002,131.06998,317.22998,135.87997,312.95001,137.49997z M329.01001,128.30002l6.25-2.36005l-3.81-10.07996l-6.25,2.35999   c-0.81-1.06-1.73004-2.03998-2.77002-2.91998l2.76001-6.10004l-9.83002-4.42999l-2.75,6.09003   c-1.33997-0.19-2.69-0.23004-4.01996-0.13l-2.36005-6.25l-10.07996,3.81l2.35999,6.25c-1.06,0.81-2.04004,1.72998-2.92999,2.76001   l-6.09003-2.75l-4.44,9.82001l6.10004,2.75995c-0.19,1.34003-0.24005,2.69-0.14001,4.02002l-6.25,2.35999l3.82001,10.08002   l6.23999-2.35999c0.81,1.06,1.73999,2.03998,2.77002,2.91998l-2.75,6.09998l9.81995,4.43005l2.75-6.09003   c1.35004,0.19,2.69,0.22998,4.02002,0.13l2.37,6.25l10.08002-3.81l-2.37-6.25c1.07001-0.81,2.04999-1.72998,2.92999-2.76001   l6.09998,2.75l4.42999-9.82001l-6.09998-2.75C329.06,130.98001,329.10999,129.62997,329.01001,128.30002z M331.06,136.55002   l-2,4.44l-5.52002-2.49005l-0.70996,0.94c-1.11005,1.47003-2.42999,2.71002-3.91003,3.70001l-0.98999,0.65002l2.14001,5.64996   l-4.56,1.73004l-2.14001-5.66003l-1.15997,0.16003c-1.77002,0.25-3.58002,0.19-5.38-0.17999l-1.15002-0.23004l-2.5,5.52002   l-4.44-2.01001l2.48999-5.52002l-0.94-0.70996c-1.45996-1.10999-2.70996-2.41998-3.69-3.91003l-0.64996-0.97998l-5.66003,2.14001   l-1.71997-4.56l5.65997-2.14001l-0.16998-1.16998c-0.23999-1.76001-0.17999-3.57001,0.17999-5.38l0.23999-1.15002l-5.51996-2.48999   l2-4.44l5.51996,2.48999l0.71002-0.94c1.12-1.46997,2.42999-2.70996,3.91998-3.69995l0.98004-0.65002l-2.14001-5.65002   l4.56-1.71997l2.14001,5.64996l1.16998-0.15997c1.76001-0.25,3.57001-0.19,5.37,0.17999l1.15997,0.22998l2.49005-5.51996   l4.44,2.01001l-2.49005,5.51996l0.94,0.71002c1.47003,1.10999,2.71002,2.42999,3.69,3.90997l0.65002,0.98004l5.65997-2.13   l1.72003,4.54999l-5.65002,2.14001l0.16003,1.16998c0.25,1.76001,0.17999,3.57001-0.17999,5.38l-0.24005,1.15002L331.06,136.55002z    M306.03003,119.19998c-5.81006,2.19-8.74005,8.70001-6.55005,14.51001c2.20001,5.79999,8.71002,8.73999,14.51001,6.54999   c2-0.76001,3.65002-2.01996,4.88-3.58997c2.34003-3,3.10999-7.10999,1.66998-10.92999   C318.34998,119.93997,311.84003,116.99997,306.03003,119.19998z M312.95001,137.49997   c-4.29004,1.61005-9.09003-0.54999-10.71002-4.83997c-1.06-2.81-0.48999-5.84998,1.23999-8.06   c0.90002-1.15002,2.12-2.09003,3.59003-2.64001c4.28998-1.62,9.08997,0.53998,10.71002,4.83002   C319.40002,131.06998,317.22998,135.87997,312.95001,137.49997z M320.53998,125.74002   c-2.19-5.80005-8.69995-8.74005-14.50995-6.54004c-5.81006,2.19-8.74005,8.70001-6.55005,14.51001   c2.20001,5.79999,8.71002,8.73999,14.51001,6.54999c2-0.76001,3.65002-2.01996,4.88-3.58997   C321.21002,133.67001,321.97998,129.56003,320.53998,125.74002z M312.95001,137.49997   c-4.29004,1.61005-9.09003-0.54999-10.71002-4.83997c-1.06-2.81-0.48999-5.84998,1.23999-8.06   c0.90002-1.15002,2.12-2.09003,3.59003-2.64001c4.28998-1.62,9.08997,0.53998,10.71002,4.83002   C319.40002,131.06998,317.22998,135.87997,312.95001,137.49997z M320.53998,125.74002   c-2.19-5.80005-8.69995-8.74005-14.50995-6.54004c-5.81006,2.19-8.74005,8.70001-6.55005,14.51001   c2.20001,5.79999,8.71002,8.73999,14.51001,6.54999c2-0.76001,3.65002-2.01996,4.88-3.58997   C321.21002,133.67001,321.97998,129.56003,320.53998,125.74002z M312.95001,137.49997   c-4.29004,1.61005-9.09003-0.54999-10.71002-4.83997c-1.06-2.81-0.48999-5.84998,1.23999-8.06   c0.90002-1.15002,2.12-2.09003,3.59003-2.64001c4.28998-1.62,9.08997,0.53998,10.71002,4.83002   C319.40002,131.06998,317.22998,135.87997,312.95001,137.49997z M320.53998,125.74002   c-2.19-5.80005-8.69995-8.74005-14.50995-6.54004c-5.81006,2.19-8.74005,8.70001-6.55005,14.51001   c2.20001,5.79999,8.71002,8.73999,14.51001,6.54999c2-0.76001,3.65002-2.01996,4.88-3.58997   C321.21002,133.67001,321.97998,129.56003,320.53998,125.74002z M312.95001,137.49997   c-4.29004,1.61005-9.09003-0.54999-10.71002-4.83997c-1.06-2.81-0.48999-5.84998,1.23999-8.06   c0.90002-1.15002,2.12-2.09003,3.59003-2.64001c4.28998-1.62,9.08997,0.53998,10.71002,4.83002   C319.40002,131.06998,317.22998,135.87997,312.95001,137.49997z M320.53998,125.74002   c-2.19-5.80005-8.69995-8.74005-14.50995-6.54004c-5.81006,2.19-8.74005,8.70001-6.55005,14.51001   c2.20001,5.79999,8.71002,8.73999,14.51001,6.54999c2-0.76001,3.65002-2.01996,4.88-3.58997   C321.21002,133.67001,321.97998,129.56003,320.53998,125.74002z M312.95001,137.49997   c-4.29004,1.61005-9.09003-0.54999-10.71002-4.83997c-1.06-2.81-0.48999-5.84998,1.23999-8.06   c0.90002-1.15002,2.12-2.09003,3.59003-2.64001c4.28998-1.62,9.08997,0.53998,10.71002,4.83002   C319.40002,131.06998,317.22998,135.87997,312.95001,137.49997z M320.53998,125.74002   c-2.19-5.80005-8.69995-8.74005-14.50995-6.54004c-5.81006,2.19-8.74005,8.70001-6.55005,14.51001   c2.20001,5.79999,8.71002,8.73999,14.51001,6.54999c2-0.76001,3.65002-2.01996,4.88-3.58997   C321.21002,133.67001,321.97998,129.56003,320.53998,125.74002z M312.95001,137.49997   c-4.29004,1.61005-9.09003-0.54999-10.71002-4.83997c-1.06-2.81-0.48999-5.84998,1.23999-8.06   c0.90002-1.15002,2.12-2.09003,3.59003-2.64001c4.28998-1.62,9.08997,0.53998,10.71002,4.83002   C319.40002,131.06998,317.22998,135.87997,312.95001,137.49997z M320.53998,125.74002   c-2.19-5.80005-8.69995-8.74005-14.50995-6.54004c-5.81006,2.19-8.74005,8.70001-6.55005,14.51001   c2.20001,5.79999,8.71002,8.73999,14.51001,6.54999c2-0.76001,3.65002-2.01996,4.88-3.58997   C321.21002,133.67001,321.97998,129.56003,320.53998,125.74002z M312.95001,137.49997   c-4.29004,1.61005-9.09003-0.54999-10.71002-4.83997c-1.06-2.81-0.48999-5.84998,1.23999-8.06   c0.90002-1.15002,2.12-2.09003,3.59003-2.64001c4.28998-1.62,9.08997,0.53998,10.71002,4.83002   C319.40002,131.06998,317.22998,135.87997,312.95001,137.49997z M320.53998,125.74002   c-2.19-5.80005-8.69995-8.74005-14.50995-6.54004c-5.81006,2.19-8.74005,8.70001-6.55005,14.51001   c2.20001,5.79999,8.71002,8.73999,14.51001,6.54999c2-0.76001,3.65002-2.01996,4.88-3.58997   C321.21002,133.67001,321.97998,129.56003,320.53998,125.74002z M312.95001,137.49997   c-4.29004,1.61005-9.09003-0.54999-10.71002-4.83997c-1.06-2.81-0.48999-5.84998,1.23999-8.06   c0.90002-1.15002,2.12-2.09003,3.59003-2.64001c4.28998-1.62,9.08997,0.53998,10.71002,4.83002   C319.40002,131.06998,317.22998,135.87997,312.95001,137.49997z M320.53998,125.74002   c-2.19-5.80005-8.69995-8.74005-14.50995-6.54004c-5.81006,2.19-8.74005,8.70001-6.55005,14.51001   c2.20001,5.79999,8.71002,8.73999,14.51001,6.54999c2-0.76001,3.65002-2.01996,4.88-3.58997   C321.21002,133.67001,321.97998,129.56003,320.53998,125.74002z M312.95001,137.49997   c-4.29004,1.61005-9.09003-0.54999-10.71002-4.83997c-1.06-2.81-0.48999-5.84998,1.23999-8.06   c0.90002-1.15002,2.12-2.09003,3.59003-2.64001c4.28998-1.62,9.08997,0.53998,10.71002,4.83002   C319.40002,131.06998,317.22998,135.87997,312.95001,137.49997z M320.53998,125.74002   c-2.19-5.80005-8.69995-8.74005-14.50995-6.54004c-5.81006,2.19-8.74005,8.70001-6.55005,14.51001   c2.20001,5.79999,8.71002,8.73999,14.51001,6.54999c2-0.76001,3.65002-2.01996,4.88-3.58997   C321.21002,133.67001,321.97998,129.56003,320.53998,125.74002z M312.95001,137.49997   c-4.29004,1.61005-9.09003-0.54999-10.71002-4.83997c-1.06-2.81-0.48999-5.84998,1.23999-8.06   c0.90002-1.15002,2.12-2.09003,3.59003-2.64001c4.28998-1.62,9.08997,0.53998,10.71002,4.83002   C319.40002,131.06998,317.22998,135.87997,312.95001,137.49997z M320.53998,125.74002   c-2.19-5.80005-8.69995-8.74005-14.50995-6.54004c-5.81006,2.19-8.74005,8.70001-6.55005,14.51001   c2.20001,5.79999,8.71002,8.73999,14.51001,6.54999c2-0.76001,3.65002-2.01996,4.88-3.58997   C321.21002,133.67001,321.97998,129.56003,320.53998,125.74002z M312.95001,137.49997   c-4.29004,1.61005-9.09003-0.54999-10.71002-4.83997c-1.06-2.81-0.48999-5.84998,1.23999-8.06   c0.90002-1.15002,2.12-2.09003,3.59003-2.64001c4.28998-1.62,9.08997,0.53998,10.71002,4.83002   C319.40002,131.06998,317.22998,135.87997,312.95001,137.49997z M320.53998,125.74002   c-2.19-5.80005-8.69995-8.74005-14.50995-6.54004c-5.81006,2.19-8.74005,8.70001-6.55005,14.51001   c2.20001,5.79999,8.71002,8.73999,14.51001,6.54999c2-0.76001,3.65002-2.01996,4.88-3.58997   C321.21002,133.67001,321.97998,129.56003,320.53998,125.74002z M312.95001,137.49997   c-4.29004,1.61005-9.09003-0.54999-10.71002-4.83997c-1.06-2.81-0.48999-5.84998,1.23999-8.06   c0.90002-1.15002,2.12-2.09003,3.59003-2.64001c4.28998-1.62,9.08997,0.53998,10.71002,4.83002   C319.40002,131.06998,317.22998,135.87997,312.95001,137.49997z M320.53998,125.74002   c-2.19-5.80005-8.69995-8.74005-14.50995-6.54004c-5.81006,2.19-8.74005,8.70001-6.55005,14.51001   c2.20001,5.79999,8.71002,8.73999,14.51001,6.54999c2-0.76001,3.65002-2.01996,4.88-3.58997   C321.21002,133.67001,321.97998,129.56003,320.53998,125.74002z M312.95001,137.49997   c-4.29004,1.61005-9.09003-0.54999-10.71002-4.83997c-1.06-2.81-0.48999-5.84998,1.23999-8.06   c0.90002-1.15002,2.12-2.09003,3.59003-2.64001c4.28998-1.62,9.08997,0.53998,10.71002,4.83002   C319.40002,131.06998,317.22998,135.87997,312.95001,137.49997z M320.53998,125.74002   c-2.19-5.80005-8.69995-8.74005-14.50995-6.54004c-5.81006,2.19-8.74005,8.70001-6.55005,14.51001   c2.20001,5.79999,8.71002,8.73999,14.51001,6.54999c2-0.76001,3.65002-2.01996,4.88-3.58997   C321.21002,133.67001,321.97998,129.56003,320.53998,125.74002z M312.95001,137.49997   c-4.29004,1.61005-9.09003-0.54999-10.71002-4.83997c-1.06-2.81-0.48999-5.84998,1.23999-8.06   c0.90002-1.15002,2.12-2.09003,3.59003-2.64001c4.28998-1.62,9.08997,0.53998,10.71002,4.83002   C319.40002,131.06998,317.22998,135.87997,312.95001,137.49997z M320.53998,125.74002   c-2.19-5.80005-8.69995-8.74005-14.50995-6.54004c-5.81006,2.19-8.74005,8.70001-6.55005,14.51001   c2.20001,5.79999,8.71002,8.73999,14.51001,6.54999c2-0.76001,3.65002-2.01996,4.88-3.58997   C321.21002,133.67001,321.97998,129.56003,320.53998,125.74002z M312.95001,137.49997   c-4.29004,1.61005-9.09003-0.54999-10.71002-4.83997c-1.06-2.81-0.48999-5.84998,1.23999-8.06   c0.90002-1.15002,2.12-2.09003,3.59003-2.64001c4.28998-1.62,9.08997,0.53998,10.71002,4.83002   C319.40002,131.06998,317.22998,135.87997,312.95001,137.49997z M320.53998,125.74002   c-2.19-5.80005-8.69995-8.74005-14.50995-6.54004c-5.81006,2.19-8.74005,8.70001-6.55005,14.51001   c2.20001,5.79999,8.71002,8.73999,14.51001,6.54999c2-0.76001,3.65002-2.01996,4.88-3.58997   C321.21002,133.67001,321.97998,129.56003,320.53998,125.74002z M312.95001,137.49997   c-4.29004,1.61005-9.09003-0.54999-10.71002-4.83997c-1.06-2.81-0.48999-5.84998,1.23999-8.06   c0.90002-1.15002,2.12-2.09003,3.59003-2.64001c4.28998-1.62,9.08997,0.53998,10.71002,4.83002   C319.40002,131.06998,317.22998,135.87997,312.95001,137.49997z M320.53998,125.74002   c-2.19-5.80005-8.69995-8.74005-14.50995-6.54004c-5.81006,2.19-8.74005,8.70001-6.55005,14.51001   c2.20001,5.79999,8.71002,8.73999,14.51001,6.54999c2-0.76001,3.65002-2.01996,4.88-3.58997   C321.21002,133.67001,321.97998,129.56003,320.53998,125.74002z M312.95001,137.49997   c-4.29004,1.61005-9.09003-0.54999-10.71002-4.83997c-1.06-2.81-0.48999-5.84998,1.23999-8.06   c0.90002-1.15002,2.12-2.09003,3.59003-2.64001c4.28998-1.62,9.08997,0.53998,10.71002,4.83002   C319.40002,131.06998,317.22998,135.87997,312.95001,137.49997z M320.53998,125.74002   c-2.19-5.80005-8.69995-8.74005-14.50995-6.54004c-5.81006,2.19-8.74005,8.70001-6.55005,14.51001   c2.20001,5.79999,8.71002,8.73999,14.51001,6.54999c2-0.76001,3.65002-2.01996,4.88-3.58997   C321.21002,133.67001,321.97998,129.56003,320.53998,125.74002z M312.95001,137.49997   c-4.29004,1.61005-9.09003-0.54999-10.71002-4.83997c-1.06-2.81-0.48999-5.84998,1.23999-8.06   c0.90002-1.15002,2.12-2.09003,3.59003-2.64001c4.28998-1.62,9.08997,0.53998,10.71002,4.83002   C319.40002,131.06998,317.22998,135.87997,312.95001,137.49997z M320.53998,125.74002   c-2.19-5.80005-8.69995-8.74005-14.50995-6.54004c-5.81006,2.19-8.74005,8.70001-6.55005,14.51001   c2.20001,5.79999,8.71002,8.73999,14.51001,6.54999c2-0.76001,3.65002-2.01996,4.88-3.58997   C321.21002,133.67001,321.97998,129.56003,320.53998,125.74002z M312.95001,137.49997   c-4.29004,1.61005-9.09003-0.54999-10.71002-4.83997c-1.06-2.81-0.48999-5.84998,1.23999-8.06   c0.90002-1.15002,2.12-2.09003,3.59003-2.64001c4.28998-1.62,9.08997,0.53998,10.71002,4.83002   C319.40002,131.06998,317.22998,135.87997,312.95001,137.49997z"
       id="path8" /><path
       class="st1"
       d="M396.15997,49.48001l0.58002-0.29999c0.91003-0.46002,1.20001-0.62,1.39001-0.78003   c1.38-1.09998,1.96002-2.77997,1.57001-4.48999c-0.07001-0.31-0.07001-0.31-4.35999-8.92999l-0.64001-1.28003   c-3.82001-7.69-3.82001-7.69-4.23004-8.08997l-0.06995-0.06c-1.17004-1.17004-2.84003-1.56-4.47003-1.04004   c-0.17999,0.06-5.21002,2.55005-14.95001,7.41003c-13.53998,6.76001-14.76001,7.38-14.96997,7.51996   c-0.71002,0.51001-1.25,1.22003-1.54999,2.04004c-0.35004,0.97998-0.34003,2.04999,0.02997,3.02997   c0.10999,0.29004,0.87,1.82001,1.48999,3.06l1.61005,3.21002l1.21997-0.59003c0.76001-0.35999,0.84003-0.42999,0.85999-0.44995   l0.48999-0.36005l-1.62994-3.25995c-1.25-2.51001-1.37006-2.75-1.40002-2.90002c-0.07001-0.37,0.02997-0.79999,0.25-1.09998   c0.04999-0.05005,0.07001-0.10004,0.09998-0.14001c0.33002-0.25,2.52002-1.35004,11.10004-5.62l18.37-9.14001l0.15997-0.02002   c0.42004-0.06,0.75,0.03003,1.09003,0.28003l0.13,0.09998c0.16998,0.16998,0.95996,1.73999,3.54999,6.96002l0.85999,1.72998   c3.23999,6.51001,4.09003,8.22003,4.15002,8.40002c0.08997,0.52997-0.08002,1.02997-0.47003,1.39001   c-0.07996,0.06995-0.56,0.31-1.82001,0.94995l-2.32996,1.17999l2.13,4.29004l-1.26001-0.42999   c-0.59003-0.21002-1.16003-0.41003-1.48999-0.52002l-0.37-0.13C390.73999,51.22,390.02002,50.97,389.5,50.78l-1.44-0.5   l-4.53998,2.27002l1.28998,2.58997l3.45001-1.71997l1.66998,0.58997c4.28998,1.5,5.16003,1.80005,6.13,2.13   c1.04999,0.35004,1.15997,0.39001,1.48999,0.32001c0.14001-0.02002,0.28003-0.07001,0.40002-0.13   c0.37-0.17999,0.64001-0.51996,0.76001-0.95996c0.13995-0.49005,0.13995-0.49005-1.26001-3.30005L396.15997,49.48001z"
       id="path10" /><path
       class="st1"
       d="M347.2674,93.16541c-1.74841,0.34631-3.46393-0.31924-4.54764-1.76077l-0.22836-0.30463l-4.2851-10.87727   c-3.522-8.94267-4.29129-10.91495-4.31479-11.08654c-0.12814-0.9285-0.04523-1.66988,0.27979-2.45073   c0.3454-0.83981,0.80212-1.41934,1.56387-1.98913c0.21155-0.15919,0.35123-0.22215,1.48233-0.68417   c0.68774-0.27935,1.49387-0.60482,1.78696-0.72808l0.5383-0.21993l-1.39764-3.59782   c-1.56876-4.04566-1.46854-3.71842-1.29343-4.13345c0.19113-0.45404,0.67044-0.69925,1.15955-0.59372   c0.09711,0.02216,1.47253,0.59993,3.05374,1.28144c1.58163,0.68153,3.99289,1.72175,5.35193,2.30972l2.4791,1.0695   l12.07669-4.75734c7.89313-3.10918,12.15826-4.77329,12.30991-4.80832c1.89868-0.4137,3.88959,0.46869,4.8429,2.14388   c0.1069,0.18712,1.29965,3.19654,4.36005,10.98457l4.2124,10.72384l0.03946,0.36714   c0.08157,0.78972-0.01553,1.52444-0.29175,2.22503c-0.32635,0.82563-0.866,1.50095-1.67166,2.08446   c-0.18845,0.13436-1.5679,0.68153-18.71408,7.44351C350.47897,91.9527,347.50592,93.11575,347.2674,93.16541L347.2674,93.16541z"
       id="path12" /><path
       class="st1"
       d="M423.62006,115.37656c-1.63263,0.42213-2.62012,2.0827-2.20157,3.70158   c0.41858,1.61932,2.08801,2.5935,3.72021,2.17137c1.63306-0.42257,2.62143-2.08402,2.20242-3.70335   C426.92258,115.92772,425.25314,114.95443,423.62006,115.37656L423.62006,115.37656z"
       id="path14" /><path
       class="st1"
       d="M399.35999,73.37003l25.10999-6.49005c0.95001-0.25,1.92004,0.31,2.16003,1.25l3.02002,11.67004   l0.16998,0.65997v-12.94l-0.16998-0.65997l-1.31-5.06c-0.92004-3.57001-4.61005-5.72003-8.21002-4.79004l-21.75,5.62   c-3.60999,0.94-5.78998,4.60004-4.85999,8.18005l13.40997,51.87c0.92999,3.56995,4.60999,5.71997,8.22003,4.78998l14.5-3.76001   l0.16998-0.03998v-13.67999l-0.16998,0.03998l-19.5,5.04999c-0.95001,0.23999-1.92004-0.32001-2.16003-1.26001l-9.90997-38.29999   C397.84003,74.57999,398.40997,73.62003,399.35999,73.37003z M406.73999,65.86002l7.64001-1.97003   c0.46997-0.13,0.96002,0.15002,1.08002,0.62c0.12,0.47003-0.17004,0.96002-0.64001,1.08002l-7.64001,1.97003   c-0.46997,0.12994-0.96002-0.16003-1.08002-0.63C405.97998,66.45999,406.27002,65.98001,406.73999,65.86002z M423.17999,113.67001   c2.58002-0.66003,5.22003,0.87,5.88,3.42999s-0.90002,5.17999-3.47998,5.84998c-2.58002,0.67004-5.22003-0.87-5.88-3.42999   C419.03998,116.95999,420.59998,114.34,423.17999,113.67001z"
       id="path16" /><path
       class="st1"
       d="M324.3186,46.83602c-0.91653,0.23722-1.46548,1.19277-1.22296,2.13103   c0.24255,0.93781,1.18616,1.50846,2.10266,1.27124c0.91696-0.23678,1.46591-1.1932,1.22339-2.13145   C326.17914,47.16903,325.23557,46.59881,324.3186,46.83602L324.3186,46.83602z"
       id="path18" /><path
       class="st1"
       d="M334.52002,45.93002l-7.78003-30.05005c-0.52997-2.06995-2.60999-3.32996-4.64001-2.81l-12.20996,3.16003   c-2.03003,0.51996-3.23999,2.63-2.70001,4.70001l7.77002,30.04999c0.52997,2.08002,2.62,3.33002,4.63995,2.81l12.22003-3.16003   C333.84003,50.11002,335.04999,47.99997,334.52002,45.93002z M314.60999,18.12997l4.29004-1.10999   c0.25995-0.07001,0.53998,0.10004,0.60999,0.37c0.07001,0.27002-0.09003,0.54999-0.35999,0.62l-4.29004,1.11005   c-0.26001,0.06995-0.53998-0.10004-0.60999-0.37006C314.17999,18.48001,314.34003,18.19998,314.60999,18.12997z M325.45001,51.22   c-1.44,0.38-2.94-0.52002-3.32001-2c-0.38-1.48999,0.47998-3,1.92999-3.37c1.45001-0.38,2.94,0.52997,3.33002,2.01001   C327.77002,49.34,326.90002,50.85001,325.45001,51.22z M330.84003,42.95999l-14.10004,3.65002   c-0.53998,0.13-1.08002-0.20001-1.21997-0.73999l-5.73999-22.19c-0.14001-0.55005,0.16998-1.10004,0.70996-1.24005   l14.10004-3.64996c0.52997-0.13,1.07996,0.20001,1.21997,0.73999l5.73999,22.19   C331.69,42.26999,331.37,42.81998,330.84003,42.95999z"
       id="path20" /><path
       class="st1"
       d="M387.76001-0.00003c-0.54999,4.80005-2.39001,8.65002-5.35999,11.17004   c-2.79004,2.38-6.54004,3.54999-10.55005,3.28998c-7.21997-0.46997-14.50995-5.63-15.50995-14.46002h-5.57001   C351.75,12.18997,361.69,19.32999,371.47998,19.97c5.46002,0.35999,10.61005-1.27002,14.51001-4.59003   c4.17999-3.56,6.71002-8.87,7.33002-15.38H387.76001z"
       id="path22" /><path
       class="st1"
       d="M418.71063,32.68645l-9.67828-0.63452c-0.72498-0.04744-1.40253,0.49174-1.44907,1.20652   c-0.05011,0.75957,0.55115,1.38256,1.27612,1.43l9.67828,0.63452c0.72498,0.04744,1.4025-0.49174,1.45212-1.25129   C420.03372,33.40168,419.47815,32.73656,418.71063,32.68645L418.71063,32.68645z"
       id="path24" /><path
       class="st1"
       d="M413.86713,39.94727c1.76297-0.10907,3.18542-0.91342,4.22034-2.32656l-9.08099-0.59506   C409.84763,38.56162,411.84561,40.08385,413.86713,39.94727L413.86713,39.94727z"
       id="path26" /><path
       class="st1"
       d="M427.51001,9.30002c-1.37-5.25-6.04999-8.88-11.42999-9.23004   c-0.51001-0.02997-0.98004-0.01996-1.48999-0.00995C411.15002,0.19998,408.19,1.53,405.81,3.88998   c-3.94,3.96002-4.34998,10.17004-2.02997,14.76001c0.70996,1.48999,1.60999,2.84998,2.45996,4.25   c1.03003,1.82001,1.59003,3.78003,1.46002,5.84003c-0.06,0.88995,0.70001,1.69995,1.71997,1.76996   c0.56,0.04004,7.67004,0.55005,8.82001,0.62l0.13,0.01001c1.20001,0.08002,2.01001-0.63,2.09003-1.75   c0.00995-0.26001,0.07001-0.52997,0.08997-0.79999c0.29999-1.90997,1.22003-3.59998,2.42999-5.09003   c0.80005-0.97998,1.63-1.90997,2.34003-2.98999C427.77002,17.07999,428.57001,13.31998,427.51001,9.30002z M408.96997,8.01999   c-1.01996,1.13-1.68994,2.60004-1.79999,4.23999c-0.09998,1.62,0.36005,3.14001,1.22003,4.41003   c0.35999,0.53998,0.22998,1.31-0.29004,1.70001c-0.51996,0.37994-1.22998,0.25995-1.62-0.29004   c-1.13995-1.67999-1.76996-3.76001-1.60999-5.96997c0.14001-2.23999,1.06-4.23999,2.42999-5.75   c0.42999-0.48999,1.16003-0.51001,1.63-0.06C409.39001,6.74997,409.41998,7.53,408.96997,8.01999z"
       id="path28" /><path
       class="st1"
       d="M382.59998,165.51999c0.66003,0.69,0.87,1.66998,0.63,2.57001h-5.38995   c-0.16003-0.89001,0.12994-1.84998,0.84998-2.53998C379.81,164.45999,381.56,164.44998,382.59998,165.51999z"
       id="path30" /><polygon
       class="st1"
       points="397.44,167.53 400.82001,168.09 396.85999,168.09  "
       id="polygon32" /><path
       class="st1"
       d="M420.58002,166.86002c-0.84003,0.81-2.04004,1.01996-3.02002,0.62l-0.63,0.60999h-3.01001l2.19-2.10999   c-0.37-1-0.10999-2.17999,0.73004-3c1.12994-1.09003,2.87994-1.10004,3.90997-0.03003S421.71002,165.76999,420.58002,166.86002z"
       id="path34" /><path
       class="st1"
       d="M429.82001,164.85001V168.03l-0.16998-0.16998l-0.97003-1.01001l-1.27997,1.23999h-3.01001l2.83997-2.73999   l-7.34998-7.60999l-7.92999,7.64996l-14.56-2.41998l-4.10004,3.96997c0.13,0.36005,0.17999,0.76001,0.15002,1.15002h-5.52002   c0.01001-0.72998,0.31-1.46002,0.89001-2.02997c0.84998-0.81006,2.03998-1.03003,3.02002-0.63l4.92999-4.75l14.56,2.40997   l1.52997-1.46997l-3.25-3.37006c-1.01996,0.41003-2.19995,0.22003-2.97998-0.57996   c-1.02997-1.07001-0.95001-2.82001,0.16998-3.91003c1.13-1.08997,2.88-1.09998,3.91003-0.02997   c0.77997,0.79999,0.92999,1.98999,0.47998,2.98999l3.25,3.37l5.58002-5.39001l4.32001,4.48999l2.59998-12.09998l-3.77002-3.90997   c-1.01996,0.41998-2.19995,0.21997-2.96997-0.58002c-1.03003-1.07001-0.96002-2.82001,0.15997-3.90002   c1.13-1.08997,2.88-1.09998,3.91003-0.02997c0.77997,0.79999,0.92999,1.97998,0.47998,2.98999l4.53003,4.67999l-3.16003,14.66998   l3.54004,3.67004L429.82001,164.85001z"
       id="path36" /><polygon
       class="st1"
       points="376.25327,111.13255 369.35074,105.85821 374.46722,98.81422 376.27142,100.33466    372.50293,105.42722 377.55469,109.18688  "
       id="polygon38" /><polygon
       class="st1"
       points="381.84958,115.6391 379.86752,115.92643 381.91739,93.00575 383.87729,92.72152  "
       id="polygon40" /><polygon
       class="st1"
       points="389.60965,109.196 387.77792,107.65295 391.54959,102.58789 386.49472,98.80118 387.82361,96.87768    394.70221,102.15733  "
       id="polygon42" /><path
       class="st1"
       d="M347.9472,9.13501l-3.68475,0.95291l0.97375,3.76497l1.08813-0.28157   c0.01242,0.11174,0.02438,0.22392,0.03415,0.33967c0.10153,1.11737,0.05939,2.36603-0.30774,3.27723   c-0.42435,1.10939-1.32047,1.96119-2.01752,2.48219l-2.41125-9.32398l1.71024-0.44254   c0.043-0.01107,0.07492-0.04476,0.08246-0.09001c0.00845-0.04433-0.00974-0.08955-0.04611-0.11526l-3.53882-2.55894   c-0.02707-0.02038-0.06119-0.0266-0.09402-0.01816c-0.03104,0.00798-0.05765,0.02969-0.07315,0.06119l-1.85391,3.95341   c-0.01816,0.03992-0.01239,0.08869,0.01596,0.12327c0.02838,0.03548,0.07272,0.05012,0.1153,0.03903l1.71112-0.44208   l3.64661,14.10085c-0.8558-0.1246-2.01575-0.4381-2.89948-1.18346c-0.76352-0.62032-1.40558-1.69117-1.85876-2.71766   c-0.08646-0.19421-0.16318-0.38309-0.23633-0.56622c0.71167-0.48244,1.07883-1.38744,0.84735-2.28357   c-0.29309-1.13245-1.42911-1.81886-2.53763-1.53242c-1.10852,0.2869-1.76965,1.43799-1.47656,2.5709   c0.22836,0.88281,0.96976,1.4925,1.81088,1.58208c0.11264,0.29973,0.23947,0.61854,0.38623,0.94801   c0.53564,1.20076,1.30405,2.5558,2.42453,3.48297c1.42957,1.14844,3.02673,1.46457,4.01773,1.54795l0.39465,1.52665   c-1.23535,0.7764-1.88095,2.31236-1.48853,3.82882c0.48288,1.86763,2.35538,2.997,4.18356,2.52432   c1.82727-0.47268,2.9176-2.36869,2.43475-4.23589c-0.39243-1.51778-1.70181-2.54692-3.15839-2.62673l-1.63132-6.30794   c0.82474-0.5414,2.10928-1.59894,2.81964-3.33977c0.5303-1.3515,0.54538-2.91231,0.43277-4.21991   c-0.02307-0.25586-0.05145-0.49884-0.08337-0.73429L348.92093,12.9L347.9472,9.13501z"
       id="path44" /><path
       class="st1"
       d="M327.44-0.00003c-0.35999,0.71002-1.03998,1.35004-2.35999,1.35004l-18.81-0.48999   c-1.46002-0.04004-2.98004-0.17004-4.04004-0.86005h-4.54999c0.91003,2.33002,3.23999,4.31006,8.5,4.45001l18.79999,0.48999   c2.27002,0.06,5.55005-1.23999,6.33002-4.94H327.44z"
       id="path46" /><path
       class="st1"
       d="M9.02002,155.18997l-3.19,12.14001C3.88,167.36002,1.92999,167.54001,0,167.88998V168.09h10.02002   l2.03998-7.76001L22.54999,163.09l-1.32001,5H25.62l2.09998-7.97998L9.02002,155.18997z"
       id="path48" /><path
       class="st1"
       d="M68.08002,132.68997C62.56,127.01999,53.44,126.82999,47.75,132.26999   c-5.69,5.42999-5.83002,14.47003-0.31,20.13c1.89001,1.95001,4.21002,3.25,6.66998,3.90002   c4.70001,1.22998,9.92004,0.08997,13.65002-3.48004C73.46002,147.38998,73.59998,138.36002,68.08002,132.68997z    M65.14001,150.12997c-4.20001,4.01001-10.92999,3.87-15-0.31S46.16998,138.97,50.37,134.95999   c2.76001-2.63,6.60999-3.46997,10.08002-2.56c1.81,0.47998,3.51996,1.44,4.91998,2.87   C69.44,139.44998,69.34003,146.12003,65.14001,150.12997z M68.08002,132.68997C62.56,127.01999,53.44,126.82999,47.75,132.26999   c-5.69,5.42999-5.83002,14.47003-0.31,20.13c1.89001,1.95001,4.21002,3.25,6.66998,3.90002   c4.70001,1.22998,9.92004,0.08997,13.65002-3.48004C73.46002,147.38998,73.59998,138.36002,68.08002,132.68997z    M65.14001,150.12997c-4.20001,4.01001-10.92999,3.87-15-0.31S46.16998,138.97,50.37,134.95999   c2.76001-2.63,6.60999-3.46997,10.08002-2.56c1.81,0.47998,3.51996,1.44,4.91998,2.87   C69.44,139.44998,69.34003,146.12003,65.14001,150.12997z M68.08002,132.68997C62.56,127.01999,53.44,126.82999,47.75,132.26999   c-5.69,5.42999-5.83002,14.47003-0.31,20.13c1.89001,1.95001,4.21002,3.25,6.66998,3.90002   c4.70001,1.22998,9.92004,0.08997,13.65002-3.48004C73.46002,147.38998,73.59998,138.36002,68.08002,132.68997z    M65.14001,150.12997c-4.20001,4.01001-10.92999,3.87-15-0.31S46.16998,138.97,50.37,134.95999   c2.76001-2.63,6.60999-3.46997,10.08002-2.56c1.81,0.47998,3.51996,1.44,4.91998,2.87   C69.44,139.44998,69.34003,146.12003,65.14001,150.12997z M68.08002,132.68997C62.56,127.01999,53.44,126.82999,47.75,132.26999   c-5.69,5.42999-5.83002,14.47003-0.31,20.13c1.89001,1.95001,4.21002,3.25,6.66998,3.90002   c4.70001,1.22998,9.92004,0.08997,13.65002-3.48004C73.46002,147.38998,73.59998,138.36002,68.08002,132.68997z    M65.14001,150.12997c-4.20001,4.01001-10.92999,3.87-15-0.31S46.16998,138.97,50.37,134.95999   c2.76001-2.63,6.60999-3.46997,10.08002-2.56c1.81,0.47998,3.51996,1.44,4.91998,2.87   C69.44,139.44998,69.34003,146.12003,65.14001,150.12997z M68.08002,132.68997C62.56,127.01999,53.44,126.82999,47.75,132.26999   c-5.69,5.42999-5.83002,14.47003-0.31,20.13c1.89001,1.95001,4.21002,3.25,6.66998,3.90002   c4.70001,1.22998,9.92004,0.08997,13.65002-3.48004C73.46002,147.38998,73.59998,138.36002,68.08002,132.68997z    M65.14001,150.12997c-4.20001,4.01001-10.92999,3.87-15-0.31S46.16998,138.97,50.37,134.95999   c2.76001-2.63,6.60999-3.46997,10.08002-2.56c1.81,0.47998,3.51996,1.44,4.91998,2.87   C69.44,139.44998,69.34003,146.12003,65.14001,150.12997z M89.51001,150.01999l0.20996-13.63l-8.53998-0.17999   c-0.46002-1.65997-1.08997-3.23999-1.88-4.73999l6.12-5.84998L75.84003,115.78l-6.12006,5.84998   c-1.48999-0.83997-3.06995-1.51996-4.71997-2.02997l0.13-8.46002L51.37,110.85001l-0.14001,8.46002   c-1.66998,0.44995-3.26996,1.06-4.77997,1.83997l-5.94-6.09998l-9.88,9.44l5.94,6.08997   c-0.84003,1.47003-1.51001,3.03003-2.02002,4.66998L26,135.06998l-0.21002,13.63l8.54004,0.17999   c0.45996,1.66003,1.08997,3.25,1.88,4.75l-6.12,5.84003l8.38995,8.62h2.47003l4.83997-4.63   c1.49005,0.84003,3.07001,1.52002,4.73004,2.03003L50.47998,168.09h3.76001l0.09003-5.45001L52.87,162.28   c-2.27997-0.57001-4.40997-1.47998-6.31-2.71997l-1.26001-0.82001L39.75,164.03l-4.33002-4.45001l5.54004-5.28998l-0.78003-1.28003   c-1.17999-1.92999-2.02997-4.06-2.52002-6.33997l-0.31-1.46002L29.62,145.05002l0.09998-6.17004l7.73004,0.16003l0.35999-1.44   c0.54999-2.26001,1.46002-4.35999,2.71002-6.23999l0.82001-1.23999l-5.38-5.52002l4.46997-4.27002l5.38,5.52002l1.28003-0.77002   c1.94995-1.15997,4.09998-1.98999,6.39996-2.45996l1.47003-0.30005l0.12-7.65997l6.21997,0.13l-0.12,7.65997l1.46002,0.36005   c2.28998,0.56995,4.40997,1.47998,6.32001,2.71997l1.25995,0.82001l5.54004-5.28998l4.33002,4.44995l-5.54004,5.29004   l0.78003,1.27997c1.19,1.92999,2.02997,4.06,2.51996,6.35004l0.31,1.45996l7.73004,0.16003l-0.09003,6.15997L78.06,146.05002   l-0.34998,1.44c-0.56,2.25995-1.47003,4.35999-2.71002,6.23999l-0.83002,1.25l5.38,5.51001l-4.46997,4.26996l-5.37-5.51996   l-1.29004,0.76996c-1.94,1.16003-4.08997,1.98999-6.38995,2.46002l-1.48004,0.29999L60.46997,168.09h3.77002l0.04004-2.31   c1.66998-0.45001,3.26996-1.06,4.77997-1.84003l4.03998,4.15002h3.94l7.84003-7.47998l-5.94-6.10004   c0.84003-1.46997,1.52002-3.02997,2.02997-4.66998L89.51001,150.01999z M68.08002,132.68997   C62.56,127.01999,53.44,126.82999,47.75,132.26999c-5.69,5.42999-5.83002,14.47003-0.31,20.13   c1.89001,1.95001,4.21002,3.25,6.66998,3.90002c4.70001,1.22998,9.92004,0.08997,13.65002-3.48004   C73.46002,147.38998,73.59998,138.36002,68.08002,132.68997z M65.14001,150.12997c-4.20001,4.01001-10.92999,3.87-15-0.31   S46.16998,138.97,50.37,134.95999c2.76001-2.63,6.60999-3.46997,10.08002-2.56c1.81,0.47998,3.51996,1.44,4.91998,2.87   C69.44,139.44998,69.34003,146.12003,65.14001,150.12997z M68.08002,132.68997C62.56,127.01999,53.44,126.82999,47.75,132.26999   c-5.69,5.42999-5.83002,14.47003-0.31,20.13c1.89001,1.95001,4.21002,3.25,6.66998,3.90002   c4.70001,1.22998,9.92004,0.08997,13.65002-3.48004C73.46002,147.38998,73.59998,138.36002,68.08002,132.68997z    M65.14001,150.12997c-4.20001,4.01001-10.92999,3.87-15-0.31S46.16998,138.97,50.37,134.95999   c2.76001-2.63,6.60999-3.46997,10.08002-2.56c1.81,0.47998,3.51996,1.44,4.91998,2.87   C69.44,139.44998,69.34003,146.12003,65.14001,150.12997z M68.08002,132.68997C62.56,127.01999,53.44,126.82999,47.75,132.26999   c-5.69,5.42999-5.83002,14.47003-0.31,20.13c1.89001,1.95001,4.21002,3.25,6.66998,3.90002   c4.70001,1.22998,9.92004,0.08997,13.65002-3.48004C73.46002,147.38998,73.59998,138.36002,68.08002,132.68997z    M65.14001,150.12997c-4.20001,4.01001-10.92999,3.87-15-0.31S46.16998,138.97,50.37,134.95999   c2.76001-2.63,6.60999-3.46997,10.08002-2.56c1.81,0.47998,3.51996,1.44,4.91998,2.87   C69.44,139.44998,69.34003,146.12003,65.14001,150.12997z M68.08002,132.68997C62.56,127.01999,53.44,126.82999,47.75,132.26999   c-5.69,5.42999-5.83002,14.47003-0.31,20.13c1.89001,1.95001,4.21002,3.25,6.66998,3.90002   c4.70001,1.22998,9.92004,0.08997,13.65002-3.48004C73.46002,147.38998,73.59998,138.36002,68.08002,132.68997z    M65.14001,150.12997c-4.20001,4.01001-10.92999,3.87-15-0.31S46.16998,138.97,50.37,134.95999   c2.76001-2.63,6.60999-3.46997,10.08002-2.56c1.81,0.47998,3.51996,1.44,4.91998,2.87   C69.44,139.44998,69.34003,146.12003,65.14001,150.12997z"
       id="path50" /><path
       class="st1"
       d="M10.92999-0.00003c-2,0.45001-4.57001,1.02002-7.67999,1.71002L0,2.43002v-2.43005H10.92999z"
       id="path52" /><path
       class="st1"
       d="M20.54999,63.59c-0.35999-1.21997-0.81-2.71997-0.90997-2.97998c-0.37-0.89001-1.03003-1.61005-1.88-2.04004   c-0.71002-0.37-1.51001-0.50995-2.29999-0.40997l-0.01001,0.01001c-0.23004,0.02997-1.42999,0.37-14.72003,4.31   C0.47998,62.55002,0.23999,62.62997,0,62.69998V65.47l5.10999-1.52002c8.41003-2.48999,10.57001-3.13,10.94-3.16998   c0.04999,0.01001,0.09003,0.03003,0.15002,0.03998c0.33997,0.06,0.67999,0.28003,0.85999,0.58002   c0.08002,0.12,0.15002,0.34998,0.88,2.81L18.88,67.41l0.54999-0.06c0.03003,0,0.13-0.01001,0.85999-0.23999l1.17999-0.36005   L20.54999,63.59z M5.21002,84.12003L0.75,85.43997l-0.64001,1.23004C0.08002,86.74002,0.03998,86.80002,0,86.87997V92.59   c0.38-0.73999,0.94-1.81,1.83002-3.48999l0.75-1.42999L5.96997,86.66L5.21002,84.12003z"
       id="path54" /><path
       class="st1"
       d="M46.02997,64.47248c1.62243-0.17603,3.13445,0.56757,4.00753,1.96918l0.18446,0.2962l3.04045,10.26403   c2.4995,8.43807,3.04356,10.29861,3.05109,10.45692c0.04301,0.85754-0.09178,1.5271-0.4505,2.21305   c-0.38267,0.73871-0.84514,1.23045-1.58563,1.68938c-0.2053,0.12858-0.33788,0.17514-1.40694,0.50637   c-0.64915,0.19952-1.41048,0.43233-1.68805,0.521l-0.50814,0.15786l0.98746,3.3934c1.10808,3.81554,1.0429,3.50913,0.85002,3.87406   c-0.21062,0.39861-0.66733,0.58398-1.10498,0.44917c-0.08646-0.02838-1.29564-0.66512-2.68351-1.41315   c-1.38831-0.74802-3.5047-1.88892-4.69747-2.53408l-2.17625-1.17326l-11.3956,3.37568   c-7.44793,2.20641-11.47143,3.38409-11.61243,3.40405c-1.76476,0.22525-3.51047-0.73827-4.24652-2.34209   c-0.08248-0.17958-0.93027-3.01962-3.10032-10.36778l-2.9868-10.11814l-0.00665-0.33832   c-0.01153-0.72675,0.13568-1.38965,0.44385-2.00642c0.3636-0.7272,0.90988-1.30008,1.69116-1.76787   c0.18268-0.10776,1.48453-0.49662,17.66451-5.29652C43.0037,65.3225,45.80871,64.49909,46.02997,64.47248L46.02997,64.47248z"
       id="path56" /><path
       class="st1"
       d="M72.10999-0.00003c-0.26001,0.28003-0.62,0.5-1.03998,0.61005c-0.81,0.20996-1.63-0.04999-2.15002-0.61005   H72.10999z"
       id="path58" /><path
       class="st1"
       d="M73.62-0.00003C73.19,0.85001,72.39001,1.51999,71.38,1.79001c-1.64001,0.41998-3.28998-0.37-3.96002-1.79004   h-9.73999l0.44,1.69C58.76001,4.16,61.37,5.62997,63.94,4.97l15.47998-4.01001C80.14001,0.78,80.78003,0.43997,81.31-0.00003H73.62   z"
       id="path60" /><path
       class="st1"
       d="M239.09047,157.26767c-1.01718-0.26781-2.05212,0.29932-2.3062,1.26462s0.36714,1.96873,1.38432,2.23656   c1.01808,0.26781,2.05299-0.29932,2.30707-1.26505C240.72974,158.53893,240.10808,157.53549,239.09047,157.26767   L239.09047,157.26767z"
       id="path62" /><path
       class="st1"
       d="M254.59003,125.93002l-13.56-3.57001c-2.24005-0.59003-4.53003,0.65997-5.09003,2.79999l-8.14001,30.91998   c-0.56,2.13,0.81,4.34003,3.06,4.94l13.54999,3.56c2.25,0.60004,4.53003-0.65997,5.09003-2.78998l8.15002-30.91998   C258.21002,128.74002,256.83002,126.51999,254.59003,125.93002z M243.96997,126.89999   c0.07001-0.27997,0.37006-0.45001,0.67004-0.37l4.76001,1.26001c0.28998,0.07001,0.46997,0.35999,0.39996,0.64001   c-0.07001,0.27997-0.37,0.44995-0.66998,0.37l-4.76001-1.25C244.07001,127.47,243.89001,127.18002,243.96997,126.89999z    M241.54999,159.79001c-0.40997,1.52002-2.03998,2.41998-3.64996,1.98999c-1.61005-0.41998-2.59003-2-2.19-3.53003   c0.40997-1.51996,2.03998-2.41998,3.64996-2C240.96997,156.68002,241.95001,158.25998,241.54999,159.79001z M254.82001,133.64999   L248.81,156.48001c-0.15002,0.56-0.75,0.89001-1.34003,0.72998l-15.64996-4.12c-0.59003-0.15002-0.95001-0.72998-0.79999-1.28998   l6.01001-22.84003c0.14996-0.56,0.75-0.89001,1.33997-0.72998l15.65002,4.12   C254.60999,132.49997,254.96997,133.09,254.82001,133.64999z"
       id="path64" /><path
       class="st1"
       d="M25.95001,35.64999l-5.17999-5.76001l2.02997-1.82996L18.32001,23.09   c-3.67999-4.09003-9.79999-4.75-14.25-1.77002C2.81,19.92001,1.42999,18.89999,0,18.19998v3.67004   c0.59998,0.42999,1.17999,0.94,1.72998,1.54999C0.98999,24.31003,0.40997,25.30002,0,26.35001v8.21997   c0.46002,1.15002,1.12,2.23004,2,3.20001l4.48999,4.97998l2.02002-1.82996l5.19,5.76001c0.72998,0.81,1.96997,0.88,2.77997,0.14996   c0.81-0.72998,0.87-1.96997,0.14001-2.77997L11.44,38.29001l6.40002-5.77002l5.19,5.76001C23.76001,39.09,25,39.16,25.81,38.43002   C26.62,37.69998,26.67999,36.45999,25.95001,35.64999z M11.77002,34.51999c-0.13,0.04999-0.28003-0.01001-0.35004-0.14001   l-2.23999-4.16998l-1.64996,1.48999c-0.08002,0.07001-0.19,0.10004-0.29004,0.06C7.13,31.73001,7.06,31.63998,7.03998,31.53   l-1.25-7.71002C5.77002,23.72,5.81,23.62003,5.88,23.55002c0.02997-0.03003,0.06-0.05005,0.09998-0.06   c0.14001-0.05005,0.29004,0.00995,0.36005,0.13995l2.22998,4.17004l1.65997-1.48999c0.08002-0.07001,0.19-0.10004,0.29004-0.06006   c0.09998,0.04004,0.17999,0.13,0.19,0.23004l1.25995,7.70996C11.98999,34.34,11.90997,34.47,11.77002,34.51999z"
       id="path66" /><path
       class="st1"
       d="M7.37,138.74002l-7.37,1.63v-2.87006l6.76001-1.5c0.87-0.18994,1.69,0.31006,1.83997,1.01001   C8.77002,137.79001,8.17999,138.56003,7.37,138.74002z"
       id="path68" /><path
       class="st1"
       d="M7.56,141.22c-0.71997,1.76001-2.06,3.02997-3.97998,3.70001C2.42999,145.32999,1.15002,145.26999,0,144.93997   v-2.04999L7.56,141.22z"
       id="path70" /><path
       class="st1"
       d="M9.45001,109.43997c-2.07001-3.26996-5.56-5.32996-9.45001-5.94v32.32001   c2.40997-0.50995,5.07001-1.08997,5.77002-1.23999l0.14996-0.03998c1.34003-0.29999,2.04004-1.28003,1.78003-2.44   c-0.06-0.27002-0.07001-0.56-0.14001-0.84003c-0.25-2.03998,0.27002-4.04999,1.15997-5.94995   c0.59003-1.24005,1.23004-2.46002,1.69-3.78003C12.09998,117.26999,11.84998,113.18997,9.45001,109.43997z"
       id="path72" /><path
       class="st1"
       d="M223.25032,110.41862l9.22112,2.04412c0.69083,0.15342,1.18747,0.79636,1.04866,1.42156   c-0.1472,0.66424-0.86906,1.03715-1.55946,0.88417l-9.22157-2.04457c-0.69038-0.15298-1.18745-0.79591-1.04024-1.46014   C221.82919,110.67713,222.51958,110.25634,223.25032,110.41862L223.25032,110.41862z"
       id="path74" /><path
       class="st1"
       d="M225.93091,117.9356c-1.62245-0.56445-2.7487-1.63439-3.3566-3.12203l8.65222,1.91817   C230.04706,117.82342,227.7879,118.59318,225.93091,117.9356L225.93091,117.9356z"
       id="path76" /><path
       class="st1"
       d="M242.66998,89.18997c-1.62-2.65997-4.04999-4.58997-7.22998-5.62   c-0.47998-0.14996-0.91998-0.28998-1.40997-0.39996c-5.11005-1.13-10.43005,0.71997-13.05005,4.85999   c-2.01996,3.15997-2.22998,6.59998-0.81,10.19c0.39001,1.10999,0.92999,2.13,1.42999,3.19   c0.75,1.59998,1.18005,3.28998,0.97003,5.01001c-0.04999,0.22998-0.06,0.47998-0.10999,0.70996   c-0.22003,0.98004,0.35999,1.80005,1.5,2.06l0.12,0.02002c1.09998,0.25,7.88995,1.71002,8.41998,1.83002   c0.97998,0.20996,1.90002-0.28003,2.07001-1.06c0.39996-1.79999,1.41998-3.33002,2.84998-4.60999   c1.16003-0.98004,2.34003-1.91003,3.39001-2.98004C244.15002,99.06998,245.34998,93.62997,242.66998,89.18997z M241.46002,96.49002   c-0.41003,1.94-1.54004,3.54999-3.04004,4.67999c-0.48999,0.37-1.20001,0.27997-1.58997-0.19   c-0.38-0.47003-0.31-1.16003,0.16998-1.53003c1.13-0.85999,1.95001-2.03998,2.26001-3.45001   c0.32001-1.43994,0.07001-2.87-0.59003-4.10999c-0.29999-0.53998-0.07996-1.20001,0.47003-1.45996   c0.54999-0.27002,1.22998-0.06,1.51001,0.47998C241.53998,92.56998,241.90002,94.53,241.46002,96.49002z"
       id="path78" /><path
       class="st1"
       d="M57.48907,27.02142L47.25209,37.65304l1.12981,6.75178c-0.88416,0.58353-1.38832,1.68894-1.19454,2.84712   c0.25806,1.54307,1.65702,2.59528,3.1247,2.34963c1.46768-0.24564,2.44762-1.6956,2.18955-3.23865   c-0.19378-1.15818-1.03093-2.03923-2.05653-2.30351l-0.9418-5.62818l10.23653-10.63116l-1.81797-10.86397l9.14796-1.53063   c0.57067,0.93691,1.63352,1.48365,2.73495,1.29918c1.46768-0.24566,2.44805-1.69515,2.18999-3.2382   c-0.25806-1.54262-1.65701-2.59439-3.12469-2.34873c-1.10188,0.184-1.92838,1.04733-2.16339,2.11905L55.49639,15.1128   L57.48907,27.02142z"
       id="path80" /><path
       class="st1"
       d="M68.33485,66.25205c1.46768-0.24564,2.44806-1.69558,2.18954-3.23865   c-0.25806-1.54262-1.65702-2.59439-3.1247-2.34873c-1.10187,0.18402-1.92838,1.04778-2.16295,2.11905l-5.35371,0.89613   l-8.49837-8.99365l6.14476-1.02827l-1.27924-7.64304l4.61766-0.77287c0.57067,0.93648,1.63352,1.4832,2.73495,1.2992   c1.46768-0.24566,2.44806-1.6956,2.18955-3.23867c-0.25806-1.54262-1.65702-2.59439-3.12426-2.34873   c-1.10187,0.18445-1.92883,1.04778-2.16339,2.11949l-4.61766,0.77242L55.5363,41.7493l10.23742-10.63162l-1.12981-6.75221   c0.88416-0.58308,1.38831-1.68895,1.19454-2.84714c-0.25806-1.54305-1.65701-2.59482-3.12469-2.34917   c-1.46724,0.24566-2.44762,1.69558-2.18956,3.23866c0.19377,1.15818,1.03093,2.03967,2.05653,2.30262l0.94225,5.62862   L53.28556,40.97066l1.81797,10.86351l-10.43917,1.74703l-2.9092-17.3834l8.10861-8.42077   c0.45184,0.19911,0.95555,0.27981,1.47079,0.19378c1.46724-0.24566,2.44807-1.69559,2.18956-3.23866   c-0.25806-1.54259-1.65702-2.59436-3.12426-2.34874c-1.46768,0.24566-2.44806,1.69561-2.18999,3.23823   c0.03414,0.20617,0.09179,0.40084,0.16407,0.58663l-8.86951,9.21135l3.09721,18.507l-3.36148,0.56224l-3.15042-18.82803   c0.88416-0.58352,1.38832-1.68894,1.19454-2.84712c-0.25806-1.54307-1.65746-2.59439-3.1247-2.34874   c-1.46768,0.24521-2.44762,1.69515-2.18955,3.23822c0.19377,1.15818,1.03049,2.03923,2.05653,2.30306l3.15086,18.82801   l-4.37821,0.73252c-0.57067-0.93648-1.63352-1.48365-2.73539-1.29919c-1.46724,0.24564-2.44762,1.69515-2.18955,3.23822   c0.25806,1.54305,1.65702,2.59482,3.1247,2.34918c1.10187-0.18446,1.92883-1.04778,2.1634-2.11951l4.37777-0.7325l0.00221,0.01108   l11.32687-1.89512l10.30793,10.90873l6.42233-1.07482C66.17057,65.88935,67.23298,66.43652,68.33485,66.25205L68.33485,66.25205z"
       id="path82" /><path
       class="st1"
       d="M294.46637,65.39223l-6.67776,17.92435l-8.57773,2.54074c-0.18314,1.35728-1.19632,2.57221-2.66754,3.00808   c-1.95984,0.58086-3.99066-0.44076-4.53561-2.28134c-0.54538-1.84059,0.60126-3.80312,2.56113-4.38398   c1.47165-0.43587,2.98279,0.03149,3.87582,1.06994l7.14996-2.11772l6.67819-17.92479l13.80063-4.08778l-3.39871-11.4732   c-1.42511-0.12727-2.672-1.04688-3.08124-2.42854c-0.54541-1.84059,0.60172-3.80356,2.56198-4.38399   c1.9599-0.58087,3.99069,0.44075,4.53564,2.28135c0.4097,1.38211-0.13525,2.83205-1.26105,3.71532l4.16495,14.06049   L294.46637,65.39223z"
       id="path84" /><path
       class="st1"
       d="M242.19823,75.19361c-0.54495-1.84058,0.6017-3.80355,2.56155-4.38398   c1.96033-0.58041,3.99112,0.44076,4.53653,2.28135c0.40926,1.38209-0.1357,2.8325-1.26152,3.71532l1.98869,6.71455   l15.39827,4.71963l-2.28268-7.70644l9.70932-2.87595l-1.71555-5.79136c-1.42465-0.12726-2.67154-1.04733-3.08035-2.42899   c-0.54541-1.84059,0.60126-3.80312,2.56113-4.38398c1.9603-0.58042,3.99112,0.44119,4.53607,2.28178   c0.4097,1.38166-0.1348,2.83205-1.26151,3.71487l1.71555,5.79137l2.66357-0.78882l6.67773-17.92524l8.57773-2.54073   c0.18314-1.35728,1.19632-2.57221,2.66708-3.00808c1.9599-0.58042,3.99115,0.44074,4.53653,2.28133   c0.54495,1.84059-0.60214,3.80356-2.56201,4.38398c-1.47168,0.43587-2.98239-0.03148-3.87497-1.06994l-7.15039,2.11772   l-6.67816,17.92524l-13.80023,4.08779l3.87851,13.09297l22.08264-6.54116l5.28897-14.19751   c-0.48996-0.41059-0.87131-0.94801-1.06287-1.59406c-0.54492-1.84059,0.60129-3.80312,2.56161-4.38398   c1.96027-0.58041,3.99109,0.44119,4.53604,2.28133c0.54538,1.84059-0.60126,3.80356-2.56155,4.38398   c-0.26163,0.07761-0.52325,0.12195-0.78308,0.14456l-5.78558,15.52994l-23.50998,6.96418l1.24863,4.21549l23.91748-7.08435   c0.18356-1.35771,1.19632-2.57221,2.66754-3.00809c1.96033-0.58086,3.99112,0.44076,4.53607,2.28135   c0.54541,1.84059-0.60126,3.80312-2.56158,4.38398c-1.47165,0.43587-2.98236-0.03192-3.87537-1.07039l-23.91791,7.08479   l1.6264,5.49117c1.42557,0.12725,2.672,1.04733,3.08127,2.42899c0.54538,1.84059-0.60172,3.80312-2.56201,4.38353   c-1.95987,0.58088-3.99069-0.44074-4.53607-2.28133c-0.40881-1.38166,0.13565-2.83205,1.2619-3.71532l-1.6264-5.49073   l-0.01416,0.00399l-4.2084-14.20638l-18.67728-5.7244l-2.38597-8.0554C243.85388,77.49535,242.60748,76.57529,242.19823,75.19361   L242.19823,75.19361z"
       id="path86" /><polygon
       class="st1"
       points="171.34724,102.90235 164.44469,97.62801 169.56119,90.58403 171.36542,92.10447 167.59689,97.19702    172.64865,100.95669  "
       id="polygon88" /><polygon
       class="st1"
       points="176.94354,107.40885 174.9615,107.69618 177.01138,84.77551 178.97125,84.49127  "
       id="polygon90" /><polygon
       class="st1"
       points="184.70364,100.96577 182.87192,99.42271 186.64355,94.35766 181.58868,90.57094 182.91759,88.64745    189.79619,93.9271  "
       id="polygon92" /><path
       class="st1"
       d="M131.01001,168.09H95.92999c0.47998-4.27002,4.60004-6.27002,4.60004-6.27002s-2.64001-6.89996,4.87-11.48999   c7.5-4.58997,14.09998,1.73999,14.09998,1.73999s1.53003-2.82001,5.27002-2.15997c3.73999,0.66998,4,3.54999,4,3.54999   s6.13995-1.22998,7.90997,4.75C138.23999,163.48001,135.41998,166.37997,131.01001,168.09z"
       id="path94" /><path
       class="st1"
       d="M394.39001,136.18002c-0.35999-2.85004-2.22003-6.82001-7.73004-8.44   c-5.40997-1.58002-9.62,1.08997-11.87994,3.57996c-1.31006-0.5-3.03003-0.63-4.98004,0.27002   c-2.08997,0.97003-3.06,2.44-3.44,3.76001c-2.39996,0.72998-5.28998,2.72998-5.39996,7.04999   c-0.11005,3.88,1.57996,8.53998,10.19,8.77002l21.28998,0.56c2.88,0.07001,7.22998-1.83002,7.37-7.39001   C399.94,139.69998,396.89001,137.22,394.39001,136.18002z M392.54999,147.59l-21.28998-0.54999   c-3.03003-0.08002-6.23999-0.51001-6.14001-4.53003c0.08002-2.88,2.54999-3.31,3.28998-3.37c0,0,0.18005-2.35999,1.86005-3.57996   c0.91998-0.67004,2.35999-0.85004,3.23999-0.72003c0.88,0.12,1.72998,0.40997,1.72998,0.40997s4.94-5.08997,10.23999-3.53998   c4.98999,1.46002,4.83002,5.35999,4.79004,5.78003l-0.19,1.88l1.87,0.35999c0.14996,0.03998,3.79999,0.77997,3.70001,4.5   C395.63,145.01999,395.34003,147.60001,392.54999,147.59z"
       id="path96" /><path
       class="st1"
       d="M271.07001,163.67001c-4.98999-0.17999-8.67999,1.88-11.21002,4.41998h21.48004   C279.28003,165.79001,276.01001,163.85001,271.07001,163.67001z"
       id="path98" /><path
       class="st1"
       d="M74.41927,58.12774c-0.08736-0.00754-0.17516-0.0328-0.25674-0.0767   c-0.28601-0.15432-0.41947-0.49219-0.31438-0.79992l5.41846-15.92503l-8.12191-0.71034   c-0.2421-0.02129-0.45361-0.17337-0.55116-0.39597c-0.09756-0.22303-0.06563-0.48154,0.08336-0.67398l16.5591-21.38471   c0.19908-0.25673,0.5547-0.33299,0.84113-0.1787c0.28601,0.15432,0.41947,0.4922,0.31483,0.79992l-5.41891,15.92458   l8.12193,0.71078c0.24255,0.02128,0.45405,0.17337,0.5516,0.39597c0.09711,0.22303,0.06563,0.48154-0.08336,0.67398   L75.00368,57.87233C74.86178,58.05591,74.63918,58.14681,74.41927,58.12774L74.41927,58.12774z"
       id="path100" /><path
       class="st1"
       d="M262.34003,0.56998c-0.13-0.19-0.27002-0.38-0.42004-0.57001H256.25   c0.96002,0.86005,1.83002,1.85004,2.58002,2.96002c5.13995,7.54999,3.10999,17.91003-4.52002,23.10999   c-7.63,5.19-18.02002,3.28003-23.15997-4.26996c-4.73004-6.95001-3.38-16.31,2.83997-21.80005h-5.66998   c-5.23999,6.95001-5.78998,16.68005-0.66998,24.19c6.44,9.46002,19.45996,11.86005,29.01996,5.35004   C266.23999,23.01999,268.78003,10.03,262.34003,0.56998z M262.34003,0.56998c-0.13-0.19-0.27002-0.38-0.42004-0.57001H256.25   c0.96002,0.86005,1.83002,1.85004,2.58002,2.96002c5.13995,7.54999,3.10999,17.91003-4.52002,23.10999   c-7.63,5.19-18.02002,3.28003-23.15997-4.26996c-4.73004-6.95001-3.38-16.31,2.83997-21.80005h-5.66998   c-5.23999,6.95001-5.78998,16.68005-0.66998,24.19c6.44,9.46002,19.45996,11.86005,29.01996,5.35004   C266.23999,23.01999,268.78003,10.03,262.34003,0.56998z M207.53998-0.00003l7.85004,1.44l0.64001-1.44H207.53998z    M262.34003,0.56998c-0.13-0.19-0.27002-0.38-0.42004-0.57001H256.25c0.96002,0.86005,1.83002,1.85004,2.58002,2.96002   c5.13995,7.54999,3.10999,17.91003-4.52002,23.10999c-7.63,5.19-18.02002,3.28003-23.15997-4.26996   c-4.73004-6.95001-3.38-16.31,2.83997-21.80005h-5.66998c-5.23999,6.95001-5.78998,16.68005-0.66998,24.19   c6.44,9.46002,19.45996,11.86005,29.01996,5.35004C266.23999,23.01999,268.78003,10.03,262.34003,0.56998z M289.51001,30.36002   l3.67999-18.88l-12.44-2.29004c-0.21997-2.89996-0.78998-5.71997-1.70001-8.42999l1.12-0.76001H274.25l0.28998,0.73004   c1.27002,3.26001,1.96002,6.72998,2.07001,10.31l0.06,1.67999l11.56,2.14001l-2.07001,10.58997l-11.56-2.13l-0.67999,1.54004   c-1.46997,3.29999-3.42999,6.28998-5.83997,8.87l-1.15002,1.22998l6.56,9.64001l-8.95996,6.10999l-6.57001-9.64001l-1.57001,0.62   c-3.28003,1.29004-6.77002,2.02002-10.38,2.17004l-1.69,0.07001L242.06,55.47l-10.60999-1.95001l2.25-11.53998l-1.54004-0.66998   c-3.31-1.42004-6.27997-3.35004-8.83997-5.71002l-1.22998-1.14001l-9.75,6.64001l-6.03003-8.87l9.75-6.63L215.45001,24.03   c-1.27002-3.25-1.97003-6.71997-2.08002-10.31l-0.04999-1.67999L201.75,9.91l1.95001-9.91003h-4.31l-2.60004,13.29004   l12.44,2.28998c0.23004,2.90002,0.80005,5.72003,1.70001,8.42999l-10.5,7.14001l10.77002,15.81L221.69,39.81003   c2.19,1.82996,4.60999,3.38995,7.21997,4.66998l-2.42999,12.41998l18.92004,3.47998l2.42999-12.41998   c2.91998-0.25,5.76001-0.84998,8.47998-1.77002l7.07001,10.38l15.97998-10.88l-7.06-10.37994   c1.85999-2.20001,3.45001-4.63,4.76001-7.25L289.51001,30.36002z M262.34003,0.56998c-0.13-0.19-0.27002-0.38-0.42004-0.57001   H256.25c0.96002,0.86005,1.83002,1.85004,2.58002,2.96002c5.13995,7.54999,3.10999,17.91003-4.52002,23.10999   c-7.63,5.19-18.02002,3.28003-23.15997-4.26996c-4.73004-6.95001-3.38-16.31,2.83997-21.80005h-5.66998   c-5.23999,6.95001-5.78998,16.68005-0.66998,24.19c6.44,9.46002,19.45996,11.86005,29.01996,5.35004   C266.23999,23.01999,268.78003,10.03,262.34003,0.56998z M262.34003,0.56998c-0.13-0.19-0.27002-0.38-0.42004-0.57001H256.25   c0.96002,0.86005,1.83002,1.85004,2.58002,2.96002c5.13995,7.54999,3.10999,17.91003-4.52002,23.10999   c-7.63,5.19-18.02002,3.28003-23.15997-4.26996c-4.73004-6.95001-3.38-16.31,2.83997-21.80005h-5.66998   c-5.23999,6.95001-5.78998,16.68005-0.66998,24.19c6.44,9.46002,19.45996,11.86005,29.01996,5.35004   C266.23999,23.01999,268.78003,10.03,262.34003,0.56998z"
       id="path102" /><path
       class="st1"
       d="M159.97998-0.00003L169.37,4.22l1.94-4.22003H159.97998z M179.31-0.00003L181,4.55002l12.06-4.55005H179.31z"
       id="path104" /><path
       class="st1"
       d="M224.07001,163.70999l-4.48999,3.06c-0.96002-0.81-2.01001-1.5-3.15002-2.07001l0.98999-5.39996l-8.19-1.63   l-0.97998,5.40997c-1.26001,0.09003-2.47998,0.33002-3.65997,0.72003l-3.11005-4.56l-6.83997,4.65997l2.85999,4.19h2.20001   l-2.52002-3.69l3.84003-2.60999l2.88995,4.23999l0.67004-0.26001C206,165.22,207.5,164.92001,209.06,164.87997l0.72998-0.01996   l0.91003-5.03003l4.58997,0.91003l-0.90997,5.02997l0.66998,0.29004c1.19,0.52997,2.28003,1.20996,3.26001,2.02997h2.62   l2.67999-1.83002l1.25,1.83002h2.19L224.07001,163.70999z"
       id="path106" /><path
       class="st1"
       d="M131.03998,97.23001c-0.84998-0.35999-1.82996,0.03998-2.17999,0.89001   c-3.34998,7.97998-11.35999,10.22998-17.16998,7.79999c-4.79999-2.02002-8.52002-7.52002-4.58002-16.92004   c1.63-3.87994,1.76001-7.62994,0.40002-10.82996c-1.21002-2.85004-3.56-5.12-6.60004-6.39001   c-6-2.52002-14.19995-0.84003-17.58997,7.22998c-5.5-1.41998-11.38,1.37-13.64001,6.75L66.94,92.31003l2.65997,1.12   l-3.16998,7.56995c-0.45001,1.07001,0.04999,2.29004,1.10999,2.73004c1.06,0.45001,2.29004-0.04999,2.73004-1.10999   l3.17999-7.58002L81.87,98.56998L78.69,106.14999c-0.44,1.06,0.06,2.28003,1.12,2.72998c1.06,0.44,2.28998-0.06,2.72998-1.12   l3.17999-7.57996l2.66003,1.12l2.75-6.55005c2.25-5.37,0.12-11.52997-4.73999-14.44995c2.56-6.07001,8.71997-7.33002,13.22998-5.44   c2.23999,0.94,3.95001,2.57996,4.82001,4.62c1,2.35999,0.85999,5.20001-0.40997,8.22998   c-2.09003,4.97998-2.45001,9.66998-1.06006,13.56c1.25,3.5,3.89001,6.23999,7.43005,7.72998   c7.31995,3.07001,17.38,0.32001,21.53998-9.58997C132.28998,98.56003,131.89001,97.57999,131.03998,97.23001z M83.79999,90.56998   c-0.08997,0.07001-0.20996,0.09003-0.32001,0.04004L81.31,89.69998l-0.77997,4.95001C80.5,94.80002,80.37,94.91,80.21997,94.91   c-0.14996,0.01001-0.27997-0.09998-0.31-0.25l-1.44-8.16003c-0.01996-0.10999,0.03003-0.22998,0.12006-0.29999   c0.08997-0.07001,0.20996-0.08997,0.31-0.03998l2.16998,0.90997l0.78998-4.94995c0.02002-0.15002,0.15002-0.27002,0.29999-0.27002   c0.05005,0,0.09003,0.01001,0.13,0.02997c0.09003,0.04004,0.16003,0.12,0.17999,0.23004l1.44,8.15997   C83.92999,90.37997,83.89001,90.49997,83.79999,90.56998z"
       id="path108" /><path
       class="st1"
       d="M159.03078,46.13885c1.02782-0.19997,1.69868-1.23977,1.4903-2.31148   c-0.2084-1.07128-1.21983-1.78429-2.24765-1.5843c-1.02782,0.19953-1.69868,1.23977-1.4903,2.31105   C156.99109,45.62584,158.00294,46.33839,159.03078,46.13885L159.03078,46.13885z"
       id="path110" /><path
       class="st1"
       d="M154.00407,24.39515c-0.42656-2.19485-0.05188-4.3454,0.91875-6.18642   c0.4026-0.79283,0.11926-1.81001-0.65004-2.24143c-0.76933-0.43145-1.72266-0.15654-2.14655,0.64027   c-1.27879,2.46005-1.80069,5.39806-1.21938,8.38931c0.57332,2.94822,2.1328,5.45923,4.21904,7.26523   c0.67043,0.58442,1.66188,0.50327,2.23477-0.18844c0.55116-0.68817,0.43365-1.73728-0.23766-2.32169   C155.55067,28.38275,154.42221,26.54746,154.00407,24.39515L154.00407,24.39515z"
       id="path112" /><path
       class="st1"
       d="M160.16936,20.29294c0.40306-0.7928,0.08247-1.78027-0.68729-2.21128   c-0.79015-0.42744-1.7355-0.1095-2.13811,0.68376c-0.75691,1.50936-1.02916,3.30473-0.67754,5.11206   c0.34276,1.76519,1.23888,3.2883,2.48486,4.40835c0.65004,0.58842,1.64548,0.52944,2.22192-0.14144   c0.57687-0.67044,0.50415-1.70625-0.17027-2.31193c-0.7334-0.68373-1.23933-1.52357-1.4402-2.55669   C159.55878,22.2209,159.72551,21.20593,160.16936,20.29294L160.16936,20.29294z"
       id="path114" /><path
       class="st1"
       d="M180.46159,27.33739c1.25795-2.45601,1.76344-5.36789,1.16927-8.31256   c-0.5813-2.99214-2.1656-5.52044-4.27269-7.32157c-0.67043-0.58441-1.6579-0.48197-2.20906,0.2062   c-0.55249,0.68817-0.45448,1.74081,0.23679,2.32124c1.56877,1.34752,2.72163,3.20097,3.14821,5.39584   c0.41856,2.15231,0.05986,4.27666-0.8855,6.13544c-0.4026,0.79326-0.09888,1.806,0.67044,2.23745   C179.08881,28.43084,180.03859,28.13465,180.46159,27.33739L180.46159,27.33739z"
       id="path116" /><path
       class="st1"
       d="M175.87183,20.14445c-0.33078-1.81177-1.27658-3.3699-2.5434-4.4864   c-0.67088-0.58398-1.66678-0.52455-2.21837,0.16317c-0.57245,0.69218-0.47888,1.72354,0.19156,2.30795   c0.75378,0.67975,1.26814,1.56257,1.47343,2.61745c0.20042,1.03315,0.06696,1.99713-0.37733,2.90965   c-0.37823,0.81055-0.05765,1.79802,0.70767,2.20773c0.78572,0.40571,1.73106,0.0878,2.13412-0.70503   C175.95474,23.65716,176.23541,21.90523,175.87183,20.14445L175.87183,20.14445z"
       id="path118" /><path
       class="st1"
       d="M190.59998,39.31003l-0.5-2.56006c-0.75-3.87994-4.37-6.42999-8.09998-5.70996l-11.63,2.26001   l-1.65997-8.55005c0.35999-0.56995,0.50995-1.27997,0.37-2.00995c-0.29004-1.47003-1.67999-2.45001-3.09003-2.17999   c-1.40997,0.27997-2.33997,1.70996-2.04999,3.17999c0.14001,0.72998,0.54999,1.32996,1.09003,1.71997l1.66998,8.56L155.06,36.28   c-3.71997,0.71997-6.12,4.45001-5.37,8.33002l0.5,2.54999c0.71002,3.67999,3.98999,6.14001,7.47998,5.81l0.13,0.65997   c0.20001,1.05005,1.17999,1.76001,2.21002,1.56c1-0.19995,1.66998-1.22998,1.45996-2.26996l-0.12-0.64001l20.82001-4.04999   l0.12,0.64001c0.21002,1.04999,1.17999,1.75995,2.21002,1.56c1.01001-0.20001,1.66998-1.23004,1.46997-2.27002l-0.12994-0.66998   C189.20001,46.49002,191.31,42.98001,190.59998,39.31003z M184.48999,43.81003l-26.95001,5.22998   c-1.69,0.33002-3.32996-0.83002-3.67999-2.59003l-0.48999-2.56c-0.34998-1.76001,0.75-3.45001,2.44-3.77997l26.94-5.23999   c1.69-0.33002,3.34003,0.82996,3.67999,2.59998l0.5,2.54999C187.27002,41.78,186.17999,43.48001,184.48999,43.81003z"
       id="path120" /><path
       class="st1"
       d="M112.95933,60.61859l-9.14133-1.12226c-0.68506-0.08425-1.35107,0.34497-1.42689,0.96486   c-0.08115,0.65846,0.46115,1.23667,1.14577,1.32047l9.14175,1.12271c0.68418,0.0838,1.35019-0.34587,1.43089-1.00433   C114.18091,61.31919,113.68385,60.70773,112.95933,60.61859L112.95933,60.61859z"
       id="path122" /><path
       class="st1"
       d="M108.04831,66.65564c1.67475,0.00932,3.05818-0.60747,4.10153-1.77718l-8.57731-1.05309   C104.30106,65.21236,106.12702,66.65564,108.04831,66.65564L108.04831,66.65564z"
       id="path124" /><path
       class="st1"
       d="M122.33002,40.76999c-1.06-4.64996-5.34003-8.08002-10.41003-8.70996   c-0.48999-0.06006-0.94-0.07001-1.41998-0.09003c-3.26001-0.09003-6.12,0.90002-8.47998,2.81   c-3.91003,3.21997-4.57001,8.59998-2.59003,12.73999c0.60999,1.33002,1.40002,2.57001,2.15002,3.84003   c0.89996,1.63995,1.33997,3.38995,1.12,5.16998c-0.10004,0.78003,0.58997,1.53003,1.54999,1.65002   c0.53003,0.06,7.25,0.92999,8.33002,1.06l0.13,0.00995c1.12,0.14001,1.92999-0.42999,2.04999-1.39996   c0.02997-0.22998,0.09998-0.46002,0.12-0.69c0.37-1.64001,1.32001-3.06,2.52997-4.28998   c0.80005-0.80005,1.63-1.57001,2.35004-2.46002C122.22998,47.56998,123.15997,44.34,122.33002,40.76999z M104.82001,38.56998   c-1.01001,0.92004-1.71002,2.16003-1.89001,3.59003c-0.16998,1.39001,0.20001,2.73999,0.96002,3.90002   c0.32001,0.5,0.15997,1.15997-0.35004,1.45996c-0.50995,0.31-1.17999,0.16003-1.51996-0.33997   c-1-1.53003-1.52002-3.38-1.27002-5.29004c0.23999-1.95001,1.20001-3.63,2.56-4.87c0.44-0.39996,1.13-0.37,1.54999,0.04999   C105.28003,37.49002,105.27002,38.17001,104.82001,38.56998z"
       id="path126" /><path
       class="st1"
       d="M160.87021,72.03086l-14.00285,4.6629l-5.60823-3.92683c-0.90677,0.54716-2.12215,0.52633-3.08391-0.14722   c-1.28145-0.89745-1.62865-2.61256-0.77507-3.83149c0.85356-1.21938,2.58374-1.47965,3.86563-0.58219   c0.96176,0.67353,1.39673,1.80823,1.19322,2.84757l4.67485,3.27368l14.0024-4.66288l9.02292,6.31768l5.32002-7.59781   c-0.59993-0.9183-0.63583-2.11284,0.00488-3.02803c0.85356-1.21893,2.58374-1.47966,3.86519-0.58221   c1.28189,0.89747,1.62865,2.61256,0.77507,3.8315c-0.6407,0.91519-1.77541,1.28988-2.84402,1.04023l-6.51942,9.3107   L160.87021,72.03086z"
       id="path128" /><path
       class="st1"
       d="M130.13058,45.3525c0.85356-1.21893,2.58418-1.47921,3.86563-0.58219   c1.28102,0.89702,1.62865,2.61301,0.77507,3.83149c-0.64072,0.91521-1.77628,1.28989-2.84445,1.04024l-3.11317,4.44651   l4.45892,11.54193l3.57343-5.10319l6.34784,4.44517l2.68529-3.83505c-0.59993-0.91874-0.63586-2.11328,0.00531-3.02803   c0.85312-1.21893,2.58374-1.47921,3.86519-0.5822c1.28146,0.89702,1.6282,2.61256,0.77509,3.8315   c-0.64073,0.9152-1.77585,1.28988-2.84447,1.04023l-2.68529,3.8346l1.74171,1.21938l14.00284-4.66288l5.60779,3.92682   c0.90767-0.54716,2.12262-0.52631,3.08437,0.14722c1.28145,0.89746,1.62863,2.61301,0.77507,3.83193   c-0.85312,1.2185-2.58418,1.47921-3.86563,0.58176c-0.9622-0.67354-1.39717-1.80822-1.19321-2.84801l-4.67487-3.2728   l-14.00285,4.6629l-9.02292-6.31769l-6.07069,8.66997l14.43781,10.10972l11.09099-3.69359   c0.01509-0.49352,0.15874-0.98305,0.4585-1.41093c0.8531-1.21893,2.58418-1.47965,3.86563-0.58219   c1.28146,0.89701,1.62819,2.613,0.77464,3.8315c-0.85358,1.21893-2.58374,1.47965-3.8652,0.58263   c-0.17114-0.11971-0.32236-0.25584-0.45892-0.40128l-12.13211,4.04034l-15.3712-10.76286l-1.95454,2.79171l15.63724,10.94954   c0.90723-0.54717,2.12216-0.52634,3.08392,0.14721c1.28189,0.89745,1.62865,2.61256,0.77551,3.83149   c-0.85355,1.21893-2.58418,1.47966-3.86563,0.58219c-0.9622-0.67353-1.39717-1.80822-1.19321-2.84757l-15.6377-10.94953   l-2.54561,3.63596c0.59949,0.91874,0.6354,2.11328-0.00532,3.02847c-0.85357,1.21894-2.58418,1.47922-3.86564,0.58221   c-1.28145-0.89747-1.6282-2.61301-0.77508-3.83194c0.64072-0.91476,1.77629-1.28987,2.84446-1.03979l2.54605-3.63596   l-0.00931-0.00665l6.58727-9.40781l-5.4087-14.00019l3.73528-5.33376C129.52577,47.46226,129.48985,46.26772,130.13058,45.3525   L130.13058,45.3525z"
       id="path130" /><path
       class="st1"
       d="M219.94,74.32999c-0.60999-2.52997-2.89001-4.25-5.23999-4.02997   c-0.09003-0.01001-0.19-0.05005-0.27002-0.03003l-3.37,0.81L209.58002,64.91l3.31-0.79999   c2.51996-0.60004,3.83997-3.25,3.19-6.11005c-0.65002-2.69995-3.42004-4.48999-6.03003-3.87   c-2.75,0.66003-4.38,3.14001-3.76001,5.72003l0.83002,3.46997l-5.89001,1.42004l-0.82996-3.47003   c-0.63-2.64996-3.20001-4.08002-5.94-3.48999c-2.58002,0.62-4.23004,3.47998-3.58002,6.21002   c0.69,2.88,3.09998,4.63,5.57001,4.03998l3.31-0.78998l1.47998,6.16998l-3.31,0.78998   c-2.52002,0.61005-3.83997,3.29004-3.14996,6.14001c0.64996,2.72998,3.33997,4.51001,5.91998,3.90002   c2.76996-0.67004,4.46997-3.13,3.84998-5.69L203.70001,75.03l5.89001-1.41998l0.76996,3.17999   c0.64001,2.66998,3.42004,4.37,5.98999,3.71997C218.92999,79.88998,220.59998,77.06003,219.94,74.32999z M195.96002,65.99997   c-1.71002,0.41003-2.98004-0.92999-3.36005-2.51996c-0.40997-1.70001,0.56-3.46002,2.19-3.85004   C196.25,59.28,198,59.92001,198.44,61.74002l0.83002,3.46997L195.96002,65.99997z M210.56,55.87997   c1.65002-0.39996,3.34003,0.69,3.73999,2.39001c0.38,1.56-0.16998,3.37-1.89996,3.79004L209.06,62.86002l-0.84003-3.5   C207.78998,57.56998,209.03998,56.24002,210.56,55.87997z M200.15997,82.49997c-1.62994,0.39001-3.21997-0.68994-3.63995-2.41998   c-0.37-1.56,0.19995-3.38,1.90997-3.78998l0.01001,0.02997l3.31-0.78998l0.84998,3.52002   C203.01001,80.79001,201.66998,82.12997,200.15997,82.49997z M203.21002,72.97l-1.48004-6.17999l5.89001-1.41003l1.47998,6.17004   L203.21002,72.97z M216.06,78.68002c-1.65002,0.39996-3.34003-0.69-3.73999-2.37L211.56,73.13998l-0.01001-0.02997l3.06-0.73004   c1.59003-0.38995,3.23999,0.68005,3.67004,2.44C218.69,76.56003,217.69,78.29001,216.06,78.68002z"
       id="path132" /><path
       class="st1"
       d="M138.66998,16.80002c-1.47998,6.95996-7.84998,5.59998-7.84998,5.59998l-26.66003-5.65997   C98.35999,15.49997,94.09003,12.78,95.45001,6.39999C96.81,0.00998,103.31,0.79001,103.31,0.79001s0-0.32001,0.15002-0.79004   H132.38c2.12,3.59003,1.06,7.19,1.06,7.19S140.15002,9.82999,138.66998,16.80002z"
       id="path134" /><path
       class="st1"
       d="M179.01001,155.91c0.08002,0.53998,0.15997,1.13,0.21997,1.73999   c0.21002,2.26001,0.19,4.92999-0.70996,7.27002c-0.5,1.25-1.17999,2.29999-1.90002,3.16998h-7.08997l-1.26001-4.79999   c-1.69-0.12-4.5-0.63-7.02002-2.65002c-1.92999-1.57996-3.26001-3.90997-4.19-5.96997   c-0.17999-0.40002-0.34003-0.79004-0.48999-1.17004l-2.13,0.56006l-1.70001-6.47003l6.31-1.65997l1.70001,6.46997l-1.85999,0.48999   c0.07001,0.17004,0.14996,0.35004,0.22998,0.53003c0.78998,1.76996,1.90002,3.60999,3.21002,4.66998   c1.57001,1.29999,3.63,1.83002,5.10999,2.03003l-4.22003-16.02002l-2.92999,0.77002c-0.07996,0.01996-0.14996,0-0.19995-0.07001   c-0.05005-0.05005-0.06-0.14001-0.03003-0.21002l3.15002-6.81c0.01996-0.04999,0.07001-0.09003,0.12-0.09998   c0.06-0.02002,0.12-0.01001,0.16998,0.02997l6.09003,4.37c0.06,0.04999,0.08997,0.13,0.07996,0.20001   c-0.01996,0.08002-0.07001,0.14001-0.13995,0.15997l-2.93005,0.77002l6.37,24.22998   c1.18005-0.90997,2.65002-2.34998,3.35004-4.20996c0.62-1.58002,0.67999-3.72003,0.5-5.64001   c-0.03003-0.37-0.08002-0.71997-0.12-1.04999c-1.47003-0.13-2.78003-1.17999-3.17999-2.72003   c-0.52002-1.94,0.60999-3.92999,2.51001-4.42999c1.89996-0.5,3.84998,0.67999,4.35999,2.62   C180.78998,153.53,180.20001,155.06998,179.01001,155.91z"
       id="path136" /><path
       class="st1"
       d="M163.78421,126.74346c0.06296-0.00532,0.12636-0.02261,0.18489-0.05186   c0.20663-0.10244,0.30461-0.32502,0.23102-0.52589l-3.8071-10.40459l5.84502-0.51125   c0.17424-0.01553,0.32722-0.11617,0.39861-0.26294c0.0714-0.14633,0.05011-0.3157-0.05586-0.44076l-11.78891-13.91993   c-0.14145-0.16671-0.39685-0.2146-0.60393-0.11217c-0.20618,0.10243-0.30417,0.32502-0.23056,0.52588l3.8071,10.40459   l-5.84502,0.51126c-0.17424,0.01552-0.32722,0.11617-0.39862,0.26293c-0.07094,0.14633-0.05011,0.31571,0.05588,0.44119   l11.78891,13.91949C163.46672,126.69913,163.6259,126.75721,163.78421,126.74346L163.78421,126.74346z"
       id="path138" /><path
       class="st1"
       d="M344.79919,137.09734c-0.08292-0.0071-0.16586-0.03104-0.24344-0.07228   c-0.27094-0.14543-0.39731-0.46335-0.29843-0.7529l5.12448-14.98058l-7.69492-0.67352   c-0.22971-0.01997-0.43008-0.16319-0.5228-0.37247c-0.09219-0.20974-0.06204-0.45316,0.07895-0.63409l15.67581-20.11169   c0.18802-0.24121,0.52499-0.31304,0.79639-0.1676c0.27136,0.145,0.39771,0.46336,0.29886,0.75291l-5.12448,14.98057l7.69492,0.6731   c0.22968,0.01994,0.43008,0.16317,0.52231,0.37291c0.09271,0.20972,0.06253,0.45272-0.07846,0.63407l-15.67581,20.11169   C345.2182,137.03038,345.00757,137.11551,344.79919,137.09734L344.79919,137.09734z"
       id="path140" /><path
       class="st1"
       d="M136.09003,113.74002c-8.81-1.09003-15.99005,4.56-17.01001,12.90997   c-1.14001,9.27002,4.5,15.75,13.85999,16.90002c2.96002,0.35999,5.77997,0.10999,8.39001-0.45001   c0.23999-0.07001,0.76001-0.14001,0.57996-0.95001l-0.27997-1.15002c-0.17999-0.75995-0.46002-0.69995-0.98999-0.53998   c-2.07001,0.58002-5.20001,0.79999-7.66003,0.5c-7.66998-0.94-12.02997-6.94-11.15997-13.96997   c0.84998-6.98004,6.90997-11.75,14.12-10.87c5.23999,0.64996,10.88,5.31995,10.04999,12.02997   c-0.67999,5.57001-3.26001,6.54999-4.84998,6.34998c-1.92004-0.22998-2.46002-1.5-2.26001-3.13995l0.52997-4.29004   c0.44-3.60999-0.82996-5.70996-4.97998-6.21997c-1.41998-0.16998-3.25,0.02002-4.64996,0.48999   c-0.24005,0.07001-0.30005,0.23999-0.25,0.53003l0.31995,1.56995c0.06,0.28003,0.28003,0.36005,0.51001,0.34003   c1.04999-0.23999,2.38-0.5,3.57001-0.34998c2.19,0.26996,2.60004,1.42999,2.46002,2.56995l-0.09003,0.73004l-0.14996,0.08002   c-0.70001-0.69-1.90002-1.12006-2.63-1.21002c-3.19-0.39001-5.80005,1.22998-6.20001,4.52002   c-0.39001,3.14996,1.88,5.41998,4.79999,5.77997c1.5,0.17999,3.37-0.27997,4.41998-1.31c0.80005,1.44,2.29004,2.13,4.20001,2.37   c3.10999,0.38,7.12-1.34998,8.01001-8.64996C149.66998,120.87003,144.16998,114.73001,136.09003,113.74002z M135.66998,131.10001   c-0.19,1.54999-1.29999,2.66998-3.12,2.44c-1.59998-0.19-2.64001-1.57001-2.45001-3.12s1.53003-2.64001,3.13-2.45001   C135.51001,128.24997,135.81,129.95999,135.66998,131.10001z"
       id="path142" /><path
       class="st1"
       d="M246.31,3.49002c-5.65002-0.70001-10.26001,2.92999-10.90997,8.28998   c-0.73004,5.94,2.88995,10.10999,8.88995,10.84003c1.90002,0.23999,3.70001,0.06995,5.38-0.29004   c0.15002-0.03998,0.48999-0.08997,0.37-0.60999L249.87,20.99002c-0.12-0.49005-0.31-0.46002-0.65002-0.35004   c-1.31995,0.37-3.32996,0.51001-4.90997,0.32001c-4.91998-0.59998-7.71002-4.45001-7.15997-8.96997   c0.54999-4.48004,4.42999-7.54004,9.06-6.97003c3.37,0.41003,6.97998,3.41003,6.44995,7.72003   c-0.44,3.57001-2.08997,4.19995-3.10999,4.07996c-1.22998-0.14996-1.58002-0.96997-1.45001-2.01996l0.34003-2.76001   c0.27997-2.31-0.53003-3.66003-3.20001-3.98999c-0.89996-0.11005-2.08002,0.01996-2.97998,0.32001   c-0.15002,0.03998-0.19,0.15997-0.16003,0.33997l0.21002,1c0.03003,0.19,0.17999,0.22998,0.33002,0.22003   c0.66998-0.15002,1.51996-0.31,2.27997-0.22003c1.41003,0.16998,1.67004,0.91998,1.58002,1.65002l-0.06,0.46997l-0.09003,0.04999   c-0.44995-0.44995-1.21997-0.71997-1.69-0.77997c-2.04999-0.25-3.71997,0.79999-3.97998,2.89996   c-0.25,2.02002,1.21002,3.48004,3.08002,3.71002c0.96997,0.12,2.15997-0.17999,2.83997-0.83997   c0.51001,0.92999,1.46002,1.37,2.69,1.51996c1.99005,0.23999,4.57001-0.87,5.14001-5.54999   C255.02002,8.06003,251.48999,4.12003,246.31,3.49002z M246.03998,14.62997c-0.12,1-0.82996,1.71002-2,1.57001   c-1.02997-0.13-1.69-1.01001-1.57001-2.01001c0.12006-0.98999,0.98004-1.69,2-1.56   C245.94,12.81003,246.13,13.89999,246.03998,14.62997z"
       id="path144" /><path
       class="st1"
       d="M321.32001,75.29001C315.66998,74.59,311.06,78.22,310.40997,83.57999   c-0.72998,5.94,2.89001,10.10004,8.89001,10.84003c1.90002,0.23999,3.70001,0.07001,5.38-0.29004   c0.15002-0.03998,0.48999-0.08997,0.37-0.60999L324.87,92.79001c-0.10999-0.48999-0.29999-0.46002-0.64001-0.35004   c-1.32001,0.37006-3.32996,0.51001-4.90997,0.32001c-4.91998-0.59998-7.71002-4.44995-7.16003-8.96997   c0.55005-4.47998,4.43005-7.54004,9.06-6.97003c3.37006,0.41003,6.98004,3.41003,6.45001,7.72003   c-0.44,3.57001-2.08997,4.20001-3.10999,4.08002c-1.22998-0.15002-1.58002-0.97003-1.45001-2.02002l0.34003-2.76001   c0.27997-2.31-0.53003-3.65997-3.20001-3.98999c-0.90002-0.10999-2.08002,0.02002-2.97998,0.32001   c-0.15002,0.03998-0.20001,0.15997-0.16003,0.33997l0.21002,1c0.02997,0.19,0.17999,0.23004,0.33002,0.22003   c0.66998-0.15002,1.51996-0.32001,2.27997-0.22003c1.41003,0.17004,1.66998,0.92004,1.58002,1.65002l-0.06,0.46997   l-0.09003,0.05005c-0.45001-0.45001-1.21997-0.72003-1.69-0.78003c-2.04999-0.25-3.71997,0.78998-3.97998,2.90002   c-0.25,2.01996,1.21002,3.47998,3.08002,3.70996c0.96997,0.12,2.15997-0.17999,2.83997-0.83997   c0.51001,0.92999,1.46002,1.37,2.69,1.51996c1.98999,0.24005,4.57001-0.87,5.14001-5.54999   C330.03003,79.86002,326.5,75.92001,321.32001,75.29001z M321.04999,86.43002c-0.12,1-0.83002,1.70996-2.01001,1.56995   c-1.01996-0.12994-1.67999-1.00995-1.56-2.00995c0.12-0.99005,0.98004-1.69,2-1.56   C320.95001,84.61002,321.14001,85.69998,321.04999,86.43002z"
       id="path146" /><path
       class="st1"
       d="M269.54279,153.92487l3.37524-4.32944l0.50989-0.65714c0.08426-0.1144,0.28867-0.11572,0.37469,0.00356   l0.44385,0.662l4.66776,7.25105c0.0488,0.09224,0.19113,0.13525,0.31393,0.04745l2.16251-1.40738   c0.0896-0.08247,0.13525-0.22437,0.05365-0.31082l-4.80832-7.05997l-0.44342-0.662   c-0.08688-0.11928-0.01239-0.2993,0.15298-0.32768l0.78574-0.20087l5.52576-1.44374   c0.19379-0.0665,0.22479-0.30638,0.07141-0.41458l-16.18887-10.65378c-0.15298-0.1082-0.36935,0.02971-0.3392,0.22525   l3.02359,19.19827C269.18317,154.01976,269.4306,154.07829,269.54279,153.92487L269.54279,153.92487z"
       id="path148" /><path
       class="st1"
       d="M109.3008,134.49855l-3.424-3.59204l-0.51791-0.54495c-0.08557-0.09578-0.26959-0.07317-0.33655,0.047   l-0.3392,0.66246l-3.54594,7.22932c-0.03548,0.09091-0.16007,0.14722-0.27802,0.08026l-2.07116-1.04245   c-0.0878-0.06519-0.1419-0.19066-0.07626-0.27979l3.68959-7.06972l0.33922-0.66245c0.0674-0.12016-0.01553-0.27757-0.16718-0.28378   l-0.72408-0.09267l-5.09875-0.68019c-0.18047-0.03813-0.22924-0.25586-0.10154-0.37336l13.60023-11.71928   c0.12815-0.11751,0.33523-0.01642,0.32547,0.16805l-0.99458,18.04272C109.63291,134.54379,109.4152,134.62669,109.3008,134.49855   L109.3008,134.49855z"
       id="path150" /><path
       class="st1"
       d="M218.69,123.67001c-1.09003-1.14001-2.65002-1.67004-4.35999-1.62c0.14996-1.85004,0.19-3.66003,0.13-5.40002   l-28.24005-3.46997c-0.66998,2.37-1.18994,4.90997-1.50995,7.56c-1.27002,10.34998,0.69,19.67999,4.63,24.47998l14.34998,1.76001   c2.73999-2.04004,5.21997-5.54004,7.13-10.01001c1.97998-0.20001,4.12-1.14001,5.90997-2.78003   C220.27002,130.94998,221.15002,126.24002,218.69,123.67001z M215.44,132.43002c-1.04999,0.94-2.27002,1.51996-3.46002,1.71997   c1.01001-2.51001,1.72003-6.91998,2.03003-9.06c0.02002-0.15997,0.03998-0.23999,0.03998-0.23999h-0.01001   c0.01001-0.09003,0.02002-0.16998,0.03003-0.25c1.03998,0.02002,1.96997,0.37,2.64001,1.04999   C218.34003,127.31998,217.77002,130.35001,215.44,132.43002z"
       id="path152" /><path
       class="st1"
       d="M202.52306,103.94676c-7.84036,5.99046-0.35208,9.33686-0.35208,9.33686s-9.58429-4.55647-3.43953-9.80244   c7.23643-6.17757,4.6651-6.94112,3.49496-8.95065C202.22641,94.53054,209.88229,98.3239,202.52306,103.94676L202.52306,103.94676z"
       id="path154" /><path
       class="st1"
       d="M206.19411,107.21899c-5.90179,2.78328-1.55238,5.95365-1.55238,5.95365s-5.52797-4.23322-0.82431-6.76907   c5.53952-2.98592,3.99115-3.82706,3.52246-5.27834C207.33987,101.12523,211.73404,104.60642,206.19411,107.21899   L206.19411,107.21899z"
       id="path156" /><path
       class="st1"
       d="M47.96997,6.43997c-0.69995-0.94995-1.81-1.5-3.07996-1.63995c0.28998-1.36005,0.5-2.69,0.64001-3.98999   l-3.08002-0.81006H23.17999c-0.08002,0.27002-0.15997,0.54004-0.22998,0.81006C20.96997,8.36002,21.5,15.47,23.94,19.43002   l10.52002,2.76996c2.23999-1.23999,4.44-3.57996,6.31-6.70001c1.5,0.06006,3.17999-0.42999,4.69-1.45996   C48.40997,11.99997,49.53998,8.60001,47.96997,6.43997z M44.66998,12.61002c-0.87,0.57996-1.84998,0.88995-2.75,0.91998   c1-1.75,1.98004-4.96002,2.42004-6.51001C44.37,6.91,44.39001,6.84,44.39001,6.84c0.01001-0.07001,0.02997-0.12,0.04999-0.16998   c0.76001,0.12,1.42999,0.46997,1.85999,1.04999C47.34003,9.11002,46.60999,11.30002,44.66998,12.61002z"
       id="path158" /></g></svg>