<?xml version="1.0" encoding="utf-8"?>
<!-- Generator: Adobe Illustrator 22.1.0, SVG Export Plug-In . SVG Version: 6.00 Build 0)  -->
<svg version="1.1" id="Ebene_1" xmlns="http://www.w3.org/2000/svg" xmlns:xlink="http://www.w3.org/1999/xlink" x="0px" y="0px"
	 viewBox="0 0 429.82001 168.09003" style="enable-background:new 0 0 429.82001 168.09003;" xml:space="preserve">
<style type="text/css">
	.st0{fill:#FFDA9C;}
	.st1{fill:#B26483;}
	.st2{fill:#CE6B8A;}
	.st3{fill:#FF7998;}
	.st4{opacity:0.55;}
	.st5{fill:#9B5A6F;}
	.st6{fill:#FF4F70;}
	.st7{fill:#FFFFFF;}
	.st8{opacity:0.38;}
	.st9{fill:#FFBC94;}
	.st10{fill:#FFE6B4;}
	.st11{fill:#674447;}
</style>
<rect class="st0" width="429.82001" height="168.09003"/>
<rect class="st1" width="429.82001" height="168.09003"/>
<g>
	<path class="st2" d="M386.85999,83.17999c0,30.83002-8.02997,59.79999-22.10999,84.91003H61.23999
		c-2.77002-4.94-5.31-10.03003-7.59998-15.26001C44.31,131.51001,39.13,107.95001,39.13,83.17999
		c0-8.14001,0.56-16.14996,1.65002-24C43.70001,37.98999,50.44,18.03003,60.28998,0h305.42004
		c10.63,19.46997,17.63995,41.20001,20.13,64.28003C386.52002,70.48999,386.85999,76.78998,386.85999,83.17999z"/>
</g>
<g>
	<path class="st3" d="M317,83.17999c0,35.06-17.34998,66.07001-43.92999,84.91003H152.92999
		c-1.67999-1.19-3.32001-2.43005-4.92999-3.73004c-4.38-3.5-8.46997-7.35999-12.22998-11.52997
		c-2.96002-3.28003-5.71002-6.73999-8.23004-10.38C115.84998,125.64001,109,105.21002,109,83.17999
		c0-1.97998,0.06-3.94,0.16998-5.89001c0.34003-6.19995,1.23004-12.25,2.61005-18.10999
		c4.64996-19.69,14.89996-37.21997,28.97998-50.81C143.84998,5.38,147.12,2.59003,150.56,0h124.88
		c7.62,5.72998,14.42999,12.47998,20.21002,20.06c9.75995,12.73999,16.62,27.81,19.63995,44.22003
		C316.40997,70.40997,317,76.72998,317,83.17999z"/>
</g>
<g class="st4">
	<polygon class="st5" points="99.44,0 107.73999,0 106.33002,2.44 	"/>
</g>
<g>
	<rect y="83.17999" class="st6" width="429.82001" height="84.91003"/>
</g>
<g>
	<path class="st7" d="M165,83.1811c0-26.50999,21.49001-48,48-48s48,21.49001,48,48H165z"/>
</g>
<g>
	<path class="st5" d="M149,29.06c0,16.63-13.48999,30.12-30.12,30.12H0V0h126.84003c5.39996,1.46997,10.19,4.40997,13.91998,8.37
		C145.87,13.77002,149,21.04999,149,29.06z"/>
</g>
<g>
	<path class="st5" d="M429.82001,0v64.28003H294.28003C284.72998,64.28003,277,56.54999,277,47.01001
		c0-9.54004,7.72998-17.28003,17.28003-17.28003c0-3.35999,0.47998-6.59998,1.37-9.66998c2.46997-8.5,8.12-15.64001,15.56995-20.06
		H429.82001z"/>
</g>
<g class="st8">
	<path class="st9" d="M347.66998,83.17999c0,32.19-11.28998,61.73999-30.13,84.91003H108.46002
		c-3.92004-4.82001-7.51001-9.92004-10.75-15.26001c-2.04004-3.37-3.92999-6.83002-5.67004-10.38
		C86.35999,130.88,82.28998,118.38,80.13,105.23999c-1.19-7.17999-1.79999-14.54999-1.79999-22.06H347.66998z"/>
</g>
<g class="st8">
	<path class="st10" d="M213,149.3951c36.569,0,66.21399-29.645,66.21399-66.214H146.786
		C146.786,119.7501,176.431,149.3951,213,149.3951z"/>
</g>
<g>
	<g>
		<polygon class="st11" points="156.96002,152.83002 148,164.35999 145.09003,168.09003 57.09998,168.09003 45.22998,152.83002 		
			"/>
	</g>
	<g>
		<path class="st11" d="M108.826,77.27509c-2.328,0-9.311,0-9.311,0v65.17701h50.65199
			C150.166,142.4521,137.131,77.27509,108.826,77.27509z"/>
	</g>
	<g>
		<path class="st11" d="M101.03,88.53709c1.92599,0,7.702,0,7.702,0v53.91502h-41.9
			C66.833,142.4521,77.616,88.53709,101.03,88.53709z"/>
	</g>
	<g>
		<rect x="98.86301" y="56.2321" class="st11" width="4.46899" height="96.59601"/>
	</g>
</g>
<g>
	<g>
		<path class="st5" d="M298.24799,111.04011h-84.474l-12.314-17.384H306.94v8.69199
			C306.94,107.14811,303.04901,111.04011,298.24799,111.04011z"/>
	</g>
	<g>
		<polygon class="st5" points="210.51401,96.19111 228.26001,78.44511 295.62299,78.44511 302.14099,93.65611 278.60101,109.2291 		
			"/>
	</g>
	<g>
		<rect x="249.62799" y="73.9181" class="st5" width="14.48599" height="6.70001"/>
	</g>
	<g>
		<rect x="237.677" y="69.5431" class="st5" width="2.40601" height="11.07501"/>
	</g>
</g>
<g>
	<path class="st3" d="M315.76172,50.39648c-0.01465,0.41064-0.24902,0.80664-0.64551,0.99707
		c-0.74805,0.3667-2.49219,0.82129-3.70996,0.82129c-3.63672,0-5.49902-1.5835-5.49902-4.98535
		c0-3.51953,3.31445-5.2207,6.05664-5.2207c1.02637,0,1.34863,0.04443,1.87695,0.19092
		c0.30762,0.08789,0.4834,0.27832,0.4834,0.76221c0,0.43994-0.27832,0.80664-0.57129,0.80664
		c-0.33789,0-0.58691-0.14648-1.36426-0.14648c-1.20215,0-2.27246,1.36377-2.27246,3.46045
		c0,2.30225,0.7627,3.28467,2.11133,3.40234l-0.05859-3.03564c-0.01465-0.45459,0.10254-0.67432,0.85059-0.74805
		c0.4248-0.04395,1.62793-0.14648,2.12598-0.14648c0.45508,0,0.71875,0.19092,0.71875,0.6748
		C315.86426,47.94775,315.79102,49.39941,315.76172,50.39648z"/>
	<path class="st3" d="M318.48438,44.5166c-0.92383,0-1.62793-0.51318-1.62793-1.20264c0-0.99707,1.20312-1.5249,2.12695-1.5249
		c0.93848,0,1.62695,0.51318,1.62695,1.20264C320.61035,43.98877,319.4082,44.5166,318.48438,44.5166z M320.39062,51.14453
		c0,0.61572-0.23438,0.79199-0.7627,0.87988c-0.60059,0.10254-1.23145,0.19043-1.71484,0.19043
		c-0.45508,0-0.87988-0.14648-0.87988-0.98242c0-1.5249-0.07324-3.37256-0.07324-4.00293c0-0.7627,0.24902-1.05615,0.93848-1.17334
		c0.77637-0.14648,1.43652-0.23438,1.96484-0.23438c0.55664,0,0.62988,0.36621,0.62988,0.95312
		C320.49316,47.21484,320.40527,49.57568,320.39062,51.14453z"/>
	<path class="st3" d="M326.5918,48.3584c-0.74805,0-1.04102-0.49854-1.09961-1.15869
		c-0.20508,0.10303-0.51367,0.3374-0.52832,0.82129c-0.0293,1.17334-0.0293,2.229-0.04395,3.12354
		c-0.01465,0.61572-0.19043,0.77734-0.71875,0.87988c-0.58594,0.11719-1.23145,0.19043-1.71484,0.19043
		c-0.45508,0-0.87988-0.14648-0.87988-0.98242c0-0.73291-0.08789-3.37256-0.08789-4.00293c0-0.7627,0.24902-1.0415,0.93848-1.17334
		c0.76172-0.14648,1.37793-0.23438,1.81738-0.23438c0.44043,0,0.6748,0.33691,0.6748,1.1582
		c0.55762-0.92383,0.93848-1.30518,1.84766-1.30518c0.7627,0,1.23145,0.51318,1.23145,1.29053
		C328.02832,47.77197,327.48633,48.3584,326.5918,48.3584z"/>
	<path class="st3" d="M332.14551,51.05664c0,0.61572-0.23438,0.76221-0.7627,0.87988
		c-0.58594,0.13184-1.23145,0.27832-1.71484,0.27832c-0.45508,0-0.87988-0.14648-0.87988-0.98242
		c0-2.55127-0.08789-6.84814-0.08789-7.87451c0-0.76221,0.27832-1.05566,0.93848-1.27539
		c0.74707-0.24951,1.39258-0.3667,1.9209-0.3667c0.62988,0,0.70312,0.51318,0.70312,1.09961
		C332.2627,43.49023,332.16016,49.4873,332.14551,51.05664z"/>
	<path class="st3" d="M336.13281,52.24414c-1.54004,0-2.44922-0.16113-2.63965-0.23438
		c-0.25-0.08789-0.44043-0.23486-0.44043-0.46924c0-0.43994,0.23535-0.61621,0.48438-0.61621
		c0.19043,0,0.65918,0.08838,0.85059,0.08838c0.60059,0,0.96777-0.11768,0.96777-0.57227c0-0.39551-0.49902-0.64502-0.99707-0.96777
		c-0.66016-0.43994-1.05566-0.8208-1.05566-1.49561c0-1.36377,1.58301-2.11133,3.70898-2.11133
		c1.36426,0,1.98047,0.11719,2.12695,0.16113c0.38086,0.10254,0.46875,0.24951,0.46875,0.57178
		c0,0.30811-0.20508,0.52783-0.4834,0.52783c-0.13184,0-0.41113-0.04395-0.57227-0.04395
		c-0.57227,0-1.09961,0.08789-1.09961,0.61621c0,0.35156,0.57227,0.60107,1.17285,0.93848
		c0.55762,0.30762,1.11426,0.7915,1.11426,1.61279C339.73926,51.54053,338.1709,52.24414,336.13281,52.24414z"/>
	<path class="st3" d="M343.09375,46.62793c-0.32227,0.13232-0.71777,0.22021-0.92383,0.22021
		c-0.16113,0-0.21973-0.08789-0.41016-0.64551c-0.13184-0.39551-0.30762-0.98242-0.52832-1.74463
		c-0.29297-1.0415-0.52734-1.75977-0.52734-2.09717c0-0.20508,0.21973-0.27832,0.64453-0.42529
		c0.29395-0.10254,0.7334-0.20508,0.85059-0.20508c0.14746,0,0.25,0.19043,0.41113,0.67432
		c0.14648,0.42529,0.30762,0.98242,0.4541,1.54004c0.20605,0.76221,0.39648,1.46631,0.48438,1.9209
		c0.0293,0.16113,0.04395,0.33691,0.04395,0.41064C343.59277,46.4082,343.40234,46.49609,343.09375,46.62793z"/>
	<path class="st3" d="M351.69922,52.25879c-1.48145,0-2.85938-0.11719-3.00684-0.14648
		c-0.52734-0.08789-0.60059-0.29346-0.60059-0.79199c0-3.02051-0.10254-5.82129-0.10254-7.50781
		c0-0.90918,0.10254-1.09961,1.02637-1.36377c0.61523-0.17578,2.49219-0.29297,3.92969-0.29297
		c3.31348,0,5.42578,1.5249,5.42578,4.89746C358.37109,50.23535,355.83398,52.25879,351.69922,52.25879z M352.54883,43.57812
		c-0.11719,0-0.24902,0.0293-0.36621,0.05859c-0.04395,2.14062-0.08789,3.8125-0.20508,7.15576
		c1.40723-0.01465,2.27246-0.95312,2.27246-3.70996C354.25,44.07666,353.51758,43.57812,352.54883,43.57812z"/>
	<path class="st3" d="M367.51562,51.29102c0,0.61621-0.21973,0.7627-0.74707,0.87988
		c-0.57227,0.13184-1.04199,0.23486-1.52539,0.23486c-0.45508,0-0.7041-0.24951-0.80664-0.64551
		c-0.43945,0.22021-0.98242,0.49854-2.05273,0.49854c-1.90625,0-3.37305-1.05566-3.37305-3.03516
		c0-2.17041,2.18555-3.40186,4.39941-3.40186c1.34863,0,1.9209,0.32227,2.16992,0.46924
		c0.30859-0.20557,0.95312-0.52832,1.45215-0.52832c0.4248,0,0.57129,0.20557,0.57129,0.6748
		C367.60352,47.00928,367.51562,49.72217,367.51562,51.29102z M364.1582,46.97998c-0.17578-0.07324-0.27832-0.07324-0.45508-0.07324
		c-0.62988,0-1.11426,0.35205-1.11426,1.8916c0,1.73047,0.46973,2.11133,0.95312,2.11133c0.30762,0,0.48438-0.05859,0.64551-0.17578
		C364.17285,49.50195,364.1582,48.12354,364.1582,46.97998z"/>
	<path class="st3" d="M376.67676,51.17383c-0.10254,2.66895-1.31934,3.88574-4.22266,3.88574c-0.36719,0-0.7334,0-1.05664-0.19043
		c-0.23438-0.13184-0.26367-0.30811-0.26367-0.63037c0-0.30811,0.23438-0.45459,0.49902-0.45459
		c1.17285,0,1.84766-0.30811,1.84766-2.21436c-0.77734,0.58643-1.52539,0.70361-2.58105,0.70361
		c-1.62793,0-2.05273-1.02637-2.12598-2.41943c-0.01465-0.35205-0.14648-2.30225-0.14648-3.0498
		c0-0.49854,0.23438-0.71875,0.65918-0.79199c0.42578-0.07324,1.27637-0.20508,1.77441-0.20508
		c0.68945,0,0.93848,0.16113,0.93848,1.02637c0,0.7915-0.08789,2.22852-0.05859,2.87402
		c0.0293,0.74756,0.42578,0.95312,0.87988,0.95312c0.24902,0,0.48438-0.11719,0.66016-0.22021
		c0.01465-0.8208-0.04395-2.771-0.04395-3.48975c0-0.67432,0.17578-0.80664,0.76172-0.95312
		c0.46973-0.11719,1.12988-0.20508,1.68652-0.20508c0.77734,0,0.89453,0.26367,0.89453,1.51025
		C376.7793,48.27051,376.7207,50.00049,376.67676,51.17383z"/>
	<path class="st3" d="M388.98926,51.64307c-0.74805,0.38135-1.97949,0.57178-3.09375,0.57178
		c-3.03516,0-5.17676-1.61279-5.17676-4.73633c0-3.76855,3.09473-5.29346,6.32031-5.29346
		c0.83594,0,1.32031,0.07324,1.68652,0.21973c0.33691,0.13232,0.41016,0.3374,0.41016,0.71875
		c0,0.45459-0.29297,0.80664-0.62988,0.80664c-0.26465,0-0.46973-0.14697-1.08496-0.14697
		c-1.54004,0-2.49316,1.24658-2.49316,3.37256c0,2.5957,1.05566,3.3584,2.375,3.3584c0.58691,0,1.11523-0.32275,1.42285-0.32275
		c0.36621,0,0.60156,0.20508,0.60156,0.73291C389.32715,51.27637,389.22363,51.52588,388.98926,51.64307z"/>
	<path class="st3" d="M398.23828,51.14453c0,0.49854-0.23438,0.68896-0.65918,0.79199
		c-0.42578,0.10254-1.20312,0.27832-1.70117,0.27832c-0.68945,0-0.93848-0.21973-0.93848-1.02637c0-0.55713,0-1.9209,0-2.56592
		c0-0.74805-0.32324-0.95312-0.77734-0.95312c-0.17578,0-0.39551,0.08789-0.57227,0.19043
		c-0.0293,0.80664-0.07324,2.00879-0.10254,3.12354c-0.0293,0.67432-0.19043,0.80615-0.77734,0.95312
		c-0.46875,0.11719-1.08496,0.26367-1.6416,0.26367c-0.82129,0-0.89453-0.30811-0.89453-1.48096
		c0-0.65967-0.07324-6.26123-0.07324-7.03857c0-1.11426,0.21973-1.31982,0.76172-1.5249
		c0.77734-0.29346,1.52539-0.43994,2.1416-0.43994c0.41016,0,0.65918,0.14648,0.65918,1.14355
		c0,0.29346-0.04395,3.21143-0.04395,3.75391c0.68945-0.51318,1.58398-0.76221,2.63965-0.76221
		c1.62793,0,2.05273,0.86475,2.05273,2.24316C398.31152,48.44629,398.23828,50.39648,398.23828,51.14453z"/>
	<path class="st3" d="M407.61914,51.29102c0,0.61621-0.21973,0.7627-0.74707,0.87988
		c-0.57227,0.13184-1.04199,0.23486-1.52539,0.23486c-0.45508,0-0.7041-0.24951-0.80664-0.64551
		c-0.43945,0.22021-0.98242,0.49854-2.05273,0.49854c-1.90625,0-3.37305-1.05566-3.37305-3.03516
		c0-2.17041,2.18555-3.40186,4.39941-3.40186c1.34863,0,1.9209,0.32227,2.16992,0.46924
		c0.30859-0.20557,0.95312-0.52832,1.45215-0.52832c0.4248,0,0.57129,0.20557,0.57129,0.6748
		C407.70703,47.00928,407.61914,49.72217,407.61914,51.29102z M404.26172,46.97998
		c-0.17578-0.07324-0.27832-0.07324-0.45508-0.07324c-0.62988,0-1.11426,0.35205-1.11426,1.8916
		c0,1.73047,0.46973,2.11133,0.95312,2.11133c0.30762,0,0.48438-0.05859,0.64551-0.17578
		C404.27637,49.50195,404.26172,48.12354,404.26172,46.97998z"/>
	<path class="st3" d="M414.37598,51.90723c-0.23535,0.11719-0.95312,0.30762-2.33203,0.30762
		c-1.43652,0-2.69824-0.63037-2.69824-2.80078c0-0.68896-0.0293-1.5835-0.0293-1.8916c-0.19043,0-0.32227,0.0293-0.41016,0.0293
		c-0.42578,0-0.57227-0.10254-0.57227-0.58643c0-0.41064,0.16113-0.63037,0.60156-0.65967
		c0.11719-0.01465,0.21973-0.0293,0.36621-0.04443c0-0.24902,0-0.74756,0-1.20215c0-0.83594,0.33789-0.98242,0.74805-1.17334
		c0.49805-0.21973,1.4668-0.58643,2.06738-0.58643c0.58691,0,0.7041,0.3667,0.68945,1.11475
		c0,0.23438-0.01465,0.87939-0.04395,1.61279c0.4834-0.01465,0.87988-0.07324,1.09961-0.07324
		c0.38086,0,0.57227,0.11719,0.57227,0.54248c0,0.49854-0.19141,0.71875-0.60156,0.7334
		c-0.26367,0.01465-0.58691,0.05859-1.05566,0.08789c-0.05859,1.2168-0.05859,2.14062-0.05859,2.2876
		c0,1.07031,0.4541,1.24609,1.01172,1.24609c0.19043,0,0.49805-0.05859,0.63086-0.05859c0.24902,0,0.33691,0.10254,0.33691,0.38135
		C414.69824,51.55518,414.625,51.7749,414.37598,51.90723z"/>
</g>
</svg>
