<?xml version="1.0" encoding="utf-8"?>
<!-- Generator: Adobe Illustrator 22.1.0, SVG Export Plug-In . SVG Version: 6.00 Build 0)  -->
<svg version="1.1" id="Capa_1" xmlns="http://www.w3.org/2000/svg" xmlns:xlink="http://www.w3.org/1999/xlink" x="0px" y="0px"
	 viewBox="0 0 429.81998 168.09" style="enable-background:new 0 0 429.81998 168.09;" xml:space="preserve">
<style type="text/css">
	.st0{fill:#FFDA9C;}
	.st1{fill:#9AF4EF;}
	.st2{opacity:0.3;}
	.st3{fill:#FFFFF4;}
	.st4{fill:#36B294;}
	.st5{opacity:0.4;}
	.st6{fill:#674447;}
	.st7{fill:#43AB5F;}
	.st8{fill:#71BE63;}
	.st9{fill:#00A07D;}
	.st10{fill:#94D75B;}
	.st11{fill:#B0EB81;}
	.st12{fill:none;}
</style>
<rect x="0.00003" y="0.00001" class="st0" width="429.81995" height="168.08997"/>
<g>
	<g>
		<rect x="0.00003" y="0.00001" class="st1" width="429.81995" height="168.08997"/>
	</g>
	<g class="st2">
		<path class="st3" d="M429.81998,0.00001v168.08997h-258.69c-1.07996-9.73999-1.63995-19.62994-1.63995-29.65997
			c0-0.79999,0-1.59998,0.01996-2.40002c0.05005-6.72998,0.36005-13.40997,0.92004-20.00994
			c0.46997-5.68005,1.12-11.31,1.95996-16.89001c-0.01001-0.01001-0.01001-0.02002,0-0.03003
			c0.66003-4.44,1.42999-8.85999,2.30005-13.22998c1.5-7.42999,3.29999-14.75,5.39996-21.94
			c0.76001-2.59998,1.56-5.19,2.41003-7.77002c6.45996-19.84998,15.20996-38.66998,25.91998-56.15997h221.39996V0.00001z"/>
	</g>
	<g>
		<path class="st4" d="M196.68002,63.13001c0,0-1.77002,23.79999-4.44,25.29999c-0.54004,0.29999-7.17999-0.71002-17.54999-2.56
			C133.97,78.59998,35.75998,58.40998,23.41,54.43c-7.34003-2.37-13.81-3.06-23.40997-3.71997V0.00001h44.42999
			C53.22,7.22999,55.94998,8.91999,63.39999,7.08997C71.54001,5.08997,77.91,4.18,84.66,13.18
			c9.39001,12.52002,18.21997,6.87,27.96997,9.37c10.68005,2.72998,13.33002,5.35999,25.03003,15.38
			c8.75,7.5,25-0.77002,36.25,8.53003c3.75,3.09998,5.65997,6.62994,8.59003,9.69995
			c2.84998,3.02002,6.66998,5.60004,14.13995,6.96002C196.64999,63.13001,196.67001,63.13001,196.68002,63.13001z"/>
	</g>
	<g class="st5">
		<path class="st3" d="M429.81998,21.21998v146.87H321.37003c-0.78003-2.97998-1.45001-6.00995-1.99005-9.07996
			c-1.17999-6.67999-1.79999-13.56-1.79999-20.58002c0-8.35999,0.87-16.51,2.54004-24.36999
			c0.88995-4.22998,2.00995-8.37,3.33997-12.41003C327.97,87.97999,334.92001,75.43,343.81003,64.50001
			c2.38995-2.95001,4.92999-5.78003,7.59998-8.47998c12.17999-12.35004,27.08002-22.01001,43.72998-28
			c4.83002-1.75,9.82001-3.18005,14.92999-4.28003C416.47,22.34998,423.06998,21.50001,429.81998,21.21998z"/>
	</g>
	<g>
		<g>
			<g>
				<path class="st6" d="M381.414,109.44801c-2.793,0-5.05399-2.26199-5.05399-5.05099V49.99902
					c0-2.789,2.26199-5.05099,5.05399-5.05099c2.793,0,5.05399,2.26199,5.05399,5.05099v54.39799
					C386.46802,107.18699,384.207,109.44801,381.414,109.44801z"/>
			</g>
		</g>
		<g>
			<g>
				<path class="st7" d="M413.25003,45.35999c0,15.87-11.60004,29.02002-26.78003,31.44C384.81998,77.06,383.12997,77.2,381.41,77.2
					c-0.82001,0-1.64001-0.03003-2.45001-0.09003c-0.51996-0.04999-1.03998-0.09998-1.56-0.16998h-0.03998
					c-0.16998-0.03003-0.33002-0.04999-0.5-0.07001s-0.33002-0.03998-0.5-0.07001c-0.17999-0.02997-0.35004-0.06-0.52002-0.08997
					c-0.26001-0.05005-0.51001-0.10004-0.77002-0.15002c-11.00995-2.22003-19.96997-10.13-23.65997-20.53998
					c-1.19-3.33002-1.83002-6.92004-1.83002-10.66003c0-9.34998,4.03003-29,10.45001-45.35999h42.76001
					c3.01001,7.65997,5.5,16.02997,7.27997,23.73999C412.11002,32.50001,413.25003,40.39002,413.25003,45.35999z"/>
			</g>
		</g>
		<g>
			<g>
				<path class="st8" d="M413.25003,45.35999c0,15.87-11.60004,29.02002-26.78003,31.44C384.81998,77.06,383.12997,77.2,381.41,77.2
					c-0.82001,0-1.64001-0.03003-2.45001-0.09003c-0.51996-0.04999-1.03998-0.09998-1.56-0.16998h-0.03998
					c-0.16998-0.03003-0.33002-0.04999-0.5-0.07001s-0.33002-0.04999-0.5-0.08002c-0.16998-0.02997-0.35004-0.04999-0.52002-0.07996
					c-0.26001-0.05005-0.51001-0.10004-0.77002-0.15002c0.44-0.09003,0.87006-0.20001,1.29004-0.31
					c3.70996-0.97003,7.13-2.65002,10.10999-4.89001c7.07001-5.31,11.64001-13.75,11.64001-23.27002
					c0-4.59998-1.07001-11.94-2.97003-20.06995c-1.41998-6.08002-3.31-12.59003-5.56-18.74005
					c-1.19-3.22998-2.46997-6.37-3.84998-9.27997h17.06c3.01001,7.65997,5.5,16.02997,7.27997,23.73999
					C412.11002,32.50001,413.25003,40.39002,413.25003,45.35999z"/>
			</g>
		</g>
	</g>
	<g>
		<path class="st9" d="M307.91,112.43v26.60998c0,0-1.71997-0.02997-4.91998-0.08997h-0.12
			c-4.40002-0.08002-11.55005-0.22003-20.80005-0.39001c-6.31-0.13-13.59998-0.28003-21.66998-0.44c0,0,0,0-0.01001,0
			c-9.77997-0.21002-20.70996-0.44-32.42999-0.70001c-0.01001,0-0.01001,0-0.01001,0c-18.01996-0.39996-37.92999-0.87-58.44-1.39001
			c-63.28998-1.60999-132.31-3.75995-169.50995-6.16998V17.68c8.94995,3.76001,7.69,14.75,18.5,14.75
			C30.91,32.43,36.04,15.02003,52.54,24.43c16.22998,9.25,23.69001-5.63,34.05,8c5.32001,7,14.59003,4.46997,25.53998,8
			c12.41003,4,12.81006,11.21997,25.54004,16c8.85999,3.33002,19.14996-7.33002,25.52997-8
			c5.73004-0.59998,8.19,12.73999,16.89001,15.5c1,0.32001,2.09003,0.5,3.27002,0.5c5.04999,0,9.41998-0.83002,13.27997-1.31
			c7.33002-0.90002,12.82001-0.51001,17.64001,9.31c0.66003,1.34998,1.78003,8,8.51001,8c19.15002,0,16.76001,16,42.56,16
			c17.44,0,19,13.27002,36.83002,15.64001C303.92001,112.3,305.81998,112.43,307.91,112.43z"/>
	</g>
	<g>
		<path class="st10" d="M302.91,139.03998l-54.23999,29.04999H0.00003V84.96998c70.07996-3.81,126.59998,4.20001,172.38995,14.13
			c20.15002,4.37,38.22003,9.12,54.45001,13.40002c1.21002,0.32001,2.41998,0.64001,3.60999,0.95001
			c1.66003,0.42999,3.30005,0.85999,4.92004,1.28998c2.94,0.77002,5.82001,1.52002,8.63,2.22998
			c1.62,0.41003,3.21997,0.82001,4.79999,1.21002c0.79999,0.21002,1.58997,0.40002,2.37,0.59003
			c2.08002,0.50995,4.12,1,6.13,1.47998c2.51996,0.58997,4.97998,1.14996,7.38,1.65997c1.44,0.31,2.87,0.60004,4.26996,0.89001
			c1.06,0.21002,2.10004,0.41003,3.13,0.59998c2.25,0.43005,4.44,0.80005,6.59003,1.13c0.82001,0.12,1.62,0.24005,2.41998,0.35004
			c0.67999,0.09998,1.35999,0.19,2.03003,0.26996c0.66998,0.09003,1.33997,0.17004,2.00995,0.24005
			c1.32001,0.14996,2.62006,0.26996,3.91003,0.37c0.09998,0.01996,0.20001,0.02997,0.29999,0.02997
			c0.47003,0.04004,0.92999,0.08002,1.39001,0.10004H290.78c0.69,0.04999,1.38,0.08997,2.06,0.10999
			c0.56,0.02997,1.10004,0.04999,1.65002,0.07001h0.20996c0.74005,0.01996,1.48004,0.02997,2.21002,0.02997l0.35999,0.77002
			l5.60004,12.08002L302.91,139.03998z"/>
	</g>
	<g>
		<path class="st11" d="M296.91,126.09699c-52.62299,0-140.78101-49.009-294.64301-41.21301
			c136.795,0.118,220.685,61.353,263.64301,61.353l12-4.47601L297.267,126.869L296.91,126.09699z"/>
	</g>
	<g>
		<path class="st8" d="M429.81998,83.20002v84.88995H172.60001C199.62997,160.66998,224.03,152.13,246.91,143.37
			c4.54999-1.73999,9.04999-3.5,13.47998-5.25c0.01001,0,0.01001,0,0.01001,0c10.35999-4.09998,20.42999-8.21002,30.33002-12.22997
			H290.78c3.84003-1.57001,7.60999-3.13,11.40002-4.66003c1.91998-0.77997,3.82996-1.54999,5.72998-2.31
			c1.91998-0.77002,3.83002-1.53998,5.73999-2.29999c2.16003-0.85999,4.32001-1.71002,6.47003-2.56
			C338.85001,106.71003,357.34,99.96998,376.36002,94.49c3.34998-0.96997,6.71997-1.89001,10.10999-2.77002
			C400.45999,88.07001,414.80002,85.14002,429.81998,83.20002z"/>
	</g>
	<g>
		<g>
			<g>
				<path class="st6" d="M307.91202,141.75998c-3.16901,0-5.73599-2.56601-5.73599-5.73099V74.299
					c0-3.16499,2.56601-5.731,5.73599-5.731s5.73499,2.56599,5.73499,5.731v61.72999
					C313.647,139.194,311.08099,141.75998,307.91202,141.75998z"/>
			</g>
		</g>
		<g>
			<g>
				<path class="st7" d="M344.03,69.03999c0,14.38-8.40002,26.79999-20.57001,32.60999c-3.06,1.46002-6.34998,2.5-9.81,3.05005
					c-1.87,0.31-3.78998,0.45996-5.73999,0.45996c-0.65997,0-1.32001-0.01996-1.96997-0.06
					c-0.58002-0.01996-1.15002-0.07001-1.72003-0.13c-0.12-0.00995-0.25-0.01996-0.37-0.03998
					c-0.46002-0.04999-0.91998-0.10999-1.37-0.17999c-0.10004-0.01001-0.20001-0.03003-0.29999-0.04999
					c-0.22003-0.03003-0.45001-0.07001-0.67004-0.10004c-0.25995-0.06-0.52997-0.10999-0.78998-0.15997
					c-16.5-3.33002-28.92999-17.91003-28.92999-35.40002c0-14.34998,8.35999-50.08997,20.47998-69.03998h31.28003
					c10.98999,17.17999,18.89001,48.16998,20.26001,64.5C343.95999,66.18,344.03,67.70002,344.03,69.03999z"/>
			</g>
		</g>
		<g>
			<g>
				<path class="st8" d="M344.03,69.03999c0,14.38-8.40002,26.79999-20.57001,32.60999c-3.06,1.46002-6.34998,2.5-9.81,3.05005
					c-1.87,0.31-3.78998,0.45996-5.73999,0.45996c-0.65997,0-1.32001-0.01996-1.96997-0.06
					c-0.58002-0.01996-1.15002-0.07001-1.72003-0.13c-0.12-0.00995-0.25-0.01996-0.37-0.03998
					c-0.46002-0.04999-0.91998-0.10999-1.37-0.17999c-0.10004-0.01001-0.20001-0.03003-0.29999-0.04999
					c-0.22003-0.03003-0.45001-0.07001-0.67004-0.10004c-0.25995-0.06-0.52997-0.10999-0.78998-0.15997
					c0.48999-0.10004,0.97998-0.22003,1.46002-0.35004c4.20996-1.09998,8.08997-3,11.46997-5.54999
					c8.02002-6.01996,13.21002-15.60999,13.21002-26.40997c0-9.13-3.70001-27.73004-9.67999-44.04004
					c-4.55005-12.41-10.42004-23.49002-16.98004-28.08999h23.35004c10.98999,17.17999,18.89001,48.16998,20.26001,64.5
					C343.95999,66.18,344.03,67.70002,344.03,69.03999z"/>
			</g>
		</g>
	</g>
	<g>
		<path class="st7" d="M429.81998,111.03999v57.04997H302.59c5.64001-3.06995,11.23999-6.09998,16.78998-9.07996
			C358.70999,137.97998,395.89999,119.89997,429.81998,111.03999z"/>
	</g>
	<g>
		<circle class="st10" cx="365.97601" cy="115.13999" r="6.66699"/>
	</g>
	<g>
		<circle class="st8" cx="401.91202" cy="145.711" r="6.66699"/>
	</g>
</g>
<polyline class="st12" points="247.78,168.09 172.60001,168.09 171.13,168.09 0,168.09 0,129.86 0,84.97 0,50.71 0,17.68 0,0 
	44.43,0 208.42,0 292.26999,0 300.20001,0 323.54999,0 360.03,0 385.73001,0 402.79001,0 429.82001,0 429.82001,21.22 
	429.82001,83.2 429.82001,111.04 429.82001,168.09 321.37,168.09 302.59,168.09 248.67,168.09 247.78999,168.09 "/>
<rect x="21.16394" y="138.34225" class="st12" width="177.1328" height="28.2569"/>
<g>
	<path class="st7" d="M33.25684,147.49316c-0.02002,0.56738-0.34424,1.11426-0.89062,1.37695
		c-1.03271,0.50684-3.44238,1.13379-5.12305,1.13379c-5.02148,0-7.59326-2.18652-7.59326-6.88379
		c0-4.86035,4.57617-7.20898,8.36279-7.20898c1.41748,0,1.86279,0.06055,2.5918,0.26367
		c0.42529,0.12109,0.66797,0.38477,0.66797,1.05273c0,0.60742-0.38477,1.11328-0.78955,1.11328
		c-0.46582,0-0.81006-0.20215-1.8833-0.20215c-1.66016,0-3.13818,1.88281-3.13818,4.77832
		c0,3.17969,1.05273,4.53613,2.91553,4.69824l-0.08105-4.19141c-0.02002-0.62793,0.14209-0.93164,1.1748-1.0332
		c0.58691-0.06055,2.24756-0.20215,2.93604-0.20215c0.62744,0,0.99219,0.2627,0.99219,0.93164
		C33.39893,144.1123,33.29736,146.11621,33.25684,147.49316z"/>
	<path class="st7" d="M37.01953,139.37402c-1.27539,0-2.24756-0.70898-2.24756-1.66016c0-1.37695,1.66064-2.10645,2.93604-2.10645
		c1.2959,0,2.24756,0.70898,2.24756,1.66016C39.95557,138.64453,38.29541,139.37402,37.01953,139.37402z M39.65186,148.52637
		c0,0.85059-0.32373,1.09277-1.05273,1.21484c-0.83057,0.1416-1.70117,0.2627-2.36914,0.2627
		c-0.62793,0-1.21484-0.20215-1.21484-1.35645c0-2.10547-0.10156-4.65723-0.10156-5.52734c0-1.05273,0.34424-1.45801,1.2959-1.62012
		c1.07324-0.20215,1.98438-0.32422,2.71338-0.32422c0.76953,0,0.87061,0.50684,0.87061,1.31641
		C39.79346,143.09961,39.67236,146.35938,39.65186,148.52637z"/>
	<path class="st7" d="M48.21533,144.67871c-1.03271,0-1.43799-0.68848-1.51904-1.59961
		c-0.2832,0.1416-0.7085,0.46582-0.72852,1.13379c-0.04053,1.62012-0.04053,3.07812-0.06104,4.31348
		c-0.02002,0.85059-0.26318,1.07324-0.99219,1.21484c-0.81006,0.16211-1.70068,0.2627-2.36914,0.2627
		c-0.62744,0-1.21484-0.20215-1.21484-1.35645c0-1.0127-0.12158-4.65723-0.12158-5.52734c0-1.05273,0.34424-1.4375,1.2959-1.62012
		c1.05322-0.20215,1.90332-0.32422,2.51123-0.32422c0.60742,0,0.93115,0.46582,0.93115,1.59961
		c0.76953-1.27539,1.2959-1.80176,2.55127-1.80176c1.05322,0,1.70117,0.70898,1.70117,1.78223
		C50.19971,143.86914,49.4502,144.67871,48.21533,144.67871z"/>
	<path class="st7" d="M55.88721,148.4043c0,0.85059-0.32422,1.05371-1.05273,1.21484
		c-0.81006,0.18262-1.70117,0.38477-2.36914,0.38477c-0.62793,0-1.21484-0.20215-1.21484-1.35645
		c0-3.52344-0.12158-9.45605-0.12158-10.87305c0-1.05273,0.38477-1.45801,1.2959-1.76172
		c1.03271-0.34473,1.92334-0.50586,2.65234-0.50586c0.87061,0,0.97217,0.70801,0.97217,1.51855
		C56.04932,137.95605,55.90723,146.23828,55.88721,148.4043z"/>
	<path class="st7" d="M61.39307,150.04492c-2.12598,0-3.38135-0.22266-3.64453-0.32422
		c-0.34424-0.12109-0.60791-0.32422-0.60791-0.64746c0-0.60742,0.32422-0.85059,0.66846-0.85059
		c0.26318,0,0.91113,0.12109,1.17432,0.12109c0.83008,0,1.33643-0.16211,1.33643-0.78906c0-0.54688-0.68848-0.8916-1.37695-1.33691
		c-0.91113-0.60742-1.45801-1.13379-1.45801-2.06543c0-1.88281,2.18701-2.91602,5.12305-2.91602
		c1.8833,0,2.7334,0.16211,2.93604,0.22266c0.52637,0.14258,0.64795,0.34473,0.64795,0.79004
		c0,0.42578-0.28369,0.72949-0.66797,0.72949c-0.18262,0-0.56738-0.06152-0.79004-0.06152
		c-0.78955,0-1.51855,0.12207-1.51855,0.85059c0,0.48633,0.78955,0.83008,1.62012,1.2959
		c0.76904,0.42578,1.53857,1.09375,1.53857,2.22754C66.37402,149.07324,64.20752,150.04492,61.39307,150.04492z"/>
	<path class="st7" d="M71.0083,142.29004c-0.44531,0.18164-0.99219,0.30371-1.27588,0.30371
		c-0.22266,0-0.30371-0.12207-0.56689-0.8916c-0.18213-0.54688-0.42529-1.35645-0.729-2.40918
		c-0.40479-1.4375-0.729-2.42969-0.729-2.89551c0-0.2832,0.30371-0.38477,0.89111-0.58691
		c0.40479-0.14258,1.0127-0.28418,1.17432-0.28418c0.20264,0,0.34424,0.26367,0.56689,0.93164
		c0.20264,0.58691,0.42529,1.35645,0.62793,2.12598c0.2832,1.05273,0.54688,2.02539,0.66797,2.65234
		c0.04053,0.22266,0.06104,0.46582,0.06104,0.56738C71.69678,141.98633,71.43359,142.10742,71.0083,142.29004z"/>
	<path class="st7" d="M82.8916,150.06543c-2.04492,0-3.94824-0.16211-4.15088-0.20312
		c-0.729-0.12109-0.83008-0.4043-0.83008-1.09277c0-4.17188-0.1416-8.03906-0.1416-10.36719
		c0-1.25586,0.1416-1.51855,1.41748-1.88379c0.8501-0.24316,3.44189-0.4043,5.42627-0.4043
		c4.57617,0,7.49219,2.10547,7.49219,6.7627C92.10498,147.27051,88.60205,150.06543,82.8916,150.06543z M84.06641,138.07812
		c-0.16211,0-0.34424,0.04004-0.50635,0.08105c-0.06104,2.95605-0.12158,5.26465-0.28369,9.88086
		c1.94385-0.02051,3.13867-1.31641,3.13867-5.12305C86.41504,138.7666,85.40234,138.07812,84.06641,138.07812z"/>
	<path class="st7" d="M104.73584,148.72852c0,0.85059-0.30371,1.05273-1.03271,1.21484
		c-0.78955,0.18262-1.4375,0.32422-2.10547,0.32422c-0.62793,0-0.97217-0.34473-1.11377-0.89062
		c-0.60742,0.30371-1.35693,0.68848-2.83496,0.68848c-2.63232,0-4.65723-1.45801-4.65723-4.19141
		c0-2.99707,3.01709-4.69824,6.07471-4.69824c1.86279,0,2.65234,0.44531,2.99658,0.64844
		c0.42529-0.28418,1.31641-0.72949,2.00488-0.72949c0.58691,0,0.78955,0.28418,0.78955,0.93164
		C104.85742,142.81641,104.73584,146.5625,104.73584,148.72852z M100.09912,142.77539
		c-0.24316-0.10059-0.38477-0.10059-0.62793-0.10059c-0.87061,0-1.53857,0.48535-1.53857,2.61133
		c0,2.38965,0.64795,2.91602,1.31592,2.91602c0.42529,0,0.66846-0.08105,0.89111-0.24316
		C100.11914,146.25879,100.09912,144.35547,100.09912,142.77539z"/>
	<path class="st7" d="M117.38818,148.56641c-0.14209,3.68555-1.82227,5.36621-5.83154,5.36621c-0.50635,0-1.0127,0-1.45801-0.26367
		c-0.32422-0.18164-0.36426-0.4248-0.36426-0.87012c0-0.42578,0.32373-0.62793,0.68848-0.62793
		c1.61963,0,2.55127-0.4248,2.55127-3.05762c-1.07324,0.80957-2.10596,0.97168-3.56396,0.97168
		c-2.24756,0-2.83496-1.41699-2.93604-3.34082c-0.02002-0.48535-0.20264-3.17871-0.20264-4.21191
		c0-0.68848,0.32422-0.99219,0.91113-1.09277c0.5874-0.10156,1.76172-0.28418,2.4502-0.28418
		c0.95166,0,1.2959,0.22363,1.2959,1.41797c0,1.09375-0.12158,3.07812-0.08105,3.96875
		c0.04053,1.03223,0.5874,1.31641,1.21484,1.31641c0.34424,0,0.66846-0.16211,0.91162-0.30371
		c0.02002-1.13477-0.06104-3.82715-0.06104-4.81934c0-0.93164,0.24316-1.11426,1.05322-1.31641
		c0.64795-0.16211,1.55908-0.2832,2.32812-0.2832c1.07324,0,1.23535,0.36426,1.23535,2.08496
		C117.52979,144.55762,117.44873,146.94727,117.38818,148.56641z"/>
	<path class="st7" d="M134.39258,149.21484c-1.03271,0.52637-2.73389,0.78906-4.27246,0.78906
		c-4.19141,0-7.14795-2.22656-7.14795-6.54004c0-5.2041,4.27246-7.30957,8.72705-7.30957c1.1543,0,1.82227,0.10156,2.32861,0.30371
		c0.46582,0.18262,0.56689,0.46582,0.56689,0.99219c0,0.62793-0.40479,1.11328-0.87061,1.11328
		c-0.36426,0-0.64795-0.20215-1.49854-0.20215c-2.12598,0-3.44189,1.72168-3.44189,4.65723
		c0,3.58398,1.45801,4.63672,3.28027,4.63672c0.80957,0,1.53857-0.44531,1.96387-0.44531c0.50635,0,0.83008,0.2832,0.83008,1.0127
		C134.85791,148.70801,134.71631,149.05273,134.39258,149.21484z"/>
	<path class="st7" d="M147.16602,148.52637c0,0.68848-0.32422,0.95117-0.91113,1.09277
		c-0.5874,0.14258-1.66064,0.38477-2.34863,0.38477c-0.95215,0-1.2959-0.30371-1.2959-1.41699c0-0.76953,0-2.65234,0-3.54395
		c0-1.03223-0.4458-1.31543-1.07324-1.31543c-0.24316,0-0.54688,0.12109-0.79004,0.2627
		c-0.04053,1.11426-0.10107,2.77441-0.1416,4.31348c-0.04053,0.93066-0.26318,1.11328-1.07324,1.31543
		c-0.64795,0.16211-1.49805,0.36523-2.26758,0.36523c-1.13379,0-1.23535-0.42578-1.23535-2.04492
		c0-0.91211-0.10107-8.64648-0.10107-9.71973c0-1.53906,0.30371-1.82227,1.05273-2.10547
		c1.07324-0.40527,2.10596-0.60742,2.95654-0.60742c0.56689,0,0.91113,0.20215,0.91113,1.5791
		c0,0.40527-0.06104,4.43457-0.06104,5.18359c0.95166-0.70898,2.18701-1.05273,3.64502-1.05273
		c2.24756,0,2.83447,1.19434,2.83447,3.09766C147.26709,144.80078,147.16602,147.49316,147.16602,148.52637z"/>
	<path class="st7" d="M160.12158,148.72852c0,0.85059-0.30371,1.05273-1.03271,1.21484
		c-0.78955,0.18262-1.4375,0.32422-2.10547,0.32422c-0.62793,0-0.97217-0.34473-1.11377-0.89062
		c-0.60742,0.30371-1.35693,0.68848-2.83496,0.68848c-2.63232,0-4.65723-1.45801-4.65723-4.19141
		c0-2.99707,3.01709-4.69824,6.07471-4.69824c1.86279,0,2.65234,0.44531,2.99658,0.64844
		c0.42529-0.28418,1.31641-0.72949,2.00488-0.72949c0.58691,0,0.78955,0.28418,0.78955,0.93164
		C160.24316,142.81641,160.12158,146.5625,160.12158,148.72852z M155.48486,142.77539
		c-0.24316-0.10059-0.38477-0.10059-0.62793-0.10059c-0.87061,0-1.53857,0.48535-1.53857,2.61133
		c0,2.38965,0.64795,2.91602,1.31592,2.91602c0.42529,0,0.66846-0.08105,0.89111-0.24316
		C155.50488,146.25879,155.48486,144.35547,155.48486,142.77539z"/>
	<path class="st7" d="M169.45312,149.5791c-0.32422,0.16211-1.31641,0.4248-3.21973,0.4248
		c-1.98438,0-3.72559-0.87012-3.72559-3.86719c0-0.95117-0.04053-2.18652-0.04053-2.6123
		c-0.26318,0-0.44531,0.04102-0.56689,0.04102c-0.5874,0-0.78955-0.1416-0.78955-0.80957c0-0.56738,0.22266-0.87109,0.83008-0.91211
		c0.16211-0.01953,0.30371-0.04004,0.50635-0.06055c0-0.34375,0-1.03223,0-1.66016c0-1.1543,0.46533-1.35645,1.03271-1.62012
		c0.68848-0.30371,2.02441-0.80957,2.85498-0.80957c0.80957,0,0.97168,0.50586,0.95166,1.53906
		c0,0.32324-0.02051,1.21484-0.06104,2.22656c0.66846-0.01953,1.21484-0.10059,1.51855-0.10059
		c0.52686,0,0.79004,0.16211,0.79004,0.74902c0,0.68848-0.26318,0.99219-0.83008,1.0127
		c-0.36475,0.01953-0.81006,0.08105-1.45801,0.12109c-0.08105,1.68066-0.08105,2.95605-0.08105,3.15918
		c0,1.47754,0.62744,1.7207,1.39697,1.7207c0.26318,0,0.68848-0.08105,0.87061-0.08105c0.34424,0,0.46582,0.1416,0.46582,0.52637
		C169.89844,149.09277,169.79736,149.39648,169.45312,149.5791z"/>
</g>
</svg>
