<?xml version="1.0" encoding="utf-8"?>
<!-- Generator: Adobe Illustrator 22.1.0, SVG Export Plug-In . SVG Version: 6.00 Build 0)  -->
<svg version="1.1" id="Capa_1" xmlns="http://www.w3.org/2000/svg" xmlns:xlink="http://www.w3.org/1999/xlink" x="0px" y="0px"
	 viewBox="0 0 429.81998 168.09" style="enable-background:new 0 0 429.81998 168.09;" xml:space="preserve">
<style type="text/css">
	.st0{fill:#FFDA9C;}
	.st1{fill:#9AF4EF;}
	.st2{opacity:0.3;}
	.st3{fill:#FFFFF4;}
	.st4{fill:#36B294;}
	.st5{opacity:0.4;}
	.st6{fill:#674447;}
	.st7{fill:#43AB5F;}
	.st8{fill:#71BE63;}
	.st9{fill:#00A07D;}
	.st10{fill:#94D75B;}
	.st11{fill:#B0EB81;}
	.st12{fill:none;}
	.st13{font-family:'Meatball';}
	.st14{font-size:20.24375px;}
</style>
<rect x="0.00003" y="0.00001" class="st0" width="429.81995" height="168.08997"/>
<g>
	<g>
		<rect x="0.00003" y="0.00001" class="st1" width="429.81995" height="168.08997"/>
	</g>
	<g class="st2">
		<path class="st3" d="M429.81998,0.00001v168.08997h-258.69c-1.07996-9.73999-1.63995-19.62994-1.63995-29.65997
			c0-0.79999,0-1.59998,0.01996-2.40002c0.05005-6.72998,0.36005-13.40997,0.92004-20.00994
			c0.46997-5.68005,1.12-11.31,1.95996-16.89001c-0.01001-0.01001-0.01001-0.02002,0-0.03003
			c0.66003-4.44,1.42999-8.85999,2.30005-13.22998c1.5-7.42999,3.29999-14.75,5.39996-21.94
			c0.76001-2.59998,1.56-5.19,2.41003-7.77002c6.45996-19.84998,15.20996-38.66998,25.91998-56.15997H429.81998z"/>
	</g>
	<g>
		<path class="st4" d="M196.68002,63.13001c0,0-1.77002,23.79999-4.44,25.29999c-0.54004,0.29999-7.17999-0.71002-17.54999-2.56
			C133.97,78.59998,35.75998,58.40998,23.41,54.43c-7.34003-2.37-13.81-3.06-23.40997-3.71997V0.00001h44.42999
			C53.22,7.22999,55.94998,8.91999,63.39999,7.08997C71.54001,5.08997,77.91,4.18,84.66,13.18
			c9.39001,12.52002,18.21997,6.87,27.96997,9.37c10.68005,2.72998,13.33002,5.35999,25.03003,15.38
			c8.75,7.5,25-0.77002,36.25,8.53003c3.75,3.09998,5.65997,6.62994,8.59003,9.69995
			c2.84998,3.02002,6.66998,5.60004,14.13995,6.96002C196.64999,63.13001,196.67001,63.13001,196.68002,63.13001z"/>
	</g>
	<g class="st5">
		<path class="st3" d="M429.81998,21.21998v146.87H321.37003c-0.78003-2.97998-1.45001-6.00995-1.99005-9.07996
			c-1.17999-6.67999-1.79999-13.56-1.79999-20.58002c0-8.35999,0.87-16.51,2.54004-24.36999
			c0.88995-4.22998,2.00995-8.37,3.33997-12.41003C327.97,87.97999,334.92001,75.43,343.81003,64.50001
			c2.38995-2.95001,4.92999-5.78003,7.59998-8.47998c12.17999-12.35004,27.08002-22.01001,43.72998-28
			c4.83002-1.75,9.82001-3.18005,14.92999-4.28003C416.47,22.34998,423.06998,21.50001,429.81998,21.21998z"/>
	</g>
	<g>
		<g>
			<g>
				<path class="st6" d="M381.414,109.44801c-2.793,0-5.05399-2.26199-5.05399-5.05099V49.99902
					c0-2.789,2.26199-5.05099,5.05399-5.05099c2.793,0,5.05399,2.26199,5.05399,5.05099v54.39799
					C386.46802,107.18699,384.207,109.44801,381.414,109.44801z"/>
			</g>
		</g>
		<g>
			<g>
				<path class="st7" d="M413.25003,45.35999c0,15.87-11.60004,29.02002-26.78003,31.44
					c-1.65002,0.26001-3.34003,0.40002-5.06,0.40002c-0.82001,0-1.64001-0.03003-2.45001-0.09003
					c-0.51996-0.04999-1.03998-0.09998-1.56-0.16998h-0.03998c-0.16998-0.03003-0.33002-0.04999-0.5-0.07001
					s-0.33002-0.03998-0.5-0.07001c-0.17999-0.02997-0.35004-0.06-0.52002-0.08997
					c-0.26001-0.05005-0.51001-0.10004-0.77002-0.15002c-11.00995-2.22003-19.96997-10.13-23.65997-20.53998
					c-1.19-3.33002-1.83002-6.92004-1.83002-10.66003c0-9.34998,4.03003-29,10.45001-45.35999h42.76001
					c3.01001,7.65997,5.5,16.02997,7.27997,23.73999C412.11002,32.50001,413.25003,40.39002,413.25003,45.35999z"/>
			</g>
		</g>
		<g>
			<g>
				<path class="st8" d="M413.25003,45.35999c0,15.87-11.60004,29.02002-26.78003,31.44
					c-1.65002,0.26001-3.34003,0.40002-5.06,0.40002c-0.82001,0-1.64001-0.03003-2.45001-0.09003
					c-0.51996-0.04999-1.03998-0.09998-1.56-0.16998h-0.03998c-0.16998-0.03003-0.33002-0.04999-0.5-0.07001
					s-0.33002-0.04999-0.5-0.08002c-0.16998-0.02997-0.35004-0.04999-0.52002-0.07996
					c-0.26001-0.05005-0.51001-0.10004-0.77002-0.15002c0.44-0.09003,0.87006-0.20001,1.29004-0.31
					c3.70996-0.97003,7.13-2.65002,10.10999-4.89001c7.07001-5.31,11.64001-13.75,11.64001-23.27002
					c0-4.59998-1.07001-11.94-2.97003-20.06995c-1.41998-6.08002-3.31-12.59003-5.56-18.74005
					c-1.19-3.22998-2.46997-6.37-3.84998-9.27997h17.06c3.01001,7.65997,5.5,16.02997,7.27997,23.73999
					C412.11002,32.50001,413.25003,40.39002,413.25003,45.35999z"/>
			</g>
		</g>
	</g>
	<g>
		<path class="st9" d="M307.91,112.43v26.60998c0,0-1.71997-0.02997-4.91998-0.08997h-0.12
			c-4.40002-0.08002-11.55005-0.22003-20.80005-0.39001c-6.31-0.13-13.59998-0.28003-21.66998-0.44c0,0,0,0-0.01001,0
			c-9.77997-0.21002-20.70996-0.44-32.42999-0.70001c-0.01001,0-0.01001,0-0.01001,0c-18.01996-0.39996-37.92999-0.87-58.44-1.39001
			c-63.28998-1.60999-132.31-3.75995-169.50995-6.16998V17.68c8.94995,3.76001,7.69,14.75,18.5,14.75
			C30.91,32.43,36.04,15.02003,52.54,24.43c16.22998,9.25,23.69001-5.63,34.04999,8c5.32001,7,14.59003,4.46997,25.53998,8
			c12.41003,4,12.81006,11.21997,25.54004,16c8.85999,3.33002,19.14996-7.33002,25.52997-8
			c5.73004-0.59998,8.19,12.73999,16.89001,15.5c1,0.32001,2.09003,0.5,3.27002,0.5c5.04999,0,9.41998-0.83002,13.27997-1.31
			c7.33002-0.90002,12.82001-0.51001,17.64001,9.31c0.66003,1.34998,1.78003,8,8.51001,8c19.15002,0,16.76001,16,42.56,16
			c17.44,0,19,13.27002,36.83002,15.64001C303.92001,112.3,305.81998,112.43,307.91,112.43z"/>
	</g>
	<g>
		<path class="st10" d="M302.91,139.03998l-54.23999,29.04999H0.00003V84.96998c70.07996-3.81,126.59998,4.20001,172.38995,14.13
			c20.15002,4.37,38.22003,9.12,54.45001,13.40002c1.21002,0.32001,2.41998,0.64001,3.60999,0.95001
			c1.66003,0.42999,3.30005,0.85999,4.92004,1.28998c2.94,0.77002,5.82001,1.52002,8.63,2.22998
			c1.62,0.41003,3.21997,0.82001,4.79999,1.21002c0.79999,0.21002,1.58997,0.40002,2.37,0.59003
			c2.08002,0.50995,4.12,1,6.13,1.47998c2.51996,0.58997,4.97998,1.14996,7.38,1.65997c1.44,0.31,2.87,0.60004,4.26996,0.89001
			c1.06,0.21002,2.10004,0.41003,3.13,0.59998c2.25,0.43005,4.44,0.80005,6.59003,1.13c0.82001,0.12,1.62,0.24005,2.41998,0.35004
			c0.67999,0.09998,1.35999,0.19,2.03003,0.26996c0.66998,0.09003,1.33997,0.17004,2.00995,0.24005
			c1.32001,0.14996,2.62006,0.26996,3.91003,0.37c0.09998,0.01996,0.20001,0.02997,0.29999,0.02997
			c0.47003,0.04004,0.92999,0.08002,1.39001,0.10004H290.78c0.69,0.04999,1.38,0.08997,2.06,0.10999
			c0.56,0.02997,1.10004,0.04999,1.65002,0.07001h0.20996c0.74005,0.01996,1.48004,0.02997,2.21002,0.02997l0.35999,0.77002
			l5.60004,12.08001L302.91,139.03998z"/>
	</g>
	<g>
		<path class="st11" d="M296.91,126.09699c-52.62299,0-140.78101-49.009-294.64301-41.213
			c136.795,0.118,220.685,61.353,263.64301,61.353l12-4.47601L297.267,126.869L296.91,126.09699z"/>
	</g>
	<g>
		<path class="st8" d="M429.81998,83.20002v84.88995H172.60001C199.62997,160.66998,224.03,152.13,246.91,143.37
			c4.54999-1.73999,9.04999-3.5,13.47998-5.25c0.01001,0,0.01001,0,0.01001,0c10.35999-4.09998,20.42999-8.21002,30.33002-12.22997
			H290.78c3.84003-1.57001,7.60999-3.13,11.40002-4.66003c1.91998-0.77997,3.82996-1.54999,5.72998-2.31
			c1.91998-0.77002,3.83002-1.53998,5.73999-2.29999c2.16003-0.85999,4.32001-1.71002,6.47003-2.56
			C338.85001,106.71003,357.34,99.96998,376.36002,94.49c3.34998-0.96997,6.71997-1.89001,10.10999-2.77002
			C400.45999,88.07001,414.80002,85.14002,429.81998,83.20002z"/>
	</g>
	<g>
		<g>
			<g>
				<path class="st6" d="M307.91202,141.75998c-3.16901,0-5.73599-2.56601-5.73599-5.73099V74.299
					c0-3.16499,2.56601-5.731,5.73599-5.731s5.73499,2.56599,5.73499,5.731v61.72999
					C313.647,139.194,311.08099,141.75998,307.91202,141.75998z"/>
			</g>
		</g>
		<g>
			<g>
				<path class="st7" d="M344.03,69.03999c0,14.38-8.40002,26.79999-20.57001,32.60999c-3.06,1.46002-6.34998,2.5-9.81,3.05005
					c-1.87,0.31-3.78998,0.45996-5.73999,0.45996c-0.65997,0-1.32001-0.01996-1.96997-0.06
					c-0.58002-0.01996-1.15002-0.07001-1.72003-0.13c-0.12-0.00995-0.25-0.01996-0.37-0.03998
					c-0.46002-0.04999-0.91998-0.10999-1.37-0.17999c-0.10004-0.01001-0.20001-0.03003-0.29999-0.04999
					c-0.22003-0.03003-0.45001-0.07001-0.67004-0.10004c-0.25995-0.06-0.52997-0.10999-0.78998-0.15997
					c-16.5-3.33002-28.92999-17.91003-28.92999-35.40002c0-14.34998,8.35999-50.08997,20.47998-69.03998h31.28003
					c10.98999,17.17999,18.89001,48.16998,20.26001,64.5C343.95999,66.18,344.03,67.70002,344.03,69.03999z"/>
			</g>
		</g>
		<g>
			<g>
				<path class="st8" d="M344.03,69.03999c0,14.38-8.40002,26.79999-20.57001,32.60999c-3.06,1.46002-6.34998,2.5-9.81,3.05005
					c-1.87,0.31-3.78998,0.45996-5.73999,0.45996c-0.65997,0-1.32001-0.01996-1.96997-0.06
					c-0.58002-0.01996-1.15002-0.07001-1.72003-0.13c-0.12-0.00995-0.25-0.01996-0.37-0.03998
					c-0.46002-0.04999-0.91998-0.10999-1.37-0.17999c-0.10004-0.01001-0.20001-0.03003-0.29999-0.04999
					c-0.22003-0.03003-0.45001-0.07001-0.67004-0.10004c-0.25995-0.06-0.52997-0.10999-0.78998-0.15997
					c0.48999-0.10004,0.97998-0.22003,1.46002-0.35004c4.20996-1.09998,8.08997-3,11.46997-5.54999
					c8.02002-6.01996,13.21002-15.60999,13.21002-26.40997c0-9.13-3.70001-27.73004-9.67999-44.04004
					C312.62997,15.68,306.75998,4.59998,300.19998,0.00001h23.35004c10.98999,17.17999,18.89001,48.16998,20.26001,64.5
					C343.95999,66.18,344.03,67.70002,344.03,69.03999z"/>
			</g>
		</g>
	</g>
	<g>
		<path class="st7" d="M429.81998,111.03999v57.04998H302.59c5.64001-3.06995,11.23999-6.09998,16.78998-9.07996
			C358.70999,137.97998,395.89999,119.89997,429.81998,111.03999z"/>
	</g>
	<g>
		<circle class="st10" cx="365.97601" cy="115.13999" r="6.66699"/>
	</g>
	<g>
		<circle class="st8" cx="401.91202" cy="145.711" r="6.66699"/>
	</g>
</g>
<polyline class="st12" points="247.78,168.09 172.60001,168.09 171.13,168.09 0,168.09 0,129.86 0,84.97 0,50.71 0,17.68 0,0 
	44.43,0 208.42,0 292.26999,0 300.20001,0 323.54999,0 360.03,0 385.73001,0 402.79001,0 429.82001,0 429.82001,21.22 
	429.82001,83.2 429.82001,111.04 429.82001,168.09 321.37,168.09 302.59,168.09 248.67,168.09 247.78999,168.09 "/>
<rect x="21.16394" y="138.34225" class="st12" width="177.1328" height="28.2569"/>
<text transform="matrix(1 0 0 1 21.16394 152.71686)" class="st3 st13 st14">My Messenger</text>
</svg>
