<?xml version="1.0" encoding="utf-8"?>
<!-- Generator: Adobe Illustrator 22.1.0, SVG Export Plug-In . SVG Version: 6.00 Build 0)  -->
<svg version="1.1" id="Ebene_1" xmlns="http://www.w3.org/2000/svg" xmlns:xlink="http://www.w3.org/1999/xlink" x="0px" y="0px"
	 viewBox="0 0 429.82001 168.09003" style="enable-background:new 0 0 429.82001 168.09003;" xml:space="preserve">
<style type="text/css">
	.st0{fill:#FFDA9C;}
	.st1{fill:#E0B587;}
	.st2{fill:#CA9F7C;}
	.st3{fill:#A07766;}
	.st4{fill:#795552;}
	.st5{fill:#E9B668;}
	.st6{opacity:0.5;}
	.st7{fill:#674447;}
	.st8{fill:#8C665B;}
</style>
<g>
	<g>
		<path class="st0" d="M247.78003,168.09003H0V0h429.82001v168.09003H247.78998"/>
	</g>
	<g>
		<path class="st1" d="M285.40302,103c-13.33301,0-25.66699-12.64101-43.66699-12.64101S208.40501,103,195.90501,103
			s-19.83501,8-19.83501,8H275.737L285.40302,103z"/>
	</g>
	<g>
		<path class="st2" d="M248.07001,103c-12.5,0-46-16-64-16s-43.5,16-56,16s-16,8-16,8h136V103z"/>
	</g>
	<g>
		<path class="st3" d="M376.07001,23c-18-4.5-47.995-6.646-72,16c-26.5,25-46.33301,72-88,72h144l24-72L376.07001,23L376.07001,23z"
			/>
	</g>
	<g>
		<path class="st4" d="M376.07001,23c-3.18799-0.797-6.76599-1.511-10.60599-2.035
			c-12.49701,1.84201-25.65903,6.964-37.39401,18.035c-26.5,25-46.33301,72-88,72h120l24-72L376.07001,23z"/>
	</g>
	<g>
		<path class="st3" d="M0.00001,27v15.61l56.07,20.39l5.95,1.92l40.97,13.26h0.01l37.66,12.18c-0.01999-0.01-0.03-0.02-0.05-0.03
			C97.72001,64.57,88.34,27.26,65.00001,0h-20.66h-44.34v15.38C0.00001,15.38,0.00001,27,0.00001,27z"/>
	</g>
	<g>
		<path class="st4" d="M120.07001,90.35999L80.54999,77.58002h-0.01001L35.47998,63L0,50.09998V0h44.34003
			C56.39001,14.06,64.72998,30.78998,75.87,47.23999c7.25,10.70001,15.69,21.29004,27.12,30.94H103
			C108.04999,82.45001,113.69,86.53003,120.07001,90.35999z"/>
	</g>
	<g>
		<path class="st5" d="M247.78003,168.09003H0V111h429.82001v57.09003H247.78998"/>
	</g>
	<g class="st6">
		<path class="st0" d="M247.78003,168.09003h-113.87C92.89001,161.69,54.52002,152.02002,20.79999,144.38
			c-3.19995-0.72998-6.34998-1.42999-9.45996-2.10999c-3.85004-0.85004-7.63-1.66003-11.34003-2.42999V111h429.82001v29.32001
			c-5.53003,1.16998-11.20001,2.41998-17.02002,3.72998c-3.10999,0.70001-6.26996,1.41998-9.45996,2.16003
			c-31.75,7.29999-67.30005,15.97998-105.11005,21.88h-50.44"/>
	</g>
	<g>
		<path class="st7" d="M247.78003,168.09003h-63.42999L216.07001,111c0,0,0.02002,0.03998,0.06,0.10999l0.01001,0.01001l0.06,0.12
			l0.22998,0.41998l0.04999,0.08002l0.33002,0.60004l0.10004,0.17999l1.54999,2.77997c0.12,0.21002,0.23999,0.42999,0.37,0.66003
			l0.16998,0.32l0.22003,0.38995l0.47998,0.87l0.13,0.22003l0.12,0.21997c0.04999,0.08002,0.08997,0.16003,0.14001,0.25
			l0.19995,0.37l0.02002,0.04004l0.58002,1.03998l0.33002,0.59003l1.60999,2.89996l0.40997,0.73999l0.36005,0.65002l0.37994,0.67999
			l3.20001,5.76l0.73004,1.32001l0.62994,1.13l0.45001,0.81l1.08002,1.95001l3.06,5.5l1.28003,2.31L235.37,145.75l0.84003,1.51001
			l0.13,0.22998l0.12,0.21002c0.21997,0.39996,0.45001,0.81,0.66998,1.21997l0.52002,0.92999l0.41998,0.76001l0.95001,1.70001
			l1.95996,3.53998l1,1.80005l4.83002,8.67999l0.02002,0.03998c0.12,0.21002,0.23999,0.41998,0.34998,0.64001
			c0.13,0.22998,0.26001,0.45996,0.39001,0.69L247.78003,168.09003z"/>
	</g>
	<g>
		<path class="st8" d="M247.78003,168.09003h-63.42999L216.07001,111c0,0,0.02002,0.03998,0.06,0.10999l0.01001,0.01001l0.06,0.12
			l0.22998,0.41998l0.04999,0.08002l0.33002,0.60004l0.10004,0.17999l1.54999,2.77997l0.20996,0.39001
			c0.11005,0.19,0.22003,0.39001,0.33002,0.59003l0.22003,0.38995l0.47998,0.87l0.13,0.22003l0.12,0.21997l0.13,0.25
			c0.07001,0.12,0.14001,0.23999,0.20996,0.37l0.02002,0.04004l0.58002,1.03998l0.33002,0.59003l1.60999,2.89996l0.40997,0.73999
			l0.36005,0.65002l0.37994,0.67999L227.17999,131l0.73004,1.32001l0.62994,1.13l0.45001,0.81l1.08002,1.95001l3.06,5.5
			l1.28003,2.31L235.37,145.75l0.84003,1.51001l0.13,0.22998l0.12,0.21002l0.46997,0.83997c0.23999,0.44,0.48004,0.87,0.72003,1.31
			l0.41998,0.76001l0.95001,1.70001l1.95996,3.53998l1,1.80005l4.83002,8.67999l0.02002,0.03998l0.32001,0.57001
			c0.06,0.09998,0.10999,0.20001,0.16998,0.29999l0.06,0.10999l0.19,0.35004L247.78003,168.09003z"/>
		<path class="st8" d="M247.78003,168.09003h0.00995"/>
	</g>
	<g>
		<g>
			<g>
				<path class="st8" d="M91.57001,167v1.09003h-16V167c0-4.41998,3.58002-8,8-8S91.57001,162.58002,91.57001,167z"/>
			</g>
		</g>
	</g>
	<g>
		<g>
			<g>
				<path class="st3" d="M285.40302,159c-1.63501,0-2.95801-1.32501-2.95801-2.95801v-29.58301
					c0-1.634,1.323-2.95801,2.95801-2.95801s2.95801,1.32501,2.95801,2.95801v29.58301C288.362,157.67499,287.039,159,285.40302,159
					z"/>
			</g>
		</g>
		<g>
			<g>
				<path class="st3" d="M288.362,150.125h-5.91699c-4.89401,0-8.875-3.98099-8.875-8.875v-5.91699
					c0-1.634,1.323-2.95801,2.95801-2.95801s2.95801,1.32501,2.95801,2.95801V141.25c0,1.63101,1.32599,2.95801,2.95801,2.95801
					h5.91699c1.63199,0,2.95801-1.328,2.95801-2.95801v-8.875c0-1.634,1.323-2.95801,2.95801-2.95801
					s2.95801,1.32501,2.95801,2.95801v8.875C297.237,146.14401,293.25601,150.125,288.362,150.125z"/>
			</g>
		</g>
	</g>
	<g>
		<path class="st8" d="M200.07001,111H0V15.38c25.66998,2.34998,51.01001,15.77997,75.87,31.85999
			c21.98999,14.22998,43.60004,30.53003,64.73998,43.09003c0.02002,0.01001,0.03003,0.01996,0.05005,0.02997
			C144.12,92.40997,147.56,94.37,150.98999,96.19c9.65002,5.15002,19.20001,9.28998,28.64001,11.87
			C186.5,109.95001,193.32001,111,200.07001,111z"/>
	</g>
	<g>
		<path class="st8" d="M429.82001,0v111h-165.75c4.35999,0,8.47998-0.20001,12.38-0.59003
			c56.32001-5.54999,67.77997-49.59998,96.46002-88.13995C378.69,14.5,385.16998,6.96002,392.85999,0H429.82001z"/>
	</g>
	<g>
		<g>
			<polygon class="st5" points="216.07001,111 221.26001,168.09003 217.79999,168.09003 			"/>
		</g>
		<g>
			<polygon class="st5" points="216.07001,111 214.34003,168.09003 210.88,168.09003 			"/>
		</g>
	</g>
	<g>
		<polygon class="st0" points="216.07001,111 188.51001,168.09003 184.35004,168.09003 		"/>
	</g>
	<g>
		<polygon class="st0" points="247.78003,168.09003 243.63,168.09003 216.20001,111.23999 216.42999,111.65997 216.47998,111.73999 
			216.81,112.34003 216.91003,112.52002 218.46002,115.29999 218.66998,115.69 218.83002,115.96002 219,116.28003 
			219.22003,116.66998 219.70001,117.53998 219.83002,117.76001 219.95001,117.97998 220.08002,118.22998 220.09003,118.22998 
			220.28998,118.59998 220.31,118.64001 220.89001,119.67999 221.22003,120.27002 222.83002,123.16998 223.23999,123.90997 
			223.60004,124.56 223.97998,125.23999 227.17999,131 227.91003,132.32001 228.53998,133.45001 228.98999,134.26001 
			230.07001,136.21002 233.13,141.71002 234.41003,144.02002 235.37,145.75 236.21002,147.26001 236.34003,147.48999 
			236.46002,147.70001 236.92999,148.53998 237.13,148.91998 237.65002,149.84998 238.07001,150.60999 239.02002,152.31 
			240.97998,155.84998 241.97998,157.65002 246.81,166.33002 246.83002,166.37 247.15002,166.94 247.17999,167.01001 
			247.32001,167.23999 247.38,167.34998 247.57001,167.70001 		"/>
	</g>
	<g>
		<path class="st7" d="M160.07001,111H0V27c20.97998,9.65997,41.67999,23.90002,62.02002,37.91998
			c6.20996,4.29004,12.38,8.56,18.51996,12.66003h0.01001C95.77002,87.76001,110.75,96.96997,125.47003,103.13h0.00995
			C137.17999,108.03003,148.72003,111,160.07001,111z"/>
	</g>
	<g>
		<path class="st3" d="M145.77501,138.14801c-1.78799,0-3.235,1.448-3.235,3.23499v6.47c0,1.78299-1.45,3.23499-3.235,3.23499
			v-22.64401c0-1.78601-1.44701-3.23499-3.235-3.23499s-3.235,1.448-3.235,3.23499v16.17401c-1.785,0-3.235-1.452-3.235-3.23499
			v-3.23499c0-1.78601-1.44701-3.23499-3.235-3.23499s-3.235,1.448-3.235,3.23499v3.23499c0,5.35101,4.353,9.70499,9.705,9.70499
			v6.47c0,1.78601,1.44701,3.23499,3.235,3.23499s3.235-1.448,3.235-3.23499c5.351,0,9.705-4.353,9.705-9.70499v-6.47
			C149.009,139.59601,147.563,138.14801,145.77501,138.14801z"/>
	</g>
	<g>
		<path class="st8" d="M412.79999,139.72998v28.36005h-20.01996c-2.25-2.5-3.62-5.82001-3.62-9.45001v-4.73004
			c0-2.60999,2.12-4.72998,4.72998-4.72998s4.72998,2.12,4.72998,4.72998v4.73004c0,2.59998,2.12,4.71997,4.72003,4.71997v-23.63
			c0-2.60999,2.12-4.72998,4.72998-4.72998S412.79999,137.12,412.79999,139.72998z"/>
		<path class="st8" d="M426.97998,158.64001v9.45001h-9.44995v-9.45001c0-2.60999,2.10999-4.73004,4.71997-4.73004
			C424.87,153.90997,426.97998,156.03003,426.97998,158.64001z"/>
	</g>
	<g>
		<path class="st8" d="M20.79999,139.72998v28.36005H0.78003C0.51001,167.78998,0.25,167.47998,0,167.15002v-17.58002
			c0.58002-0.25,1.22003-0.39001,1.89001-0.39001c2.60999,0,4.72998,2.12,4.72998,4.72998v4.73004
			c0,2.59998,2.12,4.71997,4.72003,4.71997v-23.63c0-2.60999,2.12-4.72998,4.72998-4.72998S20.79999,137.12,20.79999,139.72998z"/>
		<path class="st8" d="M34.97998,158.64001v9.45001h-9.44995v-9.45001c0-2.60999,2.10999-4.73004,4.71997-4.73004
			S34.97998,156.03003,34.97998,158.64001z"/>
	</g>
	<g>
		<path class="st7" d="M429.82001,0v111h-141.75c55.57001,0,72.71997-32.48999,94.34003-67.03003c0,0,0-0.00995,0.00995-0.00995
			C391.88,28.84998,402.19,13.34998,416.96002,0H429.82001z"/>
	</g>
</g>
<g>
	<path class="st7" d="M204.89258,26.62939c0,0.13916-0.27539,0.20117-0.8252,0.18652
		c-0.65186-0.01416-0.99951,0.13135-1.04248,0.4375c-0.0293,0.1748-0.04346,0.75098-0.04346,1.72754c0,0.33594,0,0.63428,0,0.89697
		c-1.74316,1.18115-3.40576,1.77148-4.9873,1.77148c-2.08008,0-3.81934-0.73242-5.21777-2.19678
		c-1.39893-1.46484-2.09814-3.28809-2.09814-5.4707c0-2.31396,0.71729-4.24023,2.15283-5.77783
		c1.43555-1.53809,3.23682-2.30713,5.40479-2.30713c0.89307,0,1.81592,0.21973,2.76807,0.65918
		c0.35156,0.16113,0.59326,0.2417,0.7251,0.2417c0.23389,0,0.43164-0.17578,0.59326-0.52734
		c0.07275-0.17578,0.15381-0.26367,0.2417-0.26367c0.10205,0,0.15381,0.07373,0.15381,0.21973
		c0,0.0293-0.02197,0.32227-0.06592,0.87891c-0.01514,0.17578-0.02197,0.59326-0.02197,1.25195
		c0,0.49854,0.02881,1.26025,0.08789,2.28516c0,0.27832-0.07373,0.41748-0.21973,0.41748
		c-0.20557,0-0.34424-0.29297-0.41748-0.87891c-0.17578-1.28857-0.60107-2.30664-1.27441-3.05371
		c-0.49805-0.54199-1.19385-0.81299-2.08691-0.81299c-2.76855,0-4.15234,2.46045-4.15234,7.38184
		c0,3.06152,0.45557,5.19238,1.36768,6.39307c0.57324,0.76172,1.33789,1.14258,2.29395,1.14258
		c1.20557,0,1.80859-0.76123,1.80859-2.28467c0-1.14258-0.04834-1.7832-0.14453-1.92236s-0.34473-0.20898-0.74463-0.20898h-0.55518
		c-0.31152,0-0.4668-0.06592-0.4668-0.19775s0.12402-0.19775,0.37354-0.19775c0.51221,0,1.15674,0.00781,1.93311,0.02197h1.40625
		c0.27783,0,0.72119,0,1.3291,0c0.60742,0,0.99951,0,1.17529,0h0.28564C204.80469,26.44238,204.89258,26.50488,204.89258,26.62939z"
		/>
	<path class="st7" d="M210.93359,31.20996c0,0.10254-0.06592,0.15381-0.19678,0.15381h-2.91162h-2.10107
		c-0.08789,0-0.19727,0-0.32861,0c-0.1167,0-0.18262,0-0.19678,0c-0.17529,0-0.2627-0.04688-0.2627-0.14062
		c0-0.07031,0.16797-0.11133,0.50537-0.12305c0.49756-0.01416,0.79102-0.06982,0.87891-0.16553s0.13135-0.38623,0.13135-0.87256
		v-6.3374c0-0.55957-0.04736-0.89453-0.14258-1.00488s-0.38428-0.16602-0.86768-0.16602c-0.30762,0-0.4873-0.00684-0.53857-0.02197
		c-0.05127-0.01416-0.07666-0.06592-0.07666-0.15381c0-0.10205,0.10986-0.15381,0.32959-0.15381
		c1.61084-0.01416,2.98779-0.26367,4.13037-0.74658c0.0293,0.17578,0.06592,0.65869,0.10986,1.44971v2.79004v4.13037
		c0,0.60107,0.05469,0.95264,0.16455,1.05469c0.10986,0.10254,0.48682,0.15381,1.13135,0.15381
		C210.85303,31.05615,210.93359,31.10791,210.93359,31.20996z M209.396,17.28125c0,0.41016-0.14258,0.76172-0.42725,1.0542
		c-0.28467,0.29346-0.62939,0.43945-1.03369,0.43945c-0.41943,0-0.77148-0.13867-1.05615-0.41748
		c-0.28467-0.27783-0.42725-0.62939-0.42725-1.0542c0-0.41016,0.14258-0.74707,0.42725-1.01074s0.65137-0.39551,1.10107-0.39551
		c0.40479,0,0.74121,0.13184,1.01123,0.39551C209.26074,16.55615,209.396,16.88574,209.396,17.28125z"/>
	<path class="st7" d="M219.61133,23.21289c0,0.42529-0.125,0.77295-0.37305,1.04346c-0.25,0.27148-0.57227,0.40674-0.9668,0.40674
		c-0.79102,0-1.18555-0.36621-1.18555-1.09863c0-0.24902,0.09375-0.49756,0.28516-0.74707
		c0.04297-0.05811,0.06641-0.10986,0.06641-0.15381c0-0.13184-0.0957-0.19775-0.2832-0.19775
		c-0.49121,0-0.86719,0.38721-1.12695,1.16162c-0.14453,0.43848-0.21631,1.51221-0.21631,3.22119v1.59961v1.92871
		c0,0.39453,0.19775,0.60596,0.59326,0.63525c0.23438,0.01465,0.51172,0.02197,0.83398,0.02197
		c0.16211,0.01465,0.24219,0.06592,0.24219,0.15381c0,0.11719-0.06641,0.17578-0.19727,0.17578h-0.43945
		c-0.13281,0-0.76953,0-1.91162,0c0.05811,0-0.271,0-0.98877,0h-1.07666h-0.83447c-0.14648,0-0.31543,0-0.50537,0
		c-0.16162,0-0.2417-0.04736-0.2417-0.14258s0.10205-0.14307,0.30762-0.14307c0.6001-0.01416,0.96289-0.07666,1.0874-0.18604
		s0.18652-0.43457,0.18652-0.9751l-0.02197-5.9165c0-0.49658-0.06934-0.83984-0.2085-1.02979s-0.4502-0.30713-0.93359-0.35107
		c-0.38135-0.02734-0.59717-0.04785-0.64844-0.06152s-0.07666-0.06201-0.07666-0.14404c0-0.08252,0.05859-0.12402,0.17578-0.12402
		c0.13184,0,0.25586,0,0.37354,0h0.43945c1.12744,0,2.34326-0.23389,3.64697-0.70264
		c0.07324,0.29297,0.10986,0.62988,0.10986,1.01025v0.92285c0.27783-0.70947,0.58154-1.20898,0.91162-1.49854
		c0.33008-0.29004,0.75781-0.43457,1.28516-0.43457c0.49805,0,0.9043,0.15381,1.21875,0.46094
		C219.45508,22.35596,219.61133,22.74463,219.61133,23.21289z"/>
	<path class="st7" d="M225.96094,31.19922c0,0.10986-0.27734,0.16455-0.83203,0.16455c-0.13086,0-0.53906-0.01465-1.22559-0.04395
		c-0.35059-0.01465-0.69336-0.02197-1.02832-0.02197c-0.32129,0-0.91992,0.01465-1.79492,0.04395l-0.65723,0.02197
		c-0.32129,0.01465-0.48145-0.03662-0.48145-0.15332c0-0.11719,0.16797-0.16846,0.50488-0.15381
		c0.5127,0.01465,0.80957-0.03662,0.89062-0.15332c0.08008-0.11719,0.12012-0.55566,0.12012-1.31641V18.02637
		c0-0.49707-0.05176-0.79297-0.15527-0.88818c-0.10449-0.09473-0.40918-0.14258-0.91309-0.14258
		c-0.37207,0-0.55762-0.0542-0.55762-0.16357c0-0.12402,0.19043-0.19434,0.56934-0.20996
		c1.63184-0.05859,2.96582-0.30762,4.00098-0.74707c0,0.43945,0,3.00977,0,7.71143v5.4707
		c0,0.99609,0.02539,1.57812,0.07715,1.74658c0.05078,0.16846,0.23047,0.24512,0.53809,0.23047h0.65918
		C225.86523,31.03418,225.96094,31.08936,225.96094,31.19922z"/>
	<path class="st7" d="M233.40918,28.31006c0,0.98145-0.2998,1.77588-0.89844,2.38379s-1.37207,0.91162-2.32129,0.91162
		c-0.4668,0-1.02148-0.11768-1.66406-0.35156c-0.52637-0.18994-0.86914-0.28564-1.0293-0.28564
		c-0.27734,0-0.45996,0.10645-0.54785,0.31885c-0.08789,0.21191-0.15332,0.31836-0.19629,0.31836
		c-0.08789,0-0.13184-0.05176-0.13184-0.15479c0-0.08887,0.01172-0.22852,0.03516-0.42041
		c0.03516-0.27979,0.05273-0.7666,0.05273-1.45947c0-0.0293,0-0.10303,0-0.22119c0-0.11768,0-0.27979,0-0.48633V28.4873
		c0-0.16211,0.03613-0.24316,0.10938-0.24316c0.08691,0,0.15234,0.10986,0.19629,0.32959
		c0.13184,0.77637,0.50391,1.42432,1.11621,1.94434s1.29785,0.77979,2.05566,0.77979c0.48145,0,0.87207-0.1499,1.1709-0.4502
		s0.44824-0.69238,0.44824-1.17578c0-0.38037-0.13867-0.70264-0.41699-0.96631c-0.20508-0.19043-0.75488-0.43213-1.64844-0.7251
		c-1.09766-0.36621-1.89258-0.80908-2.38281-1.3291c-0.49121-0.52002-0.73633-1.18262-0.73633-1.98828
		c0-0.86426,0.29297-1.59619,0.87891-2.19727c0.58496-0.6001,1.30273-0.90039,2.15332-0.90039
		c0.32129,0,0.87793,0.10254,1.66895,0.30762c0.11719,0.0293,0.20508,0.04395,0.26367,0.04395
		c0.32227,0,0.56348-0.19775,0.72559-0.59326c0.0293-0.07324,0.06543-0.10986,0.10938-0.10986
		c0.10254,0,0.1543,0.08789,0.1543,0.26367l-0.02246,0.41748c-0.01465,0.05859-0.02148,0.16113-0.02148,0.30713
		c0,0.60107,0.03613,1.21631,0.10938,1.8457v0.10986c0,0.11719-0.04395,0.17578-0.13184,0.17578
		c-0.07324,0-0.13184-0.06592-0.17578-0.19775c-0.4248-1.49414-1.28906-2.24072-2.59277-2.24072
		c-0.48242,0-0.88184,0.13135-1.19727,0.39502c-0.31445,0.26367-0.47168,0.60107-0.47168,1.01074
		c0,0.38135,0.13184,0.68115,0.39551,0.90088s0.77539,0.46875,1.53711,0.74707c1.33301,0.46875,2.2334,0.9375,2.70312,1.40576
		C233.17383,26.82373,233.40918,27.4751,233.40918,28.31006z"/>
	<path class="st7" d="M239.31836,20.7085c0,0.4834-0.17188,0.87158-0.51562,1.16455
		c-0.34473,0.29297-0.80273,0.43896-1.37305,0.43896c-0.71875,0-1.28613-0.24756-1.70312-0.74414
		c-0.41699-0.49609-0.62598-1.16748-0.62598-2.01416c0-1.34277,0.51953-2.3208,1.55957-2.93359
		c0.70312-0.40869,1.3252-0.61328,1.86719-0.61328c0.10254,0,0.1543,0.03662,0.1543,0.10938
		c0,0.08789-0.05859,0.13867-0.17578,0.15283c-0.62988,0.18945-1.0918,0.36475-1.38379,0.5249
		c-0.74707,0.4375-1.12109,1.11523-1.12109,2.0332c0,0.80176,0.28613,1.37061,0.85742,1.70557
		c0-0.83496,0.36523-1.25244,1.09766-1.25244c0.41016,0,0.74023,0.13184,0.98926,0.39551S239.31836,20.28369,239.31836,20.7085z"/>
	<path class="st5" d="M213.38379,44.65234c0,1.66992-0.38086,3.1123-1.14258,4.32812
		c-0.79102,1.27441-1.94092,2.20459-3.44922,2.79004c-1.02539,0.39551-2.55615,0.59326-4.5918,0.59326
		c-0.0293,0-0.19043,0-0.48291,0c-0.29346,0-0.71777,0-1.27441,0h-0.79102c-0.0293,0-0.50537,0-1.42822,0h-1.38379
		c-0.21973,0-0.32959-0.05859-0.32959-0.17578c0-0.146,0.20508-0.21191,0.61523-0.19775
		c0.62939,0.01465,1.01074-0.09521,1.14209-0.32959c0.05859-0.10205,0.08789-0.54932,0.08789-1.33984V39.13818
		c0-0.64453-0.04395-1.04004-0.13184-1.18652c-0.14648-0.26367-0.52002-0.38818-1.12012-0.37354
		c-0.32227,0.01465-0.4834-0.05859-0.4834-0.21973c0-0.13184,0.10205-0.19775,0.30762-0.19775h0.39551
		c0.87842,0,1.72803,0.00781,2.54834,0.02197c1.17188,0.01465,2.07959,0.02197,2.72412,0.02197
		c2.66553,0,4.70898,0.54932,6.12988,1.64795C212.49756,40.229,213.38379,42.1626,213.38379,44.65234z M209.58301,44.66309
		c0-2.42041-0.35889-4.19141-1.07666-5.31348c-0.71777-1.12256-1.84521-1.68359-3.3833-1.68359
		c-0.55664,0-0.92285,0.05859-1.09863,0.17627c-0.23438,0.14648-0.35107,0.49121-0.35107,1.03369v11.26611
		c0,0.96826,0.05811,1.50342,0.17578,1.60596c0.17529,0.16162,0.56348,0.24219,1.16406,0.24219
		C208.05957,51.99023,209.58301,49.54785,209.58301,44.66309z"/>
	<path class="st5" d="M224.23633,51.1792c0,0.11914-0.11719,0.28223-0.35156,0.49023
		c-0.62891,0.58057-1.40625,0.87012-2.32812,0.87012c-0.60156,0-1.03711-0.12646-1.30859-0.37842
		c-0.26953-0.25195-0.44922-0.7041-0.53711-1.35742c-0.66016,1.20117-1.56055,1.80176-2.70312,1.80176
		c-0.62891,0-1.13818-0.19775-1.52637-0.59326s-0.58203-0.90771-0.58203-1.53809c0-1.84521,1.58105-2.93604,4.74512-3.27344
		v-0.46143c0-1.46436-0.05078-2.36475-0.1543-2.70215l-0.02148-0.10986c-0.20508-0.73193-0.72461-1.09814-1.56055-1.09814
		c-0.48242,0-0.87109,0.13916-1.16406,0.41699c-0.29297,0.27881-0.43945,0.54932-0.43945,0.81299
		c0,0.14648,0.17578,0.23438,0.52734,0.26367c0.52734,0.04395,0.79102,0.36621,0.79102,0.9668
		c0,0.32227-0.10547,0.58984-0.31836,0.80176c-0.21289,0.2124-0.48633,0.31885-0.82422,0.31885
		c-0.42383,0-0.77197-0.12842-1.04297-0.38477c-0.271-0.25586-0.40625-0.58203-0.40625-0.97754
		c0-0.62939,0.31445-1.20068,0.94434-1.71387c0.62988-0.51221,1.45801-0.76855,2.4834-0.76855
		c1.52344,0,2.58398,0.271,3.18555,0.8125c0.48242,0.4541,0.72461,1.24512,0.72461,2.37305v3.75684
		c0,0.73242,0.00781,1.15723,0.02148,1.27393c0.07422,0.61523,0.28516,0.92285,0.63672,0.92285
		c0.25,0,0.55664-0.17578,0.92383-0.52734c0.07227-0.07275,0.13086-0.10986,0.17578-0.10986
		C224.19922,51.06738,224.23633,51.10498,224.23633,51.1792z M219.64453,48.56299v-1.07666
		c-1.41992,0.27832-2.13086,1.08398-2.13086,2.41699c0,1.02539,0.35156,1.5376,1.05469,1.5376
		c0.39453,0,0.67383-0.21973,0.83398-0.65918C219.56445,50.34277,219.64453,49.60303,219.64453,48.56299z"/>
	<path class="st5" d="M233.63965,42.98242c0,0.10303-0.0293,0.16504-0.08789,0.18701s-0.26367,0.03271-0.61523,0.03271
		c-0.39551,0-0.62988,0.02197-0.70312,0.06592l-0.13184,0.2417l-0.26367,0.76904c-0.11719,0.35156-0.38086,1.06201-0.79004,2.13135
		c-0.03027,0.08789-0.35156,0.98828-0.9668,2.70215c-1.4502,4.05664-2.3877,6.51025-2.8125,7.35986
		c-0.52734,1.05469-1.20117,1.58154-2.02148,1.58154c-0.46875,0-0.8457-0.13916-1.13086-0.41699
		c-0.28613-0.27881-0.42871-0.64502-0.42871-1.09863c0-0.71777,0.39551-1.07666,1.18652-1.07666
		c0.26367,0,0.47559,0.08789,0.63672,0.26367c0.07324,0.07324,0.19824,0.27832,0.37402,0.61523
		c0.10156,0.146,0.24121,0.21973,0.41699,0.21973c0.29297,0,0.5752-0.24561,0.8457-0.73584
		c0.27148-0.49121,0.64062-1.41748,1.10938-2.77979c-0.11621-0.23438-0.34277-0.75391-0.67969-1.55957
		c-0.43945-1.11328-1.02637-2.56982-1.75977-4.37158c-0.1748-0.43945-0.56934-1.39893-1.18262-2.87891
		c-0.20605-0.51855-0.38184-0.82715-0.52832-0.92627s-0.4834-0.15625-1.01172-0.17188c-0.17578,0-0.26367-0.05078-0.26367-0.15381
		c0-0.10205,0.08789-0.15332,0.26367-0.15332h0.39551c0.21973,0,0.54883,0,0.98828,0s0.77637,0,1.01074,0h2.67969
		c0.08789,0,0.19043,0,0.30762,0c0.16113,0,0.24219,0.05127,0.24219,0.15332c0,0.13184-0.21973,0.19092-0.65918,0.17578
		c-0.43945-0.01416-0.65918,0.08105-0.65918,0.28564c0,0.14697,0.05859,0.37354,0.17578,0.68115
		c0.16113,0.41016,0.24902,0.65186,0.26367,0.7251c0.71777,1.99219,1.30371,3.50781,1.75781,4.54785
		c1.3623-3.47119,2.04297-5.44873,2.04297-5.93213c0-0.16064-0.16895-0.2417-0.50488-0.2417
		c-0.70312,0-1.05469-0.06592-1.05469-0.19775c0-0.13135,0.08789-0.19727,0.26367-0.19727
		c0.14551,0,0.29199,0.00732,0.43945,0.02197c0.27734,0.0293,0.6582,0.04395,1.1416,0.04395
		c0.05859,0,0.27539-0.01123,0.64844-0.0332c0.37402-0.02197,0.61914-0.03271,0.73633-0.03271h0.13184
		C233.57422,42.8291,233.63965,42.88037,233.63965,42.98242z"/>
	<path class="st2" d="M207.37451,68.53027l-0.02197,0.37354c0,0.07373-0.03662,0.53516-0.10938,1.38428
		c-0.05908,0.64453-0.08789,1.14258-0.08789,1.49365c0,0.43945,0.00684,0.80566,0.02197,1.09863
		c0.01416,0.10254,0.02197,0.22754,0.02197,0.37354c0,0.16113-0.03711,0.2417-0.10986,0.2417
		c-0.07373,0-0.15381-0.07324-0.2417-0.21973c-0.32275-0.52734-0.66699-0.87109-1.03271-1.03271
		c-1.09863,0.9375-2.27783,1.40625-3.53711,1.40625c-1.91895,0-3.61084-0.71729-5.0752-2.15332
		c-1.55273-1.52295-2.32861-3.44141-2.32861-5.75586c0-2.24072,0.69922-4.11182,2.09814-5.61328
		c1.39844-1.50098,3.14502-2.25195,5.23975-2.25195c0.9668,0,1.83057,0.21973,2.59229,0.65918
		c0.43945,0.24902,0.76123,0.37354,0.9668,0.37354c0.30762,0,0.59326-0.13916,0.85693-0.41748
		c0.18994-0.20508,0.30762-0.30762,0.35156-0.30762c0.05811,0,0.08789,0.05127,0.08789,0.15381
		c0,0.04395-0.00781,0.10986-0.02197,0.19775c-0.08789,0.49805-0.13184,1.11328-0.13184,1.84521
		c0,0.07373,0.00684,0.37354,0.02197,0.90088c0,0.51318,0,0.85693,0,1.03271v0.4834c0,0.26367-0.07373,0.39551-0.21973,0.39551
		c-0.11768,0-0.23486-0.28564-0.35156-0.85693c-0.52734-2.63623-1.73584-3.95459-3.625-3.95459
		c-1.49414,0-2.57812,0.9668-3.25146,2.8999c-0.46924,1.31836-0.70312,2.8999-0.70312,4.74561
		c0,2.73877,0.55615,4.74561,1.66943,6.01953c0.58594,0.67383,1.35449,1.01074,2.30713,1.01074
		c2.06494,0,3.41943-1.37646,4.06445-4.13037c0.10205-0.45361,0.21973-0.68115,0.35156-0.68115
		C207.32324,68.24463,207.38916,68.34033,207.37451,68.53027z"/>
	<path class="st2" d="M219.83203,73.27588c0,0.08789-0.06641,0.13184-0.19922,0.13184c0.01562,0-0.13086,0-0.4375,0
		c-0.30859,0-0.56445,0-0.76953,0h-0.54883c-1.25977,0-2.03662-0.02197-2.32959-0.06592h-0.35156l-0.52734,0.06592
		c-0.19043,0.01465-0.28564-0.04053-0.28564-0.16553c0-0.09473,0.03662-0.14209,0.10986-0.14209h0.50537
		c0.32227,0.01465,0.50537-0.07324,0.54932-0.26367c0.0293-0.11719,0.04395-0.84912,0.04395-2.19678v-3.27344
		c0-1.3623-0.06543-2.16748-0.19629-2.41699c-0.18896-0.38037-0.55225-0.57129-1.08984-0.57129
		c-0.56689,0-1.00293,0.25781-1.30811,0.77295c-0.14551,0.25-0.21777,0.7876-0.21777,1.61182v3.46582c0,1.07471,0,1.66309,0,1.76611
		v0.26514v0.52979c-0.01465,0.22119,0.28662,0.33105,0.9043,0.33105c0.12939,0,0.19385,0.04443,0.19385,0.13281
		c0,0.10303-0.09521,0.1543-0.28516,0.1543h-0.17578c-0.11768-0.04395-0.29346-0.06592-0.52734-0.06592h-0.9668l-1.23047,0.02197
		l-1.2959,0.04395h-0.65918c-0.21973,0-0.32959-0.04395-0.32959-0.13184c0-0.04395,0.01416-0.07324,0.04395-0.08789
		c0.0293-0.01416,0.09521-0.02197,0.19775-0.02197c0.55615,0,0.88574-0.02197,0.98877-0.06592
		c0.10205-0.04395,0.16797-0.21191,0.19775-0.50537c0.01416-0.17578,0.02197-1.05469,0.02197-2.63623v-8.06299
		c0-1.58203-0.0332-2.49365-0.09912-2.73535s-0.37744-0.3623-0.93359-0.3623c-0.42529,0-0.63721-0.04395-0.63721-0.13184
		s0.24756-0.14648,0.74316-0.17578c1.12256-0.07324,2.1792-0.26367,3.17041-0.57129
		c0.18945-0.05811,0.32764-0.08789,0.41504-0.08789c0.1167,0,0.17529,0.41016,0.17529,1.23047v0.43945
		c0,0.29297,0,0.68115,0,1.16406c0,0.46924,0,0.79102,0,0.9668V65.125c0.42432-0.6001,0.83838-1.01074,1.24121-1.22998
		c0.40283-0.21973,0.94824-0.32959,1.63672-0.32959c1.4502,0,2.3584,0.58594,2.72363,1.75732
		c0.13281,0.38135,0.19922,0.99609,0.19922,1.8457v5.11865c0,0.38135,0.06055,0.61523,0.18555,0.70312
		s0.43555,0.13184,0.93359,0.13184C219.75781,73.12207,219.83203,73.17383,219.83203,73.27588z"/>
	<path class="st2" d="M230.0918,72.1792c0,0.11914-0.11816,0.28223-0.35156,0.49023
		c-0.62988,0.58057-1.40625,0.87012-2.3291,0.87012c-0.60059,0-1.03613-0.12646-1.30762-0.37842
		c-0.27051-0.25195-0.4502-0.7041-0.53809-1.35742c-0.65918,1.20117-1.55957,1.80176-2.70215,1.80176
		c-0.62988,0-1.13867-0.19775-1.52637-0.59326c-0.38867-0.39551-0.58301-0.90771-0.58301-1.53809
		c0-1.84521,1.58203-2.93604,4.74609-3.27344v-0.46143c0-1.46436-0.05176-2.36475-0.1543-2.70215l-0.02148-0.10986
		c-0.20508-0.73193-0.72559-1.09814-1.56055-1.09814c-0.48242,0-0.87109,0.13916-1.16406,0.41699
		c-0.29297,0.27881-0.43945,0.54932-0.43945,0.81299c0,0.14648,0.17578,0.23438,0.52734,0.26367
		c0.52734,0.04395,0.79102,0.36621,0.79102,0.9668c0,0.32227-0.10645,0.58984-0.31836,0.80176
		c-0.21289,0.2124-0.4873,0.31885-0.82422,0.31885c-0.4248,0-0.77246-0.12842-1.04297-0.38477
		c-0.27148-0.25586-0.40723-0.58203-0.40723-0.97754c0-0.62939,0.31543-1.20068,0.94531-1.71387
		c0.62891-0.51221,1.45703-0.76855,2.48242-0.76855c1.52344,0,2.58496,0.271,3.18555,0.8125
		c0.4834,0.4541,0.72461,1.24512,0.72461,2.37305v3.75684c0,0.73242,0.00781,1.15723,0.02246,1.27393
		c0.07324,0.61523,0.28516,0.92285,0.63672,0.92285c0.24902,0,0.55664-0.17578,0.92285-0.52734
		c0.07324-0.07275,0.13184-0.10986,0.17578-0.10986C230.05469,72.06738,230.0918,72.10498,230.0918,72.1792z M225.5,69.56299
		v-1.07666c-1.4209,0.27832-2.13086,1.08398-2.13086,2.41699c0,1.02539,0.35059,1.5376,1.05371,1.5376
		c0.39551,0,0.67383-0.21973,0.83496-0.65918C225.41895,71.34277,225.5,70.60303,225.5,69.56299z"/>
	<path class="st2" d="M237.27539,71.93555c0,0.16162-0.14062,0.37354-0.4209,0.63721
		c-0.72266,0.68848-1.71875,1.03271-2.9873,1.03271c-1.16602,0-1.93359-0.28564-2.30176-0.85693
		c-0.14746-0.21973-0.23242-0.42432-0.25488-0.61523c-0.02148-0.18994-0.0332-0.68066-0.0332-1.47168v-1.05469
		c0.0293-0.27783,0.04395-0.57129,0.04395-0.87891l-0.04395-0.46143v-1.97705v-1.58203c0-0.26367-0.03613-0.41748-0.10938-0.46143
		s-0.29297-0.06592-0.65918-0.06592c-0.43945,0-0.65918-0.05811-0.65918-0.17578c0-0.0874,0.08008-0.146,0.24121-0.17529
		c1.37695-0.04395,2.56348-0.79102,3.55957-2.24121c0.13184-0.20508,0.23438-0.30762,0.30762-0.30762
		c0.08789,0,0.13184,0.10254,0.13184,0.30762c-0.01465,1.25977,0.03613,1.94824,0.15332,2.06543s0.47656,0.17578,1.07715,0.17578
		c0.61523,0,1.04688-0.0293,1.2959-0.08789c0.0293-0.01465,0.05859-0.02197,0.08789-0.02197
		c0.05859,0,0.08789,0.0459,0.08789,0.1377c0,0.21484-0.09473,0.32227-0.2832,0.32227
		c-0.5957,0.01562-1.25684,0.02295-1.98242,0.02295c-0.05762,0-0.15918,0-0.30469,0v0.45898
		c0,3.90576,0.0293,6.19385,0.08789,6.86377c0.13379,0.84521,0.5498,1.26758,1.24902,1.26758
		c0.31152,0,0.71289-0.21973,1.2041-0.65918c0.2373-0.20459,0.38574-0.30762,0.44531-0.30762
		C237.25293,71.82568,237.27539,71.86279,237.27539,71.93555z"/>
</g>
</svg>
