<?xml version="1.0" encoding="utf-8"?>
<!-- Generator: Adobe Illustrator 22.1.0, SVG Export Plug-In . SVG Version: 6.00 Build 0)  -->
<svg version="1.1" xmlns="http://www.w3.org/2000/svg" xmlns:xlink="http://www.w3.org/1999/xlink" x="0px" y="0px"
	 viewBox="0 0 429.82001 168.09003" style="enable-background:new 0 0 429.82001 168.09003;" xml:space="preserve">
<style type="text/css">
	.st0{fill:#FFDA9C;}
	.st1{fill:#E0B587;}
	.st2{fill:#CA9F7C;}
	.st3{fill:#A07766;}
	.st4{fill:#795552;}
	.st5{fill:#E9B668;}
	.st6{opacity:0.5;}
	.st7{fill:#674447;}
	.st8{fill:#8C665B;}
</style>
<g id="Capa_1">
	<g>
		<g>
			<path class="st0" d="M247.78003,168.09003H0V0h429.82001v168.09003H247.78998"/>
		</g>
		<g>
			<path class="st1" d="M285.40302,103c-13.33301,0-25.66699-12.64101-43.66699-12.64101S208.40501,103,195.90501,103
				s-19.83501,8-19.83501,8H275.737L285.40302,103z"/>
		</g>
		<g>
			<path class="st2" d="M248.07001,103c-12.5,0-46-16-64-16s-43.5,16-56,16s-16,8-16,8h136V103z"/>
		</g>
		<g>
			<path class="st3" d="M376.07001,23c-18-4.5-47.995-6.646-72,16c-26.5,25-46.33301,72-88,72h144l24-72L376.07001,23L376.07001,23z
				"/>
		</g>
		<g>
			<path class="st4" d="M376.07001,23c-3.18799-0.797-6.76599-1.511-10.60599-2.035
				c-12.49701,1.84201-25.65903,6.964-37.39401,18.035c-26.5,25-46.33301,72-88,72h120l24-72L376.07001,23z"/>
		</g>
		<g>
			<path class="st3" d="M0.00001,27v15.61l56.07,20.39l5.95,1.92l40.97,13.26h0.01l37.66,12.18c-0.01999-0.01-0.03-0.02-0.05-0.03
				C97.72001,64.57,88.34,27.26,65.00001,0h-20.66h-44.34v15.38V27z"/>
		</g>
		<g>
			<path class="st4" d="M120.07001,90.35999L80.54999,77.58002h-0.01001L35.47998,63L0,50.09998V0h44.34003
				C56.39001,14.06,64.72998,30.78998,75.87,47.23999c7.25,10.70001,15.69,21.29004,27.12,30.94H103
				C108.04999,82.45001,113.69,86.53003,120.07001,90.35999z"/>
		</g>
		<g>
			<path class="st5" d="M247.78003,168.09003H0V111h429.82001v57.09003H247.78998"/>
		</g>
		<g class="st6">
			<path class="st0" d="M247.78003,168.09003h-113.87C92.89001,161.69,54.52002,152.02002,20.79999,144.38
				c-3.19995-0.72998-6.34998-1.42999-9.45996-2.10999c-3.85004-0.85004-7.63-1.66003-11.34003-2.42999V111h429.82001v29.32001
				c-5.53003,1.16998-11.20001,2.41998-17.02002,3.72998c-3.10999,0.70001-6.26996,1.41998-9.45996,2.16003
				c-31.75,7.29999-67.30005,15.97998-105.11005,21.88h-50.44"/>
		</g>
		<g>
			<path class="st7" d="M247.78003,168.09003h-63.42999L216.07001,111c0,0,0.02002,0.03998,0.06,0.10999l0.01001,0.01001l0.06,0.12
				l0.22998,0.41998l0.04999,0.08002l0.33002,0.60004l0.10004,0.17999l1.54999,2.77997c0.12,0.21002,0.23999,0.42999,0.37,0.66003
				L219,116.28003l0.22003,0.38995l0.47998,0.87l0.13,0.22003l0.12,0.21997c0.04999,0.08002,0.08997,0.16003,0.14001,0.25
				l0.19995,0.37l0.02002,0.04004l0.58002,1.03998l0.33002,0.59003l1.60999,2.89996l0.40997,0.73999l0.36005,0.65002
				l0.37994,0.67999L227.17999,131l0.73004,1.32001l0.62994,1.13l0.45001,0.81l1.08002,1.95001l3.06,5.5l1.28003,2.31L235.37,145.75
				l0.84003,1.51001l0.13,0.22998l0.12,0.21002c0.21997,0.39996,0.45001,0.81,0.66998,1.21997l0.52002,0.92999l0.41998,0.76001
				l0.95001,1.70001l1.95996,3.53998l1,1.80005l4.83002,8.67999l0.02002,0.03998c0.12,0.21002,0.23999,0.41998,0.34998,0.64001
				c0.13,0.22998,0.26001,0.45996,0.39001,0.69L247.78003,168.09003z"/>
		</g>
		<g>
			<path class="st8" d="M247.78003,168.09003h-63.42999L216.07001,111c0,0,0.02002,0.03998,0.06,0.10999l0.01001,0.01001l0.06,0.12
				l0.22998,0.41998l0.04999,0.08002l0.33002,0.60004l0.10004,0.17999l1.54999,2.77997l0.20996,0.39001
				c0.11005,0.19,0.22003,0.39001,0.33002,0.59003l0.22003,0.38995l0.47998,0.87l0.13,0.22003l0.12,0.21997l0.13,0.25
				c0.07001,0.12,0.14001,0.23999,0.20996,0.37l0.02002,0.04004l0.58002,1.03998l0.33002,0.59003l1.60999,2.89996l0.40997,0.73999
				l0.36005,0.65002l0.37994,0.67999L227.17999,131l0.73004,1.32001l0.62994,1.13l0.45001,0.81l1.08002,1.95001l3.06,5.5
				l1.28003,2.31L235.37,145.75l0.84003,1.51001l0.13,0.22998l0.12,0.21002l0.46997,0.83997c0.23999,0.44,0.48004,0.87,0.72003,1.31
				l0.41998,0.76001l0.95001,1.70001l1.95996,3.53998l1,1.80005l4.83002,8.67999l0.02002,0.03998l0.32001,0.57001
				c0.06,0.09998,0.10999,0.20001,0.16998,0.29999l0.06,0.10999l0.19,0.35004L247.78003,168.09003z"/>
			<path class="st8" d="M247.78003,168.09003h0.00995"/>
		</g>
		<g>
			<g>
				<g>
					<path class="st8" d="M91.57001,167v1.09003h-16V167c0-4.41998,3.58002-8,8-8S91.57001,162.58002,91.57001,167z"/>
				</g>
			</g>
		</g>
		<g>
			<g>
				<g>
					<path class="st3" d="M285.40302,159c-1.63501,0-2.95801-1.32501-2.95801-2.95801v-29.58301
						c0-1.634,1.323-2.95801,2.95801-2.95801s2.95801,1.32501,2.95801,2.95801v29.58301
						C288.362,157.67499,287.039,159,285.40302,159z"/>
				</g>
			</g>
			<g>
				<g>
					<path class="st3" d="M288.362,150.125h-5.91699c-4.89401,0-8.875-3.98099-8.875-8.875v-5.91699
						c0-1.634,1.323-2.95801,2.95801-2.95801s2.95801,1.32501,2.95801,2.95801V141.25c0,1.63101,1.32599,2.95801,2.95801,2.95801
						h5.91699c1.63199,0,2.95801-1.328,2.95801-2.95801v-8.875c0-1.634,1.323-2.95801,2.95801-2.95801
						s2.95801,1.32501,2.95801,2.95801v8.875C297.237,146.14401,293.25601,150.125,288.362,150.125z"/>
				</g>
			</g>
		</g>
		<g>
			<path class="st8" d="M200.07001,111H0V15.38c25.66998,2.34998,51.01001,15.77997,75.87,31.85999
				c21.98999,14.22998,43.60004,30.53003,64.73999,43.09003c0.02002,0.01001,0.03003,0.01996,0.05005,0.02997
				C144.12,92.40997,147.56,94.37,150.98999,96.19c9.65002,5.15002,19.20001,9.28998,28.64001,11.87
				C186.5,109.95001,193.32001,111,200.07001,111z"/>
		</g>
		<g>
			<path class="st8" d="M429.82001,0v111h-165.75c4.35999,0,8.47998-0.20001,12.38-0.59003
				c56.32001-5.54999,67.77997-49.59998,96.46002-88.13995C378.69,14.5,385.16998,6.96002,392.85999,0H429.82001z"/>
		</g>
		<g>
			<g>
				<polygon class="st5" points="216.07001,111 221.26001,168.09003 217.79999,168.09003 				"/>
			</g>
			<g>
				<polygon class="st5" points="216.07001,111 214.34003,168.09003 210.88,168.09003 				"/>
			</g>
		</g>
		<g>
			<polygon class="st0" points="216.07001,111 188.51001,168.09003 184.35004,168.09003 			"/>
		</g>
		<g>
			<polygon class="st0" points="247.78003,168.09003 243.63,168.09003 216.20001,111.23999 216.42999,111.65997 
				216.47998,111.73999 216.81,112.34003 216.91003,112.52002 218.46002,115.29999 218.66998,115.69 218.83002,115.96002 
				219,116.28003 219.22003,116.66998 219.70001,117.53998 219.83002,117.76001 219.95001,117.97998 220.08002,118.22998 
				220.09003,118.22998 220.28998,118.59998 220.31,118.64001 220.89001,119.67999 221.22003,120.27002 222.83002,123.16998 
				223.23999,123.90997 223.60004,124.56 223.97998,125.23999 227.17999,131 227.91003,132.32001 228.53998,133.45001 
				228.98999,134.26001 230.07001,136.21002 233.13,141.71002 234.41003,144.02002 235.37,145.75 236.21002,147.26001 
				236.34003,147.48999 236.46002,147.70001 236.92999,148.53998 237.13,148.91998 237.65002,149.84998 238.07001,150.60999 
				239.02002,152.31 240.97998,155.84998 241.97998,157.65002 246.81,166.33002 246.83002,166.37 247.15002,166.94 
				247.17999,167.01001 247.32001,167.23999 247.38,167.34998 247.57001,167.70001 			"/>
		</g>
		<g>
			<path class="st7" d="M160.07001,111H0V27c20.97998,9.65997,41.67999,23.90002,62.02002,37.91998
				c6.20996,4.29004,12.38,8.56,18.51996,12.66003h0.01001C95.77002,87.76001,110.75,96.96997,125.47003,103.13h0.00995
				C137.17999,108.03003,148.72003,111,160.07001,111z"/>
		</g>
		<g>
			<path class="st3" d="M145.77501,138.14801c-1.78799,0-3.235,1.448-3.235,3.23499v6.47c0,1.78299-1.45,3.23499-3.235,3.23499
				v-22.64401c0-1.78601-1.44701-3.23499-3.235-3.23499s-3.235,1.448-3.235,3.23499v16.17401c-1.785,0-3.235-1.452-3.235-3.23499
				v-3.23499c0-1.78601-1.44701-3.23499-3.235-3.23499s-3.235,1.448-3.235,3.23499v3.23499c0,5.35101,4.353,9.70499,9.705,9.70499
				v6.47c0,1.78601,1.44701,3.23499,3.235,3.23499s3.235-1.448,3.235-3.23499c5.351,0,9.705-4.353,9.705-9.70499v-6.47
				C149.009,139.59601,147.563,138.14801,145.77501,138.14801z"/>
		</g>
		<g>
			<path class="st8" d="M412.79999,139.72998v28.36005h-20.01996c-2.25-2.5-3.62-5.82001-3.62-9.45001v-4.73004
				c0-2.60999,2.12-4.72998,4.72998-4.72998s4.72998,2.12,4.72998,4.72998v4.73004c0,2.59998,2.12,4.71997,4.72003,4.71997v-23.63
				c0-2.60999,2.12-4.72998,4.72998-4.72998S412.79999,137.12,412.79999,139.72998z"/>
			<path class="st8" d="M426.97998,158.64001v9.45001h-9.44995v-9.45001c0-2.60999,2.10999-4.73004,4.71997-4.73004
				C424.87,153.90997,426.97998,156.03003,426.97998,158.64001z"/>
		</g>
		<g>
			<path class="st8" d="M20.79999,139.72998v28.36005H0.78003C0.51001,167.78998,0.25,167.47998,0,167.15002v-17.58002
				c0.58002-0.25,1.22003-0.39001,1.89001-0.39001c2.60999,0,4.72998,2.12,4.72998,4.72998v4.73004
				c0,2.59998,2.12,4.71997,4.72003,4.71997v-23.63c0-2.60999,2.12-4.72998,4.72998-4.72998S20.79999,137.12,20.79999,139.72998z"/>
			<path class="st8" d="M34.97998,158.64001v9.45001h-9.44995v-9.45001c0-2.60999,2.10999-4.73004,4.71997-4.73004
				S34.97998,156.03003,34.97998,158.64001z"/>
		</g>
		<g>
			<path class="st7" d="M429.82001,0v111h-141.75c55.57001,0,72.71997-32.48999,94.34003-67.03003c0,0,0-0.00995,0.00995-0.00995
				C391.88,28.84998,402.19,13.34998,416.96002,0H429.82001z"/>
		</g>
	</g>
	<g>
		<path class="st7" d="M216.57977,27.67617v14.22949h-3.23438l-0.00439-9.60645l-1.2876,9.60645h-2.29395l-1.35791-9.38672
			l-0.00439,9.38672h-3.23438V27.67617h4.78809c0.1416,0.85547,0.28809,1.86377,0.43896,3.0249l0.52539,3.61963l0.8501-6.64453
			H216.57977z"/>
		<path class="st7" d="M225.39325,30.24258l-1.01465,8.43799c-0.16113,1.33545-0.29492,2.24658-0.40332,2.73291
			s-0.28906,0.8877-0.54102,1.2041s-0.60156,0.54932-1.0498,0.69873s-1.16406,0.22412-2.14844,0.22412h-2.15332v-1.86328
			c0.55176,0,0.90723-0.02783,1.06543-0.0835s0.2373-0.18018,0.2373-0.37354c0-0.09375-0.07324-0.50098-0.21973-1.22168
			l-1.94434-9.75586h3.22363l1.16699,7.875l0.56836-7.875H225.39325z"/>
		<path class="st7" d="M185.74384,46.44162v14.22949h-3.23438l-0.00439-9.60645l-1.2876,9.60645h-2.29395l-1.35791-9.38672
			l-0.00439,9.38672h-3.23438V46.44162h4.78809c0.1416,0.85547,0.28809,1.86377,0.43896,3.0249l0.52539,3.61963l0.8501-6.64453
			H185.74384z"/>
		<path class="st7" d="M195.16571,55.04612h-4.59668v2.52246c0,0.52734,0.03809,0.86719,0.11426,1.01953
			s0.22266,0.22852,0.43945,0.22852c0.26953,0,0.44971-0.10107,0.54053-0.30322s0.13623-0.59326,0.13623-1.17334v-1.53809h3.36621
			v0.86133c0,0.7207-0.04541,1.27441-0.13623,1.66113s-0.30322,0.7998-0.63721,1.23926s-0.75732,0.76904-1.27002,0.98877
			s-1.15576,0.32959-1.9292,0.32959c-0.75,0-1.41211-0.1084-1.98633-0.3252s-1.021-0.51416-1.34033-0.89209
			s-0.54053-0.79395-0.66357-1.24805s-0.18457-1.11475-0.18457-1.98193v-3.40137c0-1.01953,0.1377-1.82373,0.41309-2.4126
			s0.72656-1.04004,1.35352-1.35352s1.34766-0.47021,2.16211-0.47021c0.99609,0,1.81787,0.18896,2.46533,0.56689
			s1.10156,0.87891,1.3623,1.50293s0.39111,1.50146,0.39111,2.63232V55.04612z M191.60614,53.14768v-0.85254
			c0-0.60352-0.03223-0.99316-0.09668-1.16895s-0.19629-0.26367-0.39551-0.26367c-0.24609,0-0.39844,0.07471-0.45703,0.22412
			s-0.08789,0.55225-0.08789,1.2085v0.85254H191.60614z"/>
		<path class="st7" d="M203.57684,52.73459h-3.14648v-0.63281c0-0.53906-0.03076-0.88037-0.09229-1.02393
			s-0.21533-0.21533-0.46143-0.21533c-0.19922,0-0.34863,0.06592-0.44824,0.19775s-0.14941,0.32959-0.14941,0.59326
			c0,0.35742,0.0249,0.61963,0.07471,0.78662s0.19922,0.3501,0.44824,0.54932s0.76025,0.48926,1.53369,0.87012
			c1.03125,0.50391,1.70801,0.97852,2.03027,1.42383s0.4834,1.09277,0.4834,1.94238c0,0.94922-0.12305,1.66553-0.36914,2.14893
			s-0.65771,0.85547-1.23486,1.11621s-1.27295,0.39111-2.0874,0.39111c-0.90234,0-1.67432-0.14062-2.31592-0.42188
			s-1.08252-0.66211-1.32275-1.14258s-0.36035-1.20703-0.36035-2.17969v-0.5625h3.14648v0.73828
			c0,0.62695,0.03955,1.03418,0.11865,1.22168s0.23584,0.28125,0.47021,0.28125c0.25195,0,0.42773-0.06299,0.52734-0.18896
			s0.14941-0.39111,0.14941-0.79541c0-0.55664-0.06445-0.90527-0.19336-1.0459c-0.13477-0.14062-0.82324-0.55664-2.06543-1.24805
			c-1.04297-0.58594-1.67871-1.11768-1.90723-1.59521s-0.34277-1.04443-0.34277-1.70068c0-0.93164,0.12305-1.61865,0.36914-2.06104
			s0.66357-0.78369,1.25244-1.02393s1.27295-0.36035,2.05225-0.36035c0.77344,0,1.43115,0.09814,1.97314,0.29443
			s0.95801,0.45557,1.24805,0.77783s0.46582,0.62109,0.52734,0.89648s0.09229,0.70605,0.09229,1.29199V52.73459z"/>
		<path class="st7" d="M212.0495,52.73459h-3.14648v-0.63281c0-0.53906-0.03076-0.88037-0.09229-1.02393
			s-0.21533-0.21533-0.46143-0.21533c-0.19922,0-0.34863,0.06592-0.44824,0.19775s-0.14941,0.32959-0.14941,0.59326
			c0,0.35742,0.0249,0.61963,0.07471,0.78662s0.19922,0.3501,0.44824,0.54932s0.76025,0.48926,1.53369,0.87012
			c1.03125,0.50391,1.70801,0.97852,2.03027,1.42383s0.4834,1.09277,0.4834,1.94238c0,0.94922-0.12305,1.66553-0.36914,2.14893
			s-0.65771,0.85547-1.23486,1.11621s-1.27295,0.39111-2.0874,0.39111c-0.90234,0-1.67432-0.14062-2.31592-0.42188
			s-1.08252-0.66211-1.32275-1.14258s-0.36035-1.20703-0.36035-2.17969v-0.5625h3.14648v0.73828
			c0,0.62695,0.03955,1.03418,0.11865,1.22168s0.23584,0.28125,0.47021,0.28125c0.25195,0,0.42773-0.06299,0.52734-0.18896
			s0.14941-0.39111,0.14941-0.79541c0-0.55664-0.06445-0.90527-0.19336-1.0459c-0.13477-0.14062-0.82324-0.55664-2.06543-1.24805
			c-1.04297-0.58594-1.67871-1.11768-1.90723-1.59521s-0.34277-1.04443-0.34277-1.70068c0-0.93164,0.12305-1.61865,0.36914-2.06104
			s0.66357-0.78369,1.25244-1.02393s1.27295-0.36035,2.05225-0.36035c0.77344,0,1.43115,0.09814,1.97314,0.29443
			s0.95801,0.45557,1.24805,0.77783s0.46582,0.62109,0.52734,0.89648s0.09229,0.70605,0.09229,1.29199V52.73459z"/>
		<path class="st7" d="M221.31317,55.04612h-4.59668v2.52246c0,0.52734,0.03809,0.86719,0.11426,1.01953
			s0.22266,0.22852,0.43945,0.22852c0.26953,0,0.44922-0.10107,0.54004-0.30322s0.13672-0.59326,0.13672-1.17334v-1.53809h3.36621
			v0.86133c0,0.7207-0.0459,1.27441-0.13574,1.66113c-0.0918,0.38672-0.30371,0.7998-0.6377,1.23926
			s-0.75781,0.76904-1.27051,0.98877s-1.15527,0.32959-1.92871,0.32959c-0.75,0-1.41211-0.1084-1.98633-0.3252
			s-1.021-0.51416-1.34033-0.89209s-0.54053-0.79395-0.66357-1.24805s-0.18457-1.11475-0.18457-1.98193v-3.40137
			c0-1.01953,0.1377-1.82373,0.41309-2.4126s0.72656-1.04004,1.35352-1.35352s1.34766-0.47021,2.16211-0.47021
			c0.99609,0,1.81738,0.18896,2.46582,0.56689c0.64648,0.37793,1.10059,0.87891,1.36133,1.50293s0.3916,1.50146,0.3916,2.63232
			V55.04612z M217.7536,53.14768v-0.85254c0-0.60352-0.03223-0.99316-0.09668-1.16895s-0.19629-0.26367-0.39551-0.26367
			c-0.24609,0-0.39844,0.07471-0.45703,0.22412s-0.08789,0.55225-0.08789,1.2085v0.85254H217.7536z"/>
		<path class="st7" d="M226.08563,49.00803l-0.06152,1.07422c0.25781-0.42822,0.57227-0.74951,0.94531-0.96387
			c0.37109-0.21436,0.80078-0.32129,1.28711-0.32129c0.60938,0,1.10742,0.14355,1.49414,0.43066s0.63574,0.64893,0.74707,1.08545
			s0.16699,1.16455,0.16699,2.18408v8.17383h-3.55078v-8.07715c0-0.80273-0.02637-1.29199-0.0791-1.46777
			s-0.19922-0.26367-0.43945-0.26367c-0.25195,0-0.41016,0.10107-0.47461,0.30322s-0.09668,0.74268-0.09668,1.62158v7.88379
			h-3.55078V49.00803H226.08563z"/>
		<path class="st7" d="M239.95477,49.00803v8.98242c0,1.21289-0.02832,1.99658-0.08398,2.35107s-0.25293,0.72949-0.59277,1.125
			s-0.81348,0.69727-1.41895,0.90527c-0.60742,0.20801-1.37012,0.31201-2.29004,0.31201c-1.13086,0-2.03906-0.19189-2.72461-0.57568
			s-1.04004-1.13818-1.06348-2.26318h3.44531c0,0.51562,0.1875,0.77344,0.5625,0.77344c0.26953,0,0.44824-0.0791,0.53613-0.23779
			c0.08789-0.1582,0.13184-0.48975,0.13184-0.99414v-0.87939c-0.30469,0.27588-0.62598,0.48438-0.96289,0.62549
			s-0.68945,0.21143-1.05859,0.21143c-0.63867,0-1.16406-0.12891-1.57812-0.38672c-0.41211-0.25781-0.69531-0.59619-0.84766-1.01514
			s-0.22852-1.01514-0.22852-1.78857v-4.23633c0-1.10742,0.19922-1.9043,0.59766-2.39062s1.00488-0.72949,1.81934-0.72949
			c0.44531,0,0.85059,0.09082,1.21777,0.27295c0.36523,0.18213,0.69238,0.45508,0.97949,0.81885l0.25488-0.88086H239.95477z
			 M236.3952,52.10178c0-0.5332-0.03027-0.87305-0.09277-1.01953c-0.06055-0.14648-0.19727-0.21973-0.4082-0.21973
			c-0.20508,0-0.35059,0.0835-0.43555,0.25049s-0.12695,0.49658-0.12695,0.98877v3.91992c0,0.52148,0.03223,0.85986,0.09668,1.01514
			s0.19922,0.23291,0.4043,0.23291c0.23438,0,0.38672-0.09375,0.45703-0.28125s0.10547-0.6123,0.10547-1.27441V52.10178z"/>
		<path class="st7" d="M249.26239,55.04612h-4.59668v2.52246c0,0.52734,0.03809,0.86719,0.11426,1.01953
			s0.22266,0.22852,0.43945,0.22852c0.26953,0,0.44922-0.10107,0.54004-0.30322s0.13672-0.59326,0.13672-1.17334v-1.53809h3.36621
			v0.86133c0,0.7207-0.0459,1.27441-0.13574,1.66113c-0.0918,0.38672-0.30371,0.7998-0.6377,1.23926
			s-0.75781,0.76904-1.27051,0.98877s-1.15527,0.32959-1.92871,0.32959c-0.75,0-1.41211-0.1084-1.98633-0.3252
			s-1.02148-0.51416-1.34082-0.89209s-0.54004-0.79395-0.66309-1.24805s-0.18457-1.11475-0.18457-1.98193v-3.40137
			c0-1.01953,0.1377-1.82373,0.41309-2.4126s0.72656-1.04004,1.35352-1.35352s1.34766-0.47021,2.16211-0.47021
			c0.99609,0,1.81738,0.18896,2.46582,0.56689c0.64648,0.37793,1.10059,0.87891,1.36133,1.50293s0.3916,1.50146,0.3916,2.63232
			V55.04612z M245.70282,53.14768v-0.85254c0-0.60352-0.03223-0.99316-0.09668-1.16895s-0.19629-0.26367-0.39551-0.26367
			c-0.24609,0-0.39844,0.07471-0.45703,0.22412s-0.08789,0.55225-0.08789,1.2085v0.85254H245.70282z"/>
		<path class="st7" d="M253.97333,49.00803l-0.14062,1.53369c0.51562-1.09814,1.2627-1.68018,2.24121-1.74463v4.10449
			c-0.65039,0-1.12793,0.08789-1.43262,0.26367s-0.49219,0.42041-0.5625,0.73389s-0.10547,1.03564-0.10547,2.1665v4.60547h-3.55078
			V49.00803H253.97333z"/>
	</g>
</g>
<g id="Ebene_2">
</g>
</svg>
