<?xml version="1.0" encoding="utf-8"?>
<!-- Generator: Adobe Illustrator 22.1.0, SVG Export Plug-In . SVG Version: 6.00 Build 0)  -->
<svg version="1.1" id="Layer_1" xmlns="http://www.w3.org/2000/svg" xmlns:xlink="http://www.w3.org/1999/xlink" x="0px" y="0px"
	 viewBox="0 0 464 464" style="enable-background:new 0 0 464 464;" xml:space="preserve">
<style type="text/css">
	.st0{fill:#664B34;}
	.st1{fill:#59422D;}
	.st2{fill:#FD3018;}
	.st3{fill:#E61E14;}
	.st4{fill:#6ECD24;}
	.st5{fill:#66BD21;}
	.st6{fill:#FCBF29;}
	.st7{fill:#FEA832;}
	.st8{fill:#BF6015;}
	.st9{fill:#994C10;}
</style>
<polygon class="st0" points="436.8125,187.7682 436.8125,255.73695 412.88751,288.09009 65.52097,288.09009 27.1875,255.73695 
	27.1875,187.7682 "/>
<polygon class="st1" points="412.88751,288.09009 232,288.09009 232,187.7682 436.8125,187.7682 436.8125,255.73695 "/>
<path class="st2" d="M27.1875,255.73695v67.96877h409.625v-67.96877H27.1875z"/>
<rect x="232" y="255.73695" class="st3" width="204.8125" height="67.96875"/>
<path class="st4" d="M171.91472,187.7682L286.375,302.22849L400.83527,187.7682H171.91472z"/>
<polygon class="st5" points="400.83527,187.7682 286.375,302.22849 232,247.85349 232,187.7682 "/>
<path class="st6" d="M0,296.51822v13.59375c0,52.47186,42.68437,95.15625,95.15625,95.15625h273.6875
	c52.47186,0,95.15625-42.68439,95.15625-95.15625v-13.59375H0z"/>
<path class="st7" d="M464,296.51822v13.59375c0,52.47186-42.68439,95.15625-95.15625,95.15625H232v-108.75H464z"/>
<path class="st6" d="M314.46875,51.83071h-164.9375C67.15222,51.83071,0,118.98293,0,201.36195v13.59375h464v-13.59375
	C464,118.98293,396.84778,51.83071,314.46875,51.83071z"/>
<path class="st7" d="M464,201.36195v13.59375H232v-163.125h82.46875C396.84778,51.83071,464,118.98293,464,201.36195z"/>
<rect x="108.75" y="106.20571" class="st8" width="27.1875" height="27.1875"/>
<rect x="328.0625" y="106.20571" class="st9" width="27.1875" height="27.1875"/>
<rect x="218.40625" y="106.20571" class="st8" width="27.1875" height="27.1875"/>
<rect x="272.78125" y="133.3932" class="st9" width="27.1875" height="27.1875"/>
<rect x="164.03125" y="133.3932" class="st8" width="27.1875" height="27.1875"/>
<rect x="232" y="106.20571" class="st9" width="13.59375" height="27.1875"/>
</svg>
