<?xml version="1.0" encoding="utf-8"?>
<!-- Generator: Adobe Illustrator 22.1.0, SVG Export Plug-In . SVG Version: 6.00 Build 0)  -->
<svg version="1.1" id="Layer_1" xmlns="http://www.w3.org/2000/svg" xmlns:xlink="http://www.w3.org/1999/xlink" x="0px" y="0px"
	 viewBox="0 0 464 464" style="enable-background:new 0 0 464 464;" xml:space="preserve">
<style type="text/css">
	.st0{fill:#495059;}
	.st1{fill:#7694E4;}
	.st2{opacity:0.1;}
	.st3{fill:#EDA751;}
	.st4{fill:#FCD79D;}
	.st5{opacity:0.2;fill:#A35F00;enable-background:new    ;}
	.st6{fill:#FCD690;}
	.st7{opacity:0.15;fill:#C17A00;enable-background:new    ;}
	.st8{fill:#FF91AB;}
	.st9{fill:#FFDC9C;}
</style>
<path class="st0" d="M226.41786,447.78085H76.48152c-3.41022,0-6.17519-2.76498-6.17519-6.1752V331.2226
	c0-6.57486,5.32965-11.90448,11.9045-11.90448h132.30254c6.57484,0,11.9045,5.32965,11.9045,11.90448V447.78085z"/>
<path class="st1" d="M226.41786,367.27954H70.30543v74.3252c0,3.41022,2.76498,6.1752,6.17519,6.1752h149.93634L226.41786,367.27954
	L226.41786,367.27954z"/>
<g class="st2">
	<path d="M148.36165,436.43005c-3.75369,0-6.79688-3.04227-6.79688-6.79688v-44.20685c0-3.75461,3.04318-6.79688,6.79688-6.79688
		c3.75368,0,6.79688,3.04227,6.79688,6.79688v44.20685C155.15852,433.38779,152.11533,436.43005,148.36165,436.43005z"/>
	<path d="M116.20246,436.43005c-3.75369,0-6.79688-3.04227-6.79688-6.79688v-44.20685c0-3.75461,3.04318-6.79688,6.79688-6.79688
		c3.75368,0,6.79688,3.04227,6.79688,6.79688v44.20685C122.99934,433.38779,119.95615,436.43005,116.20246,436.43005z"/>
	<path d="M180.52174,436.43005c-3.75369,0-6.79688-3.04227-6.79688-6.79688v-44.20685c0-3.75461,3.04318-6.79688,6.79688-6.79688
		c3.75368,0,6.79688,3.04227,6.79688,6.79688v44.20685C187.31862,433.38779,184.27542,436.43005,180.52174,436.43005z"/>
</g>
<path class="st3" d="M63.68255,422.27444c-2.70243,0-5.41937-0.91986-7.64331-2.80301
	c-4.98891-4.22586-5.60878-11.69424-1.38475-16.68317c14.72113-17.38821,41.33588-21.24884,79.10113-11.47766
	c16.35327,4.23221,25.172-7.1358,39.95023-35.95911c4.84117-9.44403,9.41412-18.36334,15.01927-25.22455
	c4.13612-5.06232,11.59366-5.8136,16.65688-1.67838c5.06323,4.13705,5.81451,11.59366,1.67839,16.65689
	c-4.01741,4.91821-8.03392,12.75275-12.28694,21.04767c-6.12354,11.94437-13.0645,25.48282-22.68524,35.29572
	c-12.57695,12.82703-27.47116,17.1272-44.26306,12.78265c-27.42131-7.09503-46.99088-5.72388-55.10363,3.85519
	C70.38155,420.85162,67.04292,422.27444,63.68255,422.27444z"/>
<path class="st4" d="M54.65449,402.78824c-4.22403,4.98892-3.60506,12.45731,1.38475,16.68317
	c2.22394,1.88318,4.94088,2.80301,7.64331,2.80301c3.36037,0,6.699-1.42374,9.03984-4.18869
	c1.06031-1.25244,2.32181-2.35989,3.76547-3.33136c-2.41788-10.68109-10.97741-16.50735-15.88113-17.7489
	C58.44534,398.73096,56.45974,400.65674,54.65449,402.78824z"/>
<g>
	<path class="st3" d="M233.81195,457.20312c-9.68871,0-17.94919-7.39499-18.84093-17.23053
		c-2.11792-23.36313-10.05031-49.89813-18.45215-61.72467c-6.05829-8.52783-4.05638-20.35074,4.47052-26.40903
		c8.52692-6.05649,20.35075-4.0564,26.40904,4.47144c14.26982,20.08704,22.98793,54.77554,25.29706,80.2421
		c0.94431,10.41733-6.73434,19.62753-17.15167,20.57187C234.96289,457.17685,234.3847,457.20312,233.81195,457.20312z"/>
	<path class="st3" d="M122.96671,369.19629c-7.11678,0-13.93541-4.03009-17.15894-10.89948
		c-8.44172-17.99088-7.31525-36.73846,3.0894-51.43332c12.66484-17.88757,37.11094-27.33884,63.80361-24.65088
		c10.40738,1.04492,17.99722,10.33032,16.95142,20.7377c-1.04582,10.40826-10.33305,17.99994-20.73863,16.95139
		c-14.65044-1.47083-25.35324,3.55795-29.1015,8.85135c-0.99052,1.39926-3.62318,5.11761,0.28819,13.45511
		c4.44334,9.46942,0.36884,20.74771-9.10057,25.19104C128.39877,368.6181,125.661,369.19629,122.96671,369.19629z"/>
</g>
<path class="st5" d="M172.70079,282.2117c-11.36528-1.14459-22.31821-0.08066-32.1329,2.89001
	c-2.97704,9.14227-4.58472,18.84274-4.58472,28.89127c0,6.68719,0.72137,13.21765,2.07349,19.53513
	c0.18216-2.53842,1.21257-4.00928,1.7554-4.77686c3.74826-5.2934,14.45198-10.32129,29.1015-8.85135
	c10.40556,1.04855,19.69281-6.54312,20.73863-16.95139C190.69803,292.54202,183.10818,283.25751,172.70079,282.2117z"/>
<g>
	<path class="st3" d="M290.83865,451.95956c-4.56116,0-9.13498-1.63669-12.76816-4.95538
		c-7.72305-7.05423-8.2659-19.03397-1.21167-26.75793c3.81351-4.17508,5.41394-8.70361,5.03513-14.24896
		c-0.71048-10.41193-8.25955-21.08932-11.07797-23.48364c-8.35382-6.16885-10.18808-17.93286-4.07904-26.35556
		c6.14166-8.46622,17.98453-10.35303,26.4516-4.21045c9.54465,6.92194,24.02017,26.81958,26.31931,49.38156
		c1.70285,16.70944-3.37396,32.08487-14.68033,44.46423C301.09195,449.88336,295.97345,451.95956,290.83865,451.95956z
		 M270.88937,382.56711c0.01993,0.0145,0.04077,0.02988,0.05981,0.04349C270.92926,382.59607,270.9093,382.5816,270.88937,382.56711
		z"/>
	<path class="st3" d="M345.17014,343.33643c-25.2164,0-45.64963-20.12598-51.6236-26.67545
		c-7.04883-7.7294-6.49692-19.70822,1.2316-26.75702c7.72852-7.04791,19.70822-6.49692,26.75702,1.23068
		c8.21246,9.0036,18.60168,14.99481,24.70438,14.25803c4.99615-0.60809,9.29541-6.72528,12.02231-11.75043
		c4.98892-9.19302,16.4874-12.60233,25.68042-7.6116c9.19299,4.98892,12.60141,16.4874,7.61157,25.68042
		c-12.64398,23.29788-29.13321,29.87183-40.73956,31.28375C348.91113,343.22678,347.02615,343.33643,345.17014,343.33643z"/>
</g>
<g>
	<path class="st5" d="M205.38199,328.44855c-5.0623-4.13519-12.51984-3.38394-16.65688,1.67838
		c-5.60515,6.86124-10.1781,15.78052-15.01927,25.22458c-5.05235,9.85275-9.40689,17.66373-13.60553,23.51083
		c5.36591,5.78549,11.43416,10.97833,18.0806,15.46063c6.5984-8.69818,11.84378-18.90982,16.59253-28.17078
		c4.25302-8.29401,8.26953-16.12946,12.28694-21.04767C211.1965,340.04221,210.44521,332.5856,205.38199,328.44855z"/>
	<path class="st5" d="M249.01974,412.32291c-4.23761-20.35983-11.54199-41.82706-21.61949-56.0126
		c-6.05829-8.52783-17.88304-10.52792-26.40904-4.47144c-8.52782,6.05829-10.52881,17.88211-4.47054,26.40903
		c4.68442,6.59387,9.222,17.76343,12.68842,30.40378c9.50023,2.66891,19.55688,4.10895,29.96606,4.10895
		C242.49474,412.76154,245.77719,412.60837,249.01974,412.32291z"/>
	<path class="st5" d="M293.18945,351.9476c-8.46707-6.14255-20.30997-4.25574-26.4516,4.21045
		c-6.10904,8.4227-4.27481,20.18671,4.07901,26.35556c2.66257,2.26199,9.5419,11.92081,10.89224,21.7627
		c12.49084-5.23178,23.70297-12.69296,33.0618-21.84515C309.13855,368.21753,299.93466,356.83957,293.18945,351.9476z"/>
	<path class="st5" d="M344.12433,313.99298c0-2.9118-0.14227-5.79184-0.40598-8.6402
		c-6.18698-0.79657-15.01477-6.35825-22.18411-14.21906c-7.04883-7.7276-19.02762-8.27859-26.75702-1.23068
		c-7.72849,7.04883-8.2804,19.02762-1.2316,26.75702c5.51996,6.05103,23.38577,23.67941,45.95953,26.32837
		C342.50668,333.81628,344.12433,324.07953,344.12433,313.99298z"/>
</g>
<ellipse class="st6" cx="239.17424" cy="313.9975" rx="87.35345" ry="81.17282"/>
<path class="st7" d="M226.41786,394.30301c-39.9194-26.20874-27.54729-79.9249-20.77126-103.4158v-51.86919
	c-31.60547,12.21805-53.82852,41.18272-53.82852,74.97588C151.81808,354.79779,184.21924,388.56555,226.41786,394.30301z"/>
<path class="st3" d="M186.01271,173.23875c17.09369-14.34322,28.507-38.42137,4.39622-74.01615
	c-24.3011-35.87572-60.48222-44.86844-88.72823-41.54069c-6.96362,0.82016-12.80713,5.72297-14.82443,12.43919
	c-8.18253,27.23916-5.60879,64.43256,25.50187,94.59345C143.22411,194.63983,168.91902,187.58197,186.01271,173.23875z"/>
<path class="st8" d="M85.71893,74.28894c-6.70806,26.7824-2.91541,61.77362,26.63831,90.42561
	c26.75432,25.93869,49.6181,24.0845,66.36832,13.79222C167.20531,100.30466,116.88305,79.56693,85.71893,74.28894z"/>
<path class="st3" d="M292.33578,173.23875c-17.09369-14.34322-28.50699-38.42137-4.39624-74.01615
	c24.30109-35.87572,60.48224-44.86844,88.72821-41.54069c6.96362,0.82016,12.8071,5.72297,14.82443,12.43919
	c8.18253,27.23916,5.6088,64.43256-25.50186,94.59345C335.12436,194.63983,309.42947,187.58197,292.33578,173.23875z"/>
<path class="st8" d="M392.62955,74.28894c6.70807,26.7824,2.91541,61.77362-26.63834,90.42561
	c-26.7543,25.93869-49.6181,24.0845-66.36832,13.79222C311.14319,100.30466,361.46542,79.56693,392.62955,74.28894z"/>
<path class="st9" d="M387.89713,194.88725c0,68.00047-66.58582,97.78349-148.72289,97.78349S90.45136,262.88773,90.45136,194.88725
	S157.03627,71.76141,239.17424,71.76141S387.89713,126.88678,387.89713,194.88725z"/>
<path class="st7" d="M159.76317,90.77181c-41.65125,21.81978-69.31272,60.29101-69.31272,104.11544
	c0,58.45584,49.20484,88.66933,115.19526,95.99995C110.91902,234.30368,123.27302,158.19319,159.76317,90.77181z"/>
<g>
	<ellipse class="st8" cx="166.19392" cy="197.75282" rx="26.92832" ry="21.44459"/>
	<ellipse class="st8" cx="312.15454" cy="197.75282" rx="26.9283" ry="21.44459"/>
</g>
<path class="st0" d="M103.42796,100.33456c-2.28465,0-4.60194-0.53468-6.76878-1.66296
	c-7.19019-3.74554-9.98234-12.60957-6.23681-19.79975c12.644-24.27209,33.58382-42.94719,62.23854-55.5069
	c24.72884-10.83875,54.64507-16.56806,86.51334-16.56806s61.78358,5.72931,86.51335,16.56806
	c28.65472,12.55972,49.59546,31.23481,62.23853,55.5069c3.74554,7.19019,0.9534,16.05422-6.23679,19.79975
	c-7.1893,3.74463-16.05423,0.95247-19.79886-6.23682c-9.47394-18.18572-25.6188-32.3785-47.98776-42.18232
	c-21.04312-9.2238-46.88394-14.09852-74.72847-14.09852s-53.68535,4.87563-74.72847,14.09853
	c-22.36897,9.80381-38.51472,23.99659-47.98775,42.18232C113.84168,97.45722,108.7259,100.33456,103.42796,100.33456z"/>
<g>
	<path class="st1" d="M86.75114,164.91486L86.75114,164.91486c-27.69319-10.07932-41.97206-40.6997-31.89185-68.39288
		l1.81975-4.99887c10.07931-27.69319,40.69969-41.97206,68.39287-31.89185l0,0c8.49972,3.09394,12.88145,12.49175,9.7884,20.99147
		l-27.11772,74.50552C104.64867,163.62614,95.25087,168.00879,86.75114,164.91486z"/>
	<path class="st1" d="M391.59735,164.91486L391.59735,164.91486c27.69318-10.07932,41.97205-40.6997,31.89185-68.39288
		l-1.81976-4.99887c-10.07932-27.69319-40.69968-41.97206-68.39288-31.89185l0,0
		c-8.49969,3.09394-12.88141,12.49175-9.78839,20.99147l27.11771,74.50552
		C373.6998,163.62614,383.09763,168.00879,391.59735,164.91486z"/>
</g>
<path d="M351.76855,188.6604c-7.48019-1.87048-25.30884-3.20268-33.99161-2.05356c-3.72107,0.4921-6.33923,3.90866-5.84714,7.62971
	c0.4921,3.72015,3.90778,6.34195,7.62973,5.84712c6.76425-0.89537,23.00696,0.28819,28.91208,1.76448
	c0.5528,0.13774,1.10742,0.2048,1.65393,0.2048c3.04498,0,5.81628-2.06171,6.58841-5.15021
	C357.62476,193.26143,355.40988,189.5712,351.76855,188.6604z M429.87643,94.19653l-1.81976-4.99978
	c-5.49548-15.09904-16.54269-27.15487-31.10614-33.94541c-6.84671-3.19272-14.08582-5.02425-21.40381-5.51634
	c-12.4437-13.37263-28.28043-24.33372-47.13135-32.59691C302.83197,5.92688,271.97235,0,239.17424,0
	s-63.65771,5.92688-89.24207,17.139c-18.85089,8.26319-34.68762,19.22428-47.13043,32.59691
	c-7.31796,0.4921-14.5571,2.32363-21.40381,5.51634C66.8345,62.04278,55.78731,74.09863,50.29181,89.19766l-1.81975,4.99978
	c-5.4955,15.09994-4.78228,31.436,2.00825,45.99853c6.79144,14.56345,18.84637,25.61063,33.94631,31.10614l0,0
	c0.55643,0.20209,1.11922,0.37245,1.68291,0.53105c-1.62762,7.59348-2.45503,15.31653-2.45503,23.05409
	c0,27.30713,9.93612,50.05309,29.53197,67.60805c6.98175,6.25494,15.09721,11.73233,24.26575,16.44211
	c-14.26527,4.54031-26.18427,12.81619-34.10219,23.9975c-2.16412,3.05679-3.97391,6.26401-5.43569,9.58542H82.20992
	c-10.31222,0-18.70137,8.38913-18.70137,18.70135v55.69995c-5.38222,2.96704-10.07206,6.78601-14.04144,11.47403
	c-6.64009,7.84088-5.66225,19.62213,2.17953,26.26224c3.31597,2.80756,7.52187,4.36359,11.86191,4.40527v12.54156
	c0,7.15305,5.81903,12.97208,12.97206,12.97208h137.39474C218.59329,460.36777,225.77261,464,233.81197,464
	c0.783,0,1.57416-0.03625,2.34537-0.10605c14.13208-1.28143,24.58839-13.82211,23.30785-27.95599
	c-1.01407-11.18219-3.15646-23.33682-6.10811-34.97125c6.50325-0.92166,12.78719-2.47134,18.78566-4.57294
	c1.38293,2.85922,2.72421,6.46518,2.96979,10.06662c0.25375,3.71472-0.6951,6.38-3.27246,9.20206
	c-4.63638,5.07681-7.01889,11.65347-6.70715,18.52194c0.31082,6.86755,3.27792,13.20316,8.35291,17.83951
	c4.75421,4.34186,10.9158,6.73346,17.35199,6.73346c7.21466,0,14.14291-3.05408,19.00861-8.37921
	c1.13913-1.24792,2.24112-2.54745,3.27518-3.86063c2.32184-2.94986,1.8125-7.22372-1.13733-9.54465
	c-2.94986-2.32269-7.22372-1.8125-9.54465,1.13736c-0.82922,1.05396-1.71555,2.09705-2.62994,3.10028
	c-2.32907,2.54926-5.51453,3.95306-8.97095,3.95306c-3.03503,0-5.94138-1.1283-8.18436-3.17734
	c-2.39432-2.18677-3.79358-5.1756-3.94128-8.41632c-0.14679-3.23987,0.97784-6.34283,3.16553-8.73898
	c5.08044-5.56256,7.30438-11.87369,6.79688-19.29587c-0.367-5.37769-2.12332-10.44272-4.04095-14.52628
	c7.37506-3.81531,14.14566-8.52872,20.14502-13.98071c3.40298,6.36008,6.95728,15.07547,7.96774,24.99072
	c0.50116,4.91278,0.34256,9.74039-0.47125,14.34686c-0.6525,3.69659,1.81522,7.22281,5.51184,7.87531
	c0.39966,0.07068,0.79657,0.10422,1.18988,0.10422c3.23532,0,6.10358-2.32001,6.68542-5.61603
	c1.03131-5.84171,1.23615-11.92719,0.60809-18.08875c-1.15369-11.32181-5.28345-23.21179-11.73685-33.96628
	c4.83212-6.01837,8.85318-12.63403,11.92264-19.70184c6.29028,2.09613,12.55972,3.16101,18.71313,3.16101
	c2.16321,0,4.33911-0.13052,6.46609-0.39059c13.19409-1.60681,31.86649-8.9447,45.89252-34.79004
	c3.27884-6.04196,4.00836-12.99927,2.05539-19.59042c-1.95389-6.59024-6.35736-12.02594-12.39841-15.30566
	c-6.04288-3.27881-12.99832-4.01013-19.59134-2.05539c-6.59116,1.95389-12.02682,6.35825-15.30563,12.40024
	c-3.57428,6.58664-6.32837,8.17889-6.86304,8.24417c-1.99014,0.24289-8.49066-2.18045-15.73615-8.94196
	c-0.51111-1.66296-1.073-3.31326-1.69107-4.94995c7.11407-2.82025,13.73422-6.03018,19.80429-9.62619
	c30.67749-18.17575,46.89209-45.92242,46.89209-80.2394c0-7.73846-0.82739-15.46153-2.45502-23.05409
	c0.56369-0.15858,1.12646-0.32896,1.68289-0.53105c15.09991-5.49641,27.15485-16.54269,33.94632-31.10612
	C434.65872,125.63253,435.37192,109.29737,429.87643,94.19653z M333.16324,308.81647
	c4.68442,2.42694,9.52197,3.85339,13.89645,3.32413c6.32111-0.76941,12.09937-5.9024,17.17615-15.25583
	c1.547-2.85104,4.11166-4.92908,7.22192-5.84982c3.11026-0.92349,6.39267-0.57727,9.24374,0.9697
	c2.85016,1.54697,4.92819,4.11163,5.84985,7.22098c0.92163,3.11026,0.57727,6.39359-0.9697,9.24377
	c-11.26108,20.7504-25.56805,26.56036-35.58755,27.77838c-6.14981,0.74854-12.586,0.02356-19.15085-2.14603
	c1.62308-6.46066,2.48492-13.19229,2.48492-20.10876C333.32819,312.25934,333.26929,310.53381,333.16324,308.81647z
	 M155.38962,29.58906c23.87697-10.46356,52.84888-15.99531,83.78462-15.99531c30.93486,0,59.90675,5.53175,83.78462,15.99531
	c13.30103,5.8299,24.90463,13.0935,34.65952,21.6639c-2.24115,0.53741-4.4678,1.18991-6.66635,1.98922
	c-3.44556,1.25425-6.41083,3.24891-8.78973,5.73475c-0.90262-0.696-1.82611-1.3775-2.76041-2.05175
	c-0.25015-0.20481-0.50842-0.39875-0.78302-0.5655c-6.59119-4.669-13.93723-8.80603-21.98743-12.33406
	c-21.89774-9.59719-48.68195-14.67038-77.4572-14.67038c-28.77435,0-55.55948,5.07319-77.45718,14.67038
	c-8.05203,3.52894-15.399,7.66687-21.99107,12.33587c-0.27188,0.16584-0.52744,0.35706-0.77484,0.55916
	c-0.93616,0.67516-1.86143,1.35847-2.76497,2.05537c-2.37799-2.48584-5.34415-4.4805-8.78972-5.73475
	c-2.19855-0.80022-4.42522-1.45272-6.66637-1.98922C130.48405,42.68347,142.08859,35.41988,155.38962,29.58906z M142.35501,71.42156
	c0.65704-0.53922,1.33763-1.06303,2.01642-1.58865c7.05516,2.79034,13.65628,6.51775,19.7354,11.13963
	c-10.06934,4.63637-19.53239,10.2234-28.21973,16.70037l5.35956-14.72656C142.63686,79.12741,142.95224,75.17616,142.35501,71.42156
	z M157.89359,61.04228c2.96434-1.61766,6.04831-3.14922,9.28001-4.56569c20.19124-8.84953,45.08865-13.52668,72.00064-13.52668
	s51.80849,4.67715,72.00066,13.52668c3.23077,1.41647,6.31564,2.94803,9.28,4.56569
	c-7.36237,3.77363-14.22177,8.49881-20.52023,14.12209c-18.88443-6.66547-39.45087-10.19894-60.76042-10.19894
	s-41.87601,3.53438-60.75954,10.19984C172.11627,69.54109,165.25595,64.81591,157.89359,61.04228z M333.97705,69.83291
	c0.67877,0.52563,1.35938,1.05034,2.01639,1.58865c-0.5972,3.75459-0.28183,7.70584,1.10834,11.52478l5.35959,14.72656
	c-8.68823-6.47697-18.15039-12.0649-28.21973-16.70037C320.32077,76.34975,326.92191,72.62325,333.97705,69.83291z
	 M93.73289,159.0088c-0.01631,0.00182-0.03172,0.00543-0.04713,0.00816c-1.53519,0.2175-3.11024,0.0571-4.60918-0.48938
	c0,0,0,0-0.00091,0c-24.12709-8.78064-36.61068-35.55399-27.82912-59.68018l1.81975-4.99978
	c4.25393-11.687,12.80441-21.01866,24.07634-26.27581c5.95044-2.77402,12.2824-4.22131,18.65424-4.35997
	c0.03444,0.0009,0.06888,0.00453,0.10332,0.00453c0.1024,0,0.20481-0.01088,0.30721-0.0154
	c0.19576-0.00272,0.39059-0.01631,0.58635-0.01631c5.37044,0,10.75628,0.9416,15.95272,2.83294
	c4.96443,1.80707,7.53275,7.31525,5.72568,12.27878l-14.73925,40.49669c-0.00543,0.01451-0.01087,0.0281-0.0154,0.04259
	l-12.36215,33.96534c-0.87544,2.4052-2.63447,4.32553-4.95357,5.40669C95.54268,158.60826,94.64458,158.87468,93.73289,159.0088z
	 M114.44433,310.79028c7.4086-10.46356,19.51519-17.72714,34.09946-20.70959c-2.33632,7.72937-3.5235,15.72977-3.5235,23.91229
	c0,0.85458,0.01631,1.70645,0.04259,2.55563c-4.6853,2.08255-8.42813,4.92908-10.79796,8.27405
	c-3.92407,5.53809-4.03101,12.35944-0.31902,20.27011c2.8266,6.02475,0.25375,13.21494-5.72839,16.095
	c-0.05891,0.02902-0.11871,0.05438-0.17673,0.08517c-1.61313,0.74405-3.31959,1.12558-5.0759,1.12558
	c-4.69347,0-9.01357-2.74323-11.0055-6.99081C104.58796,339.69604,105.49239,323.43338,114.44433,310.79028z M146.25281,339.31995
	c-2.23029-4.75421-1.29413-6.07462-0.89447-6.63919c0.30994-0.43771,0.81653-0.94614,1.47719-1.47629
	c2.25023,10.55872,6.53044,20.44046,12.44281,29.27731h-12.72737C149.3821,353.94046,149.51167,346.26453,146.25281,339.31995z
	 M77.1023,331.22168c0-2.8157,2.291-5.1076,5.10763-5.1076h11.77763c-1.66025,11.08524,0.1015,22.87012,5.34959,34.36771H77.1023
	V331.22168z M77.1023,374.07553h36.19201c3.02778,1.23431,6.30116,1.91672,9.67241,1.91672
	c3.35584,0,6.61925-0.64618,9.71953-1.91672h22.46686c-7.73032,11.10248-12.92223,12.40659-19.69373,10.65479
	c-23.35497-6.04379-42.85204-7.06332-58.35616-3.10571v-7.54907H77.1023z M67.53503,413.69406
	c-0.26463,0.31174-0.56551,0.58362-0.88994,0.81924c-0.09516,0.0607-0.18851,0.12415-0.28094,0.19031
	c-0.79478,0.49841-1.71915,0.77393-2.68159,0.77393c-0.84009,0-2.08709-0.20752-3.25072-1.19263
	c-2.12153-1.79617-2.38615-4.98346-0.58907-7.10501c12.8914-15.22772,37.18706-18.35248,72.21091-9.28906
	c18.4431,4.77594,29.43138-7.28351,38.92706-23.3024c2.44415,2.40063,5.03513,4.66901,7.75388,6.80048
	c-3.92316,6.42532-7.64059,11.3671-11.49759,15.30115c-10.90311,11.12057-23.23807,14.7066-37.70726,10.96109
	C99.00909,399.7532,77.57174,401.84393,67.53503,413.69406z M77.1023,440.98398v-17.61752
	c0.27641-0.28726,0.54737-0.5809,0.80656-0.88721c6.15253-7.26541,24.17603-7.88712,48.21341-1.66843
	c19.04484,4.92911,36.61793-0.12143,50.81889-14.6033c4.47777-4.5675,8.70996-10.1337,13.07265-17.21515
	c2.08801,1.19897,4.22676,2.32635,6.41808,3.37396c5.7148,13.17868,10.27867,31.77496,11.76945,48.22067
	c0.0118,0.13324,0.03172,0.26462,0.04532,0.39694L77.1023,440.98398L77.1023,440.98398z M234.92574,450.3555
	c-0.36703,0.03351-0.7413,0.05075-1.11378,0.05075c-4.31194,0-8.09825-2.21942-10.24788-5.63324
	c-0.13049-0.26462-0.27277-0.522-0.4359-0.76581c-0.74495-1.40015-1.23613-2.96704-1.38838-4.64905
	c-1.21255-13.37805-4.34093-28.13455-8.48158-40.78397c8.23599,2.20581,16.93056,3.39029,25.91512,3.39029
	c0.13776,0,0.27548-0.00455,0.41325-0.00455c3.09393,11.64441,5.32059,23.96304,6.34012,35.20599
	C246.53207,443.83411,241.59845,449.75012,234.92574,450.3555z M340.87271,263.43237
	c-7.18747,4.25845-15.25308,7.92969-24.0954,11.00278c-0.06708,0.02264-0.13412,0.04349-0.20117,0.06885
	c-21.6059,7.47748-47.85181,11.36981-77.40282,11.36981c-6.75337,0-13.45146-0.20844-19.90939-0.6217
	c-3.7392-0.24829-6.97723,2.60278-7.21648,6.34921c-0.23926,3.74643,2.60367,6.97723,6.3501,7.21649
	c6.74522,0.43137,13.73514,0.64978,20.77579,0.64978c28.43723,0,54.12488-3.49179,75.99176-10.22159
	c0.754,1.96838,1.41104,3.96213,1.97925,5.9758c0.01178,0.0426,0.02173,0.08429,0.03442,0.12689
	c1.69379,6.04471,2.5538,12.27966,2.5538,18.64429c0,41.01141-36.1394,74.37686-80.56018,74.37686
	s-80.56018-33.36545-80.56018-74.37683c0-8.52512,1.53247-16.82001,4.56297-24.73337
	c7.24184,2.22211,14.92322,4.10532,23.05681,5.62509c0.42142,0.07883,0.84192,0.11691,1.25607,0.11691
	c3.20811,0,6.06281-2.28104,6.67361-5.54898c0.68967-3.69025-1.74272-7.24002-5.43295-7.92969
	c-9.68419-1.80978-18.6461-4.15244-26.89569-6.99261c-0.12233-0.04712-0.24559-0.08789-0.36884-0.12778
	c-15.8204-5.49008-28.96103-12.85153-39.20982-22.03276c-16.59434-14.86523-25.00887-34.20551-25.00887-57.48343
	c0-7.91972,0.98963-15.82584,2.93262-23.55615c0.66248-0.23926,1.3195-0.50206,1.96565-0.80295
	c5.6097-2.61633,9.86544-7.26086,11.98335-13.07718l11.92444-32.76276c12.79987-13.82303,29.4205-25.30611,48.16901-33.24125
	c20.20665-8.55228,42.05997-12.88869,64.95093-12.88869s44.74521,4.3364,64.95093,12.88869
	c18.7485,7.93513,35.36914,19.41822,48.16904,33.24125l11.92441,32.76276c2.117,5.81631,6.37277,10.46085,11.98334,13.07718
	c0.64618,0.30179,1.30319,0.56369,1.96567,0.80295c1.94391,7.73032,2.93262,15.63643,2.93262,23.55615
	C381.10025,224.55424,367.56631,247.61559,340.87271,263.43237z M389.2728,158.52759
	C389.27188,158.52759,389.27188,158.52759,389.2728,158.52759c-1.4953,0.54466-3.06491,0.70598-4.59647,0.4912
	c-0.03082-0.00453-0.06165-0.01086-0.09244-0.0154c-0.90082-0.13594-1.78802-0.39876-2.63629-0.7957
	c-2.31998-1.08115-4.07904-3.0015-4.95355-5.40669l-12.36215-33.96534c-0.00455-0.0145-0.01086-0.0281-0.01541-0.04259
	l-14.73926-40.49669c-1.80704-4.96353,0.76218-10.47172,5.72568-12.27878c5.23996-1.90675,10.60223-2.81118,15.88025-2.81118
	c19.0249,0,36.92697,11.75315,43.80179,30.64122l1.81973,4.99978C425.88348,122.97269,413.3999,149.74603,389.2728,158.52759z
	 M189.39211,162.42628c-2.2475,1.74001-3.73193,2.89003-7.50374,2.89003c-3.77182,0-5.25626-1.15002-7.50375-2.89003
	c-2.96707-2.29735-7.2373-1.7545-9.53465,1.21437c-2.29825,2.96707-1.7545,7.2364,1.21347,9.53465
	c2.94893,2.28375,7.40678,5.73384,15.82584,5.73384c8.41907,0,12.87601-3.451,15.82495-5.73384
	c2.96796-2.29825,3.51172-6.56758,1.21347-9.53465C196.63033,160.67178,192.36009,160.12802,189.39211,162.42628z
	 M163.4045,206.8434c-8.468,2.2475-24.44249,10.27144-30.64485,14.85072c-3.02052,2.23027-3.66124,6.48512-1.43097,9.50475
	c1.33308,1.80525,3.38939,2.76044,5.47285,2.76044c1.40196,0,2.81662-0.43228,4.03191-1.32857
	c4.89647-3.61504,19.46353-10.89766,26.0583-12.64853c3.62863-0.96335,5.78914-4.68532,4.82579-8.31303
	C170.75418,208.04147,167.03403,205.88278,163.4045,206.8434z M158.78896,200.08368c3.72377,0.4903,7.13763-2.12605,7.62973-5.84712
	c0.49208-3.72105-2.12517-7.13762-5.84712-7.62971c-8.68459-1.14822-26.51054,0.18306-33.99162,2.05356
	c-3.64222,0.9108-5.85619,4.60103-4.94541,8.24326c0.77213,3.08759,3.54344,5.15021,6.58845,5.15021
	c0.54556,0,1.10019-0.06615,1.6539-0.2048C135.782,200.37189,152.02472,199.18741,158.78896,200.08368z M313.49942,163.63974
	c-2.29733-2.96796-6.56668-3.51172-9.53555-1.21437c-2.2475,1.74001-3.73193,2.89003-7.50375,2.89003
	c-3.77179,0-5.25623-1.15002-7.50375-2.89003c-2.96704-2.29735-7.23639-1.7545-9.53555,1.21437
	c-2.29825,2.96707-1.75452,7.2364,1.21347,9.53465c2.94891,2.28375,7.40677,5.73384,15.82492,5.73384
	c8.41907,0,12.87601-3.45099,15.82587-5.73384C315.25394,170.87706,315.79767,166.60773,313.49942,163.63974z M345.58884,221.69414
	c-6.20236-4.57928-22.17776-12.60323-30.64484-14.85072c-3.62592-0.96062-7.34967,1.19807-8.31305,4.82578
	c-0.96332,3.62773,1.19717,7.3497,4.82581,8.31305c6.59479,1.75087,21.16183,9.03349,26.05829,12.64853
	c1.21439,0.89629,2.62906,1.32857,4.03192,1.32857c2.0835,0,4.14066-0.95518,5.47375-2.76045
	C349.25009,228.17924,348.60938,223.92441,345.58884,221.69414z M258.74289,171.66098
	c-2.83113-2.46591-7.12312-2.17137-9.58995,0.65884c-2.51936,2.89095-6.15706,4.54938-9.97961,4.54938
	s-7.45935-1.65753-9.97961-4.54938c-2.46681-2.82932-6.76064-3.12386-9.58994-0.65884
	c-2.83023,2.46681-3.12476,6.75972-0.65794,9.58994c5.10129,5.85347,12.47453,9.21112,20.22659,9.21112
	c7.75298,0,15.12531-3.35765,20.22662-9.21112C261.86765,178.4207,261.57312,174.12779,258.74289,171.66098z"/>
</svg>
