<?xml version="1.0" encoding="utf-8"?>
<!-- Generator: Adobe Illustrator 22.1.0, SVG Export Plug-In . SVG Version: 6.00 Build 0)  -->
<svg version="1.1" id="Layer_1" xmlns="http://www.w3.org/2000/svg" xmlns:xlink="http://www.w3.org/1999/xlink" x="0px" y="0px"
	 viewBox="0 0 464 464" style="enable-background:new 0 0 464 464;" xml:space="preserve">
<style type="text/css">
	.st0{fill:#EDA751;}
	.st1{opacity:0.2;fill:#A35F00;enable-background:new    ;}
	.st2{opacity:0.2;fill:#C18F00;enable-background:new    ;}
	.st3{fill:#FCD79D;}
	.st4{fill:#FCD690;}
	.st5{opacity:0.1;fill:#C18F00;enable-background:new    ;}
	.st6{fill:#FF91AB;}
	.st7{fill:#DEE2E5;}
	.st8{fill:#7694E4;}
	.st9{opacity:0.1;enable-background:new    ;}
	.st10{fill:#FFFFFF;}
</style>
<path class="st0" d="M346.41544,419.39084H272.5192c-11.94431,0-21.62755-9.68234-21.62755-21.62756
	s9.68324-21.62756,21.62755-21.62756h73.89624c11.94434,0,21.62756,9.68326,21.62756,21.62756
	C368.04303,409.70941,358.36069,419.39084,346.41544,419.39084z"/>
<path class="st1" d="M346.41544,419.39084H272.5192c-11.94431,0-21.62755-9.68234-21.62755-21.62756
	s9.68324-21.62756,21.62755-21.62756h73.89624c11.94434,0,21.62756,9.68326,21.62756,21.62756
	C368.04303,409.70941,358.36069,419.39084,346.41544,419.39084z"/>
<path class="st0" d="M88.99622,412.67917c-10.14089,0-18.69405-3.37485-25.22264-7.31613
	c-20.42679-12.3331-25.17461-32.41824-29.36419-50.13715c-4.33095-18.31799-7.64691-29.91522-20.70048-37.23495
	c-6.51138-3.65036-8.82956-11.88995-5.17738-18.40134c3.64945-6.51044,11.88542-8.83228,18.40133-5.17737
	c24.0699,13.4967,29.45663,36.28427,33.78485,54.59497c3.92133,16.58524,6.84217,27.06326,17.02837,33.21213
	c6.32288,3.81619,14.63135,6.43616,28.32654-3.06128c11.52473-7.99402,22.31994-21.31219,31.8455-33.06259
	c1.11649-1.37747,2.20851-2.72327,3.27426-4.03006c4.72607-5.78186,13.24117-6.63736,19.02031-1.91672
	c5.78185,4.72336,6.63916,13.23938,1.91672,19.02032c-1.04672,1.28052-2.11609,2.60092-3.20993,3.95032
	c-10.13455,12.50256-22.7477,28.06192-37.43794,38.25085C109.48736,409.69128,98.53899,412.67917,88.99622,412.67917z"/>
<path class="st2" d="M160.21358,340.15048c-5.77823-4.72064-14.29422-3.86514-19.02031,1.91672
	c-1.06665,1.30591-2.15868,2.65259-3.27516,4.03006c-9.52556,11.7504-20.32077,25.06857-31.8455,33.06259
	c-2.21667,1.53787-4.29108,2.75317-6.24041,3.702c4.89101,7.73572,10.75714,14.86514,17.44251,21.23517
	c1.38747-0.83826,2.78852-1.74088,4.20589-2.72418c14.69026-10.18982,27.30339-25.74918,37.43794-38.25085
	c1.09384-1.3494,2.16411-2.6698,3.20993-3.95032C166.85274,353.38895,165.99542,344.87384,160.21358,340.15048z"/>
<path class="st3" d="M26.93377,294.41135c-6.51591-3.65491-14.75187-1.3331-18.40133,5.17737
	c-3.65217,6.51138-1.33399,14.75098,5.17738,18.40134c3.10027,1.73819,5.64591,3.72195,7.7919,5.97577
	c6.06007-3.96298,12.91763-10.9873,16.62599-21.51337C34.92233,299.52982,31.23028,296.82013,26.93377,294.41135z"/>
<ellipse class="st4" cx="200.78441" cy="326.7027" rx="99.7487" ry="92.68995"/>
<path class="st5" d="M186.21832,418.40393c-45.58328-29.92786-31.45671-91.26624-23.71919-118.09109v-59.22957
	c-36.08944,13.95166-61.46705,47.02693-61.46705,85.61491C101.03298,373.29282,138.03229,411.85269,186.21832,418.40393z"/>
<path class="st0" d="M140.07951,165.97087c19.51964-16.37859,32.55235-43.87318,5.0197-84.51923
	C117.34904,40.48569,76.03509,30.21701,43.78088,34.0169c-7.95231,0.93706-14.6241,6.53585-16.92777,14.2045
	c-9.3434,31.10509-6.40444,73.5754,29.12132,108.0164C91.22015,190.40961,120.55987,182.34946,140.07951,165.97087z"/>
<path class="st6" d="M25.55446,52.98101c-7.65959,30.5831-3.32864,70.53857,30.41906,103.25681
	c30.55137,29.61974,56.65851,27.50275,75.78574,15.74965C118.60329,82.68685,61.14003,59.00754,25.55446,52.98101z"/>
<path class="st0" d="M261.4902,165.97087c-19.51964-16.37859-32.55145-43.87318-5.01968-84.51923
	c27.75015-40.96595,69.06409-51.23463,101.3183-47.43473c7.9523,0.93706,14.62408,6.53585,16.9278,14.2045
	c9.34338,31.10509,6.40442,73.5754-29.12131,108.0164C310.34958,190.40961,281.00986,182.34946,261.4902,165.97087z"/>
<path class="st6" d="M376.01526,52.98101c7.65961,30.5831,3.32864,70.53857-30.41907,103.25681
	c-30.55136,29.61974-56.65848,27.50275-75.78574,15.74965C282.96643,82.68685,340.42972,59.00754,376.01526,52.98101z"/>
<path class="st4" d="M370.61221,190.69145c0,77.64989-76.03403,111.65862-169.82689,111.65862S30.9584,268.34134,30.9584,190.69145
	S106.99246,50.0937,200.78531,50.0937S370.61221,113.04157,370.61221,190.69145z"/>
<path class="st5" d="M110.10542,71.80283C62.54381,96.71917,30.9575,140.64944,30.9575,190.69235
	c0,66.75049,56.18726,101.25037,131.54163,109.62137C54.32959,235.70108,68.43712,148.79025,110.10542,71.80283z"/>
<g>
	<ellipse class="st6" cx="129.34593" cy="195.04506" rx="30.74984" ry="24.48678"/>
	<ellipse class="st6" cx="296.01187" cy="195.04506" rx="30.74984" ry="24.48678"/>
</g>
<g>
	<path class="st0" d="M274.68243,419.39084h-73.89711c-11.94432,0-21.62758-9.68234-21.62758-21.62756
		s9.68324-21.62756,21.62758-21.62756h73.89711c11.94525,0,21.62756,9.68326,21.62756,21.62756
		C296.31,409.70941,286.62677,419.39084,274.68243,419.39084z"/>
	<path class="st0" d="M115.34895,338.38693c-2.30911-0.41779-4.58833-1.22253-6.74881-2.43781
		c-10.41096-5.85526-14.10301-19.04205-8.24593-29.453c9.91524-17.62738,34.9811-30.22964,59.602-29.96683
		c24.77133,0.26822,45.8615,13.30005,57.87288,35.76138c5.63231,10.53326,1.65933,23.6376-8.87398,29.26993
		c-10.53238,5.63324-23.63762,1.66025-29.26994-8.87396c-4.44695-8.3157-10.4753-12.40921-18.96954-12.86597
		c-10.93387-0.59448-20.82826,5.28885-22.71506,7.97134C133.3452,335.98267,124.13592,339.9783,115.34895,338.38693z
		 M138.05223,327.70227c0,0.00183-0.0018,0.00363-0.00362,0.00635C138.05043,327.70593,138.05223,327.7041,138.05223,327.70227z"/>
</g>
<path class="st7" d="M457.20041,339.45993H202.37758V206.7157c0-9.47842,7.68407-17.16158,17.16159-17.16158h220.50056
	c9.47842,0,17.16159,7.68405,17.16159,17.16158L457.20041,339.45993L457.20041,339.45993z"/>
<g>
	<path class="st8" d="M457.20041,339.45993H202.37758v38.8952h243.08153c6.48511,0,11.7413-5.25714,11.7413-11.74133V339.45993z"/>
	<path class="st8" d="M112.79515,339.45993h89.58243v38.8952h-89.58243c-6.48509,0-11.74133-5.25714-11.74133-11.74133v-15.41254
		C101.05474,344.71707,106.31187,339.45993,112.79515,339.45993z"/>
</g>
<path class="st9" d="M112.79515,339.45993h89.58243v38.8952h-89.58243c-6.48509,0-11.74133-5.25714-11.74133-11.74133v-15.41254
	C101.05474,344.71707,106.31187,339.45993,112.79515,339.45993z"/>
<circle class="st10" cx="329.78674" cy="264.5079" r="26.25575"/>
<path d="M126.40515,206.35864c-9.57811,2.54384-27.65138,11.6217-34.66663,16.80179
	c-3.02052,2.23027-3.66123,6.48511-1.43187,9.50471c1.33309,1.80525,3.38936,2.76134,5.47373,2.76134
	c1.40286,0,2.81661-0.43227,4.03098-1.32947c5.77823-4.2657,22.31178-12.53702,30.08286-14.59964
	c3.6277-0.96333,5.78819-4.68529,4.82486-8.31389C133.75572,207.55579,130.03377,205.39621,126.40515,206.35864z
	 M284.89133,170.6199v-10.85863c0-3.75459-3.04227-6.79684-6.79684-6.79684c-3.75461,0-6.79684,3.04225-6.79684,6.79684v10.85863
	c0,3.75459,3.04224,6.79686,6.79684,6.79686C281.84906,177.41676,284.89133,174.3745,284.89133,170.6199z M154.06198,170.6199
	v-10.85863c0-3.75459-3.04227-6.79684-6.79684-6.79684c-3.75459,0-6.79684,3.04225-6.79684,6.79684v10.85863
	c0,3.75459,3.04225,6.79686,6.79684,6.79686C151.01971,177.41676,154.06198,174.3745,154.06198,170.6199z M440.03973,182.75726
	h-62.89981c-0.90988-14.41747-4.29379-28.44072-9.97055-41.73172c18.6868-27.92144,23.83066-62.22468,14.05771-94.75983
	c-3.08939-10.28408-11.97696-17.74158-22.64166-18.99855c-32.41373-3.82527-64.32263,6.31563-88.24753,27.86163
	c-21.70096-7.75113-45.26157-11.83104-69.55258-11.83104c-24.30281,0-47.86159,4.07811-69.55711,11.82742
	C107.30329,33.5819,75.4016,23.44916,42.98518,27.26718c-10.66561,1.25696-19.55226,8.71447-22.64165,18.99945
	c-9.76932,32.52608-4.63091,66.81844,14.04411,94.73625c-6.72072,15.72699-10.22518,32.47714-10.22518,49.68947
	c0,33.81749,13.37347,61.32658,39.74615,81.76062c1.23884,0.95972,2.70333,1.42462,4.15876,1.42374
	c2.02908,0,4.03823-0.90533,5.37766-2.63358c2.29915-2.96701,1.75722-7.23636-1.20984-9.53644
	c-22.87909-17.72525-34.47904-41.61844-34.47904-71.01434c0-73.7775,73.13496-133.8009,163.03098-133.8009
	c23.89137,0,46.99429,4.20498,68.07629,12.1727c0.40872,0.203,0.83194,0.3616,1.26605,0.47668
	c13.38522,5.17467,25.93494,11.87817,37.32828,20.00085c0.05167,0.03716,0.10242,0.07703,0.15494,0.11237
	c2.90451,2.07621,5.73746,4.24033,8.48611,6.49869c16.36862,13.45232,28.82678,29.27811,36.90234,46.52035
	c0.11237,0.3063,0.25284,0.60265,0.40872,0.89174c5.70932,12.45544,9.14401,25.6368,10.10825,39.19153H225.64638
	c3.54343-1.72459,6.75336-4.14789,9.40503-7.19017c2.46678-2.8302,2.17044-7.12309-0.65884-9.58989
	c-2.83202-2.46681-7.12491-2.17137-9.58989,0.65884c-3.06039,3.5117-7.47926,5.52629-12.12286,5.52629
	c-4.64359,0-9.06154-2.01459-12.12195-5.52629c-2.46771-2.8293-6.7606-3.12384-9.5899-0.65884
	c-2.82928,2.4668-3.12473,6.75969-0.65884,9.58989c4.72064,5.41664,11.2003,8.89027,18.21011,9.88443
	c-7.67953,3.99564-12.93939,12.02408-12.93939,21.26416v72.603c-10.59854-6.15704-22.66792-9.44672-35.55113-9.58627
	c-16.39308-0.16312-32.99732,4.96533-45.99018,13.42059c-5.44291-1.81522-10.68192-3.82346-15.58381-6.01205
	c-3.42742-1.52972-7.44662,0.00818-8.97636,3.43649c-1.52975,3.42743,0.00816,7.44662,3.43649,8.97635
	c2.87824,1.28415,5.86523,2.50668,8.922,3.67575c-2.92627,3.10025-5.43295,6.42438-7.40585,9.93152
	c-3.72195,6.61835-4.64542,14.2897-2.59821,21.60037c0.60809,2.17139,1.46087,4.22946,2.52571,6.15344
	c0.19393,4.30557,0.68604,8.60663,1.47084,12.84601c-1.00322,2.28012-1.57053,4.79407-1.57053,7.44028v15.41254
	c0,3.67572,1.08839,7.09589,2.94077,9.98047c-7.74931,3.91226-12.1283,2.10614-15.93815-0.19211
	c-7.47925-4.51584-9.98774-12.29233-13.92719-28.95911c-4.38986-18.56989-10.4028-44.00278-37.07362-58.95944
	c-4.73604-2.65714-10.21793-3.30872-15.44334-1.83789c-5.22179,1.46994-9.55908,4.88647-12.21257,9.6189
	c-2.65349,4.73245-3.30599,10.21521-1.83605,15.43884c1.46903,5.2236,4.88557,9.5618,9.61799,12.21527
	c10.10646,5.66766,12.93485,13.9408,17.40989,32.87228c4.27567,18.08051,9.59533,40.58081,32.46627,54.39017
	c9.11774,5.50363,18.78557,8.29398,28.73526,8.29398c12.15004,0,24.38255-4.21222,36.35769-12.51886
	c2.0454-1.41827,4.08989-2.97433,6.16338-4.66083c19.07468,15.24393,43.52972,23.89227,69.26802,23.89227h145.63013
	c15.67355,0,28.42441-12.75089,28.42441-28.42352c0-4.48773-1.04401-8.77518-2.93805-12.61313h73.55817
	c10.22156,0,18.53821-8.31662,18.53821-18.53818V206.7157C463.99725,193.50446,453.25012,182.75726,440.03973,182.75726z
	 M76.36496,86.03815C61.85143,98.05407,50.15723,111.8,41.54064,126.72225C27.2718,101.38452,27.9832,76.62135,30.81069,60.92788
	c14.21447,3.13833,32.13549,9.57902,48.50955,22.72231C78.32608,84.43681,77.34009,85.23068,76.36496,86.03815z M90.67459,75.40697
	C71.81107,59.28394,50.87226,51.51561,34.34595,47.79184c2.02274-3.83433,5.81538-6.50413,10.2288-7.02522
	c26.22132-3.08395,52.05206,4.1932,72.38097,20.10688C107.74736,65.02412,98.95496,69.88068,90.67459,75.40697z M310.8924,75.40879
	c-8.28036-5.52538-17.0755-10.37833-26.28659-14.52985c20.33072-15.91822,46.16238-23.19809,72.38821-20.11142
	c4.41434,0.52109,8.20697,3.18999,10.22971,7.02522C350.69656,51.51561,329.75684,59.28394,310.8924,75.40879z M360.02637,126.7295
	c-8.71268-15.09444-20.57541-28.97903-35.29831-41.07833c-0.82013-0.67425-1.65207-1.3349-2.48584-1.99374
	c16.37769-13.14782,34.30051-19.58942,48.5177-22.72866C373.58835,76.62406,374.29791,101.38996,360.02637,126.7295z
	 M106.27924,309.82748c8.54319-15.18872,31.21021-26.505,52.93928-26.505c0.22113,0,0.44406,0.00092,0.66428,0.00363
	c13.37984,0.14407,25.65494,4.42612,35.69794,12.40289v36.93314h-7.59071c-0.899-0.95154-1.68291-2.00732-2.31003-3.18179
	c-5.60423-10.47894-13.65079-15.8584-24.5946-16.44659c-13.04813-0.69778-25.20995,5.96494-28.64372,10.84961
	c-0.12506,0.17673-0.24106,0.36069-0.34799,0.54916c-3.10753,5.46466-9.34612,8.38641-15.53307,7.2663
	c-1.61765-0.29272-3.17548-0.85641-4.6291-1.67566c-2.13602-1.20078-3.90048-2.87369-5.19098-4.87653
	c-0.0299-0.04529-0.05618-0.09424-0.087-0.13864c-0.75309-1.19806-1.34033-2.51031-1.73183-3.91046
	C103.85413,317.28317,104.33625,313.2803,106.27924,309.82748z M171.68576,332.66309H142.9632
	c0.19846-0.3027,0.40781-0.59628,0.5954-0.90808c1.53064-1.39471,8.63834-5.59424,16.79366-5.14655
	C165.29672,326.87399,168.76854,328.68103,171.68576,332.66309z M117.60732,395.78766
	c-9.65696,6.69897-19.2831,10.09561-28.6111,10.09561c-7.43847,0-14.74281-2.13242-21.70913-6.33829
	c-17.98264-10.85684-22.19215-28.66275-26.26301-45.88232c-4.11617-17.41171-7.67137-32.44998-23.99105-41.59943
	c-1.56418-0.87726-2.69518-2.31274-3.18092-4.04007c-0.48665-1.72821-0.27097-3.54251,0.60809-5.10941
	c0.87815-1.56601,2.31274-2.69611,4.03914-3.18274c1.72549-0.48575,3.5407-0.27097,5.10942,0.60992
	c21.46716,12.03677,26.26392,32.32852,30.49518,50.2305c3.74552,15.8439,6.97991,29.52823,20.13045,37.46783
	c7.07778,4.27115,18.44846,8.57581,35.51035-3.1601c0.99506,0.16586,2.00916,0.2728,3.05042,0.2728h1.76446
	c2.13421,2.74228,4.40798,5.35953,6.80048,7.85803C120.0995,393.99146,118.84979,394.92581,117.60732,395.78766z
	 M112.79515,371.55826c-2.7269,0-4.94448-2.21759-4.94448-4.94449v-15.41251c0-0.97784,0.28909-1.88773,0.78118-2.65622
	c0.02357-0.03534,0.0435-0.07248,0.06615-0.10873c0.88994-1.31497,2.3943-2.18045,4.09714-2.18045h82.78468v25.30243
	L112.79515,371.55826L112.79515,371.55826z M274.68243,412.59399h-73.89711c-24.4025,0-47.45105-8.79874-64.61536-24.14874
	c-0.05981-0.0571-0.12053-0.11237-0.18216-0.16675c-1.12828-1.01407-2.23209-2.05627-3.3078-3.12744h149.7907
	c4.37354,2.69424,7.04245,7.40314,7.04245,12.61313C289.51315,405.94214,282.8595,412.59399,274.68243,412.59399z
	 M346.41544,412.59399h-47.49545c2.6535-4.32007,4.18686-9.39868,4.18686-14.82983c0-4.48773-1.04401-8.77518-2.93805-12.61313
	h54.03583c4.37354,2.69427,7.04245,7.40314,7.04245,12.61313C361.24619,405.94214,354.59341,412.59399,346.41544,412.59399z
	 M450.40356,332.66309h-17.82312c-3.75461,0-6.79684,3.04227-6.79684,6.79684s3.04224,6.79684,6.79684,6.79684h17.82312v20.35791
	c0,2.7269-2.21756,4.94449-4.94446,4.94449H209.17444v-25.30243h191.79611c3.75461,0,6.79684-3.04227,6.79684-6.79684
	s-3.04224-6.79684-6.79684-6.79684H209.17444V206.7157c0-5.7157,4.64993-10.36565,10.36565-10.36565h220.49965
	c5.7157,0,10.36563,4.64995,10.36563,10.36565v125.94736h-0.0018V332.66309z M122.79649,183.27383
	c-9.82189-1.29593-29.99222,0.21025-38.45474,2.32452c-3.6422,0.91078-5.85526,4.60101-4.94539,8.24321
	c0.77303,3.08759,3.54343,5.15019,6.58932,5.15019c0.54646,0,1.10108-0.06615,1.65389-0.2048
	c6.96722-1.74272,25.40389-3.0903,33.37614-2.03633c3.70836,0.49028,7.13669-2.12515,7.62878-5.84801
	C129.13658,187.18156,126.51843,183.76593,122.79649,183.27383z"/>
</svg>
