<?xml version="1.0" encoding="utf-8"?>
<!-- Generator: Adobe Illustrator 22.1.0, SVG Export Plug-In . SVG Version: 6.00 Build 0)  -->
<svg version="1.1" id="Layer_1" xmlns="http://www.w3.org/2000/svg" xmlns:xlink="http://www.w3.org/1999/xlink" x="0px" y="0px"
	 viewBox="0 0 464 464" style="enable-background:new 0 0 464 464;" xml:space="preserve">
<style type="text/css">
	.st0{fill:#FEDB41;}
	.st1{fill:#FCBF29;}
	.st2{fill:#FEA832;}
</style>
<path class="st0" d="M450.40625,339.08371H464V238.81622l-75.5441-41.1981L65.30256,86.15932L0,102.36125V308.2984
	l138.32727,42.94354l52.89148-12.15823l36.44394,40.0762L464,452.73291v-86.46078h-13.59375
	c-7.50012,0-13.59375-6.09363-13.59375-13.59375S442.90613,339.08371,450.40625,339.08371z"/>
<g>
	<path class="st1" d="M351.4628,111.24251l-9.82376,6.17338c-4.34094,2.72147-9.34613,4.16875-14.48276,4.16875
		c-14.98755,0-27.1875-12.19994-27.1875-27.1875c0-6.438,2.17682-12.45187,6.29208-17.39002l7.44754-8.92113l-48.34842-55.25135
		H211.41c-9.08879,0-18.09691,0.49934-27.03796,1.31588l-47.52829,53.0582L82.75784,42.87591
		C54.32335,56.86569,27.04522,75.31151,3.98297,98.3792L0,102.36125l464,136.45497L351.4628,111.24251z"/>
	<path class="st1" d="M245.59375,328.00845c0-29.98871-24.38628-54.375-54.375-54.375s-54.375,24.38629-54.375,54.375
		c0,4.19324,0.58092,8.23419,1.48352,12.15826l89.3354,27.91794C238.59932,358.13312,245.59375,343.93036,245.59375,328.00845z"/>
	<path class="st1" d="M96.0625,273.63345c-22.48769,0-40.78125-7.21738-40.78125-29.70508s18.29356-40.78125,40.78125-40.78125
		s40.78125,18.29356,40.78125,40.78125S118.55019,273.63345,96.0625,273.63345z"/>
	<path class="st1" d="M340.75,328.00845c-22.48767,0-40.78125-18.29358-40.78125-40.78125s18.29358-40.78125,40.78125-40.78125
		s40.78125,18.29358,40.78125,40.78125S363.23767,328.00845,340.75,328.00845z"/>
	<path class="st1" d="M164.03125,175.95872c0,29.98872,24.38628,54.375,54.375,54.375
		c27.77022,0,50.4736-20.98965,53.71979-47.89803l-40.12331-39.0331l-62.27386,8.80241
		C166.19537,159.41151,164.03125,167.40282,164.03125,175.95872z"/>
</g>
<g>
	<path class="st2" d="M136.84375,94.39622c29.98872,0,54.375-24.38628,54.375-54.375c0-9.41412-2.61998-18.14222-6.84671-25.87162
		c-35.71713,3.25706-69.96523,13.15422-101.61419,28.72541C84.27582,71.5116,107.83287,94.39622,136.84375,94.39622z"/>
	<path class="st2" d="M218.40625,121.58373c-21.4328,0-39.82516,12.56516-48.67831,30.62037l102.39807,30.23068
		c0.25919-2.14871,0.65521-4.25755,0.65521-6.47697C272.78125,145.9709,248.39497,121.58373,218.40625,121.58373z"/>
</g>
</svg>
