<?xml version="1.0" encoding="utf-8"?>
<!-- Generator: Adobe Illustrator 22.1.0, SVG Export Plug-In . SVG Version: 6.00 Build 0)  -->
<svg version="1.1" id="Layer_1" xmlns="http://www.w3.org/2000/svg" xmlns:xlink="http://www.w3.org/1999/xlink" x="0px" y="0px"
	 viewBox="0 0 464 464" style="enable-background:new 0 0 464 464;" xml:space="preserve">
<style type="text/css">
	.st0{fill:#AA968C;}
	.st1{fill:#464655;}
	.st2{fill:#D2BEAF;}
	.st3{fill:#8C7873;}
</style>
<path class="st0" d="M231.93292,56.07795c-82.34624,0-157.20688,29.94426-157.20688,29.94426v164.69339
	c0,59.88852,39.30217,87.02521,82.34624,119.77701h149.7213c43.04495-32.7518,82.34622-59.88849,82.34622-119.77701V86.0222
	C389.1398,86.0222,314.28006,56.07795,231.93292,56.07795z"/>
<g>
	<circle class="st1" cx="149.58124" cy="205.80194" r="22.45774"/>
	<circle class="st1" cx="314.28461" cy="205.80194" r="22.45774"/>
</g>
<path class="st0" d="M254.39159,422.89462h-44.9164c-33.07533,0-59.8885-26.81317-59.8885-59.88849v-59.88852h164.69337v59.88852
	C314.28006,396.08145,287.46689,422.89462,254.39159,422.89462z"/>
<path class="st2" d="M231.93292,220.77135L231.93292,220.77135c-14.11301,0-27.26991,7.0352-35.0555,18.80556
	c-19.50156,29.48386-54.77727,84.46323-54.77727,96.36771c0,16.45386,29.94424,74.0405,89.83276,41.13373
	c59.88852,32.90677,89.83276-24.68079,89.83276-41.13373c0-11.90536-35.27481-66.88385-54.77725-96.36771
	C259.20285,227.80563,246.04593,220.77135,231.93292,220.77135z"/>
<path class="st1" d="M269.36371,307.27728c0,18.37509-37.42987,33.27197-37.42987,33.27197s-37.42987-14.896-37.42987-33.27197
	c0-18.37509,16.75835-26.61652,37.42987-26.61652S269.36371,288.90128,269.36371,307.27728z"/>
<g>
	<path class="st3" d="M129.64197,89.78404L68.5409,242.53307c-3.53346,8.83322-15.7234,9.63797-20.38787,1.34668L4.25165,165.83366
		c-7.07055-12.56967-5.18918-28.27043,4.65177-38.81371l75.15607-80.52469c6.96633-7.46477,18.90072-7.12855,25.43658,0.71503
		l16.54537,19.85499C131.32307,73.4027,132.70419,82.12444,129.64197,89.78404z"/>
	<path class="st3" d="M334.35983,89.78404l61.10016,152.74994c3.53345,8.83322,15.72339,9.63797,20.38785,1.34668l43.90051-78.0461
		c7.07056-12.56966,5.18918-28.27042-4.65176-38.8137l-75.15607-80.52469c-6.96637-7.46477-18.90073-7.12855-25.43658,0.71503
		l-16.54535,19.85408C332.67874,73.4027,331.29669,82.12444,334.35983,89.78404z"/>
</g>
</svg>
