<?xml version="1.0" encoding="utf-8"?>
<!-- Generator: Adobe Illustrator 22.1.0, SVG Export Plug-In . SVG Version: 6.00 Build 0)  -->
<svg version="1.1" id="Layer_1" xmlns="http://www.w3.org/2000/svg" xmlns:xlink="http://www.w3.org/1999/xlink" x="0px" y="0px"
	 viewBox="0 0 464 464" style="enable-background:new 0 0 464 464;" xml:space="preserve">
<style type="text/css">
	.st0{fill:#FFD0A1;}
	.st1{fill:#ECF4F7;}
	.st2{fill:#FFE079;}
	.st3{fill:#AAB1BA;}
	.st4{fill:#AE938D;}
	.st5{fill:#80D6FA;}
	.st6{fill:#51565F;}
</style>
<g transform="translate(1 1)">
	<path class="st0" d="M332.67267,254.59326c0,8.65115-0.78479,36.17599-7.06598,54.26447l0.78479,2.35934
		c-25.12387,11.01047-58.09854,21.23392-94.99817,21.23392c-36.90054,0-69.87521-10.22342-94.99817-21.23392l0.78481-1.57321
		c-7.85081-19.66074-7.85081-47.18649-7.85081-55.83766c0-22.02007,2.35533-43.25398,6.28119-63.70177
		c7.06599-34.60374,20.41321-66.0611,40.0407-85.72185c14.91681-14.94209,32.97467-23.59325,55.74323-23.59325
		s40.82549,8.65116,55.74324,23.59325c20.41321,20.44779,33.75946,51.90517,40.8255,87.29503
		C331.10214,212.1254,332.67267,233.35933,332.67267,254.59326"/>
	<path class="st1" d="M325.60669,308.85773c7.06598-18.8746,7.06598-45.61331,7.06598-54.26447
		c0-21.23393-1.57053-42.46786-5.49545-62.12859l0,0c16.48737,11.0105,32.18988,7.07797,32.18988,7.07797
		c7.8508,0,12.56146-14.15596,12.56146-31.45737c0-8.65115-10.99185-36.96306-15.70251-47.18649
		c-15.70255-31.4583-39.25589-39.32241-54.95844-39.32241c-15.70251,0-14.91681,23.59325-14.91681,23.59325l0,0
		c-14.91684-14.94209-32.9747-23.59325-55.74324-23.59325s-40.8255,8.65117-55.74323,23.59325l0,0
		c0,0,0.78479-23.59325-14.91681-23.59325c-15.70255,0-39.25589,7.86411-54.9575,39.3224
		c-4.71067,10.22343-15.70254,38.53534-15.70254,47.18649c0,17.30141,4.71067,31.45737,12.56148,31.45737
		c0,0,13.34721,6.29184,31.40415-8.65117h0.78481c-3.92587,20.4478-6.2812,41.68173-6.2812,63.7018
		c0,8.65115,0,36.17599,7.85081,55.83768l-0.78481,1.57318c-28.26402-12.58276-46.32188-25.95258-46.32188-25.95258
		s-26.69348-20.44781-52.60216-54.26448c-1.57053-10.22343-2.35534-21.23393-2.35534-32.24442
		c0-108.52896,87.93217-196.61012,196.27756-196.61012s196.27754,88.08116,196.27754,196.61012
		c0,11.0105-0.78479,22.02007-2.35535,32.24442h-0.7829c-20.41324,33.81667-51.81738,54.26448-51.81738,54.26448
		s-18.05789,13.36981-46.32187,25.95258L325.60669,308.85773z M230.60759,443.33926v15.72913H2.92586
		c0-39.32239,47.10669-62.91565,47.10669-62.91565s14.132-3.93253,31.40415-3.93253
		C122.26221,424.46466,174.07956,443.33926,230.60759,443.33926z M458.29022,459.06842H230.60759v-15.72916
		c56.52803,0,108.34538-18.8746,149.17088-51.11905l0,0c22.76852,0,31.40414,3.93253,31.40414,3.93253
		S458.29022,419.746,458.29022,459.06842z"/>
	<path class="st2" d="M262.01266,175.94939c4.71066,0,7.8508,3.93251,7.8508,7.86412c0,3.93159-3.14014,7.86411-7.8508,7.86411
		s-7.8508-3.93251-7.8508-7.86411C254.16187,179.8819,257.302,175.94939,262.01266,175.94939z M199.20343,175.94939
		c4.71066,0,7.85081,3.93251,7.85081,7.86412c0,3.93159-3.14014,7.86411-7.85081,7.86411c-4.71066,0-7.8508-3.93251-7.8508-7.86411
		C191.35263,179.8819,194.49275,175.94939,199.20343,175.94939z"/>
	<path class="st0" d="M174.86528,105.16963L174.86528,105.16963c-20.41319,19.66073-32.97467,51.11902-40.04068,85.72183h-0.78481
		c-18.05788,14.94209-31.40415,8.65117-31.40415,8.65117c-7.85081,0-12.56148-14.15596-12.56148-31.45737
		c0-8.65115,10.99187-36.96306,15.70254-47.18649c15.70254-31.45736,39.25589-39.3224,54.9575-39.3224
		S174.86528,105.16963,174.86528,105.16963z M371.92767,168.08437c0,17.30139-4.71069,31.45735-12.56149,31.45735
		c0,0-15.70255,3.93251-32.18988-7.07797l0,0c-7.06601-35.38986-20.41324-66.84723-40.8255-87.29503l0,0
		c0,0-0.78479-23.59325,14.91684-23.59325c15.70251,0,39.25586,7.86411,54.95749,39.3224
		C360.93671,131.12221,371.92767,159.43411,371.92767,168.08437z"/>
	<g>
		<path class="st3" d="M379.77939,326.9462v65.27496c-41.61121,32.2435-92.64377,51.1181-149.1718,51.1181
			s-108.34538-18.8746-149.17088-51.11905v-64.48788c36.11482,42.46786,89.50272,69.20657,149.17088,69.20657
			S343.66364,369.41403,379.77939,326.9462"/>
		<path class="st3" d="M424.53073,231.78613c-6.28119,36.17599-21.98282,69.20657-44.75134,95.15912
			c-36.11481,42.4679-89.50272,69.2066-149.17088,69.2066s-113.05698-26.73782-149.1718-69.20566
			C58.66816,300.20749,42.96655,267.17694,36.68535,231c25.90867,34.60373,52.60216,54.2645,52.60216,54.2645
			s18.05787,13.36978,46.32188,25.95258c25.12387,11.01047,58.09857,21.23392,94.9982,21.23392
			c36.90053,0,69.87523-10.22342,94.99818-21.23392c28.26401-12.58279,46.3219-25.95258,46.3219-25.95258
			S403.33273,265.60373,424.53073,231.78613L424.53073,231.78613z"/>
	</g>
	<path class="st4" d="M230.60759,238.86411c13.34718,0,23.55334,7.07796,23.55334,15.72913
		c0,8.65115-10.20613,15.72913-23.55334,15.72913s-23.55336-7.07797-23.55336-15.72913
		C207.05423,245.94206,217.26131,238.86411,230.60759,238.86411"/>
	<path class="st5" d="M50.03255,18.66074c0,8.65117-7.06601,15.72914-15.70254,15.72914S18.62748,27.3119,18.62748,18.66074
		s7.066-15.72914,15.70253-15.72914S50.03255,10.00957,50.03255,18.66074"/>
</g>
<path class="st6" d="M459.29022,464c-2.35532,0-3.92584-1.57318-3.92584-3.93253c0-36.17599-44.75134-58.98312-44.75134-59.76926
	c-1.57053-0.78613-2.35535-3.14545-1.57053-5.50476c0.78479-1.57321,3.14014-2.35934,5.49545-1.57321
	C416.89331,394.00638,464,418.38672,464,459.28134C463.21609,462.42773,461.64557,464,459.29022,464z M3.92586,464
	C1.57053,464,0,462.42682,0,460.06747c0-40.89465,47.10669-65.27496,49.46202-66.0611c1.57053-0.78613,3.92587,0,5.49548,1.57321
	c0.78481,1.57318,0,3.9325-1.57053,5.50476c-0.78481,0-44.75136,22.80713-44.75136,59.76926
	C7.85081,462.42773,6.2812,464,3.92586,464z M231.60759,448.27176c-55.74323,0-107.56059-18.08847-151.52621-51.90515
	c-0.78481-0.78613-1.57053-1.57318-1.57053-3.14545v-63.70178c-29.04882-34.60373-47.10669-80.21706-47.10669-128.97675V38.53534
	c-8.63562-1.57319-15.70162-9.4373-15.70162-18.8746C15.70254,8.65024,24.33907,0,35.33002,0S54.9575,8.65024,54.9575,19.66074
	c0,9.4373-7.06601,17.30141-15.70254,18.8746v106.16963C63.59403,61.34245,140.53526,0,231.60759,0
	c110.70073,0,200.20345,89.65436,200.20345,200.54265c0,48.7597-18.05789,94.373-47.10672,128.97673v63.70178
	c0,1.57318-0.78479,2.35931-1.57053,3.14545C339.16818,430.18332,287.3508,448.27176,231.60759,448.27176z M86.36256,390.8609
	c42.39601,32.24442,91.85805,49.54584,145.24594,49.54584s102.84898-17.30142,145.24501-49.54584v-52.69128
	c-36.90054,38.53534-87.93216,62.91565-145.24593,62.91565s-108.3454-24.37939-145.24594-62.91565v52.69128H86.36256z
	 M231.60759,7.86411c-105.99005,0-192.35263,86.50889-192.35263,192.67854s86.36256,192.67851,192.35263,192.67851
	c58.09856,0,109.91591-25.95258,145.24593-66.84723c0-0.78613,0.78482-2.35931,2.35535-2.35931
	c28.26401-33.81668,44.75134-76.28456,44.75134-123.47105C423.96021,94.37301,337.59766,7.86411,231.60759,7.86411z
	 M35.33002,7.86411c-6.2812,0-11.77667,5.50479-11.77667,11.79663s5.49547,11.79663,11.77667,11.79663
	s11.77667-5.50479,11.77667-11.79663S41.61122,7.86411,35.33002,7.86411z M231.60759,338.16962
	c-79.29657,0-141.32007-46.40036-143.67542-47.97266c-1.57053-1.57318-2.35534-3.9325-0.78481-5.50476
	c1.57053-1.57321,3.92587-2.35934,5.49548-0.78613c0.7848,0.78613,62.80922,46.40039,138.96474,46.40039
	s138.17992-45.61334,138.96474-46.40036c1.57053-1.57321,3.92587-0.78613,5.49545,0.78613
	c1.57056,1.57318,0.78482,3.9325-0.78479,5.50476C372.92767,291.76926,310.90417,338.16962,231.60759,338.16962z
	 M263.01266,298.84723c-12.56149,0-25.12389-4.71866-31.40416-14.15594c-6.28119,9.43729-18.84267,14.15594-31.40414,14.15594
	c-2.35533,0-3.92586-1.57318-3.92586-3.93253c0-2.35931,1.57053-3.9325,3.92586-3.9325
	c11.77667,0,25.12389-4.71866,27.47922-15.72913c-13.34721-1.57321-23.55336-9.43729-23.55336-19.66075
	c0-11.01048,11.77669-19.66075,27.47922-19.66075s27.47922,8.65117,27.47922,19.66075
	c0,10.22343-10.20613,18.08849-23.55336,19.66075c2.35535,11.01047,14.91682,15.72913,27.47923,15.72913
	c2.35532,0,3.92584,1.57318,3.92584,3.9325C266.93759,297.27496,265.36798,298.84723,263.01266,298.84723z M231.60759,243.79662
	c-10.99188,0-19.62749,5.50478-19.62749,11.79662s8.63652,11.7966,19.62749,11.7966c10.99185,0,19.62749-5.50476,19.62749-11.7966
	S242.59944,243.79662,231.60759,243.79662z M332.10214,283.90515L332.10214,283.90515c-2.35532,0-3.92584-2.35931-3.92584-4.71863
	c0.78479-7.07797,1.57053-14.94211,1.57053-23.59326c0-84.14958-30.61935-169.08527-98.13924-169.08527
	s-98.13924,84.93571-98.13924,169.08527c0,7.86411,0.78479,15.72913,1.57053,22.80713c0,2.35931-1.57053,3.9325-3.14014,4.71863
	c-2.35533,0-3.92586-1.57318-4.71066-3.14545c-0.7848-7.07797-1.57053-15.72913-1.57053-24.37938
	c0-58.98314,14.91681-117.96626,46.32188-150.99681c0-3.93252-0.78481-11.79663-4.71066-15.72914
	c-1.57054-1.5732-3.92587-2.35932-6.2812-2.35932c-10.20615,0-34.5452,3.93251-51.81735,36.96306
	c-4.71067,9.43731-14.91681,37.74921-14.91681,45.6133c0,18.08847,5.49548,27.52577,8.63654,27.52577
	c2.35533,0,3.92586,1.5732,3.92586,3.93253c0,2.35931-1.57053,3.93251-3.92586,3.93251
	c-10.20615,0-16.48734-14.15596-16.48734-35.38988c0-10.22343,11.77667-39.32239,16.48734-48.75969
	c18.84267-37.7492,47.10669-41.68172,58.09856-41.68172c4.71066,0,8.63654,1.5732,11.77667,4.71866
	c3.92587,3.93251,5.49548,9.43729,6.2812,14.15594c14.132-11.79662,32.18987-19.66073,52.60216-19.66073
	c20.41322,0,38.47014,7.07797,52.60216,19.66073c0.78482-4.71865,2.35535-10.22343,6.28122-14.15594
	c3.14014-3.14546,7.06598-4.71866,11.77664-4.71866c10.99188,0,40.04068,3.93252,58.09857,41.68172
	c4.71066,9.4373,16.48734,38.53534,16.48734,48.75969c0,21.23393-6.28119,35.38988-16.48734,35.38988
	c-2.35535,0-3.92587-1.5732-3.92587-3.93251c0-2.35933,1.57053-3.93253,3.92587-3.93253c3.92587,0,8.63654-9.4373,8.63654-27.52577
	c0-7.86411-10.20615-35.38986-14.91684-45.6133c-16.48734-33.81669-41.61121-36.96306-51.81735-36.96306
	c-2.35535,0-4.71066,0.78613-6.28119,2.35932c-3.92587,3.93251-4.71069,11.79662-4.71069,15.72914
	c31.40417,33.03055,46.3219,92.01367,46.3219,150.99681c0,9.43727-0.78482,17.30141-1.57056,25.16643
	C336.02802,282.33197,334.45749,283.90515,332.10214,283.90515z M263.01266,196.61012
	c-6.28119,0-11.77667-5.50479-11.77667-11.79663s5.49548-11.79663,11.77667-11.79663s11.77664,5.50479,11.77664,11.79663
	S269.29294,196.61012,263.01266,196.61012z M263.01266,180.88097c-2.35535,0-3.92587,1.5732-3.92587,3.93253
	c0,2.35931,1.57053,3.93251,3.92587,3.93251c2.35532,0,3.92587-1.5732,3.92587-3.93251
	C266.93854,182.45416,265.36798,180.88097,263.01266,180.88097z M200.20343,196.61012
	c-6.28119,0-11.77667-5.50479-11.77667-11.79663s5.49548-11.79663,11.77667-11.79663c6.2812,0,11.77669,5.50479,11.77669,11.79663
	S206.48463,196.61012,200.20343,196.61012z M200.20343,180.88097c-2.35533,0-3.92586,1.5732-3.92586,3.93253
	c0,2.35931,1.57053,3.93251,3.92586,3.93251s3.92587-1.5732,3.92587-3.93251
	C204.1293,182.45416,202.55876,180.88097,200.20343,180.88097z"/>
</svg>
