<?xml version="1.0" encoding="utf-8"?>
<!-- Generator: Adobe Illustrator 22.1.0, SVG Export Plug-In . SVG Version: 6.00 Build 0)  -->
<svg version="1.1" id="Layer_1" xmlns="http://www.w3.org/2000/svg" xmlns:xlink="http://www.w3.org/1999/xlink" x="0px" y="0px"
	 viewBox="0 0 464 464" style="enable-background:new 0 0 464 464;" xml:space="preserve">
<style type="text/css">
	.st0{fill:#FE318F;}
	.st1{fill:#E7096C;}
	.st2{fill:#896748;}
	.st3{fill:#73553A;}
	.st4{fill:#66BD21;}
	.st5{fill:#5DAD1D;}
	.st6{fill:#FEDB41;}
	.st7{fill:#6ECD24;}
	.st8{fill:#FCBF29;}
</style>
<path class="st0" d="M339.84528,0c-2.73776,0-43.51901,0-40.78125,0l-27.1875,15.29292v39.0819l131.95819,50.3955
	c2.45953-2.45956,3.97931-5.85798,3.97931-9.61438c0-2.73778,0-29.92519,0-27.18741C407.81403,30.4934,377.32233,0,339.84528,0z"/>
<path class="st1" d="M299.06403,108.74964c10.31494,0,97.94754,0,95.15625,0c3.75732,0,7.15576-1.51978,9.61444-3.97932
	L357.4202,58.35596c-2.54926-2.54927-6.00754-3.98115-9.61166-3.98115h-75.93201v39.64741L299.06403,108.74964z"/>
<path class="st2" d="M95.15776,463.99847L95.15776,463.99847c-7.50737,0-13.59375-6.08636-13.59375-13.59372V326.2489h54.375
	v96.96844C135.93901,445.74033,117.67989,463.99847,95.15776,463.99847z"/>
<g>
	<path class="st3" d="M149.53276,436.81107L149.53276,436.81107c-7.50737,0-13.59375-6.08633-13.59375-13.59369V299.06152h54.375
		v96.06219C190.31401,417.64667,172.0549,436.81107,149.53276,436.81107z"/>
	<path class="st3" d="M450.40778,353.43634h-246.5c-7.50737,0-13.59375-6.08636-13.59375-13.59369l0,0
		c0-7.50735,6.08638-13.59372,13.59375-13.59372h246.5c7.50739,0,13.59375,6.08636,13.59375,13.59372l0,0
		C464.00061,347.35089,457.91516,353.43634,450.40778,353.43634z"/>
</g>
<path class="st4" d="M299.06403,0v258.2804c0,42.9552-28.81873,79.38635-67.96875,91.07693
	c-8.7,2.71964-17.67279,4.07901-27.1875,4.07901H81.56403V122.34335c0-67.69665,54.64688-122.34335,122.34375-122.34335
	C203.90778,0.00001,299.06403,0.00001,299.06403,0z"/>
<path class="st5" d="M299.06403,0v258.2804c0,42.9552-28.81873,79.38635-67.96875,91.07693V0H299.06403z"/>
<path class="st6" d="M299.06403,0v81.56223h-95.15625c-22.56653,0-40.78125-18.21647-40.78125-40.78112
	C163.12653,18.21466,181.34125,0,203.90778,0C203.90778,0,299.06403,0,299.06403,0z"/>
<path class="st3" d="M244.68903,40.78112c0,7.61157-5.98033,13.5937-13.59375,13.5937c-7.6134,0-13.59375-5.98213-13.59375-13.5937
	c0-7.61338,5.98035-13.59371,13.59375-13.59371C238.70869,27.18741,244.68903,33.16774,244.68903,40.78112z"/>
<path class="st7" d="M145.78905,136.52158c-38.92254-4.71248-74.67229,17.9745-87.12507,54.83974L2.31879,357.94312
	l15.04466,22.68063h40.64985c87.94795,0,159.48732-71.53912,159.48732-159.48677
	C217.50151,177.71414,186.67633,141.3401,145.78905,136.52158z"/>
<path class="st4" d="M163.12651,203.90559c0-7.5137-6.08003-13.5937-13.59375-13.5937s-13.59375,6.08-13.59375,13.5937
	c0,45.55977-24.26665,88.42525-63.336,111.86894L2.31879,357.94312l-1.60134,4.73239
	c-1.40741,4.14157-0.71684,8.72171,1.83153,12.27963c2.54928,3.55792,6.66547,5.66858,11.04628,5.66858h3.76819l69.23116-41.53781
	C133.80118,310.75757,163.12651,258.95737,163.12651,203.90559z"/>
<rect x="231.09438" y="0" class="st8" width="67.96875" height="81.56223"/>
<path class="st3" d="M244.68903,40.78112c0,7.61157-5.98033,13.5937-13.59375,13.5937V27.18741
	C238.70778,27.18741,244.68903,33.16774,244.68903,40.78112z"/>
</svg>
