<?xml version="1.0" encoding="utf-8"?>
<!-- Generator: Adobe Illustrator 22.1.0, SVG Export Plug-In . SVG Version: 6.00 Build 0)  -->
<svg version="1.1" id="Layer_1" xmlns="http://www.w3.org/2000/svg" xmlns:xlink="http://www.w3.org/1999/xlink" x="0px" y="0px"
	 viewBox="0 0 464 464" style="enable-background:new 0 0 464 464;" xml:space="preserve">
<style type="text/css">
	.st0{fill:#E9EFF4;}
	.st1{fill:#D3DCE2;}
	.st2{fill:#F79B77;}
	.st3{fill:#F28361;}
	.st4{fill:#725151;}
	.st5{fill:#633B3B;}
</style>
<path class="st0" d="M353.4422,6.84229c-16.88342-0.78119-34.4465,8.63745-44.21494,22.38976
	c-40.50024,50.86136-50.35114,132.8614-52.74545,169.34059c-0.17126,2.60274-2.49852,4.50949-5.08495,4.18053
	c-7.16661-0.91168-14.49815-1.38565-21.95839-1.38565c-5.84077,0-11.60088,0.29271-17.26492,0.8564
	c-2.54565,0.25375-4.79677-1.63849-4.96715-4.18958c-2.45595-36.73567-12.40292-118.18652-52.7092-168.80229
	c-9.76936-13.75231-27.33245-23.17095-44.21494-22.38976C83.27245,8.09291,71.86459,36.8962,73.45415,60.63536
	c4.16512,62.21393,48.45708,126.59378,72.19715,156.96396c1.68562,2.15596,1.08569,5.28162-1.26149,6.68813
	c-38.57898,23.11385-63.82433,61.52246-63.82433,104.99878c0,70.64658,66.65182,127.91782,148.87207,127.91782
	s148.87207-57.27124,148.87207-127.91782c0-42.27283-23.86786-79.75162-60.65247-103.04129
	c-2.28009-1.44365-2.83383-4.52399-1.15997-6.64008c23.29691-29.46846,69.51465-95.35361,73.7731-158.9686
	C391.85898,36.8962,380.45111,8.09291,353.4422,6.84229z"/>
<path class="st1" d="M316.49265,219.60486c-1.66748,2.11156-1.11469,5.19189,1.16,6.64189
	c36.78821,23.28694,60.65518,60.76393,60.65518,103.04311c0,70.64023-66.65366,127.91599-148.86575,127.91599
	c-8.29128,0-16.42757-0.58002-24.34726-1.70374c70.64023-9.98505,124.52753-62.69424,124.52753-126.21225
	c0-17.38635-4.15875-34.61053-11.88727-50.17352c-7.92783-15.96268-20.22382-27.07054-32.93304-38.85448
	c-13.13788-12.16547-9.21472-30.48981-0.22928-43.83704c10.47351-15.55847,20.55554-30.50612,29.24915-47.269
	c14.229-27.43575,25.68036-57.43075,27.76111-88.52139c1.10562-16.5635-4.11346-35.59198-16.54535-46.01202
	c8.5994-5.26439,18.6116-8.23689,28.40634-7.78376c27.00256,1.25062,38.41949,30.05572,36.82446,53.79579
	C386.01004,124.25488,339.79773,190.13821,316.49265,219.60486z"/>
<path class="st2" d="M316.27246,71.68343c5.00159-7.43124,13.70517-12.72554,21.88495-12.6331
	c13.08624,0.14772,18.07968,15.10896,16.85895,27.646c-3.63678,37.36189-32.51166,77.18333-42.31366,89.75117
	c-1.88498,2.41606-5.1239,3.3078-7.98132,2.20128l-6.47968-2.51122l-0.28183-0.10965l-6.47968-2.51122
	c-2.85742-1.10744-4.64905-3.94852-4.41434-7.00439C288.29022,150.62308,293.78571,101.74096,316.27246,71.68343z"/>
<path class="st3" d="M355.02087,86.69634c-3.64221,37.35917-32.51163,77.18243-42.31543,89.75028
	c-1.88498,2.41968-5.12845,3.3069-7.98312,2.20218l-6.47876-2.51031l-1.40466-0.54375
	c10.37473-13.43785,38.09323-52.3458,41.65387-88.89841c0.96063-9.84004-1.91217-21.17631-9.51376-25.65226
	c2.98157-1.305,6.11627-2.02999,9.17938-1.99374C351.24274,59.19534,356.23526,74.15568,355.02087,86.69634z"/>
<path class="st2" d="M147.15387,71.68343c-5.00067-7.43124-13.70518-12.72554-21.88498-12.6331
	c-13.08623,0.14772-18.07964,15.10896-16.85893,27.646c3.63678,37.36189,32.51166,77.18333,42.31364,89.75117
	c1.88499,2.41606,5.12393,3.3078,7.98132,2.20128l6.47968-2.51122l0.28185-0.10965l6.47966-2.51122
	c2.85741-1.10744,4.64906-3.94852,4.41434-7.00439C175.13609,150.62308,169.64059,101.74096,147.15387,71.68343z"/>
<path class="st3" d="M176.36224,166.51595c0.23563,3.05316-1.55875,5.89877-4.41252,7.00439l-6.48782,2.51031l-0.28094,0.10875
	l-1.94843,0.75218c0.01813-0.28093,0.00906-0.57094-0.00905-0.86093c-1.22345-15.89287-6.72346-64.7777-29.21291-94.83342
	c-4.99252-7.43032-13.70066-12.72191-21.88227-12.63129c-0.28999,0-0.57093,0.00906-0.8428,0.03625
	c2.70968-5.52721,7.28532-9.47754,13.98159-9.55005c8.18253-0.09063,16.88974,5.20095,21.88226,12.63129
	C169.63878,101.73734,175.13881,150.62216,176.36224,166.51595z"/>
<path class="st4" d="M231.43222,369.17114c6.86847-0.90808,12.79984-7.17841,16.45201-12.673
	c1.85056-2.7858,4.76143-6.34009,4.60284-9.89261c-0.13684-3.07397-3.83615-3.87241-6.26126-4.27295
	c-4.87833-0.80658-9.95149-1.31769-14.97304-1.3476h-3.63042c-5.02061,0.02991-10.0947,0.54102-14.97304,1.3476
	c-2.42511,0.40054-6.12442,1.19986-6.26126,4.27295c-0.1586,3.55252,2.75317,7.10681,4.60283,9.89261
	c3.4818,5.23813,8.44441,9.88898,14.44922,12.02866C227.49185,369.25815,229.50009,369.42758,231.43222,369.17114z"/>
<path class="st5" d="M252.48526,346.60556c0.16312,3.55161-2.74594,7.10406-4.60284,9.89441
	c-3.65128,5.49097-9.57722,11.76129-16.44569,12.66754c-1.93936,0.26282-3.94127,0.09064-5.99846-0.64343
	c-0.30812-0.10873-0.60718-0.22656-0.90625-0.34439c5.30971-2.16592,9.83099-7.18561,12.82159-11.67972
	c1.84875-2.79123,4.76596-6.3428,4.60284-9.89441c-0.13593-3.0722-3.83252-3.86877-6.26126-4.27658
	c-3.76001-0.62531-7.63876-1.06937-11.5166-1.24155c1.15094-0.06345,2.2928-0.09064,3.44283-0.09967h3.63315
	c5.0197,0.02719,10.09378,0.53467,14.96941,1.34125C248.65184,342.73679,252.34932,343.53427,252.48526,346.60556z"/>
<circle cx="168.7253" cy="317.30383" r="14.44831"/>
<circle cx="290.14529" cy="317.30383" r="14.44831"/>
<path d="M382.61978,13.81497c-7.56989-8.47886-17.55042-13.23666-28.8631-13.76138
	c-18.53458-0.85006-38.60257,9.21564-49.95874,25.08766c-41.09656,51.74314-51.38155,134.74821-53.93265,170.58307
	c-11.88-1.3476-24.06178-1.51434-36.03876-0.4785c-5.64865-79.22784-26.97266-126.89466-39.25957-148.35371
	c-1.86687-3.25706-6.0193-4.38533-9.27364-2.52028c-3.25705,1.86506-4.38535,6.01749-2.52118,9.27364
	c11.82744,20.65339,32.4464,66.93275,37.65369,144.842c0.20662,3.08214,1.61856,5.87883,3.97481,7.87437
	c2.32907,1.9711,5.40849,2.9281,8.44624,2.62541c12.49081-1.24428,25.31241-1.06755,37.69447,0.50841
	c3.08485,0.39151,6.235-0.51657,8.63475-2.4949c2.39612-1.97472,3.88507-4.88377,4.08807-7.98315
	c2.17682-33.14783,11.5311-115.63362,51.28186-165.55247c0.07703-0.09697,0.15225-0.19666,0.22385-0.29816
	c8.76706-12.34128,24.18231-20.19302,38.3606-19.53599c7.6886,0.35616,14.19998,3.46277,19.35382,9.23467
	c7.7493,8.68004,11.96698,22.97792,11.00635,37.31567c-4.20679,62.83653-51.97873,129.47383-72.32312,155.20857
	c-1.98285,2.5085-2.81207,5.75195-2.27557,8.90298c0.54013,3.16643,2.40973,5.97127,5.13116,7.69495
	c11.83832,7.49559,22.20761,16.46924,30.82062,26.67267c1.34396,1.5932,3.26428,2.41336,5.19641,2.41336
	c1.54788,0,3.1048-0.52655,4.37991-1.60318c2.86829-2.42148,3.22986-6.70894,0.81018-9.57631
	c-8.99722-10.65837-19.70181-20.08427-31.85007-28.04565c11.94708-15.27754,28.62659-38.52643,43.13922-65.72293
	c18.33884-34.36492,28.61118-66.33917,30.53241-95.0337C398.2453,43.23721,392.71719,25.12222,382.61978,13.81497z"/>
<path d="M371.46567,290.25052c-3.58966,1.09567-5.61148,4.89374-4.51492,8.48431c3.02777,9.91888,4.56296,20.19846,4.56296,30.55142
	c0,66.78683-63.73553,121.12186-142.07614,121.12186S87.36234,396.07309,87.36234,329.28625
	c0-39.39188,22.62448-76.46376,60.51925-99.16891c2.79668-1.67474,4.74059-4.4687,5.33598-7.66595
	c0.5927-3.18637-0.21297-6.48058-2.21124-9.03891C93.42332,139.75081,81.94933,85.79099,80.2347,60.18133
	c-0.96062-14.33775,3.25797-28.63563,11.00639-37.31567c5.15383-5.77189,11.66523-8.87942,19.35384-9.23467
	c7.38502-0.34075,15.447,1.69287,22.7142,5.72749c3.28152,1.82156,7.41945,0.6389,9.2392-2.64353
	c1.82246-3.28062,0.6389-7.41855-2.64262-9.2401c-9.57812-5.31877-19.9284-7.88255-29.94061-7.42217
	C98.65237,0.57649,88.67005,5.3352,81.10198,13.81406C71.00728,25.12222,65.47826,43.23721,66.6727,61.08939
	c1.885,28.15532,11.81838,59.48974,29.52465,93.1342c14.20544,26.98988,30.6928,50.23152,42.53837,65.55255
	c-40.72859,25.2961-64.96529,66.06004-64.96529,109.51009C73.77043,403.56778,143.60226,464,229.43755,464
	s155.66713-60.43222,155.66713-134.71378c0-11.69965-1.73456-23.31323-5.15564-34.5199
	C378.85431,291.1749,375.0535,289.15668,371.46567,290.25052z"/>
<path d="M302.26636,184.98619c1.64124,0.63618,3.33499,0.94341,5.0061,0.94341c4.12979,0,8.11636-1.87503,10.78796-5.30064
	c11.89996-15.25668,39.98187-54.88692,43.71924-93.27286c1.06573-10.94839-1.78894-21.37477-7.63513-27.8916
	c-4.16785-4.64452-9.66968-7.13761-15.91101-7.2083c-0.09604-0.0009-0.19211-0.00181-0.28909-0.00181
	c-10.15631,0-20.79294,6.05011-27.2128,15.49049c-23.02414,30.88947-28.95914,78.98405-30.44269,98.24816
	c-0.46945,6.08546,3.03955,11.65707,8.73441,13.86288L302.26636,184.98619z M321.71356,75.75521
	c0.06705-0.09063,0.13229-0.18307,0.19574-0.27641c3.82983-5.68943,10.40283-9.63251,16.03424-9.63251
	c0.04623,0,0.09155,0,0.13593,0.00091c2.4342,0.02718,4.32281,0.88359,5.94772,2.69427
	c3.19724,3.56427,4.89462,10.59676,4.22311,17.49874c-3.48633,35.81673-32.19354,75.05727-40.90802,86.23042
	c-0.03989,0.05075-0.10242,0.06888-0.16766,0.0435l-13.24118-5.13026c-0.06253-0.02446-0.09787-0.07974-0.09427-0.1459
	C294.9303,152.90773,300.15482,104.57208,321.71356,75.75521z"/>
<path d="M125.19186,52.25529c-6.24224,0.07069-11.74407,2.56377-15.9119,7.2092c-5.8453,6.51593-8.70089,16.94321-7.63515,27.89069
	c3.73647,38.38594,31.81929,78.01617,43.72012,93.27377c2.67343,3.42471,6.66002,5.29974,10.78798,5.29974
	c1.67203,0,3.36581-0.30722,5.00612-0.94341l13.24028-5.13026c5.69215-2.20581,9.20206-7.7765,8.73624-13.86378
	c-1.48535-19.26593-7.42126-67.36233-30.44359-98.24817c-6.42078-9.44038-17.05469-15.4905-27.21191-15.4905
	C125.3858,52.25348,125.28882,52.25438,125.19186,52.25529z M141.5161,75.4779c0.06253,0.09425,0.12869,0.18668,0.19576,0.27641
	c21.55602,28.81416,26.78506,77.15253,27.87347,91.28001c0.00453,0.06615-0.03081,0.12234-0.09425,0.14771l-13.24118,5.13028
	c-0.06073,0.02538-0.12779,0.00723-0.16766-0.0435c-8.71538-11.17314-37.42261-50.41278-40.90803-86.23042
	c-0.67153-6.90108,1.02587-13.93356,4.22401-17.49783c1.62401-1.81159,3.51353-2.66709,5.94771-2.69518
	c0.04622,0,0.09063-0.00091,0.13593-0.00091C131.11328,65.84447,137.68719,69.78938,141.5161,75.4779z"/>
<path d="M204.38705,388.30383c-3.75368,0-6.79594,3.04318-6.79594,6.79596c0,3.75275,3.04227,6.79593,6.79594,6.79593
	c9.57089,0,17.29211-2.91266,22.94801-8.65555c0.76669-0.77847,1.46361-1.58231,2.10341-2.40063
	c0.64072,0.81833,1.33672,1.62219,2.10339,2.40063c5.65498,5.74289,13.37624,8.65555,22.94713,8.65555
	c3.75368,0,6.79594-3.04318,6.79594-6.79593c0-3.75278-3.04227-6.79596-6.79594-6.79596
	c-5.75285,0-10.19167-1.52521-13.19588-4.53122c-2.71242-2.71515-3.96484-6.26398-4.54936-8.96732
	c8.01848-2.89185,13.82753-10.07205,16.80093-14.54712c0.24921-0.37518,0.52019-0.76578,0.7993-1.16907
	c2.18222-3.15192,5.16925-7.4693,4.93179-12.78714c-0.32263-7.24545-6.6718-9.80377-11.94164-10.67468
	c-5.59337-0.92526-10.99008-1.40921-16.08138-1.43915h-3.6712c-5.05142,0.02991-10.44814,0.51385-16.04059,1.43915
	c-9.54732,1.57779-11.76401,6.67633-11.94252,10.6756c-0.23744,5.31787,2.75046,9.63434,4.93179,12.78714
	c0.27913,0.40329,0.54919,0.79297,0.80022,1.17087c4.44788,6.69174,10.40192,11.72867,16.8544,14.29605
	c-0.56004,2.73145-1.80977,6.41806-4.60283,9.21567C214.57962,386.77951,210.13992,388.30383,204.38705,388.30383z
	 M216.65222,352.73721c-0.29454-0.44403-0.61444-0.90622-0.94432-1.38293c-0.4341-0.62802-1.0576-1.52792-1.57687-2.37888
	c4.75417-0.76849,9.30354-1.17087,13.49222-1.19534h3.59146c4.22583,0.02448,8.77609,0.42685,13.52936,1.19534
	c-0.51837,0.85458-1.14096,1.75266-1.57416,2.37979c-0.32988,0.47668-0.64978,0.93979-0.94339,1.38113
	c-3.66487,5.51361-8.14174,9.22922-11.68335,9.69772c-0.0009,0-0.0009,0-0.0009,0c-0.95882,0.12598-1.88228,0.02539-2.82117-0.30902
	C223.64029,360.67145,219.70898,357.33734,216.65222,352.73721z"/>
</svg>
