<?xml version="1.0" encoding="utf-8"?>
<!-- Generator: Adobe Illustrator 22.1.0, SVG Export Plug-In . SVG Version: 6.00 Build 0)  -->
<svg version="1.1" id="Layer_1" xmlns="http://www.w3.org/2000/svg" xmlns:xlink="http://www.w3.org/1999/xlink" x="0px" y="0px"
	 viewBox="0 0 464 464" style="enable-background:new 0 0 464 464;" xml:space="preserve">
<style type="text/css">
	.st0{fill:#324D5B;}
	.st1{fill:#E2574C;}
	.st2{fill:#BF392B;}
	.st3{fill:#2B414D;}
	.st4{fill:#FFFFFF;}
	.st5{fill:#EFC75E;}
	.st6{fill:#A78B42;}
</style>
<path class="st0" d="M209.52498,371.9249c-3.26286-3.26285-8.33708-3.26285-11.23729,0c-3.26286,3.26288-3.26286,8.3371,0,11.23727
	l56.91264,56.55002c3.26286,3.26288,8.33708,3.26288,11.23729,0c3.26285-3.26288,3.26285-8.3371,0-11.23727L209.52498,371.9249z
	 M320.0874,428.47491l-56.91263-56.55002c-3.26288-3.26285-8.3371-3.26285-11.23727,0c-3.26288,3.26288-3.26288,8.3371,0,11.23727
	l56.91263,56.55002c3.26288,3.26288,8.3371,3.26288,11.23727,0C323.35028,436.8129,323.35028,431.73776,320.0874,428.47491z"/>
<path class="st1" d="M352.34964,153.33759c5.07513-10.15028,6.52475-21.75021,6.52475-33.71279
	C358.87534,53.28715,304.86292,0,238.52525,0h-2.17493c0.36264,2.90021,0,6.52479,0,9.425
	c0,30.08729-9.78766,57.99965-27.91237,79.02458c-77.2123,9.425-139.56273,72.86244-139.56273,152.24966
	c0,44.22479,17.40035,82.65009,47.125,110.56244v112.73737l73.95036-73.2251c10.51292,2.17493,23.56252,4.71249,34.7998,4.71249
	c85.91293,0,155.87515-68.14993,155.87515-153.70023C380.62463,209.8876,369.02469,177.98711,352.34964,153.33759z"/>
<path class="st2" d="M353.07489,151.52531c3.26288-10.87466,9.06238-19.93794,9.06238-31.53786
	c0-12.68786-5.43777-24.65043-9.06238-36.25035h-1.08792c-14.13748,0-27.54971,1.08792-38.78793,7.97536
	c3.62457,4.7125,5.80045,10.87465,5.80045,17.40035c0,15.94979-13.04959,29.00029-29.00031,29.00029
	c-3.98721,0-7.6127-0.72528-10.87463-2.17494v20.29967c0,39.87492,32.62485,72.49979,72.49979,72.49979
	c10.1503,0,19.9379-0.72528,28.63763-4.34985C380.62463,200.09996,369.38736,171.46231,353.07489,151.52531z M65.24974,239.61224
	c0,32.98752,10.87465,68.87521,29.00028,93.88739c77.57493-14.13748,137.75043-79.0246,137.75043-157.68745
	c0-32.9875-5.80042-63.80008-23.92514-88.81223C122.88768,96.42494,65.24974,160.9503,65.24974,239.61224z M142.82468,372.28757
	L115.99932,464l76.84965-72.49982C174.72517,387.51297,157.68745,381.71255,142.82468,372.28757z"/>
<path class="st3" d="M271.8754,110.56245c0,10.87465,9.06238,19.93792,19.93793,19.93792
	c10.87466,0,19.93793-9.06235,19.93793-19.93792s-9.06238-19.93793-19.93793-19.93793
	C280.93774,90.62543,271.8754,99.6878,271.8754,110.56245z"/>
<path class="st4" d="M282.75006,106.93787c0,2.90022,2.53757,5.43778,5.43777,5.43778s5.43777-2.53757,5.43777-5.43778
	s-2.53757-5.43778-5.43777-5.43778S282.75006,104.03765,282.75006,106.93787z"/>
<path class="st5" d="M398.75027,144.99959c-3.26288-15.58714-10.87466-29.00028-38.78793-29.00028
	c-26.82535,0-36.97473,15.22543-36.97473,34.07543c0,2.53757-0.72528,6.88744,0,9.425c6.88745-0.36264,13.41223,0,19.93793,0
	C362.86255,159.49974,383.88748,155.14987,398.75027,144.99959z"/>
<path class="st6" d="M322.98761,159.49974c6.52478-0.36264,13.04959,0,19.57529,0c19.93793,0,40.60022-4.34985,55.4621-14.1375
	c-5.80045-4.71249-15.22543-7.61272-23.56253-7.61272C354.88721,137.75044,337.8504,147.53716,322.98761,159.49974z"/>
</svg>
