<?xml version="1.0" encoding="utf-8"?>
<!-- Generator: Adobe Illustrator 22.1.0, SVG Export Plug-In . SVG Version: 6.00 Build 0)  -->
<svg version="1.1" id="Layer_1" xmlns="http://www.w3.org/2000/svg" xmlns:xlink="http://www.w3.org/1999/xlink" x="0px" y="0px"
	 viewBox="0 0 464 464" style="enable-background:new 0 0 464 464;" xml:space="preserve">
<style type="text/css">
	.st0{fill:#EDA751;}
	.st1{fill:#FCD79D;}
	.st2{opacity:0.2;fill:#A35F00;enable-background:new    ;}
	.st3{fill:#FCD690;}
	.st4{opacity:0.15;fill:#C17A00;enable-background:new    ;}
	.st5{fill:#FF91AB;}
	.st6{fill:#FFDC9C;}
</style>
<path class="st0" d="M25.13498,427.14603c-3.84377,0-7.65335-1.83722-10.26964-5.38202
	c-4.61621-6.25473-3.76399-15.45343,1.90347-20.54721c22.84081-20.52783,61.29781-24.87274,108.2858-12.2366
	c26.27338,7.06641,49.83575-8.07742,57.29884-36.82394c2.01393-7.75433,9.3429-12.23663,16.36847-10.01822
	c7.02733,2.22131,11.09206,10.30746,9.07898,18.06177c-11.40331,43.92422-48.83887,67.96207-89.01259,57.15927
	c-38.18256-10.26877-69.27468-7.89749-85.30121,6.50528C31.03039,426.0712,28.07216,427.14603,25.13498,427.14603z"/>
<path class="st1" d="M28.03358,393.11325c-4.08576,2.34128-7.85325,5.0386-11.26477,8.10547
	c-5.66746,5.09375-6.51968,14.29248-1.90347,20.54721c2.61629,3.5448,6.42674,5.38202,10.26964,5.38202
	c2.93806,0,5.89542-1.07486,8.35038-3.28165c2.45496-2.20682,5.26677-4.12723,8.40036-5.76712
	C39.8025,406.17899,32.92247,397.43979,28.03358,393.11325z"/>
<g>
	<path class="st0" d="M120.15783,345.01822c-16.92434,0-35.11211-3.58353-52.21619-14.69781
		c-10.07762-6.54886-13.43654-20.87228-7.50166-31.9924c5.93487-11.12012,18.91549-14.82556,28.99312-8.27768
		c22.61109,14.69397,52.13202,6.45013,71.66652,0.99551c2.58823-0.72272,4.99323-1.39316,7.1869-1.96396
		c11.38315-2.9566,22.78557,4.82281,25.46849,17.38351s-4.36983,25.1427-15.75471,28.10318
		c-1.98764,0.5166-4.16731,1.12711-6.5118,1.78207C158.92522,339.86063,140.45161,345.01822,120.15783,345.01822z"/>
	<path class="st0" d="M342.43109,339.00638c-8.93692,0-17.745-1.62051-26.15936-6.43854
		c-10.38098-5.94418-14.42993-20.048-9.04391-31.50287c5.3869-11.45389,18.1676-15.92267,28.54947-9.97949
		c4.61884,2.6441,16.36407,0.45276,27.7218-1.66693c19.09872-3.56516,42.86542-8.00296,69.03885,0.65594
		c11.20337,3.70639,17.56262,16.73148,14.20374,29.09192c-3.35892,12.36234-15.16205,19.37848-26.36545,15.67307
		c-16.69901-5.52524-33.53305-2.38095-49.81296,0.65689C361.24664,337.23685,351.76785,339.00638,342.43109,339.00638z"/>
</g>
<g>
	<path class="st2" d="M365.61472,336.40869c-0.6532-15.26767-2.01572-29.60565-3.21512-42.21182
		c-0.14554-1.52765-0.2876-3.02432-0.42612-4.4939c-10.86935,2.02106-21.7843,3.9086-26.19708,1.38348
		c-10.38275-5.94415-23.16257-1.47537-28.54947,9.97949s-1.33707,25.55869,9.04391,31.50287
		c8.41525,4.81802,17.22333,6.43851,26.15936,6.43851C350.11951,339.00638,357.9035,337.8028,365.61472,336.40869z"/>
	<path class="st2" d="M198.72105,342.13998c-7.02557-2.21939-14.35452,2.26389-16.36847,10.01819
		c-6.20406,23.89853-23.53873,38.38159-44.3042,38.53156c-1.03021,9.88953-2.36115,19.67838-4.07173,29.12769
		c34.10909,1.88367,63.87376-21.29407,73.82251-59.61566C209.81311,352.4465,205.74838,344.36133,198.72105,342.13998z"/>
	<path class="st2" d="M193.75587,306.46637c-2.68292-12.5607-14.08621-20.34109-25.46936-17.38354
		c-2.19368,0.57083-4.59866,1.24127-7.1869,1.96399c-5.86298,1.63693-12.62904,3.52255-19.83524,4.96603
		c0.16922,13.81165,0.2411,30.07388-0.24724,47.33456c11.87238-1.81015,22.3954-4.73962,30.47134-6.99484
		c2.34537-0.65497,4.52502-1.2645,6.5118-1.78113C189.38516,331.61005,196.4388,319.02707,193.75587,306.46637z"/>
</g>
<path class="st3" d="M157.92482,265.76093c0,32.10074,3.59477,104.6709-8.53363,164.44037
	c-1.01003,4.97672,0.30951,10.18167,3.4545,13.92001l1.65973,1.97269c5.27817,6.2731,13.66098,7.98166,20.62169,4.20367
	l5.98836-3.2507c6.54337-3.55157,14.39487-2.27258,19.72826,3.2149l0.55237,0.56888
	c5.70604,5.87064,14.2388,6.88455,20.94524,2.48642l5.62274-3.68607c6.06813-3.97824,13.70569-3.56128,19.38808,1.05939
	l2.81181,2.28613c5.5377,4.50262,12.94728,5.0231,18.95757,1.33319l9.19736-5.64716
	c6.2619-3.84473,14.01346-3.10559,19.58447,1.86722l0,0c6.61612,5.90546,16.11771,5.72745,22.54709-0.42279l0,0
	c10.34766-9.89728,17.96771-22.83914,21.79742-37.34637c14.46237-54.77734,1.08194-118.07428,1.08194-146.99979H157.92482z"/>
<path class="st4" d="M149.3903,430.20227c-1.01003,4.97672,0.30951,10.18265,3.4545,13.92001l1.65973,1.97269
	c5.27818,6.2731,13.661,7.98163,20.6217,4.20367l5.98836-3.2507c6.54335-3.55157,14.39485-2.27258,19.72824,3.2149l0.55238,0.5679
	c2.78551,2.86566,6.24524,4.56454,9.8365,5.05121c-17.50038-39.29294-4.34441-129.70813,0.86626-160.10712V265.7619h-54.17316
	C157.92482,297.86264,161.51958,370.43182,149.3903,430.20227z"/>
<path class="st0" d="M190.14447,150.62683c19.11276-17.69604,31.87244-47.40231,4.91519-91.31686
	c-27.17032-44.26091-67.62373-55.35589-99.20596-51.2509c-7.78661,1.01198-14.31945,7.06158-16.57451,15.34702
	c-9.14825,33.60614-6.27068,79.4924,28.51264,116.7043C142.30423,177.03108,171.03258,168.32384,190.14447,150.62683z"/>
<path class="st5" d="M78.00875,28.54916c-7.49992,33.0421-3.25896,76.21171,29.78397,111.5622
	c29.91285,32.0011,55.47691,29.71399,74.20478,17.01689C169.11769,60.64507,112.85257,35.06122,78.00875,28.54916z"/>
<path class="st0" d="M309.02344,150.62683c-19.11276-17.69604-31.87244-47.40231-4.91516-91.31686
	c27.17032-44.26091,67.62369-55.35589,99.20593-51.2509c7.78662,1.01198,14.31943,7.06158,16.57449,15.34702
	c9.14822,33.60614,6.27069,79.4924-28.51263,116.7043C356.86365,177.03108,328.13531,168.32384,309.02344,150.62683z"/>
<path class="st5" d="M421.16,28.54916c7.49991,33.0421,3.25897,76.21171-29.78397,111.5622
	c-29.91284,32.0011-55.4769,29.71399-74.20477,17.01689C330.05109,60.64507,386.31534,35.06122,421.16,28.54916z"/>
<path class="st6" d="M415.86871,177.33585c0,83.89536-74.44766,120.63998-166.28432,120.63998
	S83.30007,261.23218,83.30007,177.33585S157.74771,25.43099,249.5844,25.43099S415.86871,93.44046,415.86871,177.33585z"/>
<path class="st4" d="M160.79625,48.8835c-46.56979,26.91993-77.49706,74.38318-77.49706,128.45139
	c0,72.11833,55.01572,109.39507,128.7979,118.438C106.18383,225.96587,119.99738,132.06488,160.79625,48.8835z"/>
<g>
	<ellipse class="st5" cx="180.33162" cy="180.87486" rx="30.1075" ry="26.45652"/>
	<ellipse class="st5" cx="343.52179" cy="180.87486" rx="30.10748" ry="26.45652"/>
	<ellipse class="st5" cx="261.92233" cy="165.85097" rx="20.2701" ry="22.36701"/>
</g>
<path d="M191.29916,142.74965v11.73254c0,4.00726,2.9442,7.25604,6.57579,7.25604s6.57579-3.24878,6.57579-7.25604v-11.73254
	c0-4.00728-2.9442-7.25604-6.57579-7.25604S191.29916,138.74237,191.29916,142.74965z M147.46317,224.41115
	c1.35637,0,2.72501-0.4615,3.89989-1.41832c5.66396-4.61292,21.86671-13.55721,29.48148-15.78819
	c3.50972-1.02843,5.59995-5.00183,4.66881-8.87463c-0.93201-3.8728-4.53204-6.17828-8.04263-5.15179
	c-9.37007,2.74474-27.05107,12.54521-33.91707,18.13916c-2.92227,2.37999-3.54214,6.92325-1.3853,10.14687
	C143.4572,223.39142,145.44746,224.41115,147.46317,224.41115z M172.18378,182.62695
	c3.60179,0.52824,6.90459-2.2697,7.38068-6.24312c0.47522-3.97244-2.05779-7.61884-5.65782-8.14418
	c-9.61119-1.40089-29.34207,0.22542-37.62143,2.51059c-3.52374,0.97134-5.66571,4.9109-4.78455,8.79916
	c0.74701,3.29716,3.42818,5.49815,6.37413,5.49815c0.52783,0,1.06441-0.07062,1.60011-0.21864
	C146.30406,182.94525,164.3726,181.48727,172.18378,182.62695z M288.76733,165.85677c0-16.33189-12.0416-29.61919-26.84152-29.61919
	c-14.80081,0-26.84239,13.28728-26.84239,29.61919s12.04161,29.61919,26.84239,29.61919
	C276.72665,195.47499,288.76733,182.18771,288.76733,165.85677z M248.23416,165.85677c0-8.32994,6.14178-15.10805,13.69168-15.10805
	c7.54898,0,13.6908,6.77715,13.6908,15.10805c0,8.32994-6.14182,15.10806-13.6908,15.10806
	C254.37682,180.96289,248.23416,174.18576,248.23416,165.85677z M332.55164,154.48221v-11.73254
	c0-4.00728-2.94421-7.25604-6.57581-7.25604s-6.57581,3.24876-6.57581,7.25604v11.73254c0,4.00726,2.94421,7.25604,6.57581,7.25604
	S332.55164,158.48947,332.55164,154.48221z M450.88873,297.93423c-3.51587-7.2009-9.36218-12.46008-16.46317-14.80911
	c-27.64462-9.14554-52.25302-4.55292-72.02335-0.86008c-1.90347,0.35504-3.82361,0.71106-5.71921,1.04776
	c4.85294-2.45447,9.47443-5.10339,13.83371-7.95358c33.97144-22.21028,51.92773-56.1057,51.92773-98.02339
	c0-18.60161-3.4343-36.70108-10.02148-53.69475c18.29123-30.14839,23.32654-67.19002,13.76358-102.32186
	c-3.01523-11.07853-11.69177-19.11146-22.10257-20.46495c-31.72778-4.12724-62.96191,6.82746-86.3761,30.11066
	c-21.24686-8.38025-44.32086-12.79096-68.12349-12.79096s-46.87665,4.41071-68.12347,12.79096
	C158.04846,7.68172,126.81256-3.27104,95.08566,0.85427C84.67399,2.20776,75.99745,10.24069,72.9831,21.31922
	c-9.56296,35.13088-4.52678,72.17154,13.76445,102.32089c-6.58719,16.99366-10.02151,35.09313-10.02151,53.69572
	c0,34.26886,11.58304,62.61969,34.42735,84.26204c10.63875,10.07913,23.49574,18.45648,38.42192,25.11075
	c-15.9406,4.10501-39.43021,8.3793-56.80434-2.91113c-13.18666-8.56793-30.23112-3.69962-37.99494,10.8483
	c-3.76223,7.04803-4.81085,15.29089-2.95385,23.20966c1.857,7.91974,6.39693,14.56628,12.7851,18.71674
	c16.03266,10.41873,34.72282,15.70114,55.55231,15.70114c9.80845,0,19.86678-1.09714,31.14033-3.41809
	c-0.36913,10.67993-0.96445,21.68204-1.88943,32.70251c-7.07469,2.35968-14.87534,2.50189-22.7961,0.3725
	c-49.03877-13.18762-89.522-8.33575-113.9971,13.66071c-4.1033,3.68802-6.65909,8.91721-7.19743,14.72592
	s1.00566,11.50131,4.34704,16.02811c3.77801,5.11984,9.38059,8.05615,15.36895,8.05615c4.53818,0,8.97903-1.74438,12.50366-4.91089
	c14.20284-12.76483,43.95699-14.66495,79.59166-5.08212c8.76158,2.35675,17.49161,3.21201,26.06207,2.57538
	c-0.10696,0.54279-0.20868,1.09131-0.31828,1.63214c-1.47824,7.28317,0.41034,14.92523,5.05196,20.44174l1.65974,1.97269
	c7.3114,8.68982,18.70155,11.01175,28.34343,5.77777l5.98836-3.24976c4.06911-2.20779,9.02725-1.39899,12.34145,2.01041
	l0.55237,0.56888c7.79189,8.01743,19.63095,9.42319,28.78796,3.41809l5.6236-3.6861
	c3.80519-2.49414,8.56607-2.23389,12.1284,0.66272l2.81181,2.28616c4.22517,3.43549,9.2675,5.18176,14.32996,5.18176
	c4.03055,0,8.07333-1.10776,11.72507-3.3494l9.19824-5.64716c3.93668-2.41867,8.74753-1.96008,12.25113,1.16776
	c9.10703,8.12872,22.1394,7.88489,30.99042-0.58148c7.07907-6.77133,12.935-14.76459,17.40482-23.75726
	c1.74655-3.51382,0.58041-7.92456-2.604-9.85178c-3.18533-1.92722-7.18167-0.64044-8.92819,2.87338
	c-3.71664,7.47858-8.59152,14.13092-14.48779,19.77032c-4.02789,3.8515-9.95926,3.96375-14.10553,0.26413
	c-7.69894-6.87195-18.26581-7.88007-26.91605-2.56577l-9.19821,5.64716c-3.74908,2.30258-8.40387,1.97461-11.85834-0.83298
	l-2.81181-2.28714c-7.82869-6.36499-18.28773-6.93579-26.64688-1.45602l-5.62361,3.68607
	c-4.16731,2.73407-9.55682,2.09262-13.10249-1.55472l-0.55237-0.56891c-7.28247-7.49405-18.17989-9.26935-27.11507-4.4194
	l-5.98836,3.24976c-4.38737,2.38385-9.57173,1.32736-12.89996-2.62958l-1.6606-1.97269
	c-1.69392-2.01331-2.38745-4.77835-1.85612-7.39728c0.77505-3.82056,1.48-7.69916,2.13318-11.61258
	c0.04384-0.20801,0.07715-0.41797,0.10434-0.6308c1.70795-10.33649,3.01697-20.93613,4.00685-31.54736
	c0.04034-0.26898,0.06577-0.5408,0.07805-0.81555c1.45193-15.8269,2.20772-31.64603,2.57069-46.6022
	c0.02544-0.30188,0.03157-0.60757,0.02191-0.9162c0.40157-17.31293,0.28145-33.42038,0.09996-46.98337
	c9.71201,3.29233,20.15173,5.96252,31.30078,7.99423c3.57986,0.65109,6.96683-2.02301,7.55952-5.97708
	c0.59183-3.95404-1.83333-7.68848-5.4167-8.34155c-13.77672-2.51059-26.33386-6.03897-37.66351-10.52899
	c-0.21919-0.10062-0.44365-0.19058-0.67424-0.26508c-15.94147-6.39984-29.40433-14.73654-40.20968-24.97337
	c-19.80278-18.76123-29.84271-43.40663-29.84271-73.25122c0-79.75944,71.6446-144.64978,159.70938-144.64978
	c88.06392,0,159.70851,64.88937,159.70851,144.64978c0,37.02905-15.30231,65.80846-45.47995,85.53813
	c-6.66962,4.36041-14.01257,8.22256-21.95615,11.58453c-0.11487,0.04645-0.22882,0.0929-0.34018,0.14511
	c-25.18704,10.58997-56.44574,16.11615-91.93224,16.11615c-7.14044,0-14.22037-0.22928-21.0443-0.68207
	c-3.6158-0.24088-6.74063,2.80762-6.95807,6.80811c-0.21744,4.00052,2.54439,7.43793,6.16985,7.67789
	c7.08607,0.47018,14.43167,0.70816,21.83252,0.70816c33.51286,0,63.58882-4.79285,88.81004-14.01773
	c0.1745,1.86435,0.35336,3.75671,0.53836,5.7052c2.56631,26.97025,6.08041,63.90836,0.34808,98.14627
	c-0.66022,3.94052,1.70004,7.72525,5.27115,8.45377c0.40417,0.08224,0.80576,0.12192,1.20206,0.12192
	c3.10901,0,5.8735-2.44382,6.45831-5.93933c2.92667-17.47931,3.59915-35.38144,3.2186-52.35962
	c5.62976-0.71497,11.17886-1.74725,16.2431-2.69247c15.53027-2.89951,31.59012-5.89673,46.81442-0.8591
	c14.65964,4.84799,30.15744-4.36523,34.55182-20.53946C455.16824,313.41574,454.4046,305.13513,450.88873,297.93423z
	 M145.86745,412.15021c-8.32584,1.09326-16.89102,0.48178-25.52372-1.84015c-40.20354-10.81149-73.37535-7.92261-91.01076,7.92847
	c-1.51945,1.36511-3.12219,1.65146-4.19886,1.65146c-2.01658,0-3.90076-0.98682-5.17121-2.70795
	c-1.12402-1.52185-1.64307-3.43552-1.46158-5.38788c0.18061-1.95236,1.03985-3.71024,2.41902-4.94958
	c21.2065-19.05923,57.63464-22.89813,102.57539-10.81345c8.31093,2.23486,16.5824,2.51349,24.39182,0.87073
	C147.30272,402.0256,146.6311,407.11743,145.86745,412.15021z M151.68219,333.99582
	c-11.62424,2.56281-21.74922,3.76636-31.52436,3.76636c-18.4508,0-34.89555-4.60709-48.87832-13.69458
	c-3.36067-2.18356-5.749-5.681-6.72572-9.84692c-0.97672-4.16693-0.42523-8.50314,1.55365-12.21146
	c4.08575-7.65463,13.05339-10.21555,19.99041-5.70712c21.31171,13.8494,47.78674,9.30322,65.67027,4.74448
	C151.86456,311.08801,151.88736,322.22458,151.68219,333.99582z M127.80943,64.33405
	c-14.24142,13.00961-25.7096,27.89708-34.14854,44.06161C79.58518,80.90588,80.30414,54.02368,83.0914,37.03292
	c13.96261,3.39196,31.59187,10.36938,47.68854,24.65314C129.78041,62.5568,128.78966,63.43914,127.80943,64.33405z
	 M141.76414,52.88787c-18.50692-17.47256-39.06285-25.86926-55.26385-29.88427c1.97976-4.22302,5.74023-7.16704,10.12321-7.73688
	c25.73766-3.34262,51.09392,4.56067,71.03087,21.83102C158.57977,41.60134,149.91814,46.8789,141.76414,52.88787z
	 M331.51266,37.09581c19.93692-17.27036,45.28879-25.17558,71.03174-21.83102c4.38385,0.57081,8.14435,3.51483,10.1232,7.73688
	c-16.20099,4.01501-36.75781,12.41268-55.26474,29.88427C349.2489,46.8789,340.58899,41.60134,331.51266,37.09581z
	 M405.50787,108.39567c-8.43982-16.16454-19.90887-31.05201-34.14941-44.06161c-0.98026-0.89492-1.97098-1.77725-2.96964-2.64798
	c16.09668-14.28473,33.72507-21.26312,47.68854-24.65314C418.86551,54.02369,419.58359,80.90588,405.50787,108.39567z
	 M440.44199,317.08344c-2.31204,8.50986-10.46866,13.35693-18.17813,10.80667c-18.16495-6.00995-35.76443-2.72534-52.79837,0.45276
	c-4.79416,0.8949-9.70148,1.8053-14.6044,2.4603c-0.63217-11.52164-1.61676-22.38055-2.53738-32.10947
	c3.96387-0.5708,8.16101-1.35349,12.27042-2.12067c18.42276-3.44034,41.35123-7.72046,66.05432,0.45181
	c3.7359,1.23547,6.81165,4.00241,8.66162,7.79108C441.16006,308.60449,441.56253,312.96198,440.44199,317.08344z M338.33743,198.33
	c-0.93198,3.8728,1.15823,7.84621,4.66885,8.87463c7.61386,2.23001,23.81665,11.17432,29.48148,15.78819
	c1.17487,0.95682,2.54352,1.41832,3.89987,1.41832c2.01657,0,4.00598-1.01973,5.29572-2.94693
	c2.15686-3.22458,1.53699-7.76688-1.38528-10.14687c-6.86777-5.59393-24.54788-15.39442-33.91794-18.13916
	C342.87036,192.15463,339.26944,194.45721,338.33743,198.33z M351.66702,182.62695
	c7.81116-1.13968,25.8797,0.31828,32.70978,2.20099c0.53568,0.14803,1.07138,0.21864,1.6001,0.21864
	c2.94595-0.00098,5.62714-2.20099,6.37415-5.49814c0.88116-3.88828-1.2608-7.82686-4.78455-8.79918
	c-8.28024-2.28421-28.01291-3.91148-37.62231-2.51059c-3.60092,0.52534-6.13391,4.17174-5.65784,8.1442
	C344.76245,180.35725,348.07138,183.15034,351.66702,182.62695z"/>
</svg>
