<?xml version="1.0" encoding="utf-8"?>
<!-- Generator: Adobe Illustrator 22.1.0, SVG Export Plug-In . SVG Version: 6.00 Build 0)  -->
<svg version="1.1" id="Layer_1" xmlns="http://www.w3.org/2000/svg" xmlns:xlink="http://www.w3.org/1999/xlink" x="0px" y="0px"
	 viewBox="0 0 464 464" style="enable-background:new 0 0 464 464;" xml:space="preserve">
<style type="text/css">
	.st0{fill:#2F3F4A;}
	.st1{fill:#804836;}
	.st2{fill:#3F5666;}
	.st3{fill:#B8674D;}
	.st4{fill:#91523D;}
</style>
<path class="st0" d="M395.92569,35.91155c0.35977-2.3635-1.47083-4.49318-3.86243-4.49318h-28.48795
	c-19.05661,0-36.37408,11.05805-44.36542,28.33025l-62.04907,134.10764h45.35959L354.6243,71.59148h35.86389L395.92569,35.91155z"/>
<path class="st1" d="M308.93936,413.37329l-2.58914,13.57108c-0.30539,1.61581-1.62399,2.77765-3.151,2.77765h-30.50705
	c-2.09799,0-3.73828-1.96475-3.53799-4.23581l1.70465-21.41376l10.71729-134.76285l40.30814-19.31761l-27.98044,148.56865
	c-0.08063,0.42773-0.08789,0.85641-0.0163,1.2742c0.15225,1.02133,0.72318,1.92938,1.58411,2.46317l11.89905,7.31885
	C308.58505,410.36996,309.22034,411.87979,308.93936,413.37329z"/>
<path class="st2" d="M308.93936,413.37329l-2.58914,13.57108c-0.30539,1.61581-1.62399,2.77765-3.151,2.77765h-30.50705
	c-2.09799,0-3.73828-1.96475-3.53799-4.23581l1.70465-21.41376l23.03052-4.23581c0.15225,1.02133,0.72318,1.92938,1.58411,2.46317
	l11.89905,7.31885C308.58505,410.36996,309.22034,411.87979,308.93936,413.37329z"/>
<path class="st1" d="M186.23872,285.99094l-37.1118,61.17633c-0.64888,1.07028-1.77171,1.76447-3.01962,1.8678l-19.15267,1.58231
	v47.27173c0,1.21075,0.62803,2.33633,1.65934,2.9725l14.19276,8.76163c0.8419,0.52017,1.42462,1.37207,1.60133,2.34445
	l2.79306,15.31198c0.39151,2.14511-1.25787,4.11893-3.43831,4.11893h-34.42114c-1.93304,0-3.49903-1.56509-3.49903-3.49722
	v-96.08414l10.85506-58.92612L186.23872,285.99094z"/>
<g>
	<path class="st2" d="M143.76283,431.39951h-34.42025c-1.93303,0-3.49902-1.56329-3.49902-3.49362v-24.06815l21.87684-3.77274
		c0.24559,0.31445,0.54285,0.57639,0.89174,0.7948l14.1964,8.75891c0.84009,0.5238,1.42644,1.3793,1.60043,2.349l2.79034,15.30927
		C147.59445,429.42569,145.94054,431.39951,143.76283,431.39951z"/>
	<path class="st2" d="M96.22464,213.14757h-16.3161c-24.05366,0-45.46379,15.22316-53.32913,37.91835L0.10697,322.00165
		c-0.34437,0.92258,0.17581,1.94119,1.12556,2.20581l0,0l0,0c18.40864,0,34.8779-11.42145,41.30502-28.642l17.00757-45.57074
		l23.40388-0.37971L96.22464,213.14757z"/>
</g>
<path class="st3" d="M464.00037,79.26469v21.05579c0,12.64579-10.52969,25.30157-23.02325,23.26522
	c-26.87119-4.37808-53.07901,12.78625-53.07901,12.78625s6.67545,95.11807-14.12662,133.41525
	c-11.80118,21.72549-18.73669,125.06415-18.73669,125.06415c0.05167,0.42773,0.18399,0.83826,0.37613,1.20529
	c0.23563,0.45496,0.56821,0.84735,0.97964,1.16092l18.15125,13.80759c1.10199,0.83829,1.60043,2.2439,1.2778,3.58966
	l-2.98245,12.4274c-0.3761,1.57233-1.77533,2.68069-3.40204,2.68069h-32.61047c-1.78439,0-3.3504-1.22253-3.76093-2.96979
	l-4.89828-23.69299l-1.40829-94.84256c-0.40237-1.69376-69.59357,6.15707-93.48048-18.35336
	c-42.89366-6.57031-86.84039,9.9343-87.22011,10.29227L94.9722,347.51703c-0.71684,0.66339-1.66206,1.03043-2.64172,1.03043
	H75.47426c-2.14328,0-3.87512,1.73816-3.87512,3.86877v47.3515c0,0.62894,0.15678,1.24066,0.44587,1.78079
	c0.25375,0.50656,0.62984,0.9606,1.10201,1.30954l8.96552,6.7153c0.70869,0.53287,1.22434,1.30136,1.43459,2.14871l3.3069,13.20404
	c0.60357,2.43692-1.23431,4.79407-3.75277,4.79407H51.2765c-2.13512,0-3.86605-1.72821-3.86605-3.85971v-99.01584
	c0-1.50165,0.86637-2.86465,2.22121-3.50174l11.03902-12.40927c1.35575-0.63708,2.22121-2.00009,2.22121-3.49359v-52.62589
	c0-31.47401,23.44194-58.03256,54.70571-61.99741l176.44215-15.87294l57.99902-124.99802h32.64035
	c6.70081,0,13.11252,2.67253,17.82681,7.40586l5.45834,5.49277c4.71521,4.73334,11.13507,7.3968,17.81866,7.3968h31.18494
	C460.85117,72.24307,464.00037,75.38685,464.00037,79.26469z"/>
<g>
	<path class="st4" d="M321.28885,161.58653l50.87317-109.63891h-20.12234l-57.18524,123.24532l8.12814-0.73135
		C310.94675,173.74385,317.92484,168.83652,321.28885,161.58653z"/>
	<path class="st4" d="M352.8399,426.75223l-4.89828-23.69299l-1.26782-82.39072c-0.07977-5.19281-4.36539-9.33163-9.56091-9.23465
		c-2.92807,0.05527-6.42078,0.11057-10.30768,0.10602l1.35846,91.51935l4.89828,23.69299
		c0.41052,1.74634,1.97745,2.96979,3.76093,2.96979h19.7789C354.81644,429.72202,353.25134,428.49948,352.8399,426.75223z"/>
	<path class="st4" d="M67.18842,425.8623v-99.01767c0-1.50165,0.86638-2.86465,2.22121-3.50174l11.03902-12.40927
		c1.35575-0.63708,2.22121-2.00009,2.22121-3.49359v-52.62589c0-27.49014,19.43632-54.00517,45.18648-62.91995l-10.25874,0.92346
		c-31.26286,3.96484-54.70572,30.52246-54.70572,61.99741v52.62589c0,1.4935-0.86637,2.85559-2.22121,3.49359l-11.03902,12.40927
		c-1.35574,0.63708-2.22121,2.00009-2.22121,3.50174v99.01767c0,2.13147,1.73093,3.85971,3.86606,3.85971h19.77888
		C68.91936,429.72202,67.18842,427.9938,67.18842,425.8623z"/>
</g>
<g>
	<path class="st2" d="M83.09943,429.72202H51.2765c-2.14328,0-3.86605-1.72913-3.86605-3.86877v-20.64523l24.63275-3.65945
		c0.25375,0.50659,0.62984,0.96063,1.10201,1.30954l8.96552,6.71533c0.70869,0.53287,1.22434,1.30136,1.43459,2.14871
		l3.30691,13.20404C87.45486,427.36395,85.6179,429.72202,83.09943,429.72202z"/>
	<path class="st2" d="M375.81873,414.61395l-2.98245,12.4274c-0.3761,1.57233-1.77533,2.68069-3.40204,2.68069h-32.61047
		c-1.78439,0-3.3504-1.22253-3.76093-2.96979l-4.89828-23.69299l27.24817-7.00439c0.23566,0.45496,0.56824,0.84735,0.97968,1.16092
		l18.15125,13.80759C375.64291,411.86258,376.14227,413.26907,375.81873,414.61395z"/>
</g>
<circle class="st1" cx="396.60629" cy="78.34303" r="7.32611"/>
<path class="st3" d="M352.03879,51.94672l5.6713-19.26504c1.97382-6.70352,8.12906-11.30636,15.12076-11.30636l0,0
	c1.68561,0,3.03595,1.39743,2.9761,3.08125l-0.97601,27.71762c-0.16132,4.582-2.6236,8.5568-6.25586,10.8333
	c-3.32864,2.08619-7.71942,1.16453-10.01678-2.02002L352.03879,51.94672z"/>
<path class="st4" d="M359.23441,45.68817l2.65439-10.00046c0.99686-3.75821,4.10892-6.33921,7.64328-6.33921l0,0
	c0.85187,0,1.53519,0.783,1.50439,1.72731l-0.49301,15.54036c-0.0834,2.63356-1.38928,4.90915-3.30148,6.16702
	c-1.6539,1.09022-3.79898,0.50388-4.92545-1.22615l-2.85559-4.39078C359.18457,46.7376,359.10025,46.19295,359.23441,45.68817z"/>
</svg>
