<?xml version="1.0" encoding="utf-8"?>
<!-- Generator: Adobe Illustrator 22.1.0, SVG Export Plug-In . SVG Version: 6.00 Build 0)  -->
<svg version="1.1" id="Layer_1" xmlns="http://www.w3.org/2000/svg" xmlns:xlink="http://www.w3.org/1999/xlink" x="0px" y="0px"
	 viewBox="0 0 464 464" style="enable-background:new 0 0 464 464;" xml:space="preserve">
<g>
	<g>
		<path d="M157.75662,203.89607c37.06282,0,67.20831-40.45485,67.20831-90.19387c0-49.73544-30.1467-90.2022-67.20831-90.2022
			c-37.05212,0-67.20118,40.46557-67.20118,90.2022C90.55544,163.44122,120.70451,203.89607,157.75662,203.89607z"/>
		<path d="M357.10037,291.63394c-1.37845-1.87799-2.69983-3.64896-3.40634-5.17136
			c-15.02756-32.1674-56.22101-70.09012-122.95834-71.03328l-2.56783-0.01427c-65.7121,0-106.5987,35.91508-122.95715,69.54065
			c-0.56495,1.15009-1.80782,2.64276-3.12445,4.22101c-1.55805,1.84946-3.09947,3.74173-4.41727,5.79816
			c-13.81917,21.49765-20.86493,45.70233-19.82542,68.14908c1.08945,23.83118,11.06699,42.97275,28.04628,53.89227
			c6.86022,4.40656,14.26279,6.62711,22.0293,6.62711c16.01472,0,30.67715-9.02014,47.66833-19.46747
			c10.80296-6.65802,21.96152-13.52777,34.35583-18.66934c1.38918-0.45792,7.08144-1.15726,16.39056-1.15726
			c11.06938,0,19.01904,0.9848,20.71747,1.57117c12.09935,5.3414,22.72508,12.3479,33.00233,19.11063
			c15.75543,10.38428,30.63196,20.18341,46.77274,20.18341c6.92682,0,13.64075-1.82803,19.97531-5.42703
			c34.94574-19.85394,41.6026-74.32544,14.84796-121.41928C360.30688,296.00482,358.70718,293.79855,357.10037,291.63394z"/>
		<path d="M300.66528,203.89607c37.04495,0,67.19763-40.45485,67.19763-90.19387c0-49.73544-30.15265-90.2022-67.1976-90.2022
			c-37.06641,0-67.2119,40.46557-67.2119,90.2022C233.4534,163.44122,263.59888,203.89607,300.66528,203.89607z"/>
		<path d="M411.03662,157.58124c-29.70425,0-52.95145,30.8056-52.95145,70.13295c0,39.30949,23.26151,70.11867,52.95145,70.11867
			c29.68762,0,52.96338-30.80914,52.96338-70.11867C464,188.38803,440.73849,157.58124,411.03662,157.58124z"/>
		<path d="M105.91006,227.71419c0-39.32617-23.26149-70.13295-52.95266-70.13295C23.26506,157.58124,0,188.38803,0,227.71419
			c0,39.30949,23.26506,70.11867,52.95741,70.11867S105.91006,267.02371,105.91006,227.71419z"/>
	</g>
</g>
</svg>
